<?xml version="1.0" encoding="UTF-8" standalone="no"?>
<!DOCTYPE svg PUBLIC "-//W3C//DTD SVG 1.1//EN" "http://www.w3.org/Graphics/SVG/1.1/DTD/svg11.dtd">
<svg version="1.1" xmlns="http://www.w3.org/2000/svg" xmlns:xlink="http://www.w3.org/1999/xlink" preserveAspectRatio="xMidYMid meet" viewBox="0 0 640 640" width="640" height="640"><defs><path d="M129.9 64.68C129.9 64.68 181.52 106.55 266.16 87.68C346.41 69.85 421.23 49.6 546.93 95C546.93 121.88 546.93 336.91 546.93 363.79C546.93 363.79 431.32 308.66 326.01 333.25C220.7 357.84 161.16 348.4 129.9 317.14" id="a1abcERVjJ"></path><path d="M133.43 46.91C133.43 46.91 133.43 46.91 133.43 46.91C133.43 402.76 133.43 600.46 133.43 640C133.43 640 133.43 640 133.43 640C121.43 640 114.76 640 113.43 640C113.43 640 113.43 640 113.43 640C113.43 284.14 113.43 86.44 113.43 46.91C113.43 46.91 113.43 46.91 113.43 46.91C125.43 46.91 132.09 46.91 133.43 46.91Z" id="eJzWiK2GL"></path><path d="M123.43 0C106.66 0 93.07 13.59 93.07 30.36C93.07 47.12 106.66 60.71 123.43 60.71C140.19 60.71 153.78 47.12 153.78 30.36C153.78 13.59 140.19 0 123.43 0Z" id="a1MNs8NVVf"></path></defs><g><g><g><use xlink:href="#a1abcERVjJ" opacity="1" fill="#f8d709" fill-opacity="0.9"></use><g><use xlink:href="#a1abcERVjJ" opacity="1" fill-opacity="0" stroke="#000000" stroke-width="1" stroke-opacity="0"></use></g></g><g><use xlink:href="#eJzWiK2GL" opacity="1" fill="#999999" fill-opacity="1"></use><g><use xlink:href="#eJzWiK2GL" opacity="1" fill-opacity="0" stroke="#000000" stroke-width="1" stroke-opacity="0"></use></g></g><g><use xlink:href="#a1MNs8NVVf" opacity="1" fill="#666666" fill-opacity="1"></use><g><use xlink:href="#a1MNs8NVVf" opacity="1" fill-opacity="0" stroke="#000000" stroke-width="1" stroke-opacity="0"></use></g></g></g></g></svg>