<svg id="Layer_5" enable-background="new 0 0 64 64" height="512" viewBox="0 0 64 64" width="512" xmlns="http://www.w3.org/2000/svg"><g><g><g><path d="m47 38c-3.86 0-7-3.14-7-7s3.14-7 7-7 7 3.14 7 7-3.14 7-7 7z" fill="#f0bc5e"/></g></g><g><g><path d="m17 23h-10c-1.103 0-2-.897-2-2v-2c0-1.103.897-2 2-2h10c1.103 0 2 .897 2 2v2c0 1.103-.897 2-2 2z" fill="#f0bc5e"/></g></g><g><path d="m5 50h16v8h-16z" fill="#f0bc5e"/></g><g><path d="m44 29h2v6h2v-6h2v-2h-6z"/><path d="m58.207 27.146c-3.12-2.674-7.1-4.146-11.207-4.146s-8.087 1.472-11.207 4.146l-1.646 1.411c-.729.625-1.147 1.535-1.147 2.495 0 .878.342 1.704.963 2.325l.58.58c3.252 3.252 7.576 5.043 12.175 5.043h.563c4.6 0 8.923-1.791 12.176-5.043l.58-.58c.621-.621.963-1.446.963-2.325 0-.96-.418-1.87-1.148-2.497zm.416 4.817-.58.58c-2.874 2.874-6.696 4.457-10.761 4.457h-.563c-4.065 0-7.887-1.583-10.762-4.458l-.58-.58c-.24-.239-.377-.571-.377-.91 0-.376.164-.733.45-.978l1.646-1.41c2.756-2.363 6.274-3.664 9.904-3.664s7.148 1.301 9.905 3.664l1.645 1.41c.286.246.45.602.45.979 0 .338-.137.67-.377.91z"/><path d="m59 17.101v-4.101c0-6.617-5.383-12-12-12s-12 5.383-12 12h-31c-1.654 0-3 1.346-3 3v44c0 1.654 1.346 3 3 3h48c1.654 0 3-1.346 3-3v-15h3c2.757 0 5-2.243 5-5v-18c0-2.414-1.721-4.434-4-4.899zm-12-14.101c5.514 0 10 4.486 10 10v4h-4v-4c0-3.309-2.691-6-6-6s-6 2.691-6 6v4h-4v-4c0-5.514 4.486-10 10-10zm4 14h-8v-4c0-2.206 1.794-4 4-4s4 1.794 4 4zm-47-2h31v2.101c-2.279.465-4 2.484-4 4.899v3h-28v-9c0-.551.449-1 1-1zm14.96 24.666c.639-.709 1.04-1.638 1.04-2.666 0-2.206-1.794-4-4-4s-4 1.794-4 4c0 1.028.401 1.957 1.04 2.666-2.093.982-3.619 2.966-3.96 5.334h-2.08v-14h18v14h-2.08c-.341-2.368-1.867-4.352-3.96-5.334zm-4.96-2.666c0-1.103.897-2 2-2s2 .897 2 2-.897 2-2 2-2-.897-2-2zm2 4c2.414 0 4.434 1.721 4.899 4h-9.798c.465-2.279 2.485-4 4.899-4zm17.382 16h-6.578l2.983-4.774c.481-.768 1.308-1.226 2.213-1.226s1.732.458 2.212 1.226l.865 1.384zm5.618-6.764c.381-.762 1.147-1.236 2-1.236s1.619.474 2 1.236l3.382 6.764h-10.764zm9.618 6.764-3.829-7.658c-.722-1.445-2.174-2.342-3.789-2.342s-3.067.897-3.789 2.342l-1.086 2.172-.217-.348c-.848-1.356-2.309-2.166-3.908-2.166s-3.06.81-3.908 2.166l-3.092 4.947v-9.113h2v-8h4v1c0 2.757 2.243 5 5 5h13v12zm4.382 3c0 .551-.449 1-1 1h-48c-.551 0-1-.449-1-1v-33h28v10h-4v-8h-22v18h18v12h28v-14h2zm8-28.948v8.948c0 1.654-1.346 3-3 3h-22c-1.654 0-3-1.346-3-3v-8.948-9.052c0-1.654 1.346-3 3-3h22c1.654 0 3 1.346 3 3z"/><path d="m9 17h2v6h-2z"/><path d="m13 17h2v6h-2z"/><path d="m5 49h16v2h-16z"/><path d="m5 53h12v2h-12z"/><path d="m19 53h2v2h-2z"/><path d="m5 57h16v2h-16z"/><circle cx="36" cy="22" r="1"/><circle cx="58" cy="22" r="1"/><circle cx="36" cy="40" r="1"/><circle cx="58" cy="40" r="1"/></g></g></svg>