<?xml version="1.0" encoding="UTF-8" standalone="no"?>
<!DOCTYPE svg PUBLIC "-//W3C//DTD SVG 1.1//EN" "http://www.w3.org/Graphics/SVG/1.1/DTD/svg11.dtd">
<svg version="1.1" xmlns="http://www.w3.org/2000/svg" xmlns:xlink="http://www.w3.org/1999/xlink" preserveAspectRatio="xMidYMid meet" viewBox="0 0 640 640" width="640" height="640"><defs><path d="M64.07 360.88C49 360.88 36.74 348.62 36.74 333.55C36.74 308.8 36.74 110.76 36.74 86C36.74 70.93 49 58.67 64.07 58.67C102.46 58.67 409.55 58.67 447.93 58.67C463 58.67 475.26 70.93 475.26 86C475.26 110.76 475.26 308.8 475.26 333.55C475.26 348.62 463 360.88 447.93 360.88C371.16 360.88 140.84 360.88 64.07 360.88Z" id="aegMGkS4m"></path><path d="M447.93 320.07C409.54 320.07 102.46 320.07 64.07 320.07C58.29 320.07 53.56 315.34 53.56 309.55C53.56 287.2 53.56 108.36 53.56 86C53.56 80.22 58.29 75.49 64.07 75.49C102.46 75.49 409.55 75.49 447.93 75.49C453.71 75.49 458.44 80.22 458.44 86C458.44 100.91 458.44 175.42 458.44 309.55C455.29 316.56 451.78 320.07 447.93 320.07Z" id="a2RvJqUmC"></path><path d="M74.89 86C74.89 80.22 79.62 75.49 85.4 75.49C83.27 75.49 66.2 75.49 64.07 75.49C58.29 75.49 53.56 80.22 53.56 86C53.56 108.36 53.56 287.2 53.56 309.56C53.56 315.34 58.29 320.07 64.07 320.07C66.2 320.07 83.27 320.07 85.4 320.07C79.62 320.07 74.89 315.34 74.89 309.55C74.89 264.84 74.89 108.36 74.89 86Z" id="h1pmSBja9"></path><path d="M437.11 86C437.11 80.22 432.38 75.49 426.6 75.49C428.73 75.49 445.8 75.49 447.93 75.49C453.71 75.49 458.44 80.22 458.44 86C458.44 108.36 458.44 287.2 458.44 309.56C458.44 315.34 453.71 320.07 447.93 320.07C445.8 320.07 428.73 320.07 426.6 320.07C432.38 320.07 437.11 315.34 437.11 309.55C437.11 264.84 437.11 108.36 437.11 86Z" id="dhjspIuYF"></path><path d="M193.5 360.88L318.5 360.88L318.5 398.92L193.5 398.92L193.5 360.88Z" id="i1sbH8CLvd"></path><path d="M256 331.48C251.03 331.48 247 335.51 247 340.48C247 345.45 251.03 349.48 256 349.48C260.97 349.48 265 345.45 265 340.48C265 335.51 260.97 331.48 256 331.48Z" id="b2Mai1VwP"></path><path d="M83.82 92.84C80.05 92.84 76.99 95.9 76.99 99.67C76.99 103.45 80.05 106.5 83.82 106.5C87.59 106.5 90.65 103.45 90.65 99.67C90.65 95.9 87.59 92.84 83.82 92.84Z" id="b6w2Z9XThC"></path><path d="M115.02 92.84C111.25 92.84 108.19 95.9 108.19 99.67C108.19 103.45 111.25 106.5 115.02 106.5C118.79 106.5 121.85 103.45 121.85 99.67C121.85 95.9 118.79 92.84 115.02 92.84Z" id="augOIZM0m"></path><path d="M146.22 92.84C142.44 92.84 139.39 95.9 139.39 99.67C139.39 103.45 142.44 106.5 146.22 106.5C149.99 106.5 153.05 103.45 153.05 99.67C153.05 95.9 149.99 92.84 146.22 92.84Z" id="d5blqzi9mK"></path><path d="M154.62 429.82C154.62 417.28 154.62 410.31 154.62 408.92C154.62 403.4 159.1 398.92 164.62 398.92C182.9 398.92 329.1 398.92 347.37 398.92C352.9 398.92 357.37 403.4 357.37 408.92C357.37 410.31 357.37 417.28 357.37 429.82L154.62 429.82Z" id="bF98YBOsT"></path><path d="M193.5 360.88L214.84 360.88L214.84 398.92L193.5 398.92L193.5 360.88Z" id="b1gJ2i0kz"></path><path d="M297.16 360.88L318.5 360.88L318.5 398.92L297.16 398.92L297.16 360.88Z" id="c1XlbqlYDx"></path><path d="M164.62 398.92C159.1 398.92 154.62 403.4 154.62 408.92C154.62 410.31 154.62 417.28 154.62 429.82L175.96 429.82C175.96 417.28 175.96 410.31 175.96 408.92C175.96 403.4 180.44 398.92 185.96 398.92C181.69 398.92 166.76 398.92 164.62 398.92Z" id="hep7cmTZk"></path><path d="M347.38 398.92C352.9 398.92 357.38 403.4 357.38 408.92C357.38 410.31 357.38 417.28 357.38 429.82L336.04 429.82C336.04 417.28 336.04 410.31 336.04 408.92C336.04 403.4 331.56 398.92 326.04 398.92C330.31 398.92 345.24 398.92 347.38 398.92Z" id="b3N5n5NwMx"></path><path d="M85.4 121.67L134.08 121.67L134.08 304.89L85.4 304.89L85.4 121.67Z" id="cE1Xt0nqk"></path><path d="M165.45 262.97C161.46 260.19 161.46 254.28 165.45 251.5C168.69 249.25 194.58 231.2 197.82 228.94C202.45 225.72 208.8 229.03 208.8 234.68C208.8 235.43 208.8 239.2 208.8 245.98C226.25 245.98 235.94 245.98 237.88 245.98C243.29 245.98 247.67 250.36 247.67 255.77C247.67 256.06 247.67 258.41 247.67 258.7C247.67 264.11 243.28 268.49 237.88 268.49C235.94 268.49 226.25 268.49 208.8 268.49C208.8 275.27 208.8 279.04 208.8 279.79C208.8 285.44 202.45 288.75 197.82 285.52C191.35 281.01 168.69 265.22 165.45 262.97Z" id="i1uymhe70N"></path><path d="M95.95 134.41L123.01 134.41L123.01 161.47L95.95 161.47L95.95 134.41Z" id="aXGWQLfBI"></path><path d="M95.95 202.24L121.85 202.24L121.85 288.24L95.95 288.24L95.95 202.24Z" id="a17Fk9bIw"></path><path d="M450.42 55.77L451.64 55.9L452.85 56.07L454.04 56.29L455.21 56.56L456.37 56.87L457.51 57.22L458.63 57.62L459.73 58.06L460.8 58.54L461.86 59.06L462.89 59.62L463.9 60.22L464.88 60.86L465.83 61.53L466.76 62.24L467.66 62.98L468.53 63.76L469.37 64.57L470.18 65.4L470.95 66.27L471.69 67.17L472.4 68.1L473.08 69.06L473.71 70.04L474.31 71.04L474.87 72.08L475.39 73.13L475.87 74.21L476.32 75.31L476.71 76.43L477.07 77.56L477.38 78.72L477.64 79.9L477.86 81.09L478.04 82.3L478.16 83.52L478.24 84.75L478.26 86L478.26 333.55L478.24 334.8L478.16 336.04L478.04 337.26L477.86 338.47L477.64 339.66L477.38 340.83L477.07 341.99L476.71 343.13L476.32 344.25L475.87 345.35L475.39 346.43L474.87 347.48L474.31 348.51L473.71 349.52L473.08 350.5L472.4 351.45L471.69 352.38L470.95 353.28L470.18 354.15L469.37 354.99L468.53 355.8L467.66 356.57L466.76 357.32L465.83 358.02L464.88 358.7L463.9 359.33L462.89 359.93L461.86 360.49L460.8 361.02L459.73 361.5L458.63 361.94L457.51 362.34L456.37 362.69L455.21 363L454.04 363.27L452.85 363.49L451.64 363.66L450.42 363.78L449.18 363.86L447.93 363.88L321.5 363.88L321.5 395.92L347.38 395.92L347.91 395.93L348.44 395.96L348.96 396.02L349.48 396.09L349.99 396.18L350.5 396.3L350.99 396.43L351.48 396.58L351.96 396.75L352.43 396.94L352.89 397.15L353.35 397.37L353.79 397.61L354.22 397.87L354.64 398.14L355.05 398.43L355.45 398.74L355.83 399.05L356.2 399.39L356.56 399.73L356.91 400.09L357.24 400.46L357.56 400.85L357.86 401.25L358.15 401.66L358.43 402.08L358.68 402.51L358.92 402.95L359.15 403.4L359.35 403.86L359.54 404.34L359.71 404.82L359.86 405.3L360 405.8L360.11 406.3L360.21 406.81L360.28 407.33L360.33 407.86L360.37 408.38L360.38 408.92L360.38 426.82L460.22 426.82L460.35 426.82L460.47 426.83L460.59 426.84L460.71 426.86L460.83 426.88L460.94 426.91L461.06 426.94L461.17 426.97L461.28 427.01L461.39 427.06L461.5 427.1L461.6 427.16L461.7 427.21L461.8 427.27L461.9 427.33L461.99 427.4L462.09 427.47L462.17 427.54L462.26 427.62L462.34 427.7L462.42 427.78L462.5 427.87L462.57 427.96L462.64 428.05L462.71 428.14L462.77 428.24L462.83 428.34L462.89 428.44L462.94 428.55L462.99 428.65L463.03 428.76L463.07 428.87L463.1 428.98L463.13 429.1L463.16 429.22L463.18 429.33L463.2 429.45L463.21 429.57L463.22 429.7L463.22 429.82L463.22 429.94L463.21 430.07L463.2 430.19L463.18 430.31L463.16 430.42L463.13 430.54L463.1 430.66L463.07 430.77L463.03 430.88L462.99 430.99L462.94 431.09L462.89 431.2L462.83 431.3L462.77 431.4L462.71 431.5L462.64 431.59L462.57 431.68L462.5 431.77L462.42 431.86L462.34 431.94L462.26 432.02L462.17 432.1L462.09 432.17L461.99 432.24L461.9 432.31L461.8 432.37L461.7 432.43L461.6 432.48L461.5 432.54L461.39 432.58L461.28 432.63L461.17 432.67L461.06 432.7L460.94 432.73L460.83 432.76L460.71 432.78L460.59 432.8L460.47 432.81L460.35 432.82L460.22 432.82L51.78 432.82L51.66 432.82L51.53 432.81L51.41 432.8L51.29 432.78L51.18 432.76L51.06 432.73L50.94 432.7L50.83 432.67L50.72 432.63L50.61 432.58L50.51 432.54L50.4 432.48L50.3 432.43L50.2 432.37L50.1 432.31L50.01 432.24L49.92 432.17L49.83 432.1L49.74 432.02L49.66 431.94L49.58 431.86L49.5 431.77L49.43 431.68L49.36 431.59L49.29 431.5L49.23 431.4L49.17 431.3L49.11 431.2L49.06 431.09L49.02 430.99L48.97 430.88L48.93 430.77L48.9 430.66L48.87 430.54L48.84 430.42L48.82 430.31L48.8 430.19L48.79 430.07L48.78 429.94L48.78 429.82L48.78 429.7L48.79 429.57L48.8 429.45L48.82 429.33L48.84 429.22L48.87 429.1L48.9 428.98L48.93 428.87L48.97 428.76L49.02 428.65L49.06 428.55L49.11 428.44L49.17 428.34L49.23 428.24L49.29 428.14L49.36 428.05L49.43 427.96L49.5 427.87L49.58 427.78L49.66 427.7L49.74 427.62L49.83 427.54L49.92 427.47L50.01 427.4L50.1 427.33L50.2 427.27L50.3 427.21L50.4 427.16L50.51 427.1L50.61 427.06L50.72 427.01L50.83 426.97L50.94 426.94L51.06 426.91L51.18 426.88L51.29 426.86L51.41 426.84L51.53 426.83L51.66 426.82L51.78 426.82L151.62 426.82L151.62 408.92L151.63 408.38L151.67 407.86L151.72 407.33L151.79 406.81L151.89 406.3L152 405.8L152.14 405.3L152.29 404.82L152.46 404.34L152.65 403.86L152.85 403.4L153.08 402.95L153.32 402.51L153.57 402.08L153.85 401.66L154.14 401.25L154.44 400.85L154.76 400.46L155.09 400.09L155.44 399.73L155.8 399.39L156.17 399.05L156.55 398.74L156.95 398.43L157.36 398.14L157.78 397.87L158.21 397.61L158.65 397.37L159.11 397.15L159.57 396.94L160.04 396.75L160.52 396.58L161.01 396.43L161.5 396.3L162.01 396.18L162.52 396.09L163.04 396.02L163.56 395.96L164.09 395.93L164.62 395.92L190.5 395.92L190.5 363.88L64.07 363.88L62.82 363.86L61.59 363.78L60.36 363.66L59.16 363.49L57.97 363.27L56.79 363L55.63 362.69L54.49 362.34L53.37 361.94L52.28 361.5L51.2 361.02L50.14 360.49L49.11 359.93L48.11 359.33L47.12 358.7L46.17 358.02L45.24 357.32L44.34 356.57L43.47 355.8L42.63 354.99L41.83 354.15L41.05 353.28L40.31 352.38L39.6 351.46L38.93 350.5L38.29 349.52L37.69 348.51L37.13 347.48L36.61 346.43L36.13 345.35L35.69 344.25L35.29 343.13L34.93 341.99L34.62 340.83L34.36 339.66L34.14 338.47L33.97 337.26L33.84 336.04L33.77 334.8L33.74 333.55L33.74 86L33.77 84.75L33.84 83.52L33.97 82.3L34.14 81.09L34.36 79.9L34.62 78.72L34.93 77.56L35.29 76.43L35.69 75.31L36.13 74.21L36.61 73.13L37.13 72.08L37.69 71.04L38.29 70.04L38.93 69.06L39.6 68.1L40.31 67.17L41.05 66.27L41.83 65.4L42.63 64.57L43.47 63.76L44.34 62.98L45.24 62.24L46.17 61.53L47.12 60.86L48.11 60.22L49.11 59.62L50.14 59.06L51.2 58.54L52.28 58.06L53.37 57.62L54.49 57.22L55.63 56.87L56.79 56.56L57.97 56.29L59.16 56.07L60.36 55.9L61.59 55.77L62.82 55.7L64.07 55.67L447.93 55.67L449.18 55.7L450.42 55.77ZM164.34 401.93L164.05 401.94L163.77 401.97L163.49 402.01L163.21 402.06L162.94 402.12L162.68 402.2L162.41 402.28L162.16 402.37L161.9 402.47L161.65 402.58L161.41 402.7L161.17 402.83L160.94 402.97L160.71 403.12L160.49 403.27L160.28 403.44L160.07 403.61L159.87 403.79L159.68 403.97L159.49 404.17L159.31 404.37L159.14 404.57L158.98 404.79L158.82 405.01L158.67 405.24L158.54 405.47L158.41 405.71L158.29 405.95L158.17 406.2L158.07 406.45L157.98 406.71L157.9 406.97L157.83 407.24L157.77 407.51L157.72 407.79L157.68 408.06L157.65 408.35L157.63 408.63L157.62 408.92L157.62 426.82L354.38 426.82L354.38 408.92L354.37 408.63L354.35 408.35L354.32 408.06L354.28 407.79L354.23 407.51L354.17 407.24L354.1 406.97L354.02 406.71L353.93 406.45L353.82 406.2L353.71 405.95L353.59 405.71L353.46 405.47L353.33 405.24L353.18 405.01L353.02 404.79L352.86 404.57L352.69 404.37L352.51 404.17L352.32 403.97L352.13 403.79L351.93 403.61L351.72 403.44L351.51 403.27L351.29 403.12L351.06 402.97L350.83 402.83L350.59 402.7L350.34 402.58L350.1 402.47L349.84 402.37L349.58 402.28L349.32 402.2L349.05 402.12L348.78 402.06L348.51 402.01L348.23 401.97L347.95 401.94L347.66 401.93L347.37 401.92L164.62 401.92L164.34 401.93ZM196.5 395.92L315.5 395.92L315.5 363.88L196.5 363.88L196.5 395.92ZM63.07 61.69L62.08 61.75L61.1 61.85L60.13 61.99L59.17 62.17L58.23 62.38L57.3 62.63L56.39 62.91L55.49 63.23L54.61 63.59L53.74 63.97L52.9 64.39L52.07 64.84L51.26 65.32L50.48 65.83L49.71 66.37L48.97 66.94L48.24 67.54L47.55 68.16L46.87 68.81L46.23 69.48L45.6 70.18L45.01 70.9L44.44 71.64L43.9 72.41L43.39 73.2L42.91 74L42.46 74.83L42.04 75.68L41.65 76.54L41.3 77.42L40.98 78.32L40.7 79.23L40.45 80.16L40.24 81.1L40.06 82.06L39.92 83.03L39.82 84.01L39.76 85L39.74 86L39.74 333.55L39.76 334.56L39.82 335.55L39.92 336.53L40.06 337.5L40.24 338.45L40.45 339.39L40.7 340.32L40.98 341.24L41.3 342.13L41.65 343.02L42.04 343.88L42.46 344.73L42.91 345.55L43.39 346.36L43.9 347.15L44.44 347.91L45.01 348.66L45.6 349.38L46.23 350.08L46.87 350.75L47.55 351.4L48.24 352.02L48.97 352.62L49.71 353.18L50.48 353.72L51.26 354.23L52.07 354.71L52.9 355.16L53.74 355.58L54.61 355.97L55.49 356.32L56.39 356.64L57.3 356.93L58.23 357.18L59.17 357.39L60.13 357.56L61.1 357.7L62.08 357.8L63.07 357.86L64.07 357.88L447.93 357.88L448.93 357.86L449.92 357.8L450.9 357.7L451.87 357.56L452.83 357.39L453.77 357.18L454.7 356.93L455.61 356.64L456.51 356.32L457.39 355.97L458.26 355.58L459.1 355.16L459.93 354.71L460.74 354.23L461.53 353.72L462.29 353.18L463.04 352.62L463.76 352.02L464.45 351.4L465.13 350.75L465.78 350.08L466.4 349.38L466.99 348.66L467.56 347.91L468.1 347.15L468.61 346.36L469.09 345.55L469.54 344.73L469.96 343.88L470.35 343.02L470.7 342.13L471.02 341.24L471.3 340.32L471.55 339.39L471.77 338.45L471.94 337.5L472.08 336.53L472.18 335.55L472.24 334.56L472.26 333.55L472.26 86L472.24 85L472.18 84.01L472.08 83.03L471.94 82.06L471.77 81.1L471.55 80.16L471.3 79.23L471.02 78.32L470.7 77.42L470.35 76.54L469.96 75.68L469.54 74.83L469.09 74L468.61 73.2L468.1 72.41L467.56 71.64L466.99 70.9L466.4 70.18L465.78 69.48L465.13 68.81L464.45 68.16L463.76 67.54L463.04 66.94L462.29 66.37L461.53 65.83L460.74 65.32L459.93 64.84L459.1 64.39L458.26 63.97L457.39 63.59L456.51 63.23L455.61 62.91L454.7 62.63L453.77 62.38L452.83 62.17L451.87 61.99L450.9 61.85L449.92 61.75L448.93 61.69L447.93 61.67L64.07 61.67L63.07 61.69Z" id="aIaEHI1uH"></path><path d="M449.04 72.53L449.58 72.59L450.12 72.67L450.65 72.76L451.18 72.88L451.69 73.02L452.2 73.18L452.7 73.36L453.19 73.55L453.67 73.77L454.14 74L454.6 74.25L455.04 74.52L455.48 74.8L455.91 75.1L456.32 75.42L456.72 75.75L457.11 76.09L457.48 76.45L457.84 76.83L458.19 77.21L458.52 77.61L458.83 78.03L459.13 78.45L459.42 78.89L459.68 79.34L459.93 79.8L460.17 80.27L460.38 80.75L460.58 81.24L460.75 81.74L460.91 82.24L461.05 82.76L461.17 83.28L461.27 83.81L461.34 84.35L461.4 84.9L461.43 85.45L461.44 86L461.44 309.55L461.43 310.11L461.4 310.66L461.34 311.21L461.27 311.74L461.17 312.27L461.05 312.8L460.91 313.31L460.75 313.82L460.58 314.32L460.38 314.81L460.17 315.29L459.93 315.76L459.68 316.22L459.42 316.67L459.13 317.1L458.83 317.53L458.52 317.94L458.19 318.34L457.84 318.73L457.48 319.1L457.11 319.46L456.72 319.81L456.32 320.14L455.91 320.46L455.48 320.76L455.04 321.04L454.6 321.31L454.14 321.56L453.67 321.79L453.19 322L452.7 322.2L452.2 322.38L451.69 322.53L451.18 322.67L450.65 322.79L450.12 322.89L449.58 322.97L449.04 323.02L448.49 323.05L447.93 323.07L64.07 323.07L63.51 323.05L62.96 323.02L62.42 322.97L61.88 322.89L61.35 322.79L60.83 322.67L60.31 322.53L59.8 322.38L59.31 322.2L58.82 322L58.34 321.79L57.87 321.56L57.41 321.31L56.96 321.04L56.52 320.76L56.1 320.46L55.68 320.14L55.28 319.81L54.89 319.46L54.52 319.1L54.16 318.73L53.81 318.34L53.48 317.94L53.17 317.53L52.87 317.1L52.59 316.67L52.32 316.22L52.07 315.76L51.84 315.29L51.62 314.81L51.43 314.32L51.25 313.82L51.09 313.31L50.95 312.8L50.83 312.27L50.74 311.74L50.66 311.21L50.6 310.66L50.57 310.11L50.56 309.55L50.56 86L50.57 85.45L50.6 84.9L50.66 84.35L50.74 83.81L50.83 83.28L50.95 82.76L51.09 82.24L51.25 81.74L51.43 81.24L51.62 80.75L51.84 80.27L52.07 79.8L52.32 79.34L52.59 78.89L52.87 78.45L53.17 78.03L53.48 77.61L53.81 77.21L54.16 76.83L54.52 76.45L54.89 76.09L55.28 75.75L55.68 75.42L56.1 75.1L56.52 74.8L56.96 74.52L57.41 74.25L57.87 74L58.34 73.77L58.82 73.55L59.31 73.36L59.8 73.18L60.31 73.02L60.83 72.88L61.35 72.76L61.88 72.67L62.42 72.59L62.96 72.53L63.51 72.5L64.07 72.49L447.93 72.49L448.49 72.5L449.04 72.53ZM63.76 78.5L63.45 78.51L63.15 78.55L62.85 78.59L62.56 78.64L62.27 78.71L61.98 78.79L61.7 78.87L61.42 78.97L61.15 79.08L60.88 79.2L60.62 79.33L60.37 79.47L60.12 79.62L59.87 79.77L59.64 79.94L59.41 80.12L59.18 80.3L58.97 80.49L58.76 80.69L58.56 80.9L58.37 81.12L58.18 81.34L58.01 81.57L57.84 81.8L57.69 82.05L57.54 82.3L57.4 82.55L57.27 82.81L57.15 83.08L57.04 83.35L56.94 83.63L56.85 83.91L56.78 84.2L56.71 84.49L56.66 84.79L56.61 85.08L56.58 85.39L56.56 85.69L56.56 86L56.56 309.55L56.56 309.86L56.58 310.17L56.61 310.47L56.66 310.77L56.71 311.07L56.78 311.36L56.85 311.64L56.94 311.93L57.04 312.2L57.15 312.48L57.27 312.74L57.4 313L57.54 313.26L57.69 313.51L57.84 313.75L58.01 313.99L58.18 314.22L58.37 314.44L58.56 314.66L58.76 314.86L58.97 315.06L59.18 315.26L59.41 315.44L59.64 315.61L59.87 315.78L60.12 315.94L60.37 316.09L60.62 316.23L60.88 316.36L61.15 316.47L61.42 316.58L61.7 316.68L61.98 316.77L62.27 316.85L62.56 316.91L62.85 316.97L63.15 317.01L63.45 317.04L63.76 317.06L64.07 317.07L447.93 317.07L448.24 317.06L448.55 317.04L448.85 317.01L449.15 316.97L449.44 316.91L449.74 316.85L450.02 316.77L450.3 316.68L450.58 316.58L450.85 316.47L451.12 316.36L451.38 316.23L451.64 316.09L451.89 315.94L452.13 315.78L452.37 315.61L452.6 315.44L452.82 315.26L453.03 315.06L453.24 314.86L453.44 314.66L453.63 314.44L453.82 314.22L453.99 313.99L454.16 313.75L454.32 313.51L454.47 313.26L454.6 313L454.73 312.74L454.85 312.48L454.96 312.2L455.06 311.93L455.15 311.64L455.23 311.36L455.29 311.07L455.35 310.77L455.39 310.47L455.42 310.17L455.44 309.86L455.44 309.55L455.44 86L455.44 85.69L455.42 85.39L455.39 85.08L455.35 84.79L455.29 84.49L455.23 84.2L455.15 83.91L455.06 83.63L454.96 83.35L454.85 83.08L454.73 82.81L454.6 82.55L454.47 82.3L454.32 82.05L454.16 81.8L453.99 81.57L453.82 81.34L453.63 81.12L453.44 80.9L453.24 80.69L453.03 80.49L452.82 80.3L452.6 80.12L452.37 79.94L452.13 79.77L451.89 79.62L451.64 79.47L451.38 79.33L451.12 79.2L450.85 79.08L450.58 78.97L450.3 78.87L450.02 78.79L449.74 78.71L449.44 78.64L449.15 78.59L448.85 78.55L448.55 78.51L448.24 78.5L447.93 78.49L64.07 78.49L63.76 78.5Z" id="a40SZEdEH"></path><path d="M258.57 328.75L259.79 329.09L260.95 329.54L262.05 330.11L263.08 330.79L264.04 331.57L264.91 332.44L265.68 333.39L266.36 334.42L266.93 335.52L267.39 336.68L267.72 337.9L267.93 339.17L268 340.47L267.93 341.78L267.72 343.05L267.39 344.26L266.93 345.43L266.36 346.53L265.68 347.56L264.91 348.51L264.04 349.38L263.08 350.16L262.05 350.83L260.95 351.4L259.79 351.86L258.57 352.2L257.31 352.4L256 352.47L254.69 352.4L253.43 352.2L252.21 351.86L251.05 351.4L249.95 350.83L248.92 350.16L247.96 349.38L247.09 348.51L246.32 347.56L245.64 346.53L245.07 345.43L244.61 344.26L244.28 343.05L244.07 341.78L244 340.47L244.07 339.17L244.28 337.9L244.61 336.68L245.07 335.52L245.64 334.42L246.32 333.39L247.09 332.44L247.96 331.57L248.92 330.79L249.95 330.11L251.05 329.54L252.21 329.09L253.43 328.75L254.69 328.54L256 328.47L257.31 328.54L258.57 328.75ZM253.36 335.08L252.25 335.79L251.32 336.72L250.61 337.84L250.16 339.1L250 340.47L250.16 341.85L250.61 343.11L251.32 344.22L252.25 345.15L253.36 345.86L254.63 346.32L256 346.47L257.37 346.32L258.64 345.86L259.75 345.15L260.68 344.22L261.39 343.11L261.84 341.85L262 340.47L261.84 339.1L261.39 337.84L260.68 336.72L259.75 335.79L258.64 335.08L257.37 334.63L256 334.47L254.63 334.63L253.36 335.08Z" id="c29VmgSVcs"></path><path d="M86.43 90.2L87.64 90.62L88.78 91.19L89.82 91.89L90.77 92.73L91.6 93.67L92.31 94.72L92.88 95.85L93.3 97.06L93.56 98.34L93.65 99.67L93.56 101.01L93.3 102.28L92.88 103.5L92.31 104.63L91.6 105.68L90.77 106.62L89.82 107.45L88.78 108.16L87.64 108.73L86.43 109.15L85.15 109.41L83.82 109.5L82.49 109.41L81.21 109.15L80 108.73L78.86 108.16L77.82 107.45L76.87 106.62L76.04 105.68L75.33 104.63L74.76 103.5L74.34 102.28L74.08 101.01L73.99 99.67L74.08 98.34L74.34 97.06L74.76 95.85L75.33 94.72L76.04 93.67L76.87 92.73L77.82 91.89L78.86 91.19L80 90.62L81.21 90.2L82.49 89.93L83.82 89.84L85.15 89.93L86.43 90.2ZM81.11 96.97L80.29 98.18L79.99 99.67L80.29 101.16L81.11 102.38L82.33 103.2L83.82 103.5L85.31 103.2L86.53 102.38L87.35 101.16L87.65 99.67L87.35 98.18L86.53 96.97L85.31 96.15L83.82 95.84L82.33 96.15L81.11 96.97Z" id="b6jhxmUVm"></path><path d="M117.63 90.2L118.84 90.62L119.98 91.19L121.02 91.89L121.97 92.73L122.8 93.67L123.5 94.72L124.07 95.85L124.5 97.06L124.76 98.34L124.85 99.67L124.76 101.01L124.5 102.28L124.07 103.5L123.5 104.63L122.8 105.68L121.97 106.62L121.02 107.45L119.98 108.16L118.84 108.73L117.63 109.15L116.35 109.41L115.02 109.5L113.69 109.41L112.41 109.15L111.2 108.73L110.06 108.16L109.01 107.45L108.07 106.62L107.24 105.68L106.53 104.63L105.96 103.5L105.54 102.28L105.28 101.01L105.19 99.67L105.28 98.34L105.54 97.06L105.96 95.85L106.53 94.72L107.24 93.67L108.07 92.73L109.01 91.89L110.06 91.19L111.2 90.62L112.41 90.2L113.69 89.93L115.02 89.84L116.35 89.93L117.63 90.2ZM112.31 96.97L111.49 98.18L111.19 99.67L111.49 101.16L112.31 102.38L113.53 103.2L115.02 103.5L116.51 103.2L117.73 102.38L118.55 101.16L118.85 99.67L118.55 98.18L117.73 96.97L116.51 96.15L115.02 95.84L113.53 96.15L112.31 96.97Z" id="a1kyzSMar5"></path><path d="M148.83 90.2L150.04 90.62L151.17 91.19L152.22 91.89L153.16 92.73L154 93.67L154.7 94.72L155.27 95.85L155.69 97.06L155.96 98.34L156.05 99.67L155.96 101.01L155.69 102.28L155.27 103.5L154.7 104.63L154 105.68L153.16 106.62L152.22 107.45L151.17 108.16L150.04 108.73L148.83 109.15L147.55 109.41L146.22 109.5L144.88 109.41L143.61 109.15L142.39 108.73L141.26 108.16L140.21 107.45L139.27 106.62L138.44 105.68L137.73 104.63L137.16 103.5L136.74 102.28L136.48 101.01L136.39 99.67L136.48 98.34L136.74 97.06L137.16 95.85L137.73 94.72L138.44 93.67L139.27 92.73L140.21 91.89L141.26 91.19L142.39 90.62L143.61 90.2L144.88 89.93L146.22 89.84L147.55 89.93L148.83 90.2ZM143.51 96.97L142.69 98.18L142.39 99.67L142.69 101.16L143.51 102.38L144.73 103.2L146.22 103.5L147.71 103.2L148.92 102.38L149.74 101.16L150.05 99.67L149.74 98.18L148.92 96.97L147.71 96.15L146.22 95.84L144.73 96.15L143.51 96.97Z" id="bAWpGHcRK"></path><path d="M14.78 450.33C13.12 450.33 11.78 451.67 11.78 453.33C11.78 454.98 13.12 456.33 14.78 456.33C18.48 456.33 48.08 456.33 51.78 456.33C53.44 456.33 54.78 454.98 54.78 453.33C54.78 451.67 53.44 450.33 51.78 450.33C44.38 450.33 18.48 450.33 14.78 450.33Z" id="dwfwTFVcx"></path><path d="M460.22 450.33C458.56 450.33 457.22 451.67 457.22 453.33C457.22 454.98 458.56 456.33 460.22 456.33C463.92 456.33 493.52 456.33 497.22 456.33C498.88 456.33 500.22 454.98 500.22 453.33C500.22 451.67 498.88 450.33 497.22 450.33C489.82 450.33 463.92 450.33 460.22 450.33Z" id="e3laom3WeR"></path><path d="M81.33 450.33C79.67 450.33 78.33 451.67 78.33 453.33C78.33 454.98 79.67 456.33 81.33 456.33C116.26 456.33 395.74 456.33 430.67 456.33C432.33 456.33 433.67 454.98 433.67 453.33C433.67 451.67 432.33 450.33 430.67 450.33C360.8 450.33 116.26 450.33 81.33 450.33Z" id="a3gHMD6DZZ"></path><path d="M30.67 432.82C32.33 432.82 33.67 431.48 33.67 429.82C33.67 428.16 32.33 426.82 30.67 426.82C29.08 426.82 16.37 426.82 14.78 426.82C13.12 426.82 11.78 428.16 11.78 429.82C11.78 431.48 13.12 432.82 14.78 432.82C17.96 432.82 29.08 432.82 30.67 432.82Z" id="eUebHDcXw"></path><path d="M497.22 432.82C498.88 432.82 500.22 431.48 500.22 429.82C500.22 428.16 498.88 426.82 497.22 426.82C495.63 426.82 482.92 426.82 481.33 426.82C479.68 426.82 478.33 428.16 478.33 429.82C478.33 431.48 479.68 432.82 481.33 432.82C484.51 432.82 495.63 432.82 497.22 432.82Z" id="b3zI8Sqypk"></path><path d="M134.33 118.68L134.45 118.69L134.57 118.71L134.68 118.73L134.8 118.76L134.92 118.79L135.03 118.82L135.14 118.86L135.25 118.9L135.35 118.95L135.46 119L135.56 119.06L135.66 119.12L135.76 119.18L135.85 119.25L135.94 119.32L136.03 119.39L136.12 119.47L136.2 119.55L136.28 119.63L136.36 119.72L136.43 119.8L136.5 119.9L136.57 119.99L136.63 120.09L136.69 120.19L136.75 120.29L136.8 120.39L136.84 120.5L136.89 120.61L136.93 120.72L136.96 120.83L136.99 120.95L137.02 121.06L137.04 121.18L137.06 121.3L137.07 121.42L137.08 121.54L137.08 121.67L137.08 304.89L137.08 305.01L137.07 305.13L137.06 305.25L137.04 305.37L137.02 305.49L136.99 305.61L136.96 305.72L136.93 305.84L136.89 305.95L136.84 306.06L136.8 306.16L136.75 306.27L136.69 306.37L136.63 306.47L136.57 306.56L136.5 306.66L136.43 306.75L136.36 306.84L136.28 306.93L136.2 307.01L136.12 307.09L136.03 307.17L135.94 307.24L135.85 307.31L135.76 307.38L135.66 307.44L135.56 307.5L135.46 307.55L135.35 307.6L135.25 307.65L135.14 307.7L135.03 307.73L134.92 307.77L134.8 307.8L134.68 307.83L134.57 307.85L134.45 307.87L134.33 307.88L134.2 307.89L134.08 307.89L85.4 307.89L85.28 307.89L85.16 307.88L85.03 307.87L84.92 307.85L84.8 307.83L84.68 307.8L84.57 307.77L84.45 307.73L84.34 307.7L84.23 307.65L84.13 307.6L84.02 307.55L83.92 307.5L83.82 307.44L83.72 307.38L83.63 307.31L83.54 307.24L83.45 307.17L83.36 307.09L83.28 307.01L83.2 306.93L83.12 306.84L83.05 306.75L82.98 306.66L82.91 306.56L82.85 306.47L82.79 306.37L82.74 306.27L82.69 306.16L82.64 306.06L82.59 305.95L82.55 305.84L82.52 305.72L82.49 305.61L82.46 305.49L82.44 305.37L82.42 305.25L82.41 305.13L82.4 305.01L82.4 304.89L82.4 121.67L82.4 121.54L82.41 121.42L82.42 121.3L82.44 121.18L82.46 121.06L82.49 120.95L82.52 120.83L82.56 120.72L82.59 120.61L82.64 120.5L82.69 120.39L82.74 120.29L82.79 120.19L82.85 120.09L82.91 119.99L82.98 119.9L83.05 119.8L83.12 119.72L83.2 119.63L83.28 119.55L83.36 119.47L83.45 119.39L83.54 119.32L83.63 119.25L83.73 119.18L83.82 119.12L83.92 119.06L84.02 119L84.13 118.95L84.23 118.9L84.34 118.86L84.45 118.82L84.57 118.79L84.68 118.76L84.8 118.73L84.92 118.71L85.04 118.69L85.16 118.68L85.28 118.67L85.4 118.67L134.08 118.67L134.2 118.67L134.33 118.68ZM88.4 301.89L131.08 301.89L131.08 124.67L88.4 124.67L88.4 301.89Z" id="c8czp9k3NL"></path><path d="M349.79 118.68L349.91 118.69L350.03 118.71L350.15 118.73L350.26 118.76L350.38 118.79L350.49 118.82L350.6 118.86L350.71 118.9L350.82 118.95L350.92 119L351.02 119.06L351.12 119.12L351.22 119.18L351.31 119.25L351.41 119.32L351.49 119.39L351.58 119.47L351.66 119.55L351.74 119.63L351.82 119.72L351.89 119.8L351.96 119.9L352.03 119.99L352.09 120.09L352.15 120.19L352.21 120.29L352.26 120.39L352.31 120.5L352.35 120.61L352.39 120.72L352.42 120.83L352.45 120.95L352.48 121.06L352.5 121.18L352.52 121.3L352.53 121.42L352.54 121.54L352.54 121.67L352.54 209.78L352.54 209.9L352.53 210.02L352.52 210.14L352.5 210.26L352.48 210.38L352.45 210.5L352.42 210.61L352.39 210.73L352.35 210.84L352.31 210.95L352.26 211.05L352.21 211.16L352.15 211.26L352.09 211.36L352.03 211.45L351.96 211.55L351.89 211.64L351.82 211.73L351.74 211.82L351.66 211.9L351.58 211.98L351.49 212.06L351.41 212.13L351.31 212.2L351.22 212.27L351.12 212.33L351.02 212.39L350.92 212.44L350.82 212.49L350.71 212.54L350.6 212.59L350.49 212.62L350.38 212.66L350.26 212.69L350.15 212.72L350.03 212.74L349.91 212.76L349.79 212.77L349.67 212.78L349.54 212.78L162.46 212.78L162.33 212.78L162.21 212.77L162.09 212.76L161.97 212.74L161.85 212.72L161.74 212.69L161.62 212.66L161.51 212.62L161.4 212.59L161.29 212.54L161.18 212.49L161.08 212.44L160.98 212.39L160.88 212.33L160.78 212.27L160.69 212.2L160.59 212.13L160.51 212.06L160.42 211.98L160.34 211.9L160.26 211.82L160.18 211.73L160.11 211.64L160.04 211.55L159.97 211.45L159.91 211.36L159.85 211.26L159.79 211.16L159.74 211.05L159.69 210.95L159.65 210.84L159.61 210.73L159.58 210.61L159.55 210.5L159.52 210.38L159.5 210.26L159.48 210.14L159.47 210.02L159.46 209.9L159.46 209.78L159.46 121.67L159.46 121.54L159.47 121.42L159.48 121.3L159.5 121.18L159.52 121.06L159.55 120.95L159.58 120.83L159.61 120.72L159.65 120.61L159.69 120.5L159.74 120.39L159.79 120.29L159.85 120.19L159.91 120.09L159.97 119.99L160.04 119.9L160.11 119.8L160.18 119.72L160.26 119.63L160.34 119.55L160.42 119.47L160.51 119.39L160.59 119.32L160.69 119.25L160.78 119.18L160.88 119.12L160.98 119.06L161.08 119L161.18 118.95L161.29 118.9L161.4 118.86L161.51 118.82L161.62 118.79L161.74 118.76L161.85 118.73L161.97 118.71L162.09 118.69L162.21 118.68L162.33 118.67L162.46 118.67L349.54 118.67L349.67 118.67L349.79 118.68ZM165.46 206.78L346.54 206.78L346.54 124.67L165.46 124.67L165.46 206.78Z" id="a2ys9JoUtL"></path><path d="M430.92 118.68L431.04 118.69L431.16 118.71L431.28 118.73L431.4 118.76L431.51 118.79L431.62 118.82L431.73 118.86L431.84 118.9L431.95 118.95L432.05 119L432.16 119.06L432.25 119.12L432.35 119.18L432.45 119.25L432.54 119.32L432.63 119.39L432.71 119.47L432.8 119.55L432.88 119.63L432.95 119.72L433.03 119.8L433.1 119.9L433.16 119.99L433.22 120.09L433.28 120.19L433.34 120.29L433.39 120.39L433.44 120.5L433.48 120.61L433.52 120.72L433.56 120.83L433.59 120.95L433.61 121.06L433.63 121.18L433.65 121.3L433.66 121.42L433.67 121.54L433.67 121.67L433.67 209.78L433.67 209.9L433.66 210.02L433.65 210.14L433.63 210.26L433.61 210.38L433.59 210.5L433.56 210.61L433.52 210.73L433.48 210.84L433.44 210.95L433.39 211.05L433.34 211.16L433.28 211.26L433.22 211.36L433.16 211.45L433.1 211.55L433.03 211.64L432.95 211.73L432.88 211.82L432.8 211.9L432.71 211.98L432.63 212.06L432.54 212.13L432.45 212.2L432.35 212.27L432.25 212.33L432.16 212.39L432.05 212.44L431.95 212.49L431.84 212.54L431.73 212.59L431.62 212.62L431.51 212.66L431.4 212.69L431.28 212.72L431.16 212.74L431.04 212.76L430.92 212.77L430.8 212.78L430.67 212.78L372 212.78L371.88 212.78L371.75 212.77L371.63 212.76L371.51 212.74L371.4 212.72L371.28 212.69L371.16 212.66L371.05 212.62L370.94 212.59L370.83 212.54L370.73 212.49L370.62 212.44L370.52 212.39L370.42 212.33L370.32 212.27L370.23 212.2L370.14 212.13L370.05 212.06L369.96 211.98L369.88 211.9L369.8 211.82L369.72 211.73L369.65 211.64L369.58 211.55L369.51 211.45L369.45 211.36L369.39 211.26L369.33 211.16L369.28 211.05L369.24 210.95L369.19 210.84L369.15 210.73L369.12 210.61L369.09 210.5L369.06 210.38L369.04 210.26L369.02 210.14L369.01 210.02L369 209.9L369 209.78L369 121.67L369 121.54L369.01 121.42L369.02 121.3L369.04 121.18L369.06 121.06L369.09 120.95L369.12 120.83L369.15 120.72L369.19 120.61L369.24 120.5L369.28 120.39L369.33 120.29L369.39 120.19L369.45 120.09L369.51 119.99L369.58 119.9L369.65 119.8L369.72 119.72L369.8 119.63L369.88 119.55L369.96 119.47L370.05 119.39L370.14 119.32L370.23 119.25L370.32 119.18L370.42 119.12L370.52 119.06L370.62 119L370.73 118.95L370.83 118.9L370.94 118.86L371.05 118.82L371.16 118.79L371.28 118.76L371.4 118.73L371.51 118.71L371.63 118.69L371.75 118.68L371.88 118.67L372 118.67L430.67 118.67L430.8 118.67L430.92 118.68ZM375 206.78L427.67 206.78L427.67 124.67L375 124.67L375 206.78Z" id="bK892ZmYA"></path><path d="M202.26 224.69L202.52 224.71L202.79 224.73L203.06 224.76L203.33 224.8L203.59 224.84L203.86 224.89L204.12 224.95L204.39 225.02L204.65 225.09L204.91 225.18L205.17 225.26L205.43 225.36L205.68 225.46L205.94 225.58L206.19 225.69L206.44 225.82L206.68 225.95L206.92 226.09L207.16 226.24L207.39 226.39L207.62 226.54L207.84 226.71L208.06 226.87L208.27 227.05L208.47 227.22L208.67 227.41L208.87 227.6L209.06 227.79L209.24 227.99L209.42 228.19L209.59 228.4L209.76 228.61L209.92 228.82L210.07 229.04L210.22 229.27L210.36 229.49L210.5 229.73L210.63 229.96L210.75 230.2L210.87 230.44L210.98 230.69L211.08 230.94L211.18 231.19L211.27 231.44L211.35 231.7L211.43 231.96L211.5 232.22L211.56 232.49L211.62 232.75L211.67 233.02L211.71 233.29L211.74 233.57L211.77 233.84L211.79 234.12L211.8 234.39L211.8 234.67L211.8 242.98L237.88 242.98L238.41 242.99L238.93 243.02L239.44 243.07L239.95 243.14L240.45 243.24L240.95 243.35L241.44 243.48L241.92 243.63L242.39 243.8L242.85 243.98L243.31 244.19L243.75 244.41L244.19 244.64L244.61 244.89L245.03 245.16L245.43 245.45L245.82 245.75L246.2 246.06L246.56 246.39L246.92 246.73L247.26 247.08L247.59 247.45L247.9 247.83L248.2 248.22L248.48 248.62L248.75 249.03L249 249.46L249.24 249.89L249.46 250.34L249.66 250.79L249.85 251.25L250.02 251.73L250.16 252.21L250.3 252.69L250.41 253.19L250.5 253.69L250.57 254.2L250.63 254.72L250.66 255.24L250.67 255.76L250.67 258.7L250.66 259.23L250.63 259.75L250.57 260.26L250.5 260.77L250.41 261.27L250.3 261.77L250.16 262.26L250.01 262.74L249.85 263.21L249.66 263.67L249.46 264.13L249.24 264.57L249 265.01L248.75 265.43L248.48 265.85L248.2 266.25L247.9 266.64L247.59 267.02L247.26 267.38L246.92 267.74L246.56 268.08L246.2 268.41L245.82 268.72L245.43 269.02L245.02 269.3L244.61 269.57L244.19 269.82L243.75 270.06L243.31 270.28L242.85 270.48L242.39 270.67L241.92 270.84L241.44 270.98L240.95 271.12L240.45 271.23L239.95 271.32L239.44 271.39L238.93 271.45L238.41 271.48L237.88 271.49L211.8 271.49L211.8 279.79L211.8 280.07L211.79 280.35L211.77 280.63L211.74 280.9L211.71 281.17L211.67 281.44L211.62 281.71L211.56 281.98L211.5 282.24L211.43 282.51L211.35 282.77L211.27 283.02L211.18 283.28L211.08 283.53L210.98 283.78L210.87 284.02L210.75 284.27L210.63 284.5L210.5 284.74L210.36 284.97L210.22 285.2L210.07 285.42L209.92 285.64L209.76 285.86L209.59 286.07L209.42 286.28L209.24 286.48L209.06 286.68L208.87 286.87L208.67 287.06L208.47 287.24L208.27 287.42L208.06 287.59L207.84 287.76L207.62 287.92L207.39 288.08L207.16 288.23L206.92 288.37L206.68 288.51L206.44 288.64L206.33 288.7L206.22 288.76L206.11 288.81L206 288.86L205.89 288.91L205.77 288.96L205.66 289.01L205.55 289.05L205.44 289.1L205.32 289.14L205.21 289.19L205.09 289.23L204.98 289.26L204.87 289.3L204.75 289.34L204.64 289.37L204.52 289.41L204.4 289.44L204.29 289.47L204.17 289.5L204.06 289.53L203.94 289.55L203.82 289.58L203.7 289.6L203.59 289.62L203.47 289.64L203.35 289.66L203.23 289.68L203.12 289.7L203 289.71L202.88 289.72L202.76 289.74L202.64 289.75L202.52 289.76L202.41 289.76L202.29 289.77L202.17 289.78L202.05 289.78L201.93 289.78L201.81 289.78L201.66 289.78L201.51 289.78L201.36 289.77L201.21 289.76L201.06 289.75L200.91 289.74L200.77 289.73L200.62 289.71L200.47 289.69L200.32 289.67L200.17 289.65L200.02 289.62L199.87 289.59L199.73 289.56L199.58 289.53L199.43 289.49L199.29 289.46L199.14 289.42L199 289.37L198.85 289.33L198.71 289.28L198.56 289.24L198.42 289.19L198.28 289.13L198.14 289.08L198 289.02L197.86 288.96L197.72 288.9L197.58 288.83L197.44 288.77L197.3 288.7L197.17 288.63L197.03 288.56L196.9 288.48L196.76 288.4L196.63 288.32L196.5 288.24L196.37 288.16L196.24 288.07L196.11 287.98L163.74 265.43L163.54 265.28L163.34 265.14L163.15 264.99L162.97 264.83L162.78 264.67L162.61 264.51L162.43 264.34L162.26 264.17L162.1 264L161.94 263.82L161.78 263.64L161.63 263.45L161.48 263.26L161.34 263.07L161.21 262.87L161.07 262.68L160.95 262.47L160.82 262.27L160.71 262.06L160.59 261.85L160.49 261.64L160.38 261.43L160.28 261.21L160.19 260.99L160.11 260.77L160.02 260.54L159.95 260.32L159.88 260.09L159.81 259.86L159.75 259.63L159.7 259.39L159.65 259.16L159.6 258.92L159.56 258.68L159.53 258.44L159.51 258.2L159.48 257.96L159.47 257.72L159.46 257.47L159.46 257.23L159.46 256.99L159.47 256.74L159.48 256.5L159.51 256.26L159.53 256.02L159.56 255.78L159.6 255.54L159.65 255.3L159.7 255.07L159.75 254.84L159.81 254.6L159.88 254.37L159.95 254.15L160.02 253.92L160.11 253.7L160.19 253.47L160.28 253.25L160.38 253.04L160.49 252.82L160.59 252.61L160.71 252.4L160.82 252.19L160.95 251.99L161.07 251.79L161.21 251.59L161.34 251.39L161.48 251.2L161.63 251.01L161.78 250.83L161.94 250.65L162.1 250.47L162.26 250.29L162.43 250.12L162.61 249.96L162.78 249.79L162.97 249.63L163.15 249.48L163.34 249.33L163.54 249.18L163.74 249.04L196.11 226.48L196.34 226.32L196.57 226.17L196.81 226.03L197.05 225.9L197.3 225.77L197.54 225.65L197.79 225.53L198.04 225.43L198.29 225.33L198.55 225.23L198.81 225.15L199.07 225.07L199.33 225L199.59 224.93L199.85 224.88L200.12 224.83L200.38 224.79L200.65 224.75L200.91 224.72L201.18 224.7L201.45 224.69L201.72 224.68L201.99 224.68L202.26 224.69ZM201.69 230.68L201.63 230.68L201.57 230.69L201.51 230.69L201.45 230.69L201.4 230.7L201.34 230.71L201.28 230.71L201.22 230.72L201.16 230.73L201.1 230.74L201.04 230.76L200.98 230.77L200.93 230.78L200.87 230.79L200.81 230.81L200.75 230.83L200.69 230.84L200.64 230.86L200.58 230.88L200.52 230.9L200.47 230.92L200.41 230.94L200.35 230.96L200.3 230.99L200.24 231.01L200.19 231.03L200.13 231.06L200.08 231.09L200.02 231.11L199.97 231.14L199.91 231.17L199.86 231.2L199.8 231.23L199.75 231.27L199.7 231.3L199.64 231.33L199.59 231.37L199.54 231.4L167.17 253.96L167.09 254.02L167.01 254.08L166.93 254.14L166.85 254.2L166.78 254.27L166.71 254.33L166.64 254.4L166.57 254.47L166.51 254.54L166.44 254.61L166.38 254.68L166.32 254.75L166.26 254.83L166.2 254.9L166.15 254.98L166.1 255.06L166.05 255.14L166 255.22L165.95 255.3L165.91 255.39L165.86 255.47L165.82 255.55L165.78 255.64L165.75 255.73L165.71 255.82L165.68 255.91L165.65 256L165.62 256.09L165.6 256.18L165.57 256.27L165.55 256.36L165.53 256.46L165.52 256.55L165.5 256.65L165.49 256.74L165.48 256.84L165.47 256.94L165.46 257.04L165.46 257.13L165.46 257.23L165.46 257.33L165.46 257.43L165.47 257.53L165.48 257.63L165.49 257.72L165.5 257.82L165.52 257.92L165.53 258.01L165.55 258.1L165.57 258.2L165.6 258.29L165.62 258.38L165.65 258.47L165.68 258.56L165.71 258.65L165.75 258.74L165.79 258.83L165.82 258.91L165.86 259L165.91 259.08L165.95 259.17L166 259.25L166.05 259.33L166.1 259.41L166.15 259.49L166.21 259.57L166.26 259.64L166.32 259.72L166.38 259.79L166.44 259.86L166.51 259.93L166.57 260L166.64 260.07L166.71 260.14L166.78 260.2L166.86 260.27L166.93 260.33L167.01 260.39L167.09 260.45L167.17 260.51L199.54 283.06L199.63 283.13L199.73 283.19L199.82 283.25L199.92 283.3L200.02 283.35L200.12 283.4L200.22 283.45L200.32 283.49L200.42 283.53L200.52 283.57L200.62 283.6L200.72 283.63L200.83 283.66L200.93 283.69L201.04 283.71L201.14 283.73L201.25 283.75L201.35 283.76L201.46 283.77L201.56 283.78L201.67 283.79L201.78 283.79L201.88 283.79L201.99 283.78L202.1 283.78L202.2 283.77L202.31 283.76L202.42 283.74L202.52 283.72L202.63 283.7L202.73 283.68L202.84 283.65L202.94 283.62L203.05 283.59L203.15 283.55L203.26 283.51L203.36 283.47L203.46 283.43L203.56 283.38L203.66 283.33L203.76 283.27L203.86 283.22L203.96 283.16L204.05 283.1L204.14 283.04L204.23 282.97L204.32 282.91L204.4 282.84L204.48 282.77L204.56 282.69L204.64 282.62L204.72 282.54L204.79 282.46L204.86 282.38L204.93 282.3L205 282.22L205.06 282.13L205.12 282.04L205.18 281.96L205.24 281.87L205.29 281.77L205.34 281.68L205.39 281.59L205.44 281.49L205.48 281.39L205.52 281.29L205.56 281.19L205.6 281.09L205.63 280.99L205.66 280.89L205.69 280.78L205.71 280.67L205.73 280.57L205.75 280.46L205.77 280.35L205.78 280.24L205.79 280.13L205.8 280.02L205.8 279.91L205.81 279.79L205.81 268.49L205.81 268.37L205.82 268.24L205.83 268.12L205.85 268L205.87 267.89L205.89 267.77L205.92 267.65L205.96 267.54L206 267.43L206.04 267.32L206.09 267.22L206.14 267.11L206.2 267.01L206.26 266.91L206.32 266.81L206.38 266.72L206.45 266.63L206.53 266.54L206.6 266.45L206.68 266.37L206.77 266.29L206.85 266.21L206.94 266.14L207.03 266.07L207.13 266L207.23 265.94L207.32 265.88L207.43 265.83L207.53 265.77L207.64 265.73L207.75 265.68L207.86 265.64L207.97 265.61L208.08 265.58L208.2 265.55L208.32 265.53L208.44 265.51L208.56 265.5L208.68 265.49L208.81 265.49L237.88 265.49L238.16 265.48L238.44 265.47L238.71 265.44L238.98 265.4L239.25 265.35L239.51 265.29L239.77 265.22L240.03 265.14L240.28 265.05L240.52 264.96L240.76 264.85L241 264.73L241.23 264.61L241.46 264.47L241.68 264.33L241.89 264.18L242.1 264.02L242.3 263.85L242.49 263.68L242.68 263.5L242.86 263.31L243.03 263.12L243.2 262.92L243.36 262.71L243.51 262.49L243.65 262.27L243.79 262.05L243.91 261.82L244.03 261.58L244.14 261.34L244.23 261.1L244.32 260.84L244.4 260.59L244.47 260.33L244.53 260.07L244.58 259.8L244.62 259.53L244.65 259.26L244.66 258.98L244.67 258.7L244.67 255.77L244.66 255.49L244.65 255.21L244.62 254.94L244.58 254.67L244.53 254.4L244.47 254.14L244.4 253.88L244.32 253.62L244.23 253.37L244.14 253.13L244.03 252.88L243.91 252.65L243.79 252.42L243.65 252.19L243.51 251.97L243.36 251.76L243.2 251.55L243.03 251.35L242.86 251.16L242.68 250.97L242.49 250.79L242.3 250.61L242.1 250.45L241.89 250.29L241.67 250.14L241.45 250L241.23 249.86L241 249.74L240.76 249.62L240.52 249.51L240.28 249.41L240.02 249.32L239.77 249.25L239.51 249.18L239.25 249.12L238.98 249.07L238.71 249.03L238.44 249L238.16 248.98L237.88 248.98L208.81 248.98L208.68 248.98L208.56 248.97L208.44 248.96L208.32 248.94L208.2 248.92L208.08 248.89L207.97 248.86L207.86 248.82L207.75 248.79L207.64 248.74L207.53 248.69L207.43 248.64L207.32 248.59L207.23 248.53L207.13 248.47L207.03 248.4L206.94 248.33L206.85 248.26L206.77 248.18L206.68 248.1L206.6 248.02L206.53 247.93L206.45 247.84L206.38 247.75L206.32 247.65L206.26 247.56L206.2 247.46L206.14 247.36L206.09 247.25L206.04 247.15L206 247.04L205.96 246.93L205.92 246.81L205.89 246.7L205.87 246.58L205.85 246.46L205.83 246.34L205.82 246.22L205.81 246.1L205.81 245.98L205.81 234.68L205.8 234.56L205.8 234.45L205.79 234.34L205.78 234.23L205.77 234.12L205.75 234.01L205.73 233.9L205.71 233.79L205.69 233.69L205.66 233.58L205.63 233.48L205.6 233.38L205.56 233.28L205.52 233.18L205.48 233.08L205.44 232.98L205.39 232.88L205.34 232.79L205.29 232.69L205.24 232.6L205.18 232.51L205.12 232.42L205.06 232.34L205 232.25L204.93 232.17L204.86 232.09L204.79 232L204.72 231.93L204.64 231.85L204.56 231.77L204.48 231.7L204.4 231.63L204.32 231.56L204.23 231.5L204.14 231.43L204.05 231.37L203.96 231.31L203.86 231.25L203.76 231.19L203.66 231.14L203.62 231.12L203.57 231.09L203.53 231.07L203.48 231.05L203.44 231.03L203.39 231.01L203.35 230.99L203.3 230.97L203.26 230.96L203.21 230.94L203.17 230.92L203.12 230.9L203.07 230.89L203.03 230.87L202.98 230.86L202.94 230.84L202.89 230.83L202.84 230.82L202.8 230.81L202.75 230.79L202.7 230.78L202.66 230.77L202.61 230.76L202.56 230.75L202.52 230.74L202.47 230.73L202.42 230.73L202.38 230.72L202.33 230.71L202.28 230.71L202.23 230.7L202.19 230.7L202.14 230.69L202.09 230.69L202.05 230.69L202 230.68L201.95 230.68L201.9 230.68L201.86 230.68L201.81 230.68L201.75 230.68L201.69 230.68Z" id="b4eCBSjr49"></path><path d="M123.4 131.43L123.59 131.46L123.78 131.51L123.96 131.56L124.14 131.63L124.31 131.7L124.47 131.79L124.63 131.88L124.78 131.99L124.93 132.1L125.07 132.22L125.2 132.35L125.32 132.49L125.43 132.64L125.54 132.79L125.63 132.95L125.72 133.11L125.79 133.28L125.86 133.46L125.91 133.64L125.96 133.83L125.99 134.02L126.01 134.21L126.01 134.41L126.01 161.47L126.01 161.67L125.99 161.86L125.96 162.05L125.91 162.24L125.86 162.42L125.79 162.6L125.72 162.77L125.63 162.93L125.54 163.09L125.43 163.24L125.32 163.39L125.2 163.53L125.07 163.66L124.93 163.78L124.78 163.89L124.63 164L124.47 164.09L124.31 164.18L124.14 164.25L123.96 164.32L123.78 164.37L123.59 164.42L123.4 164.45L123.21 164.47L123.01 164.47L95.95 164.47L95.75 164.47L95.56 164.45L95.37 164.42L95.18 164.37L95 164.32L94.82 164.25L94.65 164.18L94.49 164.09L94.33 164L94.18 163.89L94.03 163.78L93.89 163.66L93.76 163.53L93.64 163.39L93.53 163.24L93.42 163.09L93.33 162.93L93.24 162.77L93.17 162.6L93.1 162.42L93.05 162.24L93 162.05L92.97 161.86L92.95 161.67L92.95 161.47L92.95 134.41L92.95 134.21L92.97 134.02L93 133.83L93.05 133.64L93.1 133.46L93.17 133.28L93.24 133.11L93.33 132.95L93.42 132.79L93.53 132.64L93.64 132.49L93.76 132.35L93.89 132.22L94.03 132.1L94.18 131.99L94.33 131.88L94.49 131.79L94.65 131.7L94.82 131.63L95 131.56L95.18 131.51L95.37 131.46L95.56 131.43L95.75 131.41L95.95 131.41L123.01 131.41L123.21 131.41L123.4 131.43ZM98.95 158.47L120.01 158.47L120.01 137.41L98.95 137.41L98.95 158.47Z" id="c36QfDMDV2"></path><path d="M122.09 199.25L122.22 199.26L122.33 199.28L122.45 199.3L122.57 199.33L122.68 199.36L122.8 199.4L122.91 199.43L123.02 199.48L123.12 199.53L123.23 199.58L123.33 199.63L123.43 199.69L123.53 199.75L123.62 199.82L123.71 199.89L123.8 199.96L123.89 200.04L123.97 200.12L124.05 200.2L124.13 200.29L124.2 200.38L124.27 200.47L124.34 200.57L124.4 200.66L124.46 200.76L124.51 200.86L124.57 200.97L124.61 201.07L124.66 201.18L124.7 201.29L124.73 201.41L124.76 201.52L124.79 201.64L124.81 201.76L124.83 201.88L124.84 202L124.85 202.12L124.85 202.24L124.85 288.24L124.85 288.37L124.84 288.49L124.83 288.61L124.81 288.73L124.79 288.85L124.76 288.96L124.73 289.08L124.7 289.19L124.66 289.3L124.61 289.41L124.57 289.52L124.52 289.62L124.46 289.72L124.4 289.82L124.34 289.92L124.27 290.01L124.2 290.11L124.13 290.19L124.05 290.28L123.97 290.36L123.89 290.44L123.8 290.52L123.71 290.59L123.62 290.66L123.53 290.73L123.43 290.79L123.33 290.85L123.23 290.91L123.12 290.96L123.02 291.01L122.91 291.05L122.8 291.09L122.69 291.12L122.57 291.15L122.45 291.18L122.34 291.2L122.22 291.22L122.1 291.23L121.97 291.24L121.85 291.24L95.95 291.24L95.82 291.24L95.7 291.23L95.58 291.22L95.46 291.2L95.34 291.18L95.23 291.15L95.11 291.12L95 291.09L94.89 291.05L94.78 291.01L94.67 290.96L94.57 290.91L94.47 290.85L94.37 290.79L94.27 290.73L94.18 290.66L94.08 290.59L94 290.52L93.91 290.44L93.83 290.36L93.75 290.28L93.67 290.19L93.6 290.11L93.53 290.01L93.46 289.92L93.4 289.82L93.34 289.72L93.28 289.62L93.23 289.52L93.18 289.41L93.14 289.3L93.1 289.19L93.07 289.08L93.04 288.96L93.01 288.85L92.99 288.73L92.97 288.61L92.96 288.49L92.95 288.37L92.95 288.24L92.95 202.24L92.95 202.12L92.96 202L92.97 201.88L92.99 201.76L93.01 201.64L93.04 201.52L93.07 201.41L93.1 201.29L93.14 201.18L93.18 201.07L93.23 200.97L93.28 200.86L93.34 200.76L93.4 200.66L93.46 200.57L93.53 200.47L93.6 200.38L93.67 200.29L93.75 200.2L93.83 200.12L93.91 200.04L94 199.96L94.08 199.89L94.18 199.82L94.27 199.75L94.37 199.69L94.47 199.63L94.57 199.58L94.67 199.53L94.78 199.48L94.89 199.43L95 199.4L95.11 199.36L95.23 199.33L95.34 199.3L95.46 199.28L95.58 199.26L95.7 199.25L95.82 199.24L95.95 199.24L121.85 199.24L121.97 199.24L122.09 199.25ZM98.95 285.24L118.85 285.24L118.85 205.24L98.95 205.24L98.95 285.24Z" id="e2KSAWUBqj"></path><path d="M95.95 171.16C94.29 171.16 92.95 172.5 92.95 174.16C92.95 175.81 94.29 177.16 95.95 177.16C98.65 177.16 120.31 177.16 123.01 177.16C124.67 177.16 126.01 175.81 126.01 174.16C126.01 172.5 124.67 171.16 123.01 171.16C117.6 171.16 98.65 171.16 95.95 171.16Z" id="a2ky4DvKrx"></path><path d="M95.95 181.66C94.29 181.66 92.95 183 92.95 184.66C92.95 186.31 94.29 187.66 95.95 187.66C98.65 187.66 120.31 187.66 123.01 187.66C124.67 187.66 126.01 186.31 126.01 184.66C126.01 183 124.67 181.66 123.01 181.66C117.6 181.66 98.65 181.66 95.95 181.66Z" id="b1am9QjGSl"></path><path d="M430.8 224.68L430.92 224.69L431.04 224.7L431.16 224.72L431.28 224.74L431.4 224.76L431.51 224.79L431.62 224.83L431.73 224.87L431.84 224.91L431.95 224.96L432.05 225.01L432.16 225.07L432.25 225.13L432.35 225.19L432.45 225.26L432.54 225.33L432.63 225.4L432.71 225.48L432.8 225.56L432.88 225.64L432.95 225.72L433.03 225.81L433.1 225.9L433.16 226L433.22 226.1L433.28 226.2L433.34 226.3L433.39 226.4L433.44 226.51L433.48 226.62L433.52 226.73L433.56 226.84L433.59 226.96L433.61 227.07L433.63 227.19L433.65 227.31L433.66 227.43L433.67 227.55L433.67 227.68L433.67 291.41L433.67 291.53L433.66 291.65L433.65 291.77L433.63 291.89L433.61 292.01L433.59 292.13L433.56 292.24L433.52 292.36L433.48 292.47L433.44 292.58L433.39 292.68L433.34 292.79L433.28 292.89L433.22 292.99L433.16 293.08L433.1 293.18L433.03 293.27L432.95 293.36L432.88 293.45L432.8 293.53L432.71 293.61L432.63 293.69L432.54 293.76L432.45 293.83L432.35 293.9L432.25 293.96L432.16 294.02L432.05 294.07L431.95 294.12L431.84 294.17L431.73 294.22L431.62 294.25L431.51 294.29L431.4 294.32L431.28 294.35L431.16 294.37L431.04 294.39L430.92 294.4L430.8 294.41L430.67 294.41L271.98 294.41L271.86 294.41L271.74 294.4L271.61 294.39L271.5 294.37L271.38 294.35L271.26 294.32L271.15 294.29L271.03 294.25L270.92 294.22L270.81 294.17L270.71 294.12L270.6 294.07L270.5 294.02L270.4 293.96L270.3 293.9L270.21 293.83L270.12 293.76L270.03 293.69L269.94 293.61L269.86 293.53L269.78 293.45L269.7 293.36L269.63 293.27L269.56 293.18L269.49 293.08L269.43 292.99L269.37 292.89L269.32 292.79L269.27 292.68L269.22 292.58L269.17 292.47L269.13 292.36L269.1 292.24L269.07 292.13L269.04 292.01L269.02 291.89L269 291.77L268.99 291.65L268.98 291.53L268.98 291.41L268.98 227.68L268.98 227.55L268.99 227.43L269 227.31L269.02 227.19L269.04 227.07L269.07 226.96L269.1 226.84L269.13 226.73L269.17 226.62L269.22 226.51L269.27 226.4L269.32 226.3L269.37 226.2L269.43 226.1L269.49 226L269.56 225.9L269.63 225.81L269.7 225.72L269.78 225.64L269.86 225.55L269.94 225.48L270.03 225.4L270.12 225.33L270.21 225.26L270.3 225.19L270.4 225.13L270.5 225.07L270.6 225.01L270.71 224.96L270.81 224.91L270.92 224.87L271.03 224.83L271.15 224.79L271.26 224.76L271.38 224.74L271.5 224.72L271.61 224.7L271.74 224.69L271.86 224.68L271.98 224.68L430.67 224.68L430.8 224.68ZM274.98 288.41L427.67 288.41L427.67 230.68L274.98 230.68L274.98 288.41Z" id="e4PoGMDAWt"></path></defs><g><g><g><use xlink:href="#aegMGkS4m" opacity="1" fill="#8e94a9" fill-opacity="1"></use><g><use xlink:href="#aegMGkS4m" opacity="1" fill-opacity="0" stroke="#000000" stroke-width="1" stroke-opacity="0"></use></g></g><g><use xlink:href="#a2RvJqUmC" opacity="1" fill="#0076ff" fill-opacity="1"></use><g><use xlink:href="#a2RvJqUmC" opacity="1" fill-opacity="0" stroke="#000000" stroke-width="1" stroke-opacity="0"></use></g></g><g><use xlink:href="#h1pmSBja9" opacity="1" fill="#0076ff" fill-opacity="1"></use><g><use xlink:href="#h1pmSBja9" opacity="1" fill-opacity="0" stroke="#000000" stroke-width="1" stroke-opacity="0"></use></g></g><g><use xlink:href="#dhjspIuYF" opacity="1" fill="#0076ff" fill-opacity="1"></use><g><use xlink:href="#dhjspIuYF" opacity="1" fill-opacity="0" stroke="#000000" stroke-width="1" stroke-opacity="0"></use></g></g><g><use xlink:href="#i1sbH8CLvd" opacity="1" fill="#f8d708" fill-opacity="0.9"></use><g><use xlink:href="#i1sbH8CLvd" opacity="1" fill-opacity="0" stroke="#000000" stroke-width="1" stroke-opacity="0"></use></g></g><g><use xlink:href="#b2Mai1VwP" opacity="1" fill="#f8af23" fill-opacity="1"></use><g><use xlink:href="#b2Mai1VwP" opacity="1" fill-opacity="0" stroke="#000000" stroke-width="1" stroke-opacity="0"></use></g></g><g><use xlink:href="#b6w2Z9XThC" opacity="1" fill="#63bce7" fill-opacity="1"></use><g><use xlink:href="#b6w2Z9XThC" opacity="1" fill-opacity="0" stroke="#000000" stroke-width="1" stroke-opacity="0"></use></g></g><g><use xlink:href="#augOIZM0m" opacity="1" fill="#63bce7" fill-opacity="1"></use><g><use xlink:href="#augOIZM0m" opacity="1" fill-opacity="0" stroke="#000000" stroke-width="1" stroke-opacity="0"></use></g></g><g><use xlink:href="#d5blqzi9mK" opacity="1" fill="#63bce7" fill-opacity="1"></use><g><use xlink:href="#d5blqzi9mK" opacity="1" fill-opacity="0" stroke="#000000" stroke-width="1" stroke-opacity="0"></use></g></g><g><use xlink:href="#bF98YBOsT" opacity="1" fill="#8e94a9" fill-opacity="1"></use><g><use xlink:href="#bF98YBOsT" opacity="1" fill-opacity="0" stroke="#000000" stroke-width="1" stroke-opacity="0"></use></g></g><g><use xlink:href="#b1gJ2i0kz" opacity="1" fill="#f8d709" fill-opacity="0.9"></use><g><use xlink:href="#b1gJ2i0kz" opacity="1" fill-opacity="0" stroke="#000000" stroke-width="1" stroke-opacity="0"></use></g></g><g><use xlink:href="#c1XlbqlYDx" opacity="1" fill="#f8d709" fill-opacity="0.9"></use><g><use xlink:href="#c1XlbqlYDx" opacity="1" fill-opacity="0" stroke="#000000" stroke-width="1" stroke-opacity="0"></use></g></g><g><use xlink:href="#hep7cmTZk" opacity="1" fill="#707070" fill-opacity="1"></use><g><use xlink:href="#hep7cmTZk" opacity="1" fill-opacity="0" stroke="#000000" stroke-width="1" stroke-opacity="0"></use></g></g><g><use xlink:href="#b3N5n5NwMx" opacity="1" fill="#cecece" fill-opacity="1"></use><g><use xlink:href="#b3N5n5NwMx" opacity="1" fill-opacity="0" stroke="#000000" stroke-width="1" stroke-opacity="0"></use></g></g><g><use xlink:href="#cE1Xt0nqk" opacity="1" fill="#d5e1ff" fill-opacity="1"></use><g><use xlink:href="#cE1Xt0nqk" opacity="1" fill-opacity="0" stroke="#000000" stroke-width="1" stroke-opacity="0"></use></g></g><g><use xlink:href="#i1uymhe70N" opacity="1" fill="#63bce7" fill-opacity="1"></use><g><use xlink:href="#i1uymhe70N" opacity="1" fill-opacity="0" stroke="#000000" stroke-width="1" stroke-opacity="0"></use></g></g><g><use xlink:href="#aXGWQLfBI" opacity="1" fill="#63bce7" fill-opacity="1"></use><g><use xlink:href="#aXGWQLfBI" opacity="1" fill-opacity="0" stroke="#000000" stroke-width="1" stroke-opacity="0"></use></g></g><g><use xlink:href="#a17Fk9bIw" opacity="1" fill="#63bce7" fill-opacity="1"></use><g><use xlink:href="#a17Fk9bIw" opacity="1" fill-opacity="0" stroke="#000000" stroke-width="1" stroke-opacity="0"></use></g></g><g><use xlink:href="#aIaEHI1uH" opacity="1" fill="#3f3679" fill-opacity="1"></use><g><use xlink:href="#aIaEHI1uH" opacity="1" fill-opacity="0" stroke="#000000" stroke-width="1" stroke-opacity="0"></use></g></g><g><use xlink:href="#a40SZEdEH" opacity="1" fill="#3f3679" fill-opacity="1"></use><g><use xlink:href="#a40SZEdEH" opacity="1" fill-opacity="0" stroke="#000000" stroke-width="1" stroke-opacity="0"></use></g></g><g><use xlink:href="#c29VmgSVcs" opacity="1" fill="#3f3679" fill-opacity="1"></use><g><use xlink:href="#c29VmgSVcs" opacity="1" fill-opacity="0" stroke="#000000" stroke-width="1" stroke-opacity="0"></use></g></g><g><use xlink:href="#b6jhxmUVm" opacity="1" fill="#3f3679" fill-opacity="1"></use><g><use xlink:href="#b6jhxmUVm" opacity="1" fill-opacity="0" stroke="#000000" stroke-width="1" stroke-opacity="0"></use></g></g><g><use xlink:href="#a1kyzSMar5" opacity="1" fill="#3f3679" fill-opacity="1"></use><g><use xlink:href="#a1kyzSMar5" opacity="1" fill-opacity="0" stroke="#000000" stroke-width="1" stroke-opacity="0"></use></g></g><g><use xlink:href="#bAWpGHcRK" opacity="1" fill="#3f3679" fill-opacity="1"></use><g><use xlink:href="#bAWpGHcRK" opacity="1" fill-opacity="0" stroke="#000000" stroke-width="1" stroke-opacity="0"></use></g></g><g><use xlink:href="#dwfwTFVcx" opacity="1" fill="#3f3679" fill-opacity="1"></use><g><use xlink:href="#dwfwTFVcx" opacity="1" fill-opacity="0" stroke="#000000" stroke-width="1" stroke-opacity="0"></use></g></g><g><use xlink:href="#e3laom3WeR" opacity="1" fill="#3f3679" fill-opacity="1"></use><g><use xlink:href="#e3laom3WeR" opacity="1" fill-opacity="0" stroke="#000000" stroke-width="1" stroke-opacity="0"></use></g></g><g><use xlink:href="#a3gHMD6DZZ" opacity="1" fill="#3f3679" fill-opacity="1"></use><g><use xlink:href="#a3gHMD6DZZ" opacity="1" fill-opacity="0" stroke="#000000" stroke-width="1" stroke-opacity="0"></use></g></g><g><use xlink:href="#eUebHDcXw" opacity="1" fill="#3f3679" fill-opacity="1"></use><g><use xlink:href="#eUebHDcXw" opacity="1" fill-opacity="0" stroke="#000000" stroke-width="1" stroke-opacity="0"></use></g></g><g><use xlink:href="#b3zI8Sqypk" opacity="1" fill="#3f3679" fill-opacity="1"></use><g><use xlink:href="#b3zI8Sqypk" opacity="1" fill-opacity="0" stroke="#000000" stroke-width="1" stroke-opacity="0"></use></g></g><g><use xlink:href="#c8czp9k3NL" opacity="1" fill="#3f3679" fill-opacity="1"></use><g><use xlink:href="#c8czp9k3NL" opacity="1" fill-opacity="0" stroke="#000000" stroke-width="1" stroke-opacity="0"></use></g></g><g><use xlink:href="#a2ys9JoUtL" opacity="1" fill="#f8d708" fill-opacity="1"></use><g><use xlink:href="#a2ys9JoUtL" opacity="1" fill-opacity="0" stroke="#000000" stroke-width="1" stroke-opacity="0"></use></g></g><g><use xlink:href="#bK892ZmYA" opacity="1" fill="#3f3679" fill-opacity="1"></use><g><use xlink:href="#bK892ZmYA" opacity="1" fill-opacity="0" stroke="#000000" stroke-width="1" stroke-opacity="0"></use></g></g><g><use xlink:href="#b4eCBSjr49" opacity="1" fill="#3f3679" fill-opacity="1"></use><g><use xlink:href="#b4eCBSjr49" opacity="1" fill-opacity="0" stroke="#000000" stroke-width="1" stroke-opacity="0"></use></g></g><g><use xlink:href="#c36QfDMDV2" opacity="1" fill="#3f3679" fill-opacity="1"></use><g><use xlink:href="#c36QfDMDV2" opacity="1" fill-opacity="0" stroke="#000000" stroke-width="1" stroke-opacity="0"></use></g></g><g><use xlink:href="#e2KSAWUBqj" opacity="1" fill="#3f3679" fill-opacity="1"></use><g><use xlink:href="#e2KSAWUBqj" opacity="1" fill-opacity="0" stroke="#000000" stroke-width="1" stroke-opacity="0"></use></g></g><g><use xlink:href="#a2ky4DvKrx" opacity="1" fill="#3f3679" fill-opacity="1"></use><g><use xlink:href="#a2ky4DvKrx" opacity="1" fill-opacity="0" stroke="#000000" stroke-width="1" stroke-opacity="0"></use></g></g><g><use xlink:href="#b1am9QjGSl" opacity="1" fill="#3f3679" fill-opacity="1"></use><g><use xlink:href="#b1am9QjGSl" opacity="1" fill-opacity="0" stroke="#000000" stroke-width="1" stroke-opacity="0"></use></g></g><g><use xlink:href="#e4PoGMDAWt" opacity="1" fill="#f8d708" fill-opacity="1"></use><g><use xlink:href="#e4PoGMDAWt" opacity="1" fill-opacity="0" stroke="#000000" stroke-width="1" stroke-opacity="0"></use></g></g></g></g></svg>