<?xml version="1.0" encoding="UTF-8" standalone="no"?>
<!DOCTYPE svg PUBLIC "-//W3C//DTD SVG 1.1//EN" "http://www.w3.org/Graphics/SVG/1.1/DTD/svg11.dtd">
<svg version="1.1" xmlns="http://www.w3.org/2000/svg" xmlns:xlink="http://www.w3.org/1999/xlink" preserveAspectRatio="xMidYMid meet" viewBox="0 0 640 640" width="640" height="640"><defs><path d="M56 56L360 56L360 488L56 488L56 56Z" id="bNxI1AaZb"></path><path d="M360 360C264 360 210.67 360 200 360C191.16 360 184 367.16 184 376C184 384.84 191.16 392 200 392C202.4 392 221.6 392 224 392C232.84 392 240 399.16 240 408C240 416.84 232.84 424 224 424C212.8 424 156.8 424 56 424L56 248C152 248 205.33 248 216 248C224.84 248 232 240.84 232 232C232 223.16 224.84 216 216 216C213.6 216 194.4 216 192 216C183.16 216 176 208.84 176 200C176 191.16 183.16 184 192 184C200.8 184 271.2 184 280 184C288.84 184 296 176.84 296 168C296 159.16 288.84 152 280 152C276.8 152 251.2 152 248 152C239.16 152 232 144.84 232 136C232 127.16 239.16 120 248 120C255.47 120 292.8 120 360 120L360 360Z" id="d2N5tfh4q"></path><path d="M408 472C374.4 438.4 355.73 419.73 352 416C334.33 398.33 334.33 369.67 352 352C346.4 346.4 301.6 301.6 296 296C287.16 287.16 287.16 272.84 296 264C296 264 296 264 296 264C304.84 255.16 319.16 255.16 328 264C328 264 328 264 328 264C330.13 266.13 340.8 276.8 360 296L360 248C385.65 248 399.9 248 402.76 248C423.74 248 441.16 264.22 442.66 285.15C443.01 290.14 444.79 315.09 448 360L488 400L408 472Z" id="c4QuFL71pK"></path><path d="M144 136C144 136 96 112 96 72C96 45.49 117.49 24 144 24C170.51 24 192 45.49 192 72C192 112 153.6 123.2 144 136Z" id="e1ncnOCNgh"></path><path d="M112 304L152 304L152 336L112 336L112 304Z" id="aFPsJkEM2"></path><path d="M144 56C135.16 56 128 63.16 128 72C128 80.84 135.16 88 144 88C152.84 88 160 80.84 160 72C160 63.16 152.84 56 144 56Z" id="a3lEOOYOH6"></path><path d="M468.67 312.57L484.63 311.43C483.38 293.95 482.69 284.24 482.55 282.3C479.43 240.5 444.67 208.13 402.75 208C402.03 208 398.45 208 392 208L392 224C398.45 224 402.04 224 402.75 224C436.29 224.1 464.1 250 466.59 283.44C466.87 287.32 467.56 297.03 468.67 312.57Z" id="hEPXUqpXf"></path><path d="M148.1 16.14L150.26 16.34L152.4 16.63L154.52 16.99L156.63 17.44L158.71 17.97L160.77 18.57L162.81 19.25L164.82 20.02L166.8 20.85L168.75 21.76L170.66 22.75L172.54 23.81L174.37 24.95L176.17 26.15L177.92 27.43L179.62 28.78L181.28 30.19L182.88 31.68L184.43 33.23L185.92 34.85L187.35 36.54L188.72 38.29L190.03 40.11L191.28 41.99L192.45 43.93L193.56 45.93L194.59 48L360 48L360.33 48.01L360.66 48.03L360.98 48.06L361.3 48.1L361.61 48.16L361.92 48.23L362.23 48.31L362.53 48.41L362.82 48.51L363.11 48.63L363.4 48.76L363.68 48.89L363.95 49.04L364.21 49.2L364.47 49.37L364.72 49.54L364.97 49.73L365.21 49.93L365.44 50.13L365.66 50.34L365.87 50.56L366.07 50.79L366.27 51.03L366.46 51.28L366.63 51.53L366.8 51.79L366.96 52.05L367.11 52.32L367.24 52.6L367.37 52.89L367.49 53.18L367.59 53.47L367.69 53.77L367.77 54.08L367.84 54.39L367.9 54.7L367.94 55.02L367.97 55.34L367.99 55.67L368 56L368 240L402.76 240L404.63 240.04L406.49 240.16L408.34 240.34L410.16 240.59L411.96 240.91L413.73 241.3L415.49 241.75L417.21 242.26L418.91 242.84L420.58 243.47L422.22 244.17L423.83 244.93L425.41 245.74L426.95 246.61L428.46 247.53L429.93 248.5L431.37 249.53L432.76 250.61L434.11 251.74L435.42 252.92L436.69 254.14L437.91 255.41L439.09 256.72L440.21 258.08L441.29 259.47L442.32 260.91L443.3 262.39L444.22 263.91L445.09 265.46L445.9 267.05L446.65 268.67L447.35 270.32L447.98 272.01L448.56 273.72L449.07 275.47L449.52 277.24L449.9 279.04L450.21 280.86L450.46 282.71L450.63 284.58L455.77 356.45L493.66 394.34L482.34 405.66L480.56 403.88L473.84 397.16L472.26 395.58L470.72 394.04L466.34 389.66L464.96 388.28L463.62 386.94L462.32 385.64L457.52 380.84L456.42 379.74L455.36 378.68L454.34 377.66L453.36 376.68L442.56 365.88L442.34 365.66L442.24 365.55L442.14 365.45L442.05 365.34L441.95 365.24L441.86 365.13L441.77 365.02L441.68 364.9L441.59 364.79L441.51 364.67L441.43 364.56L441.34 364.44L441.27 364.32L441.19 364.2L441.12 364.08L441.05 363.96L440.98 363.83L440.91 363.71L440.85 363.58L440.78 363.45L440.72 363.32L440.66 363.19L440.61 363.06L440.56 362.93L440.51 362.8L440.46 362.66L440.41 362.53L440.37 362.39L440.33 362.26L440.29 362.12L440.25 361.98L440.22 361.84L440.18 361.71L440.15 361.57L440.13 361.43L440.1 361.28L440.08 361.14L440.06 361L440.05 360.86L440.03 360.71L440.02 360.57L434.67 285.72L434.56 284.47L434.39 283.24L434.18 282.03L433.93 280.83L433.63 279.65L433.29 278.48L432.91 277.34L432.48 276.21L432.02 275.11L431.52 274.03L430.98 272.97L430.4 271.94L429.78 270.93L429.13 269.94L428.45 268.98L427.73 268.05L426.98 267.15L426.19 266.27L425.38 265.43L424.53 264.61L423.66 263.83L422.76 263.07L421.83 262.36L420.87 261.67L419.89 261.02L418.89 260.4L417.86 259.83L416.81 259.28L415.73 258.78L414.64 258.32L413.53 257.89L412.39 257.51L411.24 257.16L410.07 256.86L408.89 256.61L407.69 256.39L406.48 256.23L405.25 256.1L404.01 256.03L402.76 256L368 256L368 292.69L389.66 314.34L378.34 325.66L322.34 269.66L321.91 269.24L321.46 268.84L321 268.47L320.53 268.11L320.05 267.78L319.56 267.47L319.06 267.18L318.55 266.92L318.03 266.67L317.5 266.44L316.97 266.24L316.44 266.06L315.89 265.9L315.35 265.76L314.79 265.64L314.24 265.54L313.68 265.47L313.12 265.42L312.56 265.38L312 265.37L311.44 265.38L310.88 265.42L310.32 265.47L309.76 265.54L309.21 265.64L308.65 265.76L308.11 265.9L307.56 266.06L307.03 266.24L306.5 266.44L305.97 266.67L305.45 266.92L304.94 267.18L304.44 267.47L303.95 267.78L303.47 268.11L303 268.47L302.54 268.84L302.09 269.24L301.66 269.66L301.24 270.09L300.84 270.54L300.47 271L300.11 271.47L299.78 271.95L299.47 272.44L299.18 272.94L298.92 273.45L298.67 273.97L298.44 274.5L298.24 275.03L298.06 275.56L297.9 276.11L297.76 276.65L297.64 277.21L297.54 277.76L297.47 278.32L297.42 278.88L297.38 279.44L297.37 280L297.38 280.56L297.42 281.12L297.47 281.68L297.54 282.24L297.64 282.79L297.76 283.35L297.9 283.89L298.06 284.44L298.24 284.97L298.44 285.5L298.67 286.03L298.92 286.55L299.18 287.06L299.47 287.56L299.78 288.05L300.11 288.53L300.47 289L300.84 289.46L301.24 289.91L301.66 290.34L357.66 346.34L357.89 346.58L358.1 346.83L358.31 347.08L358.5 347.33L358.68 347.6L358.85 347.87L359.01 348.14L359.16 348.42L359.29 348.7L359.41 348.99L359.53 349.28L359.63 349.57L359.71 349.87L359.79 350.17L359.85 350.47L359.91 350.78L359.95 351.08L359.98 351.39L359.99 351.69L360 352L359.99 352.31L359.98 352.61L359.95 352.92L359.91 353.22L359.85 353.53L359.79 353.83L359.71 354.13L359.63 354.43L359.53 354.72L359.41 355.01L359.29 355.3L359.16 355.58L359.01 355.86L358.85 356.13L358.68 356.4L358.5 356.67L358.31 356.92L358.1 357.17L357.89 357.42L357.66 357.66L356.59 358.77L355.59 359.91L354.63 361.08L353.74 362.28L352.89 363.5L352.1 364.76L351.37 366.03L350.69 367.33L350.06 368.65L349.49 369.98L348.97 371.34L348.51 372.71L348.1 374.09L347.74 375.48L347.44 376.89L347.2 378.3L347.01 379.72L346.87 381.14L346.79 382.57L346.76 384L346.79 385.43L346.87 386.86L347.01 388.28L347.2 389.7L347.44 391.11L347.74 392.52L348.1 393.91L348.51 395.29L348.97 396.66L349.49 398.02L350.06 399.35L350.69 400.67L351.37 401.97L352.1 403.24L352.89 404.5L353.74 405.72L354.63 406.92L355.59 408.09L356.59 409.23L357.66 410.34L358.33 411.02L359.76 412.44L360.35 413.03L362.45 415.13L363.26 415.94L364.13 416.81L365.05 417.74L366.03 418.72L367.07 419.75L374.46 427.14L380.51 433.19L382.16 434.84L383.87 436.55L385.63 438.32L399.55 452.23L401.76 454.44L404.03 456.71L406.35 459.04L413.66 466.34L402.34 477.66L368 443.31L368 488L367.99 488.33L367.97 488.66L367.94 488.98L367.9 489.3L367.84 489.61L367.77 489.92L367.69 490.23L367.59 490.53L367.49 490.82L367.37 491.11L367.24 491.4L367.11 491.68L366.96 491.95L366.8 492.21L366.63 492.47L366.46 492.72L366.27 492.97L366.07 493.21L365.87 493.44L365.66 493.66L365.44 493.87L365.21 494.07L364.97 494.27L364.72 494.46L364.47 494.63L364.21 494.8L363.95 494.96L363.68 495.11L363.4 495.24L363.11 495.37L362.82 495.49L362.53 495.59L362.23 495.69L361.92 495.77L361.61 495.84L361.3 495.9L360.98 495.94L360.66 495.97L360.33 495.99L360 496L56 496L55.67 495.99L55.34 495.97L55.02 495.94L54.7 495.9L54.39 495.84L54.08 495.77L53.77 495.69L53.47 495.59L53.18 495.49L52.89 495.37L52.6 495.24L52.32 495.11L52.05 494.96L51.79 494.8L51.53 494.63L51.28 494.46L51.03 494.27L50.79 494.07L50.56 493.87L50.34 493.66L50.13 493.44L49.93 493.21L49.73 492.97L49.54 492.72L49.37 492.47L49.2 492.21L49.04 491.95L48.89 491.68L48.76 491.4L48.63 491.11L48.51 490.82L48.41 490.53L48.31 490.23L48.23 489.92L48.16 489.61L48.1 489.3L48.06 488.98L48.03 488.66L48.01 488.33L48 488L48 56L48.01 55.67L48.03 55.34L48.06 55.02L48.1 54.7L48.16 54.39L48.23 54.08L48.31 53.77L48.41 53.47L48.51 53.18L48.63 52.89L48.76 52.6L48.89 52.32L49.04 52.05L49.2 51.79L49.37 51.53L49.54 51.28L49.73 51.03L49.93 50.79L50.13 50.56L50.34 50.34L50.56 50.13L50.79 49.93L51.03 49.73L51.28 49.54L51.53 49.37L51.79 49.2L52.05 49.04L52.32 48.89L52.6 48.76L52.89 48.63L53.18 48.51L53.47 48.41L53.77 48.31L54.08 48.23L54.39 48.16L54.7 48.1L55.02 48.06L55.34 48.03L55.67 48.01L56 48L93.41 48L93.84 47.13L94.27 46.27L94.72 45.41L95.19 44.57L95.67 43.73L96.16 42.91L96.67 42.09L97.19 41.28L97.72 40.49L98.26 39.7L98.82 38.92L99.39 38.15L99.98 37.4L100.58 36.65L101.19 35.91L101.81 35.19L102.44 34.47L103.09 33.77L103.74 33.08L104.41 32.4L105.09 31.73L105.79 31.07L106.49 30.42L107.2 29.79L107.93 29.17L108.67 28.56L109.41 27.96L110.17 27.38L110.94 26.81L111.72 26.25L112.5 25.7L113.3 25.17L114.11 24.65L114.92 24.14L115.75 23.65L116.59 23.17L117.43 22.71L118.28 22.26L119.15 21.82L120.02 21.4L122.12 20.45L124.25 19.6L126.38 18.84L128.54 18.17L130.7 17.59L132.87 17.1L135.05 16.7L137.23 16.39L139.41 16.17L141.59 16.04L143.77 15.99L145.94 16.02L148.1 16.14ZM199.67 368.01L199.34 368.03L199.02 368.06L198.7 368.1L198.39 368.16L198.08 368.23L197.77 368.31L197.47 368.41L197.18 368.51L196.89 368.63L196.6 368.76L196.32 368.89L196.05 369.04L195.79 369.2L195.53 369.37L195.28 369.54L195.03 369.73L194.79 369.93L194.56 370.13L194.34 370.34L194.13 370.56L193.93 370.79L193.73 371.03L193.54 371.28L193.37 371.53L193.2 371.79L193.04 372.05L192.89 372.32L192.76 372.6L192.63 372.89L192.51 373.18L192.41 373.47L192.31 373.77L192.23 374.08L192.16 374.39L192.1 374.7L192.06 375.02L192.03 375.34L192.01 375.67L192 376L192.01 376.33L192.03 376.66L192.06 376.98L192.1 377.3L192.16 377.61L192.23 377.92L192.31 378.23L192.41 378.53L192.51 378.82L192.63 379.11L192.76 379.4L192.89 379.68L193.04 379.95L193.2 380.21L193.37 380.47L193.54 380.72L193.73 380.97L193.93 381.21L194.13 381.44L194.34 381.66L194.56 381.87L194.79 382.07L195.03 382.27L195.28 382.46L195.53 382.63L195.79 382.8L196.05 382.96L196.32 383.11L196.6 383.24L196.89 383.37L197.18 383.49L197.47 383.59L197.77 383.69L198.08 383.77L198.39 383.84L198.7 383.9L199.02 383.94L199.34 383.97L199.67 383.99L200 384L224 384L224.99 384.02L225.97 384.08L226.94 384.18L227.89 384.31L228.84 384.49L229.77 384.7L230.68 384.94L231.59 385.22L232.47 385.54L233.34 385.89L234.19 386.27L235.03 386.68L235.85 387.12L236.64 387.6L237.42 388.1L238.17 388.63L238.91 389.19L239.62 389.78L240.31 390.39L240.97 391.03L241.61 391.69L242.22 392.38L242.81 393.09L243.37 393.83L243.9 394.58L244.4 395.36L244.88 396.15L245.32 396.97L245.73 397.81L246.11 398.66L246.46 399.53L246.78 400.41L247.06 401.32L247.3 402.23L247.51 403.16L247.69 404.11L247.82 405.06L247.92 406.03L247.98 407.01L248 408L247.98 408.99L247.92 409.97L247.82 410.94L247.69 411.89L247.51 412.84L247.3 413.77L247.06 414.68L246.78 415.59L246.46 416.47L246.11 417.34L245.73 418.19L245.32 419.03L244.88 419.85L244.4 420.64L243.9 421.42L243.37 422.17L242.81 422.91L242.22 423.62L241.61 424.31L240.97 424.97L240.31 425.61L239.62 426.22L238.91 426.81L238.17 427.37L237.42 427.9L236.64 428.4L235.85 428.88L235.03 429.32L234.19 429.73L233.34 430.11L232.47 430.46L231.59 430.78L230.68 431.06L229.77 431.3L228.84 431.51L227.89 431.69L226.94 431.82L225.97 431.92L224.99 431.98L224 432L64 432L64 480L352 480L352 427.31L346.34 421.66L345.31 420.59L344.31 419.5L343.34 418.39L342.41 417.25L341.51 416.09L340.65 414.92L339.82 413.72L339.02 412.5L338.26 411.26L337.54 410.01L336.85 408.74L336.2 407.45L335.58 406.15L335 404.83L334.46 403.5L333.95 402.15L333.48 400.8L333.05 399.43L332.65 398.05L332.29 396.66L331.97 395.26L331.69 393.86L331.44 392.44L331.23 391.02L331.06 389.59L330.93 388.16L330.84 386.72L330.78 385.28L330.77 383.84L330.79 382.4L330.85 380.95L330.96 379.5L331.1 378.06L331.28 376.61L331.5 375.17L331.77 373.72L332.07 372.29L332.41 370.85L332.8 369.42L333.23 368L200 368L199.67 368.01ZM247.67 128.01L247.34 128.03L247.02 128.06L246.7 128.1L246.39 128.16L246.08 128.23L245.77 128.31L245.47 128.41L245.18 128.51L244.89 128.63L244.6 128.76L244.32 128.89L244.05 129.04L243.79 129.2L243.53 129.37L243.28 129.54L243.03 129.73L242.79 129.93L242.56 130.13L242.34 130.34L242.13 130.56L241.93 130.79L241.73 131.03L241.54 131.28L241.37 131.53L241.2 131.79L241.04 132.05L240.89 132.32L240.76 132.6L240.63 132.89L240.51 133.18L240.41 133.47L240.31 133.77L240.23 134.08L240.16 134.39L240.1 134.7L240.06 135.02L240.03 135.34L240.01 135.67L240 136L240.01 136.33L240.03 136.66L240.06 136.98L240.1 137.3L240.16 137.61L240.23 137.92L240.31 138.23L240.41 138.53L240.51 138.82L240.63 139.11L240.76 139.4L240.89 139.68L241.04 139.95L241.2 140.21L241.37 140.47L241.54 140.72L241.73 140.97L241.93 141.21L242.13 141.44L242.34 141.66L242.56 141.87L242.79 142.07L243.03 142.27L243.28 142.46L243.53 142.63L243.79 142.8L244.05 142.96L244.32 143.11L244.6 143.24L244.89 143.37L245.18 143.49L245.47 143.59L245.77 143.69L246.08 143.77L246.39 143.84L246.7 143.9L247.02 143.94L247.34 143.97L247.67 143.99L248 144L280 144L280.99 144.02L281.97 144.08L282.94 144.18L283.89 144.31L284.84 144.49L285.77 144.7L286.68 144.94L287.59 145.22L288.47 145.54L289.34 145.89L290.19 146.27L291.03 146.68L291.85 147.12L292.64 147.6L293.42 148.1L294.17 148.63L294.91 149.19L295.62 149.78L296.31 150.39L296.97 151.03L297.61 151.69L298.22 152.38L298.81 153.09L299.37 153.83L299.9 154.58L300.4 155.36L300.88 156.15L301.32 156.97L301.73 157.81L302.11 158.66L302.46 159.53L302.78 160.41L303.06 161.32L303.3 162.23L303.51 163.16L303.69 164.11L303.82 165.06L303.92 166.03L303.98 167.01L304 168L303.98 168.99L303.92 169.97L303.82 170.94L303.69 171.89L303.51 172.84L303.3 173.77L303.06 174.68L302.78 175.59L302.46 176.47L302.11 177.34L301.73 178.19L301.32 179.03L300.88 179.85L300.4 180.64L299.9 181.42L299.37 182.17L298.81 182.91L298.22 183.62L297.61 184.31L296.97 184.97L296.31 185.61L295.62 186.22L294.91 186.81L294.17 187.37L293.42 187.9L292.64 188.4L291.85 188.88L291.03 189.32L290.19 189.73L289.34 190.11L288.47 190.46L287.59 190.78L286.68 191.06L285.77 191.3L284.84 191.51L283.89 191.69L282.94 191.82L281.97 191.92L280.99 191.98L280 192L192 192L191.67 192.01L191.34 192.03L191.02 192.06L190.7 192.1L190.39 192.16L190.08 192.23L189.77 192.31L189.47 192.41L189.18 192.51L188.89 192.63L188.6 192.76L188.32 192.89L188.05 193.04L187.79 193.2L187.53 193.37L187.28 193.54L187.03 193.73L186.79 193.93L186.56 194.13L186.34 194.34L186.13 194.56L185.93 194.79L185.73 195.03L185.54 195.28L185.37 195.53L185.2 195.79L185.04 196.05L184.89 196.32L184.76 196.6L184.63 196.89L184.51 197.18L184.41 197.47L184.31 197.77L184.23 198.08L184.16 198.39L184.1 198.7L184.06 199.02L184.03 199.34L184.01 199.67L184 200L184.01 200.33L184.03 200.66L184.06 200.98L184.1 201.3L184.16 201.61L184.23 201.92L184.31 202.23L184.41 202.53L184.51 202.82L184.63 203.11L184.76 203.4L184.89 203.68L185.04 203.95L185.2 204.21L185.37 204.47L185.54 204.72L185.73 204.97L185.93 205.21L186.13 205.44L186.34 205.66L186.56 205.87L186.79 206.07L187.03 206.27L187.28 206.46L187.53 206.63L187.79 206.8L188.05 206.96L188.32 207.11L188.6 207.24L188.89 207.37L189.18 207.49L189.47 207.59L189.77 207.69L190.08 207.77L190.39 207.84L190.7 207.9L191.02 207.94L191.34 207.97L191.67 207.99L192 208L216 208L216.99 208.02L217.97 208.08L218.94 208.18L219.89 208.31L220.84 208.49L221.77 208.7L222.68 208.94L223.59 209.22L224.47 209.54L225.34 209.89L226.19 210.27L227.03 210.68L227.85 211.12L228.64 211.6L229.42 212.1L230.17 212.63L230.91 213.19L231.62 213.78L232.31 214.39L232.97 215.03L233.61 215.69L234.22 216.38L234.81 217.09L235.37 217.83L235.9 218.58L236.4 219.36L236.88 220.15L237.32 220.97L237.73 221.81L238.11 222.66L238.46 223.53L238.78 224.41L239.06 225.32L239.3 226.23L239.51 227.16L239.69 228.11L239.82 229.06L239.92 230.03L239.98 231.01L240 232L239.98 232.99L239.92 233.97L239.82 234.94L239.69 235.89L239.51 236.84L239.3 237.77L239.06 238.68L238.78 239.59L238.46 240.47L238.11 241.34L237.73 242.19L237.32 243.03L236.88 243.85L236.4 244.64L235.9 245.42L235.37 246.17L234.81 246.91L234.22 247.62L233.61 248.31L232.97 248.97L232.31 249.61L231.62 250.22L230.91 250.81L230.17 251.37L229.42 251.9L228.64 252.4L227.85 252.88L227.03 253.32L226.19 253.73L225.34 254.11L224.47 254.46L223.59 254.78L222.68 255.06L221.77 255.3L220.84 255.51L219.89 255.69L218.94 255.82L217.97 255.92L216.99 255.98L216 256L64 256L64 416L224 416L224.33 415.99L224.66 415.97L224.98 415.94L225.3 415.9L225.61 415.84L225.92 415.77L226.23 415.69L226.53 415.59L226.82 415.49L227.11 415.37L227.4 415.24L227.68 415.11L227.95 414.96L228.21 414.8L228.47 414.63L228.72 414.46L228.97 414.27L229.21 414.07L229.44 413.87L229.66 413.66L229.87 413.44L230.07 413.21L230.27 412.97L230.46 412.72L230.63 412.47L230.8 412.21L230.96 411.95L231.11 411.68L231.24 411.4L231.37 411.11L231.49 410.82L231.59 410.53L231.69 410.23L231.77 409.92L231.84 409.61L231.9 409.3L231.94 408.98L231.97 408.66L231.99 408.33L232 408L231.99 407.67L231.97 407.34L231.94 407.02L231.9 406.7L231.84 406.39L231.77 406.08L231.69 405.77L231.59 405.47L231.49 405.18L231.37 404.89L231.24 404.6L231.11 404.32L230.96 404.05L230.8 403.79L230.63 403.53L230.46 403.28L230.27 403.03L230.07 402.79L229.87 402.56L229.66 402.34L229.44 402.13L229.21 401.93L228.97 401.73L228.72 401.54L228.47 401.37L228.21 401.2L227.95 401.04L227.68 400.89L227.4 400.76L227.11 400.63L226.82 400.51L226.53 400.41L226.23 400.31L225.92 400.23L225.61 400.16L225.3 400.1L224.98 400.06L224.66 400.03L224.33 400.01L224 400L200 400L199.01 399.98L198.03 399.92L197.06 399.82L196.11 399.69L195.16 399.51L194.23 399.3L193.32 399.06L192.41 398.78L191.53 398.46L190.66 398.11L189.81 397.73L188.97 397.32L188.15 396.88L187.36 396.4L186.58 395.9L185.83 395.37L185.09 394.81L184.38 394.22L183.69 393.61L183.03 392.97L182.39 392.31L181.78 391.62L181.19 390.91L180.63 390.17L180.1 389.42L179.6 388.64L179.12 387.85L178.68 387.03L178.27 386.19L177.89 385.34L177.54 384.47L177.22 383.59L176.94 382.68L176.7 381.77L176.49 380.84L176.31 379.89L176.18 378.94L176.08 377.97L176.02 376.99L176 376L176.02 375.01L176.08 374.03L176.18 373.06L176.31 372.11L176.49 371.16L176.7 370.23L176.94 369.32L177.22 368.41L177.54 367.53L177.89 366.66L178.27 365.81L178.68 364.97L179.12 364.15L179.6 363.36L180.1 362.58L180.63 361.83L181.19 361.09L181.78 360.38L182.39 359.69L183.03 359.03L183.69 358.39L184.38 357.78L185.09 357.19L185.83 356.63L186.58 356.1L187.36 355.6L188.15 355.12L188.97 354.68L189.81 354.27L190.66 353.89L191.53 353.54L192.41 353.22L193.32 352.94L194.23 352.7L195.16 352.49L196.11 352.31L197.06 352.18L198.03 352.08L199.01 352.02L200 352L340.69 352L290.34 301.66L289.48 300.75L288.66 299.81L287.88 298.85L287.15 297.87L286.47 296.87L285.82 295.84L285.22 294.8L284.67 293.74L284.16 292.66L283.7 291.57L283.27 290.46L282.9 289.34L282.57 288.21L282.28 287.07L282.03 285.92L281.83 284.77L281.68 283.61L281.57 282.44L281.5 281.28L281.48 280.11L281.5 278.94L281.57 277.77L281.68 276.61L281.83 275.45L282.03 274.29L282.28 273.14L282.57 272.01L282.9 270.88L283.27 269.76L283.7 268.65L284.16 267.56L284.67 266.48L285.22 265.42L285.82 264.37L286.47 263.35L287.15 262.34L287.88 261.36L288.66 260.4L289.48 259.47L290.34 258.56L291.25 257.68L292.18 256.84L293.14 256.05L294.12 255.31L295.13 254.61L296.15 253.95L297.2 253.34L298.26 252.78L299.34 252.26L300.44 251.78L301.55 251.35L302.68 250.96L303.81 250.62L304.96 250.32L306.11 250.07L307.27 249.86L308.44 249.7L309.61 249.58L310.78 249.51L311.96 249.48L313.13 249.5L314.31 249.56L315.48 249.66L316.65 249.82L317.81 250.01L318.96 250.25L320.11 250.54L321.25 250.87L322.38 251.24L323.49 251.67L324.59 252.13L325.68 252.64L326.75 253.2L327.8 253.8L328.83 254.44L329.84 255.13L330.83 255.87L331.8 256.65L332.74 257.47L333.66 258.34L352 276.69L352 128L248 128L247.67 128.01ZM64 240L216 240L216.33 239.99L216.66 239.97L216.98 239.94L217.3 239.9L217.61 239.84L217.92 239.77L218.23 239.69L218.53 239.59L218.82 239.49L219.11 239.37L219.4 239.24L219.68 239.11L219.95 238.96L220.21 238.8L220.47 238.63L220.72 238.46L220.97 238.27L221.21 238.07L221.44 237.87L221.66 237.66L221.87 237.44L222.07 237.21L222.27 236.97L222.46 236.72L222.63 236.47L222.8 236.21L222.96 235.95L223.11 235.68L223.24 235.4L223.37 235.11L223.49 234.82L223.59 234.53L223.69 234.23L223.77 233.92L223.84 233.61L223.9 233.3L223.94 232.98L223.97 232.66L223.99 232.33L224 232L223.99 231.67L223.97 231.34L223.94 231.02L223.9 230.7L223.84 230.39L223.77 230.08L223.69 229.77L223.59 229.47L223.49 229.18L223.37 228.89L223.24 228.6L223.11 228.32L222.96 228.05L222.8 227.79L222.63 227.53L222.46 227.28L222.27 227.03L222.07 226.79L221.87 226.56L221.66 226.34L221.44 226.13L221.21 225.93L220.97 225.73L220.72 225.54L220.47 225.37L220.21 225.2L219.95 225.04L219.68 224.89L219.4 224.76L219.11 224.63L218.82 224.51L218.53 224.41L218.23 224.31L217.92 224.23L217.61 224.16L217.3 224.1L216.98 224.06L216.66 224.03L216.33 224.01L216 224L192 224L191.01 223.98L190.03 223.92L189.06 223.82L188.11 223.69L187.16 223.51L186.23 223.3L185.32 223.06L184.41 222.78L183.53 222.46L182.66 222.11L181.81 221.73L180.97 221.32L180.15 220.88L179.36 220.4L178.58 219.9L177.83 219.37L177.09 218.81L176.38 218.22L175.69 217.61L175.03 216.97L174.39 216.31L173.78 215.62L173.19 214.91L172.63 214.17L172.1 213.42L171.6 212.64L171.12 211.85L170.68 211.03L170.27 210.19L169.89 209.34L169.54 208.47L169.22 207.59L168.94 206.68L168.7 205.77L168.49 204.84L168.31 203.89L168.18 202.94L168.08 201.97L168.02 200.99L168 200L168.02 199.01L168.08 198.03L168.18 197.06L168.31 196.11L168.49 195.16L168.7 194.23L168.94 193.32L169.22 192.41L169.54 191.53L169.89 190.66L170.27 189.81L170.68 188.97L171.12 188.15L171.6 187.36L172.1 186.58L172.63 185.83L173.19 185.09L173.78 184.38L174.39 183.69L175.03 183.03L175.69 182.39L176.38 181.78L177.09 181.19L177.83 180.63L178.58 180.1L179.36 179.6L180.15 179.12L180.97 178.68L181.81 178.27L182.66 177.89L183.53 177.54L184.41 177.22L185.32 176.94L186.23 176.7L187.16 176.49L188.11 176.31L189.06 176.18L190.03 176.08L191.01 176.02L192 176L280 176L280.33 175.99L280.66 175.97L280.98 175.94L281.3 175.9L281.61 175.84L281.92 175.77L282.23 175.69L282.53 175.59L282.82 175.49L283.11 175.37L283.4 175.24L283.68 175.11L283.95 174.96L284.21 174.8L284.47 174.63L284.72 174.46L284.97 174.27L285.21 174.07L285.44 173.87L285.66 173.66L285.87 173.44L286.07 173.21L286.27 172.97L286.46 172.72L286.63 172.47L286.8 172.21L286.96 171.95L287.11 171.68L287.24 171.4L287.37 171.11L287.49 170.82L287.59 170.53L287.69 170.23L287.77 169.92L287.84 169.61L287.9 169.3L287.94 168.98L287.97 168.66L287.99 168.33L288 168L287.99 167.67L287.97 167.34L287.94 167.02L287.9 166.7L287.84 166.39L287.77 166.08L287.69 165.77L287.59 165.47L287.49 165.18L287.37 164.89L287.24 164.6L287.11 164.32L286.96 164.05L286.8 163.79L286.63 163.53L286.46 163.28L286.27 163.03L286.07 162.79L285.87 162.56L285.66 162.34L285.44 162.13L285.21 161.93L284.97 161.73L284.72 161.54L284.47 161.37L284.21 161.2L283.95 161.04L283.68 160.89L283.4 160.76L283.11 160.63L282.82 160.51L282.53 160.41L282.23 160.31L281.92 160.23L281.61 160.16L281.3 160.1L280.98 160.06L280.66 160.03L280.33 160.01L280 160L248 160L247.01 159.98L246.03 159.92L245.06 159.82L244.11 159.69L243.16 159.51L242.23 159.3L241.32 159.06L240.41 158.78L239.53 158.46L238.66 158.11L237.81 157.73L236.97 157.32L236.15 156.88L235.36 156.4L234.58 155.9L233.83 155.37L233.09 154.81L232.38 154.22L231.69 153.61L231.03 152.97L230.39 152.31L229.78 151.62L229.19 150.91L228.63 150.17L228.1 149.42L227.6 148.64L227.12 147.85L226.68 147.03L226.27 146.19L225.89 145.34L225.54 144.47L225.22 143.59L224.94 142.68L224.7 141.77L224.49 140.84L224.31 139.89L224.18 138.94L224.08 137.97L224.02 136.99L224 136L224.02 135.01L224.08 134.03L224.18 133.06L224.31 132.11L224.49 131.16L224.7 130.23L224.94 129.32L225.22 128.41L225.54 127.53L225.89 126.66L226.27 125.81L226.68 124.97L227.12 124.15L227.6 123.36L228.1 122.58L228.63 121.83L229.19 121.09L229.78 120.38L230.39 119.69L231.03 119.03L231.69 118.39L232.38 117.78L233.09 117.19L233.83 116.63L234.58 116.1L235.36 115.6L236.15 115.12L236.97 114.68L237.81 114.27L238.66 113.89L239.53 113.54L240.41 113.22L241.32 112.94L242.23 112.7L243.16 112.49L244.11 112.31L245.06 112.18L246.03 112.08L247.01 112.02L248 112L352 112L352 64L199.42 64L199.45 64.2L199.48 64.4L199.5 64.6L199.53 64.8L199.55 64.99L199.58 65.19L199.6 65.39L199.63 65.59L199.65 65.79L199.67 65.99L199.69 66.19L199.71 66.39L199.73 66.59L199.75 66.79L199.77 66.99L199.79 67.19L199.81 67.39L199.82 67.59L199.84 67.79L199.85 67.99L199.87 68.19L199.88 68.39L199.89 68.59L199.9 68.79L199.92 68.99L199.93 69.19L199.94 69.39L199.95 69.59L199.95 69.79L199.96 69.99L199.97 70.19L199.98 70.39L199.98 70.59L199.99 70.8L199.99 71L199.99 71.2L200 71.4L200 71.6L200 71.8L200 72L199.98 73.4L199.93 74.8L199.85 76.19L199.73 77.58L199.57 78.98L199.38 80.36L199.16 81.75L198.9 83.13L198.61 84.52L198.29 85.89L197.93 87.27L197.54 88.64L197.12 90.01L196.66 91.37L196.17 92.73L195.65 94.09L195.09 95.44L194.5 96.79L193.88 98.13L193.23 99.46L192.54 100.8L191.82 102.12L191.07 103.45L190.28 104.76L189.46 106.07L188.62 107.38L187.73 108.67L186.82 109.97L185.88 111.25L184.9 112.53L183.89 113.8L182.85 115.06L181.78 116.32L180.68 117.57L179.54 118.81L178.38 120.05L177.18 121.27L175.95 122.49L174.7 123.7L173.41 124.9L172.82 125.43L172.23 125.96L171.64 126.49L171.04 127.01L170.44 127.53L169.84 128.05L169.23 128.56L168.62 129.07L168.01 129.57L167.39 130.07L166.77 130.57L166.15 131.06L165.53 131.55L164.9 132.03L164.27 132.51L163.63 132.98L163 133.46L162.36 133.92L161.72 134.39L161.07 134.85L160.42 135.3L159.77 135.75L159.12 136.2L158.46 136.64L157.8 137.08L157.14 137.52L156.47 137.95L155.8 138.37L155.13 138.8L154.46 139.21L153.78 139.63L153.1 140.04L152.42 140.44L151.74 140.84L151.05 141.24L150.36 141.63L149.67 142.02L148.97 142.4L148.28 142.78L147.58 143.16L147.41 143.24L147.24 143.32L147.06 143.39L146.89 143.46L146.72 143.53L146.54 143.59L146.36 143.65L146.19 143.7L146.01 143.75L145.83 143.79L145.65 143.83L145.46 143.87L145.28 143.9L145.1 143.93L144.92 143.95L144.73 143.97L144.55 143.98L144.37 143.99L144.18 144L144 144L143.82 144L143.63 143.99L143.45 143.98L143.27 143.97L143.08 143.95L142.9 143.93L142.72 143.9L142.54 143.87L142.35 143.83L142.17 143.79L141.99 143.75L141.81 143.7L141.64 143.65L141.46 143.59L141.28 143.53L141.11 143.46L140.94 143.39L140.76 143.32L140.59 143.24L140.42 143.16L139.72 142.78L139.03 142.4L138.33 142.02L137.64 141.63L136.95 141.24L136.26 140.84L135.58 140.44L134.9 140.04L134.22 139.63L133.54 139.21L132.87 138.8L132.2 138.37L131.53 137.95L130.86 137.52L130.2 137.08L129.54 136.64L128.88 136.2L128.23 135.75L127.58 135.3L126.93 134.85L126.28 134.39L125.64 133.92L125 133.46L124.37 132.98L123.73 132.51L123.1 132.03L122.47 131.55L121.85 131.06L121.23 130.57L120.61 130.07L119.99 129.57L119.38 129.07L118.77 128.56L118.16 128.05L117.56 127.53L116.96 127.01L116.36 126.49L115.77 125.96L115.18 125.43L114.59 124.9L113.3 123.7L112.05 122.49L110.82 121.27L109.62 120.05L108.46 118.81L107.32 117.57L106.22 116.32L105.15 115.06L104.11 113.8L103.1 112.53L102.12 111.25L101.18 109.97L100.27 108.67L99.38 107.38L98.54 106.07L97.72 104.76L96.93 103.45L96.18 102.12L95.46 100.8L94.77 99.46L94.12 98.13L93.5 96.79L92.91 95.44L92.35 94.09L91.83 92.73L91.34 91.37L90.88 90.01L90.46 88.64L90.07 87.27L89.71 85.89L89.39 84.52L89.1 83.13L88.84 81.75L88.62 80.36L88.43 78.98L88.27 77.58L88.15 76.19L88.07 74.8L88.02 73.4L88 72L88 71.8L88 71.6L88 71.4L88.01 71.2L88.01 71L88.01 70.8L88.02 70.59L88.02 70.39L88.03 70.19L88.04 69.99L88.05 69.79L88.05 69.59L88.06 69.39L88.07 69.19L88.08 68.99L88.1 68.79L88.11 68.59L88.12 68.39L88.13 68.19L88.15 67.99L88.16 67.79L88.18 67.59L88.19 67.39L88.21 67.19L88.23 66.99L88.25 66.79L88.27 66.59L88.29 66.39L88.31 66.19L88.33 65.99L88.35 65.79L88.37 65.59L88.4 65.39L88.42 65.19L88.45 64.99L88.47 64.8L88.5 64.6L88.52 64.4L88.55 64.2L88.58 64L64 64L64 240ZM140.72 32.14L139.11 32.3L137.51 32.53L135.94 32.82L134.39 33.17L132.87 33.58L131.36 34.05L129.89 34.57L128.44 35.16L127.02 35.79L125.63 36.48L124.27 37.22L122.94 38.01L121.65 38.84L120.39 39.73L119.17 40.66L117.98 41.64L116.83 42.66L115.73 43.73L114.66 44.83L113.64 45.98L112.66 47.17L111.73 48.39L110.84 49.65L110.01 50.94L109.22 52.27L108.48 53.63L107.79 55.02L107.16 56.44L106.57 57.89L106.05 59.36L105.58 60.87L105.17 62.39L104.82 63.94L104.53 65.51L104.3 67.11L104.14 68.72L104.04 70.35L104 72L104.05 74.13L104.22 76.22L104.48 78.28L104.84 80.31L105.29 82.3L105.83 84.26L106.46 86.19L107.16 88.08L107.94 89.93L108.78 91.75L109.7 93.53L110.67 95.27L111.7 96.97L112.78 98.64L113.91 100.27L115.08 101.86L116.28 103.4L117.52 104.91L118.79 106.38L120.09 107.8L121.4 109.19L122.73 110.53L124.07 111.83L125.41 113.08L126.76 114.29L128.1 115.46L129.44 116.58L130.76 117.66L132.07 118.69L133.35 119.67L134.61 120.61L135.83 121.5L137.03 122.34L138.18 123.13L139.29 123.87L140.35 124.57L141.35 125.21L142.3 125.8L143.18 126.35L144 126.84L144.82 126.35L145.7 125.8L146.65 125.21L147.65 124.57L148.71 123.87L149.82 123.13L150.97 122.34L152.16 121.5L153.39 120.61L154.65 119.67L155.93 118.69L157.24 117.66L158.56 116.58L159.89 115.46L161.24 114.3L162.58 113.09L163.93 111.83L165.27 110.53L166.6 109.19L167.91 107.81L169.2 106.38L170.47 104.92L171.71 103.41L172.92 101.86L174.09 100.27L175.22 98.64L176.3 96.98L177.33 95.27L178.3 93.53L179.22 91.75L180.06 89.93L180.84 88.08L181.54 86.19L182.17 84.26L182.71 82.3L183.16 80.31L183.52 78.28L183.78 76.22L183.95 74.13L184 72L183.96 70.35L183.86 68.72L183.7 67.11L183.47 65.51L183.18 63.94L182.83 62.39L182.42 60.87L181.95 59.36L181.43 57.89L180.84 56.44L180.21 55.02L179.52 53.63L178.78 52.27L177.99 50.94L177.16 49.65L176.27 48.39L175.34 47.17L174.36 45.98L173.34 44.83L172.27 43.73L171.17 42.66L170.02 41.64L168.83 40.66L167.61 39.73L166.35 38.84L165.06 38.01L163.73 37.22L162.37 36.48L160.98 35.79L159.56 35.16L158.11 34.57L156.64 34.05L155.13 33.58L153.61 33.17L152.06 32.82L150.49 32.53L148.89 32.3L147.28 32.14L145.65 32.04L144 32L142.35 32.04L140.72 32.14Z" id="afiuD1ptp"></path><path d="M80 448L96 448L96 464L80 464L80 448Z" id="joTlMsWfG"></path><path d="M272 384L288 384L288 400L272 400L272 384Z" id="bhKwkdwbU"></path><path d="M146.62 48.14L147.89 48.31L149.15 48.55L150.38 48.86L151.59 49.22L152.76 49.65L153.91 50.14L155.03 50.68L156.11 51.28L157.16 51.93L158.17 52.63L159.15 53.38L160.08 54.18L160.97 55.03L161.82 55.92L162.62 56.85L163.37 57.83L164.07 58.84L164.72 59.89L165.32 60.97L165.86 62.09L166.35 63.24L166.78 64.41L167.14 65.62L167.45 66.85L167.69 68.11L167.86 69.38L167.96 70.68L168 72L167.96 73.32L167.86 74.62L167.69 75.89L167.45 77.15L167.14 78.38L166.78 79.59L166.35 80.76L165.86 81.91L165.32 83.03L164.72 84.11L164.07 85.16L163.37 86.17L162.62 87.15L161.82 88.08L160.97 88.97L160.08 89.82L159.15 90.62L158.17 91.37L157.16 92.07L156.11 92.72L155.03 93.32L153.91 93.86L152.76 94.35L151.59 94.78L150.38 95.14L149.15 95.45L147.89 95.69L146.62 95.86L145.32 95.96L144 96L142.68 95.96L141.39 95.86L140.11 95.68L138.85 95.44L137.62 95.14L136.42 94.77L135.24 94.34L134.09 93.86L132.98 93.31L131.89 92.72L130.84 92.06L129.83 91.36L128.86 90.61L127.93 89.81L127.04 88.96L126.19 88.07L125.39 87.14L124.64 86.17L123.94 85.16L123.28 84.11L122.69 83.02L122.14 81.91L121.66 80.76L121.23 79.58L120.86 78.38L120.56 77.15L120.32 75.89L120.14 74.61L120.04 73.32L120 72L120.04 70.68L120.14 69.38L120.31 68.11L120.55 66.85L120.86 65.62L121.22 64.41L121.65 63.24L122.14 62.09L122.68 60.97L123.28 59.89L123.93 58.84L124.63 57.83L125.38 56.85L126.18 55.92L127.03 55.03L127.92 54.18L128.85 53.38L129.83 52.63L130.84 51.93L131.89 51.28L132.97 50.68L134.09 50.14L135.24 49.65L136.41 49.22L137.62 48.86L138.85 48.55L140.11 48.31L141.38 48.14L142.68 48.04L144 48L145.32 48.04L146.62 48.14ZM141.47 64.41L140.33 64.9L139.28 65.55L138.35 66.35L137.55 67.28L136.9 68.33L136.41 69.47L136.11 70.7L136 72L136.1 73.3L136.41 74.53L136.89 75.68L137.54 76.72L138.34 77.66L139.28 78.46L140.32 79.11L141.47 79.59L142.7 79.9L144 80L145.3 79.9L146.53 79.59L147.68 79.11L148.72 78.46L149.66 77.66L150.46 76.72L151.11 75.68L151.59 74.53L151.9 73.3L152 72L151.9 70.7L151.59 69.47L151.11 68.32L150.46 67.28L149.66 66.34L148.72 65.54L147.68 64.89L146.53 64.41L145.3 64.1L144 64L142.7 64.11L141.47 64.41Z" id="b19xGnsB9e"></path><path d="M80 208L96 208L96 224L80 224L80 208Z" id="e1fkDoIttX"></path><path d="M184 144L200 144L200 160L184 160L184 144Z" id="i1fsVX8rx1"></path><path d="M320 80L336 80L336 96L320 96L320 80Z" id="e26ldxClgH"></path><path d="M152 296L152.33 296.01L152.66 296.03L152.98 296.06L153.3 296.1L153.61 296.16L153.92 296.23L154.23 296.31L154.53 296.41L154.82 296.51L155.11 296.63L155.4 296.76L155.68 296.89L155.95 297.04L156.21 297.2L156.47 297.37L156.72 297.54L156.97 297.73L157.21 297.93L157.44 298.13L157.66 298.34L157.87 298.56L158.07 298.79L158.27 299.03L158.46 299.28L158.63 299.53L158.8 299.79L158.96 300.05L159.11 300.32L159.24 300.6L159.37 300.89L159.49 301.18L159.59 301.47L159.69 301.77L159.77 302.08L159.84 302.39L159.9 302.7L159.94 303.02L159.97 303.34L159.99 303.67L160 304L160 336L159.99 336.33L159.97 336.66L159.94 336.98L159.9 337.3L159.84 337.61L159.77 337.92L159.69 338.23L159.59 338.53L159.49 338.82L159.37 339.11L159.24 339.4L159.11 339.68L158.96 339.95L158.8 340.21L158.63 340.47L158.46 340.72L158.27 340.97L158.07 341.21L157.87 341.44L157.66 341.66L157.44 341.87L157.21 342.07L156.97 342.27L156.72 342.46L156.47 342.63L156.21 342.8L155.95 342.96L155.68 343.11L155.4 343.24L155.11 343.37L154.82 343.49L154.53 343.59L154.23 343.69L153.92 343.77L153.61 343.84L153.3 343.9L152.98 343.94L152.66 343.97L152.33 343.99L152 344L120 344L120 368L104 368L104 288L120 288L120 296L152 296ZM120 328L144 328L144 312L120 312L120 328Z" id="a3M99n2LqZ"></path></defs><g><g><g><use xlink:href="#bNxI1AaZb" opacity="1" fill="#00befd" fill-opacity="1"></use><g><use xlink:href="#bNxI1AaZb" opacity="1" fill-opacity="0" stroke="#000000" stroke-width="1" stroke-opacity="0"></use></g></g><g><use xlink:href="#d2N5tfh4q" opacity="1" fill="#0076ff" fill-opacity="1"></use><g><use xlink:href="#d2N5tfh4q" opacity="1" fill-opacity="0" stroke="#000000" stroke-width="1" stroke-opacity="0"></use></g></g><g><use xlink:href="#c4QuFL71pK" opacity="1" fill="#f5be9a" fill-opacity="1"></use><g><use xlink:href="#c4QuFL71pK" opacity="1" fill-opacity="0" stroke="#000000" stroke-width="1" stroke-opacity="0"></use></g></g><g><use xlink:href="#e1ncnOCNgh" opacity="1" fill="#f8d709" fill-opacity="0.9"></use><g><use xlink:href="#e1ncnOCNgh" opacity="1" fill-opacity="0" stroke="#000000" stroke-width="1" stroke-opacity="0"></use></g></g><g><use xlink:href="#aFPsJkEM2" opacity="1" fill="#f8d709" fill-opacity="0.9"></use><g><use xlink:href="#aFPsJkEM2" opacity="1" fill-opacity="0" stroke="#000000" stroke-width="1" stroke-opacity="0"></use></g></g><g><use xlink:href="#a3lEOOYOH6" opacity="1" fill="#e9f0f1" fill-opacity="1"></use><g><use xlink:href="#a3lEOOYOH6" opacity="1" fill-opacity="0" stroke="#000000" stroke-width="1" stroke-opacity="0"></use></g></g><g><use xlink:href="#hEPXUqpXf" opacity="1" fill="#000000" fill-opacity="1"></use><g><use xlink:href="#hEPXUqpXf" opacity="1" fill-opacity="0" stroke="#000000" stroke-width="1" stroke-opacity="0"></use></g></g><g><use xlink:href="#afiuD1ptp" opacity="1" fill="#000000" fill-opacity="1"></use><g><use xlink:href="#afiuD1ptp" opacity="1" fill-opacity="0" stroke="#000000" stroke-width="1" stroke-opacity="0"></use></g></g><g><use xlink:href="#joTlMsWfG" opacity="1" fill="#000000" fill-opacity="1"></use><g><use xlink:href="#joTlMsWfG" opacity="1" fill-opacity="0" stroke="#000000" stroke-width="1" stroke-opacity="0"></use></g></g><g><use xlink:href="#bhKwkdwbU" opacity="1" fill="#000000" fill-opacity="1"></use><g><use xlink:href="#bhKwkdwbU" opacity="1" fill-opacity="0" stroke="#000000" stroke-width="1" stroke-opacity="0"></use></g></g><g><use xlink:href="#b19xGnsB9e" opacity="1" fill="#000000" fill-opacity="1"></use><g><use xlink:href="#b19xGnsB9e" opacity="1" fill-opacity="0" stroke="#000000" stroke-width="1" stroke-opacity="0"></use></g></g><g><use xlink:href="#e1fkDoIttX" opacity="1" fill="#000000" fill-opacity="1"></use><g><use xlink:href="#e1fkDoIttX" opacity="1" fill-opacity="0" stroke="#000000" stroke-width="1" stroke-opacity="0"></use></g></g><g><use xlink:href="#i1fsVX8rx1" opacity="1" fill="#000000" fill-opacity="1"></use><g><use xlink:href="#i1fsVX8rx1" opacity="1" fill-opacity="0" stroke="#000000" stroke-width="1" stroke-opacity="0"></use></g></g><g><use xlink:href="#e26ldxClgH" opacity="1" fill="#000000" fill-opacity="1"></use><g><use xlink:href="#e26ldxClgH" opacity="1" fill-opacity="0" stroke="#000000" stroke-width="1" stroke-opacity="0"></use></g></g><g><use xlink:href="#a3M99n2LqZ" opacity="1" fill="#000000" fill-opacity="1"></use><g><use xlink:href="#a3M99n2LqZ" opacity="1" fill-opacity="0" stroke="#000000" stroke-width="1" stroke-opacity="0"></use></g></g></g></g></svg>