<?xml version="1.0" encoding="UTF-8" standalone="no"?>
<!DOCTYPE svg PUBLIC "-//W3C//DTD SVG 1.1//EN" "http://www.w3.org/Graphics/SVG/1.1/DTD/svg11.dtd">
<svg version="1.1" xmlns="http://www.w3.org/2000/svg" xmlns:xlink="http://www.w3.org/1999/xlink" preserveAspectRatio="xMidYMid meet" viewBox="0 0 640 640" width="640" height="640"><defs><path d="M150.92 395.63C113.77 395.63 93.13 395.63 89 395.63C85.35 395.63 83 391.74 84.71 388.5C85.34 387.31 88.49 381.36 94.16 370.65L94.16 319.69L150.92 319.69L150.92 395.63Z" id="ddjKhozZ"></path><path d="M150.92 331.7C78.87 331.7 38.84 331.7 30.83 331.7C17.95 331.7 7.5 321.26 7.5 308.37C7.5 291.51 7.5 156.57 7.5 139.7C7.5 126.82 17.95 116.37 30.83 116.37C57.17 116.37 267.85 116.37 294.19 116.37C307.07 116.37 317.52 126.82 317.52 139.7C317.52 143.3 317.52 161.31 317.52 193.73L317.52 331.7L150.92 331.7Z" id="a4zsLuhuA4"></path><path d="M130.91 331.7L150.92 331.7L317.51 331.7L317.51 193.73L317.51 173.72C224.6 173.72 172.97 173.72 162.65 173.72C145.15 173.72 130.91 187.96 130.91 205.46C130.91 222.29 130.91 264.37 130.91 331.7Z" id="d2hUwxGc4"></path><path d="M35.84 272.57C34.56 272.57 33.52 271.53 33.52 270.24C33.52 257.69 33.52 157.26 33.52 144.71C33.52 143.43 34.56 142.39 35.84 142.39C61.18 142.39 263.84 142.39 289.17 142.39C290.46 142.39 291.5 143.43 291.5 144.71C291.5 147.98 291.5 164.32 291.5 193.73C291.5 239.64 291.5 265.14 291.5 270.24C291.5 271.53 290.46 272.57 289.17 272.57C279.96 272.57 233.87 272.57 150.92 272.57C81.87 272.57 43.52 272.57 35.84 272.57Z" id="cQHLB1xCR"></path><path d="M130.91 205.46C130.91 209.94 130.91 232.3 130.91 272.57L150.92 272.57C233.87 272.57 279.96 272.57 289.17 272.57C290.46 272.57 291.5 271.53 291.5 270.24C291.5 265.14 291.5 239.64 291.5 193.73L291.5 173.72L162.65 173.72C141.49 183.21 130.91 193.79 130.91 205.46Z" id="b6jSqarPG"></path><path d="M191.24 238.91C178.71 238.91 171.75 238.91 170.35 238.91C117.05 238.91 73.84 195.69 73.84 142.39C70.04 142.39 39.64 142.39 35.84 142.39C34.56 142.39 33.52 143.43 33.52 144.71C33.52 157.26 33.52 257.69 33.52 270.24C33.52 271.53 34.56 272.57 35.84 272.57C43.52 272.57 81.87 272.57 150.92 272.57C233.87 272.57 279.96 272.57 289.17 272.57C290.46 272.57 291.5 271.53 291.5 270.24C291.5 268.15 291.5 257.71 291.5 238.91L191.24 238.91Z" id="dRLa9GEs"></path><path d="M7.5 298.02C7.5 304.23 7.5 307.68 7.5 308.37C7.5 321.26 17.95 331.7 30.83 331.7C38.84 331.7 78.87 331.7 150.92 331.7L317.51 331.7L317.51 298.02L7.5 298.02Z" id="a2eXUiHnwC"></path><path d="M130.91 331.7L150.92 331.7L317.52 331.7L317.52 298.02L130.91 298.02L130.91 331.7Z" id="cPxK8PspZ"></path><path d="M150.92 374.84C150.92 273.21 150.92 216.75 150.92 205.46C150.92 198.98 156.17 193.73 162.65 193.73C185.17 193.73 365.36 193.73 387.89 193.73C394.36 193.73 399.62 198.98 399.62 205.46C399.62 208.13 399.62 221.44 399.62 245.41L399.62 374.84L317.52 374.84L150.92 374.84Z" id="k2nJs5nZLV"></path><path d="M317.52 374.84L399.62 374.84L399.62 245.41L399.62 229.4C358.02 229.4 334.92 229.4 330.3 229.4C314.42 229.4 301.51 242.31 301.51 258.19C301.51 265.96 301.51 304.85 301.51 374.84L317.52 374.84Z" id="e57rY0vEvs"></path><path d="M287.17 363.67C189.39 363.67 135.07 363.67 124.21 363.67C121.78 363.67 119.81 365.63 119.81 368.06C119.81 369.23 119.81 378.58 119.81 379.75C119.81 388.52 126.92 395.63 135.69 395.63C145.79 395.63 196.28 395.63 287.17 395.63L330.3 395.63L357.84 395.63L357.84 363.67L317.52 363.67L287.17 363.67Z" id="a1WLfMZiv"></path><path d="M373.6 223.29C373.6 221.34 372.01 219.75 370.06 219.75C351.1 219.75 199.44 219.75 180.48 219.75C178.52 219.75 176.93 221.34 176.93 223.29C176.93 234.39 176.93 323.17 176.93 334.27C176.93 336.23 178.52 337.81 180.48 337.81C189.62 337.81 235.29 337.81 317.51 337.81C349.04 337.81 366.55 337.81 370.05 337.81C372.01 337.81 373.6 336.23 373.6 334.27C373.6 328.34 373.6 298.72 373.6 245.41C373.6 232.14 373.6 224.77 373.6 223.29Z" id="d3I33CNJw"></path><path d="M301.51 258.19C301.51 261.76 301.51 279.61 301.51 311.74C301.43 311.74 301.39 311.74 301.38 311.74C250.57 311.74 209.39 270.55 209.39 219.75C206.5 219.75 183.37 219.75 180.48 219.75C178.52 219.75 176.94 221.33 176.94 223.29C176.94 234.39 176.94 323.17 176.94 334.27C176.94 336.23 178.52 337.81 180.48 337.81C188.55 337.81 228.89 337.81 301.51 337.81L317.52 337.81C349.04 337.81 366.55 337.81 370.06 337.81C372.01 337.81 373.6 336.23 373.6 334.27C373.6 332.77 373.6 325.26 373.6 311.74L373.6 245.41L373.6 229.4L330.3 229.4C311.1 237.99 301.51 247.59 301.51 258.19Z" id="go9Ezvfs"></path><path d="M425.92 395.63C368.54 395.63 336.67 395.63 330.3 395.63C323.24 395.63 317.51 389.91 317.51 382.85C317.51 370.38 317.51 270.65 317.51 258.19C317.51 251.13 323.24 245.41 330.3 245.41C339.86 245.41 416.36 245.41 425.92 245.41C432.98 245.41 438.7 251.13 438.7 258.19C438.7 259.56 438.7 266.43 438.7 278.78L438.7 395.63L425.92 395.63Z" id="a2ifuRv7cP"></path><path d="M415.92 267.27C410.73 267.27 406.52 271.49 406.52 276.68C406.52 286.48 406.52 364.91 406.52 374.72C406.52 379.91 410.73 384.12 415.92 384.12C417.44 384.12 425.03 384.12 438.7 384.12L438.7 278.78L438.7 267.27C426.55 267.27 418.96 267.27 415.92 267.27Z" id="b6sXLXFZR1"></path><path d="M402.54 272.76C399.04 272.76 397.09 272.76 396.71 272.76C395.21 272.76 394.01 273.97 394.01 275.46C394.01 275.84 394.01 278.92 394.01 279.31C394.01 286.34 388.31 292.03 381.28 292.03C374.25 292.03 368.56 286.34 368.56 279.31C368.56 278.82 368.56 274.96 368.56 274.48C368.56 272.98 367.33 271.77 365.84 271.78C363.76 271.79 347.2 271.92 345.13 271.93C343.65 271.94 342.45 273.15 342.45 274.63C342.45 283.74 342.45 356.58 342.45 365.69C342.45 368.15 344.45 370.15 346.91 370.15C351.79 370.15 376.19 370.15 420.11 370.15C420.11 313.24 420.11 281.62 420.11 275.3C420.11 273.79 418.88 272.58 417.38 272.6C415.4 272.62 410.46 272.67 402.54 272.76Z" id="a6PUCqOTs"></path><path d="M407.41 272.71C406.84 273.91 406.52 275.26 406.52 276.68C406.52 282.91 406.52 314.07 406.52 370.15L420.11 370.15C420.11 313.24 420.11 281.62 420.11 275.3C420.11 273.79 418.88 272.58 417.38 272.6C415.39 272.62 408.41 272.69 407.41 272.71Z" id="c5Ee8MngHU"></path><path d="M420.11 347.21C387.35 347.21 360.79 320.65 360.79 287.88C360.79 286.81 360.79 281.46 360.79 271.82C351.39 271.89 346.17 271.93 345.13 271.93C343.65 271.94 342.45 273.15 342.45 274.63C342.45 283.74 342.45 356.59 342.45 365.69C342.45 368.15 344.45 370.15 346.91 370.15C351.79 370.15 376.19 370.15 420.11 370.15C420.11 357.91 420.11 350.27 420.11 347.21Z" id="b6caImg6F"></path><path d="M429.52 278.78C424.32 278.78 420.11 282.99 420.11 288.19C420.11 297.99 420.11 376.42 420.11 386.22C420.11 391.42 424.32 395.63 429.52 395.63C436.08 395.63 488.53 395.63 495.09 395.63C500.28 395.63 504.5 391.42 504.5 386.22C504.5 376.42 504.5 297.99 504.5 288.19C504.5 282.99 500.28 278.78 495.09 278.78C481.97 278.78 436.08 278.78 429.52 278.78Z" id="bMnsK7RPt"></path><path d="M504.5 346.25C468.16 346.25 438.7 316.79 438.7 280.45C438.7 280.34 438.7 279.78 438.7 278.78C433.19 278.78 430.13 278.78 429.52 278.78C424.32 278.78 420.11 282.99 420.11 288.19C420.11 297.99 420.11 376.42 420.11 386.22C420.11 391.42 424.32 395.63 429.52 395.63C436.08 395.63 488.53 395.63 495.09 395.63C500.28 395.63 504.5 391.42 504.5 386.22C504.5 378.23 504.5 354.24 504.5 346.25Z" id="b4E8d14W2b"></path><path d="M420.11 359.58C420.11 375.57 420.11 384.45 420.11 386.22C420.11 391.42 424.32 395.63 429.52 395.63C436.07 395.63 488.53 395.63 495.09 395.63C500.28 395.63 504.49 391.42 504.49 386.22C504.49 384.45 504.49 375.57 504.49 359.58L420.11 359.58Z" id="a3sjWaIDZU"></path><path d="M296.71 108.97L297.96 109.09L299.18 109.27L300.39 109.49L301.59 109.76L302.77 110.08L303.92 110.44L305.06 110.85L306.18 111.29L307.27 111.78L308.35 112.31L309.39 112.88L310.42 113.49L311.42 114.14L312.39 114.82L313.33 115.54L314.24 116.3L315.13 117.09L315.98 117.91L316.8 118.76L317.59 119.64L318.34 120.56L319.06 121.5L319.75 122.47L320.39 123.47L321 124.49L321.57 125.54L322.1 126.61L322.59 127.71L323.04 128.83L323.45 129.96L323.81 131.12L324.12 132.3L324.39 133.49L324.62 134.7L324.79 135.93L324.92 137.17L324.99 138.43L325.02 139.7L325.02 186.23L387.89 186.23L388.68 186.24L389.46 186.29L390.24 186.37L391 186.48L391.76 186.62L392.5 186.79L393.24 186.98L393.96 187.21L394.67 187.46L395.37 187.74L396.05 188.05L396.72 188.38L397.37 188.73L398.01 189.11L398.63 189.52L399.24 189.94L399.83 190.39L400.4 190.86L400.95 191.35L401.48 191.87L401.99 192.4L402.49 192.95L402.96 193.52L403.41 194.11L403.83 194.71L404.24 195.34L404.62 195.98L404.97 196.63L405.3 197.3L405.61 197.98L405.89 198.68L406.14 199.39L406.36 200.11L406.56 200.85L406.73 201.59L406.87 202.35L406.98 203.11L407.06 203.89L407.11 204.67L407.12 205.46L407.12 237.9L425.92 237.9L426.75 237.92L427.58 237.97L428.4 238.06L429.2 238.17L430 238.32L430.79 238.5L431.56 238.7L432.32 238.94L433.07 239.21L433.81 239.5L434.53 239.82L435.23 240.17L435.92 240.55L436.6 240.95L437.25 241.37L437.89 241.82L438.51 242.3L439.11 242.79L439.69 243.31L440.25 243.85L440.79 244.41L441.31 244.99L441.81 245.6L442.28 246.22L442.73 246.86L443.16 247.51L443.56 248.18L443.93 248.87L444.28 249.58L444.61 250.3L444.9 251.04L445.17 251.78L445.4 252.55L445.61 253.32L445.79 254.11L445.94 254.9L446.05 255.71L446.13 256.53L446.19 257.35L446.2 258.19L446.2 271.28L495.09 271.28L495.78 271.29L496.47 271.33L497.15 271.4L497.83 271.5L498.49 271.62L499.15 271.77L499.79 271.94L500.43 272.14L501.05 272.36L501.66 272.61L502.27 272.88L502.85 273.17L503.43 273.48L503.99 273.81L504.54 274.17L505.07 274.54L505.59 274.94L506.09 275.35L506.57 275.78L507.04 276.23L507.49 276.7L507.92 277.19L508.34 277.69L508.73 278.21L509.11 278.74L509.46 279.29L509.8 279.85L510.11 280.42L510.4 281.01L510.67 281.61L510.91 282.22L511.14 282.85L511.33 283.48L511.51 284.13L511.66 284.78L511.78 285.45L511.87 286.12L511.94 286.8L511.99 287.49L512 288.19L512 386.22L511.99 386.92L511.94 387.61L511.87 388.29L511.78 388.96L511.66 389.63L511.51 390.28L511.33 390.93L511.14 391.56L510.91 392.19L510.67 392.8L510.4 393.4L510.11 393.99L509.8 394.56L509.46 395.13L509.11 395.67L508.73 396.2L508.34 396.72L507.92 397.22L507.49 397.71L507.04 398.18L506.57 398.63L506.09 399.06L505.59 399.47L505.07 399.87L504.54 400.24L503.99 400.6L503.43 400.93L502.85 401.24L502.27 401.54L501.66 401.8L501.05 402.05L500.43 402.27L499.79 402.47L499.15 402.64L498.49 402.79L497.83 402.91L497.15 403.01L496.47 403.08L495.78 403.12L495.09 403.14L80.94 403.14L80.74 403.13L80.55 403.12L80.35 403.11L80.16 403.09L79.96 403.07L79.77 403.04L79.58 403.01L79.39 402.97L79.2 402.93L79.01 402.88L78.83 402.83L78.65 402.78L78.46 402.72L78.28 402.65L78.11 402.58L77.93 402.51L77.76 402.43L77.58 402.34L77.41 402.26L77.25 402.16L77.08 402.07L76.92 401.97L76.76 401.86L76.6 401.75L76.45 401.64L76.29 401.53L76.15 401.41L76 401.28L75.86 401.15L75.72 401.02L75.58 400.88L75.45 400.75L75.32 400.6L75.19 400.46L75.07 400.31L74.95 400.15L74.83 399.99L74.72 399.83L74.61 399.67L74.51 399.5L74.41 399.33L74.32 399.16L74.23 398.99L74.14 398.81L74.06 398.63L73.99 398.45L73.92 398.27L73.85 398.09L73.79 397.91L73.73 397.72L73.68 397.54L73.63 397.35L73.59 397.17L73.56 396.98L73.52 396.79L73.5 396.6L73.47 396.41L73.46 396.22L73.45 396.03L73.44 395.84L73.43 395.65L73.44 395.46L73.44 395.27L73.46 395.07L73.47 394.88L73.49 394.69L73.52 394.5L73.55 394.31L73.59 394.13L73.63 393.94L73.67 393.75L73.72 393.56L73.78 393.38L73.84 393.2L73.91 393.01L73.98 392.83L74.05 392.65L74.13 392.47L74.22 392.3L74.31 392.12L86.65 368.79L86.65 339.21L30.83 339.21L29.56 339.18L28.31 339.1L27.07 338.98L25.84 338.8L24.63 338.58L23.43 338.31L22.26 337.99L21.1 337.63L19.96 337.23L18.84 336.78L17.75 336.29L16.68 335.76L15.63 335.19L14.6 334.58L13.61 333.93L12.64 333.25L11.69 332.53L10.78 331.78L9.89 330.99L9.04 330.17L8.22 329.31L7.43 328.43L6.68 327.51L5.96 326.57L5.27 325.6L4.63 324.6L4.02 323.58L3.45 322.53L2.92 321.46L2.43 320.36L1.98 319.25L1.57 318.11L1.21 316.95L0.9 315.77L0.63 314.58L0.4 313.37L0.23 312.14L0.1 310.9L0.03 309.64L0 308.37L0 139.7L0.03 138.43L0.1 137.17L0.23 135.93L0.4 134.7L0.63 133.49L0.9 132.3L1.21 131.12L1.57 129.96L1.98 128.83L2.43 127.71L2.92 126.61L3.45 125.54L4.02 124.49L4.63 123.47L5.27 122.47L5.96 121.5L6.68 120.56L7.43 119.64L8.22 118.76L9.04 117.91L9.89 117.09L10.78 116.3L11.69 115.54L12.64 114.82L13.61 114.14L14.6 113.49L15.63 112.88L16.68 112.31L17.75 111.78L18.84 111.29L19.96 110.85L21.1 110.44L22.26 110.08L23.43 109.76L24.63 109.49L25.84 109.27L27.07 109.09L28.31 108.97L29.56 108.89L30.83 108.87L294.19 108.87L295.46 108.89L296.71 108.97ZM427.62 386.22L427.62 386.3L427.62 386.38L427.63 386.45L427.64 386.53L427.65 386.6L427.67 386.68L427.69 386.75L427.71 386.82L427.74 386.89L427.76 386.96L427.79 387.03L427.83 387.09L427.86 387.16L427.9 387.22L427.94 387.28L427.98 387.34L428.02 387.4L428.07 387.45L428.12 387.51L428.17 387.56L428.22 387.61L428.27 387.66L428.33 387.71L428.39 387.75L428.45 387.79L428.51 387.83L428.57 387.87L428.63 387.91L428.7 387.94L428.77 387.97L428.84 388L428.9 388.02L428.98 388.05L429.05 388.07L429.12 388.08L429.13 388.08L429.15 388.09L429.16 388.09L429.18 388.09L429.2 388.1L429.22 388.1L429.24 388.1L429.26 388.11L429.29 388.11L429.31 388.11L429.33 388.12L429.34 388.12L429.36 388.12L429.38 388.12L429.39 388.12L429.41 388.12L429.42 388.12L429.44 388.12L429.45 388.12L429.48 388.13L429.49 388.13L429.51 388.13L429.52 388.13L495.09 388.13L495.18 388.12L495.27 388.12L495.35 388.11L495.44 388.09L495.52 388.08L495.61 388.05L495.69 388.03L495.77 388L495.85 387.97L495.92 387.93L496 387.89L496.07 387.85L496.14 387.81L496.21 387.76L496.28 387.71L496.34 387.65L496.4 387.6L496.46 387.54L496.52 387.48L496.57 387.41L496.62 387.35L496.67 387.28L496.72 387.21L496.76 387.13L496.8 387.06L496.83 386.98L496.86 386.9L496.89 386.82L496.92 386.74L496.94 386.66L496.96 386.57L496.97 386.49L496.98 386.4L496.99 386.31L496.99 386.22L496.99 367.08L427.62 367.08L427.62 386.22ZM101.66 370.65L101.66 370.75L101.66 370.85L101.66 370.95L101.65 371.05L101.65 371.15L101.64 371.24L101.63 371.34L101.62 371.44L101.61 371.54L101.6 371.64L101.58 371.74L101.57 371.83L101.55 371.93L101.54 372.03L101.52 372.12L101.5 372.22L101.48 372.32L101.45 372.41L101.43 372.51L101.4 372.6L101.38 372.7L101.35 372.79L101.32 372.89L101.29 372.98L101.26 373.07L101.23 373.17L101.19 373.26L101.16 373.35L101.12 373.44L101.09 373.54L101.05 373.63L101.01 373.72L100.97 373.81L100.92 373.9L100.88 373.99L100.84 374.07L100.79 374.16L93.4 388.13L113.87 388.13L113.78 387.91L113.71 387.7L113.63 387.49L113.56 387.27L113.48 387.06L113.41 386.84L113.35 386.63L113.28 386.41L113.22 386.19L113.15 385.97L113.09 385.75L113.04 385.53L112.98 385.31L112.93 385.08L112.87 384.86L112.83 384.64L112.78 384.41L112.73 384.18L112.69 383.96L112.65 383.73L112.61 383.5L112.58 383.27L112.54 383.04L112.51 382.81L112.48 382.58L112.45 382.35L112.43 382.12L112.41 381.88L112.39 381.65L112.37 381.41L112.35 381.18L112.34 380.94L112.33 380.71L112.32 380.47L112.31 380.23L112.31 379.99L112.31 379.75L112.31 368.06L112.32 367.53L112.36 367.01L112.41 366.49L112.49 365.98L112.59 365.48L112.71 364.98L112.85 364.5L113.02 364.02L113.2 363.55L113.4 363.09L113.62 362.64L113.85 362.2L114.11 361.78L114.38 361.36L114.67 360.96L114.97 360.57L115.29 360.19L115.63 359.83L115.98 359.48L116.34 359.14L116.72 358.82L117.11 358.52L117.51 358.23L117.93 357.96L118.35 357.71L118.79 357.47L119.24 357.25L119.7 357.05L120.17 356.87L120.65 356.71L121.13 356.56L121.63 356.44L122.13 356.34L122.64 356.26L123.16 356.21L123.68 356.17L124.21 356.16L143.41 356.16L143.41 339.21L101.66 339.21L101.66 370.65ZM127.32 379.75L127.32 379.98L127.34 380.21L127.36 380.44L127.4 380.67L127.45 380.89L127.51 381.12L127.57 381.34L127.65 381.57L127.74 381.79L127.84 382.01L127.95 382.23L128.07 382.45L128.2 382.66L128.34 382.88L128.49 383.1L128.66 383.31L128.83 383.52L129.01 383.73L129.21 383.95L129.41 384.15L129.63 384.36L129.85 384.57L130.09 384.78L130.33 384.98L130.59 385.19L130.85 385.39L131.13 385.59L131.42 385.79L131.72 385.99L132.03 386.19L132.35 386.39L132.68 386.59L133.02 386.78L133.37 386.98L133.73 387.17L134.1 387.37L134.48 387.56L134.87 387.75L135.28 387.94L135.69 388.12L310.73 388.12L310.7 388L310.66 387.87L310.63 387.74L310.6 387.62L310.57 387.49L310.54 387.36L310.51 387.23L310.48 387.1L310.45 386.98L310.43 386.85L310.4 386.72L310.37 386.59L310.35 386.46L310.33 386.33L310.3 386.2L310.28 386.07L310.26 385.94L310.24 385.8L310.22 385.67L310.2 385.54L310.18 385.41L310.16 385.28L310.15 385.14L310.13 385.01L310.12 384.88L310.1 384.74L310.09 384.61L310.08 384.48L310.07 384.34L310.06 384.21L310.05 384.07L310.04 383.94L310.03 383.8L310.03 383.67L310.02 383.53L310.02 383.4L310.01 383.26L310.01 383.12L310.01 382.99L310.01 382.85L310.01 371.17L127.32 371.17L127.32 379.75ZM330.08 252.92L329.86 252.93L329.65 252.95L329.44 252.98L329.23 253.02L329.03 253.07L328.83 253.12L328.63 253.18L328.44 253.25L328.24 253.33L328.06 253.41L327.87 253.5L327.69 253.6L327.52 253.71L327.35 253.82L327.18 253.93L327.02 254.06L326.86 254.19L326.71 254.32L326.57 254.46L326.43 254.61L326.29 254.76L326.16 254.91L326.04 255.08L325.92 255.24L325.81 255.41L325.71 255.59L325.61 255.77L325.52 255.95L325.44 256.14L325.36 256.33L325.29 256.52L325.23 256.72L325.17 256.92L325.13 257.13L325.09 257.33L325.06 257.54L325.04 257.76L325.03 257.97L325.02 258.19L325.02 382.85L325.03 383.07L325.04 383.28L325.06 383.49L325.09 383.7L325.13 383.91L325.17 384.12L325.23 384.32L325.29 384.51L325.36 384.71L325.44 384.9L325.52 385.09L325.61 385.27L325.71 385.45L325.81 385.63L325.92 385.8L326.04 385.96L326.16 386.12L326.29 386.28L326.43 386.43L326.57 386.58L326.71 386.72L326.86 386.85L327.02 386.98L327.18 387.1L327.35 387.22L327.52 387.33L327.69 387.44L327.87 387.53L328.06 387.62L328.24 387.71L328.43 387.78L328.63 387.85L328.83 387.92L329.03 387.97L329.23 388.02L329.44 388.05L329.65 388.08L329.86 388.11L330.08 388.12L330.3 388.12L412.72 388.12L412.72 388.08L412.71 388.03L412.71 387.98L412.7 387.94L412.7 387.89L412.69 387.84L412.69 387.79L412.68 387.75L412.68 387.7L412.67 387.65L412.67 387.61L412.67 387.56L412.66 387.51L412.66 387.46L412.65 387.42L412.65 387.37L412.65 387.32L412.64 387.27L412.64 387.23L412.64 387.18L412.63 387.13L412.63 387.08L412.63 387.04L412.63 386.99L412.62 386.94L412.62 386.89L412.62 386.85L412.62 386.8L412.62 386.75L412.62 386.7L412.61 386.65L412.61 386.61L412.61 386.56L412.61 386.51L412.61 386.46L412.61 386.41L412.61 386.37L412.61 386.32L412.61 386.27L412.61 386.22L412.61 377.65L342.45 377.65L342.14 377.65L341.84 377.63L341.53 377.6L341.23 377.55L340.94 377.5L340.65 377.43L340.36 377.36L340.08 377.27L339.8 377.17L339.53 377.06L339.26 376.94L339 376.81L338.75 376.68L338.5 376.53L338.26 376.37L338.02 376.2L337.79 376.03L337.57 375.85L337.35 375.65L337.15 375.45L336.95 375.25L336.75 375.03L336.57 374.81L336.39 374.58L336.23 374.34L336.07 374.1L335.92 373.85L335.78 373.6L335.66 373.33L335.54 373.07L335.43 372.8L335.33 372.52L335.24 372.24L335.17 371.95L335.1 371.66L335.05 371.36L335 371.07L334.97 370.76L334.95 370.46L334.95 370.15L334.95 271.95L334.95 271.64L334.97 271.34L335 271.04L335.04 270.74L335.1 270.45L335.16 270.16L335.24 269.87L335.33 269.59L335.42 269.31L335.53 269.04L335.65 268.78L335.78 268.52L335.91 268.26L336.06 268.02L336.22 267.77L336.38 267.54L336.55 267.31L336.74 267.09L336.93 266.87L337.12 266.66L337.33 266.46L337.54 266.27L337.76 266.09L337.99 265.91L338.23 265.75L338.47 265.59L338.71 265.44L338.97 265.3L339.23 265.17L339.49 265.05L339.76 264.94L340.04 264.84L340.32 264.75L340.6 264.68L340.89 264.61L341.19 264.55L341.48 264.51L341.78 264.48L342.09 264.45L342.4 264.45L368.5 264.25L368.65 264.25L368.8 264.26L368.95 264.27L369.09 264.28L369.24 264.29L369.39 264.31L369.54 264.32L369.68 264.35L369.83 264.37L369.97 264.4L370.12 264.43L370.26 264.46L370.4 264.49L370.55 264.53L370.69 264.57L370.83 264.62L370.97 264.66L371.11 264.71L371.25 264.76L371.38 264.82L371.52 264.87L371.65 264.93L371.79 264.99L371.92 265.06L372.05 265.12L372.18 265.19L372.31 265.27L372.44 265.34L372.56 265.42L372.69 265.5L372.81 265.58L372.93 265.66L373.05 265.75L373.17 265.84L373.29 265.93L373.4 266.03L373.52 266.12L373.63 266.22L373.74 266.33L373.84 266.43L373.95 266.54L374.05 266.65L374.15 266.76L374.25 266.87L374.35 266.98L374.44 267.1L374.53 267.21L374.62 267.33L374.71 267.45L374.79 267.58L374.87 267.7L374.95 267.82L375.02 267.95L375.1 268.08L375.17 268.21L375.24 268.34L375.3 268.47L375.37 268.6L375.43 268.74L375.48 268.87L375.54 269.01L375.59 269.15L375.64 269.28L375.69 269.42L375.73 269.56L375.78 269.71L375.81 269.85L375.85 269.99L375.88 270.13L375.91 270.28L375.94 270.42L375.97 270.57L375.99 270.72L376.01 270.86L376.02 271.01L376.04 271.16L376.05 271.31L376.06 271.46L376.06 271.61L376.06 271.76L376.06 279.31L376.07 279.52L376.08 279.73L376.1 279.94L376.13 280.15L376.17 280.36L376.21 280.56L376.27 280.76L376.33 280.96L376.4 281.15L376.47 281.34L376.55 281.52L376.64 281.7L376.74 281.88L376.84 282.05L376.95 282.22L377.07 282.39L377.19 282.55L377.32 282.7L377.45 282.85L377.59 283L377.74 283.14L377.89 283.27L378.04 283.4L378.2 283.52L378.36 283.63L378.53 283.74L378.71 283.85L378.88 283.94L379.07 284.03L379.25 284.12L379.44 284.19L379.63 284.26L379.83 284.32L380.03 284.38L380.23 284.42L380.44 284.46L380.64 284.49L380.85 284.51L381.07 284.52L381.28 284.53L381.5 284.52L381.71 284.51L381.92 284.49L382.13 284.46L382.33 284.42L382.53 284.38L382.73 284.32L382.93 284.26L383.12 284.19L383.31 284.12L383.5 284.03L383.68 283.94L383.86 283.85L384.03 283.74L384.2 283.63L384.36 283.52L384.52 283.4L384.68 283.27L384.83 283.14L384.97 283L385.11 282.85L385.24 282.7L385.37 282.55L385.49 282.39L385.61 282.22L385.72 282.05L385.82 281.88L385.92 281.7L386.01 281.52L386.09 281.34L386.17 281.15L386.24 280.95L386.3 280.76L386.35 280.56L386.4 280.36L386.43 280.15L386.46 279.94L386.48 279.73L386.5 279.52L386.5 279.31L386.5 272.76L386.51 272.45L386.53 272.14L386.56 271.84L386.6 271.54L386.65 271.25L386.72 270.95L386.8 270.67L386.88 270.39L386.98 270.11L387.09 269.84L387.21 269.57L387.34 269.31L387.48 269.05L387.63 268.8L387.78 268.56L387.95 268.33L388.12 268.1L388.31 267.87L388.5 267.66L388.7 267.45L388.91 267.25L389.12 267.06L389.34 266.88L389.57 266.7L389.81 266.53L390.05 266.38L390.3 266.23L390.56 266.09L390.82 265.96L391.09 265.84L391.36 265.73L391.63 265.64L391.92 265.55L392.2 265.47L392.49 265.41L392.79 265.35L393.09 265.31L393.39 265.28L393.7 265.26L394.01 265.25L402.54 265.25L402.85 265.26L403.16 265.28L403.46 265.31L403.76 265.35L404.05 265.41L404.34 265.47L404.63 265.55L404.91 265.64L405.19 265.73L405.46 265.84L405.73 265.96L405.99 266.09L406.24 266.23L406.49 266.38L406.74 266.53L406.97 266.7L407.2 266.88L407.42 267.06L407.64 267.25L407.85 267.45L408.05 267.66L408.24 267.87L408.42 268.1L408.6 268.33L408.76 268.56L408.92 268.8L409.07 269.05L409.21 269.31L409.34 269.57L409.46 269.84L409.56 270.11L409.66 270.39L409.75 270.67L409.83 270.95L409.89 271.25L409.95 271.54L409.99 271.84L410.02 272.14L410.04 272.45L410.05 272.76L410.04 273.07L410.02 273.37L409.99 273.68L409.95 273.97L409.89 274.27L409.83 274.56L409.75 274.85L409.66 275.13L409.56 275.41L409.46 275.68L409.34 275.95L409.21 276.21L409.07 276.46L408.92 276.71L408.76 276.95L408.6 277.19L408.42 277.42L408.24 277.64L408.05 277.86L407.85 278.06L407.64 278.26L407.42 278.46L407.2 278.64L406.97 278.81L406.74 278.98L406.49 279.14L406.24 279.29L405.99 279.42L405.73 279.55L405.46 279.67L405.19 279.78L404.91 279.88L404.63 279.97L404.34 280.04L404.05 280.11L403.76 280.16L403.46 280.21L403.16 280.24L402.85 280.26L402.54 280.26L401.49 280.26L401.44 281.06L401.35 281.85L401.24 282.63L401.09 283.41L400.92 284.17L400.72 284.92L400.49 285.65L400.24 286.38L399.95 287.09L399.64 287.79L399.31 288.48L398.95 289.15L398.57 289.81L398.16 290.45L397.73 291.07L397.28 291.67L396.81 292.26L396.31 292.83L395.8 293.38L395.26 293.92L394.71 294.43L394.13 294.92L393.54 295.39L392.93 295.84L392.31 296.26L391.66 296.67L391 297.04L390.33 297.4L389.64 297.73L388.94 298.03L388.22 298.31L387.5 298.56L386.76 298.78L386 298.98L385.24 299.15L384.47 299.29L383.68 299.39L382.89 299.47L382.09 299.52L381.28 299.54L380.45 299.52L379.63 299.47L378.81 299.39L378.01 299.27L377.21 299.13L376.43 298.95L375.66 298.74L374.9 298.5L374.15 298.24L373.42 297.95L372.7 297.62L372 297.28L371.31 296.9L370.64 296.5L369.98 296.08L369.35 295.63L368.73 295.16L368.13 294.66L367.55 294.15L366.99 293.61L366.45 293.05L365.93 292.47L365.44 291.87L364.96 291.25L364.52 290.62L364.09 289.96L363.69 289.29L363.32 288.6L362.97 287.9L362.65 287.18L362.35 286.45L362.09 285.7L361.85 284.94L361.64 284.17L361.47 283.39L361.32 282.59L361.2 281.79L361.12 280.97L361.07 280.15L361.05 279.32L349.96 279.4L349.96 362.64L412.61 362.64L412.61 288.19L412.62 287.49L412.66 286.8L412.73 286.12L412.83 285.45L412.95 284.78L413.1 284.13L413.27 283.48L413.47 282.85L413.69 282.22L413.94 281.61L414.21 281.01L414.5 280.42L414.81 279.85L415.14 279.29L415.5 278.74L415.87 278.21L416.27 277.69L416.68 277.19L417.12 276.7L417.57 276.23L418.03 275.78L418.52 275.35L419.02 274.94L419.54 274.54L420.07 274.17L420.62 273.81L421.18 273.48L421.75 273.17L422.34 272.88L422.94 272.61L423.56 272.36L424.18 272.14L424.81 271.94L425.46 271.77L426.11 271.62L426.78 271.5L427.45 271.4L428.13 271.33L428.82 271.29L429.52 271.28L431.19 271.28L431.19 258.19L431.19 257.97L431.18 257.76L431.15 257.54L431.12 257.33L431.09 257.13L431.04 256.92L430.99 256.72L430.92 256.52L430.85 256.33L430.78 256.14L430.69 255.95L430.6 255.77L430.51 255.59L430.4 255.41L430.29 255.24L430.17 255.08L430.05 254.91L429.92 254.76L429.79 254.61L429.65 254.46L429.5 254.32L429.35 254.19L429.19 254.06L429.03 253.93L428.87 253.82L428.69 253.71L428.52 253.6L428.34 253.5L428.16 253.41L427.97 253.33L427.78 253.25L427.58 253.18L427.39 253.12L427.18 253.07L426.98 253.02L426.77 252.98L426.56 252.95L426.35 252.93L426.14 252.92L425.92 252.91L330.3 252.91L330.08 252.92ZM29.54 123.93L28.9 123.99L28.27 124.08L27.65 124.2L27.03 124.34L26.43 124.5L25.84 124.68L25.25 124.89L24.68 125.12L24.12 125.37L23.57 125.64L23.03 125.94L22.5 126.25L21.99 126.58L21.49 126.93L21.01 127.3L20.54 127.69L20.09 128.09L19.65 128.51L19.23 128.95L18.82 129.41L18.44 129.88L18.07 130.36L17.72 130.86L17.38 131.37L17.07 131.89L16.78 132.43L16.51 132.98L16.25 133.54L16.03 134.12L15.82 134.7L15.63 135.3L15.47 135.9L15.33 136.51L15.22 137.14L15.13 137.76L15.06 138.4L15.02 139.05L15.01 139.7L15.01 290.52L143.41 290.52L143.41 280.07L103.96 280.07L103.66 280.07L103.35 280.05L103.05 280.02L102.75 279.98L102.45 279.92L102.16 279.86L101.87 279.78L101.59 279.69L101.32 279.59L101.04 279.48L100.78 279.36L100.52 279.24L100.26 279.1L100.01 278.95L99.77 278.79L99.53 278.63L99.3 278.45L99.08 278.27L98.87 278.07L98.66 277.88L98.46 277.67L98.27 277.45L98.08 277.23L97.91 277L97.74 276.76L97.58 276.52L97.44 276.27L97.3 276.02L97.17 275.76L97.05 275.49L96.94 275.22L96.84 274.94L96.75 274.66L96.68 274.37L96.61 274.08L96.56 273.79L96.52 273.49L96.48 273.18L96.47 272.88L96.46 272.57L96.47 272.26L96.48 271.95L96.52 271.65L96.56 271.35L96.61 271.06L96.68 270.77L96.75 270.48L96.84 270.2L96.94 269.92L97.05 269.65L97.17 269.38L97.3 269.12L97.44 268.86L97.58 268.62L97.74 268.37L97.91 268.14L98.08 267.91L98.27 267.68L98.46 267.47L98.66 267.26L98.87 267.06L99.08 266.87L99.3 266.69L99.53 266.51L99.77 266.35L100.01 266.19L100.26 266.04L100.52 265.9L100.78 265.77L101.04 265.65L101.32 265.54L101.59 265.45L101.87 265.36L102.16 265.28L102.45 265.22L102.75 265.16L103.05 265.12L103.35 265.09L103.66 265.07L103.96 265.06L143.41 265.06L143.41 205.46L143.43 204.67L143.48 203.89L143.56 203.11L143.67 202.35L143.81 201.59L143.97 200.85L144.17 200.11L144.4 199.39L144.65 198.68L144.93 197.98L145.23 197.3L145.56 196.63L145.92 195.98L146.3 195.34L146.7 194.71L147.13 194.11L147.58 193.52L148.05 192.95L148.54 192.4L149.05 191.87L149.59 191.35L150.14 190.86L150.71 190.39L151.3 189.94L151.9 189.52L152.52 189.11L153.16 188.73L153.82 188.38L154.49 188.05L155.17 187.74L155.87 187.46L156.58 187.21L157.3 186.98L158.03 186.79L158.78 186.62L159.53 186.48L160.3 186.37L161.07 186.29L161.86 186.24L162.65 186.23L216.38 186.23L216.69 186.23L217 186.25L217.3 186.28L217.6 186.32L217.9 186.38L218.19 186.44L218.47 186.52L218.76 186.61L219.03 186.71L219.31 186.82L219.57 186.93L219.83 187.06L220.09 187.2L220.34 187.35L220.58 187.51L220.82 187.67L221.05 187.85L221.27 188.03L221.48 188.22L221.69 188.42L221.89 188.63L222.08 188.85L222.27 189.07L222.44 189.3L222.61 189.53L222.77 189.78L222.91 190.03L223.05 190.28L223.18 190.54L223.3 190.81L223.41 191.08L223.51 191.36L223.59 191.64L223.67 191.93L223.74 192.22L223.79 192.51L223.83 192.81L223.86 193.12L223.88 193.42L223.89 193.73L223.88 194.04L223.86 194.35L223.83 194.65L223.79 194.95L223.74 195.24L223.67 195.53L223.59 195.82L223.51 196.1L223.41 196.38L223.3 196.65L223.18 196.92L223.05 197.18L222.91 197.43L222.77 197.68L222.61 197.93L222.44 198.16L222.27 198.39L222.08 198.61L221.89 198.83L221.69 199.04L221.48 199.24L221.27 199.43L221.05 199.61L220.82 199.79L220.58 199.95L220.34 200.11L220.09 200.26L219.83 200.4L219.57 200.53L219.31 200.65L219.03 200.75L218.76 200.85L218.47 200.94L218.19 201.02L217.9 201.08L217.6 201.14L217.3 201.18L217 201.21L216.69 201.23L216.38 201.24L162.65 201.24L162.48 201.24L162.3 201.25L162.13 201.27L161.97 201.29L161.8 201.32L161.64 201.36L161.47 201.4L161.32 201.45L161.16 201.51L161.01 201.57L160.86 201.64L160.71 201.71L160.57 201.79L160.43 201.87L160.29 201.96L160.16 202.05L160.03 202.15L159.9 202.25L159.78 202.36L159.66 202.47L159.55 202.59L159.44 202.71L159.34 202.84L159.24 202.97L159.15 203.1L159.06 203.24L158.97 203.38L158.9 203.52L158.82 203.67L158.76 203.82L158.69 203.97L158.64 204.13L158.59 204.29L158.55 204.45L158.51 204.61L158.48 204.78L158.45 204.95L158.44 205.12L158.43 205.29L158.42 205.46L158.42 356.16L310.01 356.16L310.01 345.32L176.93 345.32L176.63 345.31L176.32 345.29L176.02 345.26L175.72 345.22L175.42 345.17L175.13 345.1L174.84 345.02L174.56 344.93L174.29 344.84L174.01 344.73L173.75 344.61L173.49 344.48L173.23 344.34L172.98 344.19L172.74 344.04L172.5 343.87L172.27 343.69L172.05 343.51L171.84 343.32L171.63 343.12L171.43 342.91L171.24 342.7L171.05 342.47L170.88 342.24L170.71 342.01L170.55 341.77L170.41 341.52L170.27 341.26L170.14 341L170.02 340.73L169.91 340.46L169.81 340.18L169.73 339.9L169.65 339.62L169.58 339.33L169.53 339.03L169.49 338.73L169.46 338.43L169.44 338.12L169.43 337.81L169.43 219.75L169.44 219.44L169.46 219.13L169.49 218.83L169.53 218.53L169.58 218.23L169.65 217.94L169.73 217.66L169.81 217.38L169.91 217.1L170.02 216.83L170.14 216.56L170.27 216.3L170.41 216.04L170.55 215.79L170.71 215.55L170.88 215.31L171.05 215.09L171.24 214.86L171.43 214.65L171.63 214.44L171.84 214.24L172.05 214.05L172.27 213.87L172.5 213.69L172.74 213.52L172.98 213.37L173.23 213.22L173.49 213.08L173.75 212.95L174.01 212.83L174.29 212.72L174.56 212.62L174.84 212.54L175.13 212.46L175.42 212.39L175.72 212.34L176.02 212.3L176.32 212.27L176.63 212.25L176.93 212.24L373.6 212.24L373.91 212.25L374.22 212.27L374.52 212.3L374.82 212.34L375.11 212.39L375.4 212.46L375.69 212.54L375.97 212.62L376.25 212.72L376.52 212.83L376.79 212.95L377.05 213.08L377.3 213.22L377.55 213.37L377.8 213.52L378.03 213.69L378.26 213.87L378.48 214.05L378.7 214.24L378.91 214.44L379.11 214.65L379.3 214.86L379.48 215.09L379.66 215.31L379.82 215.55L379.98 215.79L380.13 216.04L380.27 216.3L380.4 216.56L380.52 216.83L380.62 217.1L380.72 217.38L380.81 217.66L380.89 217.94L380.95 218.23L381.01 218.53L381.05 218.83L381.08 219.13L381.1 219.44L381.11 219.75L381.11 237.9L392.11 237.9L392.11 205.46L392.11 205.29L392.1 205.12L392.08 204.95L392.06 204.78L392.03 204.61L391.99 204.45L391.95 204.29L391.9 204.13L391.84 203.97L391.78 203.82L391.71 203.67L391.64 203.52L391.56 203.38L391.48 203.24L391.39 203.1L391.3 202.97L391.2 202.84L391.09 202.71L390.99 202.59L390.87 202.47L390.76 202.36L390.63 202.25L390.51 202.15L390.38 202.05L390.25 201.96L390.11 201.87L389.97 201.79L389.83 201.71L389.68 201.64L389.53 201.57L389.38 201.51L389.22 201.45L389.06 201.4L388.9 201.36L388.74 201.32L388.57 201.29L388.4 201.27L388.23 201.25L388.06 201.24L387.89 201.24L246.4 201.24L246.09 201.23L245.79 201.21L245.49 201.18L245.19 201.14L244.89 201.08L244.6 201.02L244.31 200.94L244.03 200.85L243.75 200.75L243.48 200.65L243.22 200.53L242.96 200.4L242.7 200.26L242.45 200.11L242.21 199.95L241.97 199.79L241.74 199.61L241.52 199.43L241.3 199.24L241.1 199.04L240.9 198.83L240.71 198.61L240.52 198.39L240.35 198.16L240.18 197.93L240.02 197.68L239.88 197.43L239.74 197.18L239.61 196.92L239.49 196.65L239.38 196.38L239.28 196.1L239.19 195.82L239.12 195.53L239.05 195.24L239 194.95L238.95 194.65L238.92 194.35L238.91 194.04L238.9 193.73L238.91 193.42L238.92 193.12L238.95 192.81L239 192.51L239.05 192.22L239.12 191.93L239.19 191.64L239.28 191.36L239.38 191.08L239.49 190.81L239.61 190.54L239.74 190.28L239.88 190.03L240.02 189.78L240.18 189.53L240.35 189.3L240.52 189.07L240.71 188.85L240.9 188.63L241.1 188.42L241.3 188.22L241.52 188.03L241.74 187.85L241.97 187.67L242.21 187.51L242.45 187.35L242.7 187.2L242.96 187.06L243.22 186.93L243.48 186.82L243.75 186.71L244.03 186.61L244.31 186.52L244.6 186.44L244.89 186.38L245.19 186.32L245.49 186.28L245.79 186.25L246.09 186.23L246.4 186.23L283.99 186.23L283.99 149.89L41.03 149.89L41.03 265.06L73.95 265.06L74.26 265.07L74.56 265.09L74.86 265.12L75.16 265.16L75.46 265.22L75.75 265.28L76.04 265.36L76.32 265.45L76.59 265.54L76.87 265.65L77.13 265.77L77.39 265.9L77.65 266.04L77.9 266.19L78.14 266.35L78.38 266.51L78.61 266.69L78.83 266.87L79.04 267.06L79.25 267.26L79.45 267.47L79.64 267.68L79.83 267.91L80 268.14L80.17 268.37L80.33 268.62L80.47 268.86L80.61 269.12L80.74 269.38L80.86 269.65L80.97 269.92L81.07 270.2L81.16 270.48L81.23 270.77L81.3 271.06L81.35 271.35L81.39 271.65L81.43 271.95L81.44 272.26L81.45 272.57L81.44 272.88L81.43 273.18L81.39 273.49L81.35 273.79L81.3 274.08L81.23 274.37L81.16 274.66L81.07 274.94L80.97 275.22L80.86 275.49L80.74 275.76L80.61 276.02L80.47 276.27L80.33 276.52L80.17 276.76L80 277L79.83 277.23L79.64 277.45L79.45 277.67L79.25 277.88L79.04 278.07L78.83 278.27L78.61 278.45L78.38 278.63L78.14 278.79L77.9 278.95L77.65 279.1L77.39 279.24L77.13 279.36L76.87 279.48L76.59 279.59L76.32 279.69L76.04 279.78L75.75 279.86L75.46 279.92L75.16 279.98L74.86 280.02L74.56 280.05L74.26 280.07L73.95 280.07L33.52 280.07L33.21 280.07L32.91 280.05L32.6 280.02L32.3 279.98L32.01 279.92L31.72 279.86L31.43 279.78L31.15 279.69L30.87 279.59L30.6 279.48L30.33 279.36L30.07 279.24L29.82 279.1L29.57 278.95L29.33 278.79L29.09 278.63L28.86 278.45L28.64 278.27L28.42 278.07L28.21 277.88L28.01 277.67L27.82 277.45L27.64 277.23L27.46 277L27.3 276.76L27.14 276.52L26.99 276.27L26.85 276.02L26.73 275.76L26.61 275.49L26.5 275.22L26.4 274.94L26.31 274.66L26.23 274.37L26.17 274.08L26.11 273.79L26.07 273.49L26.04 273.18L26.02 272.88L26.02 272.57L26.02 142.39L26.02 142.08L26.04 141.77L26.07 141.47L26.11 141.17L26.17 140.88L26.23 140.58L26.31 140.3L26.4 140.02L26.5 139.74L26.61 139.47L26.73 139.2L26.85 138.94L26.99 138.68L27.14 138.43L27.3 138.19L27.46 137.96L27.64 137.73L27.82 137.5L28.01 137.29L28.21 137.08L28.42 136.88L28.64 136.69L28.86 136.51L29.09 136.33L29.33 136.17L29.57 136.01L29.82 135.86L30.07 135.72L30.33 135.59L30.6 135.47L30.87 135.36L31.15 135.27L31.43 135.18L31.72 135.1L32.01 135.04L32.3 134.98L32.6 134.94L32.91 134.91L33.21 134.89L33.52 134.88L291.5 134.88L291.81 134.89L292.11 134.91L292.42 134.94L292.72 134.98L293.01 135.04L293.3 135.1L293.59 135.18L293.87 135.27L294.15 135.36L294.42 135.47L294.69 135.59L294.95 135.72L295.2 135.86L295.45 136.01L295.7 136.17L295.93 136.33L296.16 136.51L296.38 136.69L296.6 136.88L296.81 137.08L297.01 137.29L297.2 137.5L297.38 137.73L297.56 137.96L297.72 138.19L297.88 138.43L298.03 138.68L298.17 138.94L298.3 139.2L298.41 139.47L298.52 139.74L298.62 140.02L298.71 140.3L298.79 140.58L298.85 140.88L298.91 141.17L298.95 141.47L298.98 141.77L299 142.08L299 142.39L299 186.23L310.01 186.23L310.01 139.7L310 139.05L309.96 138.4L309.89 137.77L309.8 137.14L309.69 136.51L309.55 135.9L309.39 135.3L309.2 134.7L309 134.12L308.77 133.55L308.51 132.98L308.24 132.43L307.95 131.9L307.64 131.37L307.31 130.86L306.95 130.36L306.58 129.88L306.2 129.41L305.79 128.95L305.37 128.52L304.93 128.09L304.48 127.69L304.01 127.3L303.53 126.93L303.03 126.58L302.52 126.25L301.99 125.94L301.45 125.64L300.9 125.37L300.34 125.12L299.77 124.89L299.18 124.68L298.59 124.5L297.99 124.34L297.37 124.2L296.75 124.08L296.12 123.99L295.48 123.93L294.84 123.89L294.19 123.88L30.83 123.88L30.18 123.89L29.54 123.93ZM429.44 286.29L429.36 286.29L429.29 286.3L429.21 286.31L429.13 286.32L429.06 286.34L428.99 286.36L428.92 286.38L428.85 286.41L428.78 286.43L428.71 286.47L428.64 286.5L428.58 286.53L428.52 286.57L428.46 286.61L428.4 286.65L428.34 286.7L428.28 286.74L428.23 286.79L428.17 286.84L428.12 286.9L428.07 286.95L428.03 287.01L427.98 287.06L427.94 287.12L427.9 287.19L427.86 287.25L427.83 287.31L427.8 287.38L427.77 287.45L427.74 287.52L427.71 287.59L427.69 287.66L427.67 287.73L427.65 287.8L427.64 287.88L427.63 287.95L427.62 288.03L427.62 288.11L427.62 288.19L427.62 352.07L496.99 352.07L496.99 288.19L496.99 288.11L496.98 288.03L496.98 287.95L496.97 287.88L496.95 287.8L496.94 287.73L496.92 287.66L496.89 287.59L496.87 287.52L496.84 287.45L496.81 287.38L496.78 287.31L496.74 287.25L496.71 287.19L496.67 287.12L496.62 287.06L496.58 287.01L496.53 286.95L496.48 286.9L496.43 286.84L496.38 286.79L496.33 286.74L496.27 286.7L496.21 286.65L496.15 286.61L496.09 286.57L496.03 286.53L495.96 286.5L495.9 286.47L495.83 286.43L495.76 286.41L495.69 286.38L495.62 286.36L495.54 286.34L495.47 286.32L495.4 286.31L495.32 286.3L495.24 286.29L495.17 286.29L495.09 286.29L429.52 286.29L429.44 286.29ZM184.44 330.31L310.01 330.31L310.01 258.19L310.03 257.35L310.08 256.53L310.16 255.71L310.28 254.9L310.42 254.11L310.6 253.32L310.81 252.55L311.05 251.78L311.31 251.04L311.61 250.3L311.93 249.58L312.28 248.87L312.65 248.19L313.05 247.51L313.48 246.86L313.93 246.22L314.4 245.6L314.9 245L315.42 244.41L315.96 243.85L316.52 243.31L317.1 242.79L317.7 242.3L318.32 241.82L318.96 241.37L319.62 240.95L320.29 240.55L320.98 240.17L321.69 239.82L322.41 239.5L323.14 239.21L323.89 238.94L324.65 238.7L325.43 238.5L326.21 238.32L327.01 238.17L327.82 238.06L328.63 237.97L329.46 237.92L330.3 237.9L366.1 237.9L366.1 227.25L184.44 227.25L184.44 330.31ZM15.01 308.37L15.02 309.03L15.06 309.67L15.13 310.31L15.22 310.94L15.33 311.56L15.47 312.17L15.63 312.78L15.82 313.37L16.03 313.95L16.25 314.53L16.51 315.09L16.78 315.64L17.07 316.18L17.38 316.7L17.72 317.21L18.07 317.71L18.44 318.2L18.82 318.67L19.23 319.12L19.65 319.56L20.09 319.98L20.54 320.38L21.01 320.77L21.49 321.14L21.99 321.49L22.5 321.82L23.03 322.14L23.57 322.43L24.12 322.7L24.68 322.95L25.25 323.18L25.84 323.39L26.43 323.57L27.03 323.74L27.65 323.88L28.27 323.99L28.9 324.08L29.54 324.14L30.18 324.18L30.83 324.2L143.41 324.2L143.41 305.53L15.01 305.53L15.01 308.37Z" id="dgYpv8qGI"></path><path d="M462.3 371.05C458.99 371.05 456.31 373.74 456.31 377.05C456.31 380.36 458.99 383.04 462.3 383.04C465.61 383.04 468.3 380.36 468.3 377.05C468.3 373.74 465.61 371.05 462.3 371.05Z" id="cSU0D04EX"></path></defs><g><g><g><use xlink:href="#ddjKhozZ" opacity="1" fill="#99bce4" fill-opacity="1"></use><g><use xlink:href="#ddjKhozZ" opacity="1" fill-opacity="0" stroke="#000000" stroke-width="1" stroke-opacity="0"></use></g></g><g><use xlink:href="#a4zsLuhuA4" opacity="1" fill="#e5eef8" fill-opacity="1"></use><g><use xlink:href="#a4zsLuhuA4" opacity="1" fill-opacity="0" stroke="#000000" stroke-width="1" stroke-opacity="0"></use></g></g><g><use xlink:href="#d2hUwxGc4" opacity="1" fill="#d5e2f3" fill-opacity="1"></use><g><use xlink:href="#d2hUwxGc4" opacity="1" fill-opacity="0" stroke="#000000" stroke-width="1" stroke-opacity="0"></use></g></g><g><use xlink:href="#cQHLB1xCR" opacity="1" fill="#00befd" fill-opacity="1"></use><g><use xlink:href="#cQHLB1xCR" opacity="1" fill-opacity="0" stroke="#000000" stroke-width="1" stroke-opacity="0"></use></g></g><g><use xlink:href="#b6jSqarPG" opacity="1" fill="#00befd" fill-opacity="1"></use><g><use xlink:href="#b6jSqarPG" opacity="1" fill-opacity="0" stroke="#000000" stroke-width="1" stroke-opacity="0"></use></g></g><g><use xlink:href="#dRLa9GEs" opacity="1" fill="#00befd" fill-opacity="1"></use><g><use xlink:href="#dRLa9GEs" opacity="1" fill-opacity="0" stroke="#000000" stroke-width="1" stroke-opacity="0"></use></g></g><g><use xlink:href="#a2eXUiHnwC" opacity="1" fill="#c5e1ff" fill-opacity="1"></use><g><use xlink:href="#a2eXUiHnwC" opacity="1" fill-opacity="0" stroke="#000000" stroke-width="1" stroke-opacity="0"></use></g></g><g><use xlink:href="#cPxK8PspZ" opacity="1" fill="#b4d9fd" fill-opacity="1"></use><g><use xlink:href="#cPxK8PspZ" opacity="1" fill-opacity="0" stroke="#000000" stroke-width="1" stroke-opacity="0"></use></g></g><g><use xlink:href="#k2nJs5nZLV" opacity="1" fill="#e5eef8" fill-opacity="1"></use><g><use xlink:href="#k2nJs5nZLV" opacity="1" fill-opacity="0" stroke="#000000" stroke-width="1" stroke-opacity="0"></use></g></g><g><use xlink:href="#e57rY0vEvs" opacity="1" fill="#d5e2f3" fill-opacity="1"></use><g><use xlink:href="#e57rY0vEvs" opacity="1" fill-opacity="0" stroke="#000000" stroke-width="1" stroke-opacity="0"></use></g></g><g><use xlink:href="#a1WLfMZiv" opacity="1" fill="#c5e1ff" fill-opacity="1"></use><g><use xlink:href="#a1WLfMZiv" opacity="1" fill-opacity="0" stroke="#000000" stroke-width="1" stroke-opacity="0"></use></g></g><g><use xlink:href="#d3I33CNJw" opacity="1" fill="#00befd" fill-opacity="1"></use><g><use xlink:href="#d3I33CNJw" opacity="1" fill-opacity="0" stroke="#000000" stroke-width="1" stroke-opacity="0"></use></g></g><g><use xlink:href="#go9Ezvfs" opacity="1" fill="#00befd" fill-opacity="1"></use><g><use xlink:href="#go9Ezvfs" opacity="1" fill-opacity="0" stroke="#000000" stroke-width="1" stroke-opacity="0"></use></g></g><g><use xlink:href="#a2ifuRv7cP" opacity="1" fill="#e5eef8" fill-opacity="1"></use><g><use xlink:href="#a2ifuRv7cP" opacity="1" fill-opacity="0" stroke="#000000" stroke-width="1" stroke-opacity="0"></use></g></g><g><use xlink:href="#b6sXLXFZR1" opacity="1" fill="#d5e2f3" fill-opacity="1"></use><g><use xlink:href="#b6sXLXFZR1" opacity="1" fill-opacity="0" stroke="#000000" stroke-width="1" stroke-opacity="0"></use></g></g><g><use xlink:href="#a6PUCqOTs" opacity="1" fill="#0076ff" fill-opacity="1"></use><g><use xlink:href="#a6PUCqOTs" opacity="1" fill-opacity="0" stroke="#000000" stroke-width="1" stroke-opacity="0"></use></g></g><g><use xlink:href="#c5Ee8MngHU" opacity="1" fill="#0076ff" fill-opacity="1"></use><g><use xlink:href="#c5Ee8MngHU" opacity="1" fill-opacity="0" stroke="#000000" stroke-width="1" stroke-opacity="0"></use></g></g><g><use xlink:href="#b6caImg6F" opacity="1" fill="#0076ff" fill-opacity="1"></use><g><use xlink:href="#b6caImg6F" opacity="1" fill-opacity="0" stroke="#000000" stroke-width="1" stroke-opacity="0"></use></g></g><g><use xlink:href="#bMnsK7RPt" opacity="1" fill="#0076ff" fill-opacity="0.9"></use><g><use xlink:href="#bMnsK7RPt" opacity="1" fill-opacity="0" stroke="#000000" stroke-width="1" stroke-opacity="0"></use></g></g><g><use xlink:href="#b4E8d14W2b" opacity="1" fill="#0076ff" fill-opacity="1"></use><g><use xlink:href="#b4E8d14W2b" opacity="1" fill-opacity="0" stroke="#000000" stroke-width="1" stroke-opacity="0"></use></g></g><g><use xlink:href="#a3sjWaIDZU" opacity="1" fill="#c5e1ff" fill-opacity="1"></use><g><use xlink:href="#a3sjWaIDZU" opacity="1" fill-opacity="0" stroke="#000000" stroke-width="1" stroke-opacity="0"></use></g></g><g><use xlink:href="#dgYpv8qGI" opacity="1" fill="#000000" fill-opacity="1"></use><g><use xlink:href="#dgYpv8qGI" opacity="1" fill-opacity="0" stroke="#000000" stroke-width="1" stroke-opacity="0"></use></g></g><g><use xlink:href="#cSU0D04EX" opacity="1" fill="#000000" fill-opacity="1"></use><g><use xlink:href="#cSU0D04EX" opacity="1" fill-opacity="0" stroke="#000000" stroke-width="1" stroke-opacity="0"></use></g></g></g></g></svg>