<?xml version="1.0" encoding="UTF-8" standalone="no"?>
<!DOCTYPE svg PUBLIC "-//W3C//DTD SVG 1.1//EN" "http://www.w3.org/Graphics/SVG/1.1/DTD/svg11.dtd">
<svg version="1.1" xmlns="http://www.w3.org/2000/svg" xmlns:xlink="http://www.w3.org/1999/xlink" preserveAspectRatio="xMidYMid meet" viewBox="0 0 640 640" width="640" height="640"><defs><path d="M210.61 190.46L210.61 111.05L497.65 111.05L497.65 190.46L210.61 190.46Z" id="g2ShFlHZBU"></path><path d="M178.9 475.34L178.9 354.68L534.34 354.68L534.34 475.34L178.9 475.34Z" id="aAis7vYXv"></path><path d="M178.9 251.78L178.9 354.68L534.34 354.68L534.34 251.78" id="fCjWuvVRI"></path><path d="M307.68 417.05C242.16 417.05 205.77 417.05 198.49 417.05C176.88 417.05 159.36 433.25 159.36 453.24C159.36 456.83 159.36 474.8 159.36 507.13L215.6 507.13L215.6 667.7L497.65 667.7L497.65 507.13L553.89 507.13C553.89 474.8 553.89 456.83 553.89 453.24C553.89 433.25 536.37 417.05 514.76 417.05C507.48 417.05 471.08 417.05 405.57 417.05" id="cXrBYmF7f"></path><path d="M553.89 667.7L497.65 667.7L497.65 507.13L553.89 507.13L553.89 548.4" id="c1axmanzyq"></path><path d="M470.58 545.38L469.24 545.35L467.92 545.28L466.6 545.15L465.31 544.98L464.03 544.76L462.77 544.5L461.53 544.19L460.3 543.84L459.1 543.45L457.92 543.01L456.77 542.53L455.64 542.02L454.53 541.46L453.45 540.87L452.4 540.24L451.38 539.57L450.38 538.87L449.42 538.13L448.48 537.36L447.59 536.56L446.72 535.73L445.89 534.87L445.09 533.98L444.33 533.06L443.61 532.11L442.93 531.14L442.29 530.14L441.69 529.11L441.13 528.07L440.61 527L440.14 525.91L439.72 524.8L439.34 523.67L439 522.52L438.72 521.35L438.48 520.17L438.3 518.97L438.17 517.76L438.08 516.53L438.06 515.29L438.06 417.05L497.65 417.05L497.65 545.38L470.58 545.38Z" id="i4635cnHZ"></path><path d="M275.16 516.53L275.08 517.76L274.95 518.97L274.76 520.17L274.53 521.35L274.24 522.52L273.91 523.67L273.53 524.8L273.11 525.91L272.63 527L272.12 528.07L271.56 529.11L270.96 530.14L270.32 531.14L269.63 532.11L268.91 533.06L268.16 533.98L267.36 534.87L266.53 535.73L265.66 536.56L264.76 537.36L263.83 538.13L262.87 538.87L261.87 539.57L260.85 540.24L259.8 540.87L258.72 541.46L257.61 542.02L256.48 542.53L255.32 543.01L254.14 543.45L252.94 543.84L251.72 544.19L250.48 544.5L249.22 544.76L247.94 544.98L246.64 545.15L245.33 545.28L244 545.35L242.66 545.38L215.6 545.38L215.6 417.05L275.19 417.05L275.19 515.29L275.16 516.53Z" id="dPaQgciLc"></path><path d="M159.36 667.7L159.36 507.13L215.6 507.13L215.6 667.7L159.36 667.7Z" id="d7N6N1IPH"></path><path d="M504.41 211.91L505.65 211.94L506.87 212.01L508.08 212.12L509.27 212.28L510.45 212.48L511.61 212.72L512.75 213L513.87 213.33L514.98 213.69L516.06 214.09L517.13 214.53L518.17 215L519.19 215.52L520.18 216.06L521.15 216.64L522.09 217.26L523.01 217.9L523.89 218.58L524.75 219.29L525.58 220.02L526.37 220.79L527.14 221.58L527.87 222.4L528.57 223.25L529.23 224.12L529.86 225.02L530.45 225.94L531 226.88L531.52 227.84L531.99 228.82L532.43 229.83L532.82 230.85L533.17 231.89L533.48 232.95L533.74 234.02L533.95 235.11L534.12 236.21L534.25 237.33L534.32 238.46L534.34 239.6L534.32 240.74L534.25 241.87L534.12 242.99L533.95 244.09L533.74 245.18L533.48 246.26L533.17 247.31L532.82 248.35L532.43 249.37L531.99 250.38L531.52 251.36L531 252.32L530.45 253.27L529.86 254.18L529.23 255.08L528.57 255.95L527.87 256.8L527.14 257.62L526.37 258.41L525.58 259.18L524.75 259.91L523.89 260.62L523.01 261.3L522.09 261.94L521.15 262.56L520.18 263.14L519.19 263.68L518.17 264.19L517.13 264.67L516.06 265.11L514.98 265.51L513.87 265.87L512.75 266.2L511.61 266.48L510.45 266.72L509.27 266.92L508.08 267.08L506.87 267.19L505.65 267.26L504.41 267.28L498.89 267.28L498.56 271.25L498.15 275.18L497.65 279.08L497.07 282.94L496.39 286.77L495.62 290.56L494.75 294.3L493.78 298L492.7 301.66L491.51 305.26L490.22 308.82L488.81 312.32L487.28 315.77L485.63 319.16L483.86 322.49L481.96 325.76L479.93 328.97L477.76 332.11L475.46 335.18L473.02 338.19L470.43 341.12L467.7 343.97L464.82 346.75L461.79 349.45L458.6 352.07L455.25 354.6L451.74 357.05L448.06 359.41L444.21 361.68L440.19 363.86L436 365.95L431.63 367.94L427.07 369.83L422.33 371.61L417.41 373.3L412.29 374.88L406.98 376.35L401.47 377.71L395.75 378.97L389.84 380.1L389.94 404.68L405.57 417.05L356.63 464.41L307.68 417.05L323.31 404.68L323.42 380.1L317.5 378.97L311.79 377.71L306.28 376.35L300.96 374.88L295.84 373.3L290.92 371.61L286.18 369.83L281.62 367.94L277.25 365.95L273.06 363.86L269.04 361.68L265.19 359.41L261.51 357.05L258 354.6L254.65 352.07L251.46 349.45L248.43 346.75L245.55 343.97L242.82 341.12L240.23 338.19L237.79 335.18L235.49 332.11L233.32 328.97L231.29 325.76L229.39 322.49L227.62 319.16L225.97 315.77L224.44 312.32L223.03 308.82L221.73 305.26L220.55 301.66L219.47 298L218.5 294.3L217.63 290.56L216.86 286.77L216.18 282.94L215.6 279.08L215.1 275.18L214.69 271.25L214.36 267.28L208.83 267.28L207.6 267.26L206.38 267.19L205.17 267.08L203.98 266.92L202.8 266.72L201.64 266.48L200.5 266.2L199.37 265.87L198.27 265.51L197.18 265.11L196.12 264.67L195.08 264.19L194.06 263.68L193.07 263.14L192.1 262.56L191.16 261.94L190.24 261.3L189.36 260.62L188.5 259.91L187.67 259.18L186.87 258.41L186.11 257.62L185.38 256.8L184.68 255.95L184.01 255.08L183.39 254.18L182.8 253.27L182.24 252.32L181.73 251.36L181.26 250.38L180.82 249.37L180.43 248.35L180.08 247.31L179.77 246.26L179.51 245.18L179.29 244.09L179.12 242.99L179 241.87L178.93 240.74L178.9 239.6L178.93 238.46L179 237.33L179.12 236.21L179.29 235.11L179.51 234.02L179.77 232.95L180.08 231.89L180.43 230.85L180.82 229.83L181.26 228.82L181.73 227.84L182.24 226.88L182.8 225.94L183.39 225.02L184.01 224.12L184.68 223.25L185.38 222.4L186.11 221.58L186.87 220.79L187.67 220.02L188.5 219.29L189.36 218.58L190.24 217.9L191.16 217.26L192.1 216.64L193.07 216.06L194.06 215.52L195.08 215L196.12 214.53L197.18 214.09L198.27 213.69L199.37 213.33L200.5 213L201.64 212.72L202.8 212.48L203.98 212.28L205.17 212.12L206.38 212.01L207.6 211.94L208.83 211.91L213.81 211.91L213.81 190.45L501.12 190.45L499.44 211.91L504.41 211.91Z" id="b1BMcp7oh"></path><path d="M284.14 217.6L284.84 217.7L285.53 217.83L286.22 217.98L286.91 218.18L287.6 218.4L288.27 218.66L288.94 218.96L307.59 227.75L308.13 228.02L308.66 228.31L309.18 228.62L309.67 228.95L310.15 229.3L310.61 229.66L311.05 230.03L311.47 230.43L311.87 230.83L312.25 231.25L312.61 231.69L312.96 232.13L313.28 232.59L313.58 233.06L313.86 233.54L314.12 234.03L314.35 234.53L314.56 235.04L314.76 235.56L314.92 236.08L315.07 236.61L315.19 237.15L315.29 237.69L315.36 238.24L315.41 238.79L315.44 239.34L315.43 239.9L315.41 240.46L315.36 241.02L315.28 241.58L315.17 242.14L315.04 242.7L314.88 243.26L314.7 243.8L314.49 244.34L314.27 244.86L314.01 245.37L313.74 245.87L313.45 246.35L313.13 246.82L312.8 247.28L312.45 247.72L312.08 248.15L311.69 248.56L311.28 248.96L310.85 249.34L310.41 249.7L309.96 250.05L309.49 250.37L309 250.69L308.5 250.98L307.99 251.25L307.47 251.51L306.93 251.74L306.38 251.96L305.83 252.15L305.26 252.32L304.68 252.47L304.1 252.6L303.5 252.71L302.9 252.79L302.29 252.85L301.68 252.89L301.05 252.9L267.05 252.9L266.31 252.89L265.58 252.83L264.86 252.75L264.15 252.63L263.45 252.48L262.77 252.3L262.1 252.1L261.45 251.86L260.81 251.59L260.19 251.3L259.59 250.98L259.01 250.63L258.44 250.26L257.9 249.87L257.38 249.45L256.88 249.01L256.4 248.55L255.95 248.06L255.52 247.56L255.12 247.04L254.75 246.5L254.4 245.94L254.08 245.37L253.8 244.78L253.54 244.18L253.31 243.56L253.12 242.93L252.96 242.28L252.83 241.63L252.74 240.96L252.69 240.29L252.67 239.6L252.69 238.92L252.74 238.24L252.83 237.58L252.96 236.92L253.12 236.28L253.31 235.65L253.54 235.03L253.8 234.42L254.08 233.84L254.4 233.26L254.75 232.7L255.12 232.16L255.52 231.64L255.95 231.14L256.4 230.66L256.88 230.2L257.38 229.76L257.9 229.34L258.44 228.94L259.01 228.57L259.59 228.23L260.19 227.91L260.81 227.61L261.45 227.35L262.1 227.11L262.77 226.9L263.45 226.72L264.15 226.57L264.86 226.45L265.58 226.37L266.31 226.32L267.05 226.3L268.88 226.3L268.9 226.25L268.92 226.2L268.94 226.16L268.96 226.11L268.98 226.06L269 226.01L269.02 225.96L269.04 225.92L269.06 225.87L269.08 225.82L269.1 225.77L269.13 225.72L269.15 225.68L269.17 225.63L269.19 225.58L269.21 225.53L269.24 225.48L269.26 225.44L269.28 225.39L269.31 225.34L269.33 225.29L269.35 225.25L269.38 225.2L269.4 225.15L269.43 225.1L269.45 225.06L269.47 225.01L269.5 224.96L269.52 224.91L269.55 224.87L269.58 224.82L269.6 224.77L269.95 224.17L270.34 223.59L270.74 223.04L271.18 222.51L271.64 222L272.12 221.52L272.62 221.07L273.15 220.64L273.69 220.23L274.26 219.85L274.84 219.5L275.44 219.18L276.05 218.88L276.68 218.61L277.32 218.37L277.97 218.16L278.63 217.98L279.3 217.83L279.98 217.7L280.66 217.61L281.35 217.55L282.04 217.51L282.74 217.51L283.44 217.54L284.14 217.6Z" id="e5iDwnDGes"></path><path d="M430.49 217.55L431.18 217.61L431.86 217.7L432.54 217.83L433.21 217.98L433.87 218.16L434.52 218.37L435.16 218.61L435.79 218.88L436.4 219.18L437 219.5L437.58 219.85L438.14 220.23L438.69 220.64L439.21 221.07L439.72 221.52L440.2 222L440.66 222.51L441.09 223.04L441.5 223.59L441.88 224.17L442.24 224.77L442.26 224.82L442.29 224.87L442.31 224.91L442.34 224.96L442.36 225.01L442.39 225.06L442.41 225.1L442.44 225.15L442.46 225.2L442.48 225.24L442.51 225.29L442.53 225.34L442.55 225.39L442.58 225.43L442.6 225.48L442.62 225.53L442.64 225.58L442.67 225.63L442.69 225.67L442.71 225.72L442.73 225.77L442.75 225.82L442.77 225.87L442.79 225.91L442.81 225.96L442.83 226.01L442.85 226.06L442.87 226.11L442.89 226.16L442.91 226.2L442.93 226.25L442.95 226.3L444.79 226.3L445.53 226.32L446.26 226.37L446.98 226.45L447.69 226.57L448.38 226.72L449.07 226.9L449.73 227.11L450.39 227.35L451.02 227.61L451.64 227.91L452.25 228.23L452.83 228.57L453.39 228.94L453.94 229.34L454.46 229.76L454.96 230.2L455.43 230.66L455.89 231.14L456.31 231.64L456.71 232.16L457.09 232.7L457.43 233.26L457.75 233.84L458.04 234.42L458.3 235.03L458.52 235.65L458.72 236.28L458.88 236.92L459.01 237.58L459.1 238.24L459.15 238.92L459.17 239.6L459.15 240.29L459.1 240.96L459.01 241.63L458.88 242.28L458.72 242.93L458.52 243.56L458.3 244.18L458.04 244.78L457.75 245.37L457.43 245.94L457.09 246.5L456.71 247.04L456.31 247.56L455.89 248.06L455.43 248.55L454.96 249.01L454.46 249.45L453.94 249.87L453.39 250.26L452.83 250.63L452.25 250.98L451.64 251.3L451.02 251.59L450.39 251.86L449.73 252.1L449.07 252.3L448.38 252.48L447.69 252.63L446.98 252.75L446.26 252.83L445.53 252.89L444.79 252.9L410.78 252.9L410.16 252.89L409.54 252.85L408.93 252.79L408.33 252.71L407.74 252.6L407.15 252.47L406.58 252.32L406.01 252.15L405.45 251.96L404.9 251.74L404.37 251.51L403.84 251.25L403.33 250.98L402.83 250.69L402.35 250.37L401.88 250.05L401.42 249.7L400.98 249.34L400.56 248.96L400.15 248.56L399.76 248.15L399.39 247.72L399.04 247.28L398.7 246.82L398.39 246.35L398.1 245.87L397.82 245.37L397.57 244.86L397.34 244.34L397.14 243.8L396.96 243.26L396.8 242.7L396.67 242.14L396.56 241.58L396.48 241.02L396.43 240.46L396.4 239.9L396.4 239.34L396.43 238.79L396.47 238.24L396.55 237.69L396.65 237.15L396.77 236.61L396.91 236.08L397.08 235.56L397.27 235.04L397.48 234.53L397.72 234.03L397.98 233.54L398.26 233.06L398.56 232.59L398.88 232.13L399.22 231.69L399.58 231.25L399.97 230.83L400.37 230.42L400.79 230.03L401.23 229.65L401.69 229.29L402.17 228.95L402.66 228.62L403.17 228.31L403.7 228.02L404.25 227.75L422.9 218.96L423.57 218.66L424.24 218.4L424.92 218.18L425.61 217.98L426.31 217.83L427 217.7L427.7 217.6L428.4 217.54L429.1 217.51L429.79 217.51L430.49 217.55Z" id="d7BOTreRfs"></path><path d="M377.47 301.74L378.12 301.81L378.76 301.9L379.4 302.03L380.03 302.17L380.66 302.35L381.28 302.55L381.89 302.78L382.49 303.04L383.08 303.32L383.66 303.63L384.22 303.97L384.78 304.33L385.31 304.72L385.84 305.14L386.34 305.59L386.82 306.05L387.27 306.54L387.69 307.03L388.09 307.54L388.45 308.07L388.79 308.6L389.09 309.15L389.37 309.71L389.62 310.27L389.84 310.84L390.03 311.42L390.19 312.01L390.32 312.6L390.42 313.19L390.49 313.79L390.53 314.39L390.55 314.99L390.53 315.59L390.49 316.19L390.42 316.79L390.31 317.38L390.18 317.97L390.02 318.56L389.83 319.14L389.61 319.71L389.37 320.28L389.09 320.83L388.78 321.38L388.45 321.91L388.08 322.44L387.69 322.95L387.27 323.45L386.81 323.93L386.33 324.39L385.6 325.05L384.86 325.69L384.11 326.31L383.34 326.91L382.56 327.49L381.77 328.05L380.97 328.59L380.16 329.11L379.34 329.61L378.51 330.09L377.66 330.55L376.81 331L375.96 331.42L375.09 331.82L374.21 332.2L373.33 332.57L372.44 332.91L371.55 333.24L370.64 333.54L369.74 333.83L368.82 334.09L367.9 334.34L366.98 334.56L366.05 334.77L365.12 334.96L364.19 335.12L363.25 335.27L362.31 335.4L361.36 335.51L360.42 335.6L359.47 335.66L358.52 335.71L357.58 335.74L356.63 335.75L355.68 335.74L354.73 335.71L353.78 335.66L352.83 335.6L351.89 335.51L350.94 335.4L350 335.27L349.06 335.12L348.13 334.96L347.2 334.77L346.27 334.56L345.35 334.34L344.43 334.09L343.51 333.83L342.6 333.54L341.7 333.24L340.81 332.91L339.92 332.57L339.03 332.2L338.16 331.82L337.29 331.42L336.43 331L335.58 330.55L334.74 330.09L333.91 329.61L333.09 329.11L332.28 328.59L331.48 328.05L330.69 327.49L329.91 326.91L329.14 326.31L328.39 325.69L327.64 325.05L326.91 324.39L326.43 323.93L325.98 323.45L325.56 322.95L325.17 322.44L324.8 321.91L324.47 321.38L324.16 320.83L323.88 320.28L323.63 319.71L323.42 319.14L323.23 318.56L323.07 317.97L322.93 317.38L322.83 316.79L322.76 316.19L322.72 315.59L322.7 314.99L322.72 314.39L322.76 313.79L322.83 313.19L322.93 312.6L323.06 312.01L323.22 311.42L323.41 310.84L323.63 310.27L323.88 309.71L324.16 309.15L324.46 308.6L324.8 308.07L325.16 307.54L325.55 307.03L325.98 306.54L326.43 306.05L326.91 305.59L327.41 305.14L327.93 304.72L328.47 304.33L329.02 303.97L329.59 303.63L330.17 303.32L330.76 303.04L331.36 302.78L331.97 302.55L332.59 302.35L333.22 302.17L333.85 302.03L334.49 301.9L335.13 301.81L335.78 301.74L336.42 301.7L337.07 301.69L337.72 301.7L338.37 301.74L339.02 301.81L339.66 301.9L340.3 302.02L340.93 302.17L341.56 302.35L342.18 302.55L342.79 302.78L343.39 303.03L343.98 303.32L344.56 303.63L345.13 303.96L345.68 304.33L346.22 304.72L346.74 305.14L347.24 305.58L347.71 305.99L348.19 306.38L348.68 306.73L349.19 307.07L349.72 307.38L350.25 307.67L350.79 307.93L351.35 308.16L351.91 308.37L352.49 308.56L353.06 308.72L353.65 308.86L354.24 308.97L354.83 309.05L355.43 309.12L356.03 309.15L356.63 309.17L357.23 309.15L357.82 309.12L358.42 309.05L359.01 308.97L359.6 308.86L360.19 308.72L360.77 308.56L361.34 308.37L361.9 308.16L362.46 307.93L363 307.67L363.53 307.38L364.06 307.07L364.57 306.73L365.06 306.38L365.54 305.99L366.01 305.58L366.51 305.14L367.03 304.72L367.57 304.33L368.12 303.96L368.69 303.63L369.27 303.32L369.86 303.03L370.46 302.78L371.07 302.55L371.69 302.35L372.32 302.17L372.95 302.02L373.59 301.9L374.23 301.81L374.88 301.74L375.53 301.7L376.17 301.69L376.82 301.7L377.47 301.74Z" id="b3iEA6r3tT"></path><path d="M351.22 13.76L355.32 14.19L359.45 14.78L363.62 15.52L367.81 16.42L372.02 17.48L376.25 18.7L380.51 20.08L384.78 21.61L389.07 23.31L393.38 25.17L396.95 26.82L400.42 28.5L403.8 30.2L407.09 31.92L410.29 33.65L413.4 35.37L416.44 37.07L419.41 38.76L422.3 40.41L425.14 42.02L427.91 43.59L430.63 45.09L433.3 46.53L435.92 47.9L438.5 49.17L441.04 50.36L443.55 51.44L446.03 52.41L448.49 53.26L450.93 53.98L453.35 54.56L455.76 55L458.17 55.28L460.58 55.39L462.99 55.33L465.41 55.08L467.84 54.64L470.28 54L472.75 53.15L475.25 52.08L477.77 50.79L480.33 49.25L482.93 47.47L485.57 45.43L488.27 43.13L491.01 40.56L493.81 37.7L496.67 34.56L499.6 31.11L502.6 27.36L502.7 27.51L502.94 27.99L503.34 28.77L503.87 29.86L504.51 31.23L505.26 32.88L506.11 34.81L507.03 37L508.02 39.45L509.07 42.14L510.15 45.07L511.26 48.23L512.38 51.61L513.51 55.2L514.62 58.99L515.7 62.97L516.75 67.13L517.74 71.47L518.66 75.98L519.51 80.65L520.26 85.46L520.91 90.41L521.44 95.49L521.84 100.69L522.09 106.01L522.18 111.43L522.11 116.95L521.84 122.55L521.38 128.23L520.71 133.97L519.81 139.78L518.67 145.63L517.29 151.53L515.64 157.46L513.71 163.42L511.49 169.39L508.96 175.36L506.12 181.34L502.95 187.3L499.44 193.24L499.44 184.82L497.12 183.81L494.83 182.75L492.58 181.64L490.36 180.47L488.18 179.26L486.04 178L483.94 176.7L481.87 175.35L479.85 173.95L477.87 172.51L475.92 171.03L474.02 169.51L472.17 167.94L470.35 166.34L468.58 164.69L466.86 163.01L465.18 161.29L463.55 159.53L461.96 157.74L460.42 155.91L458.93 154.05L457.49 152.15L456.1 150.22L454.76 148.27L453.47 146.28L452.23 144.26L451.05 142.21L449.92 140.13L448.84 138.03L447.82 135.9L446.85 133.75L445.94 131.57L445.09 129.37L444.3 127.14L443.56 124.9L442.88 122.63L442.27 120.34L441.71 118.04L441.21 115.71L440.78 113.37L440.69 113.45L440.6 113.53L440.51 113.61L440.42 113.69L440.33 113.77L440.24 113.85L440.15 113.93L440.06 114.01L439.97 114.09L439.87 114.17L439.78 114.25L439.69 114.33L439.6 114.41L439.51 114.49L439.42 114.57L439.33 114.65L439.23 114.73L439.14 114.81L439.05 114.89L438.96 114.97L438.86 115.05L438.77 115.13L438.68 115.21L438.59 115.29L438.49 115.37L438.4 115.45L438.31 115.53L438.21 115.61L438.12 115.69L438.03 115.77L437.93 115.85L437.84 115.93L437.75 116.01L437.65 116.09L437.56 116.17L437.46 116.25L437.37 116.33L437.28 116.41L437.18 116.49L437.09 116.57L432.83 120.11L428.52 123.51L424.15 126.78L419.72 129.9L415.24 132.89L410.71 135.74L406.14 138.44L401.52 141L396.85 143.42L392.15 145.68L387.41 147.8L382.63 149.77L377.82 151.58L372.98 153.24L368.12 154.74L363.23 156.09L358.31 157.27L353.38 158.3L348.43 159.16L343.46 159.86L338.49 160.39L333.5 160.75L328.51 160.95L323.51 160.97L318.51 160.82L313.51 160.5L308.51 160L303.52 159.32L298.53 158.46L293.56 157.43L288.6 156.2L283.65 154.8L278.73 153.21L273.82 151.43L268.94 149.46L264.08 147.3L259.25 144.95L254.45 142.4L249.68 139.66L244.96 136.72L244.9 136.75L244.73 136.86L244.46 137.03L244.08 137.26L243.62 137.56L243.06 137.93L242.43 138.35L241.72 138.84L240.93 139.39L240.09 140L239.18 140.66L238.23 141.38L237.22 142.15L236.18 142.98L235.1 143.86L233.99 144.79L232.86 145.77L231.71 146.8L230.55 147.88L229.38 149L228.22 150.17L227.05 151.38L225.91 152.64L224.77 153.93L223.66 155.27L222.59 156.64L221.54 158.06L220.54 159.5L219.58 160.99L218.68 162.5L217.83 164.05L217.05 165.63L216.34 167.24L215.7 168.88L215.15 170.54L214.68 172.24L214.31 173.95L214.04 175.7L213.87 177.46L213.81 179.24L213.81 214.21L213.66 213.91L213.21 213.05L212.5 211.64L211.55 209.74L210.38 207.36L209.03 204.53L207.52 201.29L205.87 197.68L204.12 193.71L202.28 189.43L200.38 184.86L198.45 180.04L196.52 175L194.6 169.76L192.74 164.37L190.94 158.85L189.25 153.23L187.68 147.55L186.26 141.83L185.02 136.11L183.98 130.43L183.17 124.8L182.61 119.27L182.34 113.86L182.37 108.6L182.74 103.54L183.46 98.69L184.57 94.09L186.1 89.77L188.05 85.77L190.48 82.12L193.39 78.84L196.81 75.96L200.78 73.53L205.31 71.57L210.44 70.11L216.19 69.18L222.58 68.82L229.64 69.06L237.4 69.92L237.43 69.92L237.51 69.92L237.65 69.92L237.83 69.92L238.06 69.92L238.33 69.91L238.64 69.91L238.99 69.91L239.38 69.9L239.79 69.9L240.24 69.89L240.71 69.88L241.2 69.88L241.72 69.87L242.25 69.86L242.8 69.85L243.36 69.85L243.92 69.84L244.5 69.83L245.07 69.82L245.65 69.81L246.22 69.79L246.79 69.78L247.35 69.77L247.9 69.76L248.43 69.74L248.95 69.73L249.45 69.72L249.93 69.7L250.38 69.69L250.8 69.67L251.19 69.65L251.55 69.64L251.87 69.62L252.15 69.6L252.38 69.58L252.58 69.57L252.72 69.55L252.81 69.53L252.85 69.51L255.06 65.61L257.35 61.85L259.74 58.23L262.22 54.74L264.78 51.38L267.43 48.16L270.17 45.08L272.98 42.14L275.88 39.33L278.85 36.67L281.9 34.14L285.02 31.76L288.21 29.52L291.47 27.42L294.79 25.46L298.18 23.64L301.63 21.97L305.14 20.45L308.71 19.07L312.34 17.84L316.02 16.76L319.75 15.82L323.53 15.04L327.36 14.4L331.24 13.91L335.16 13.58L339.11 13.39L343.11 13.36L347.15 13.49L351.22 13.76Z" id="b2vlR97geJ"></path><path d="M349.47 0.25L353.92 0.61L358.4 1.13L362.9 1.82L367.43 2.66L371.99 3.67L376.56 4.85L381.16 6.19L385.76 7.69L390.39 9.36L395.02 11.2L399.66 13.21L400.5 13.59L401.33 13.97L402.15 14.35L402.97 14.73L403.78 15.12L404.59 15.5L405.39 15.89L406.19 16.28L406.98 16.67L407.77 17.06L408.55 17.45L409.32 17.84L410.09 18.23L410.86 18.62L411.62 19.01L412.37 19.41L413.12 19.8L413.87 20.19L414.61 20.58L415.34 20.98L416.07 21.37L416.79 21.76L417.51 22.15L418.23 22.54L418.94 22.93L419.64 23.32L420.34 23.71L421.04 24.1L421.73 24.48L422.42 24.87L423.1 25.25L423.78 25.63L424.45 26.01L425.12 26.39L425.78 26.77L426.44 27.14L427.09 27.52L427.74 27.89L428.39 28.26L429.03 28.62L429.98 29.16L430.92 29.7L431.85 30.23L432.77 30.75L433.69 31.28L434.61 31.79L435.51 32.3L436.41 32.8L437.3 33.29L438.18 33.77L439.06 34.25L439.93 34.72L440.79 35.18L441.65 35.62L442.5 36.06L443.33 36.48L444.17 36.9L444.99 37.3L445.81 37.69L446.61 38.07L447.41 38.43L448.2 38.78L448.99 39.11L449.76 39.43L450.53 39.74L451.29 40.02L452.04 40.3L452.78 40.55L453.51 40.79L454.23 41.01L454.94 41.21L455.65 41.39L456.35 41.55L457.03 41.69L457.71 41.81L458.38 41.91L459.03 41.99L459.68 42.05L460.32 42.08L460.95 42.1L460.96 42.1L460.98 42.09L461 42.09L461.02 42.09L461.03 42.09L461.06 42.09L461.09 42.09L461.13 42.09L461.15 42.09L461.17 42.09L461.18 42.09L461.2 42.09L461.44 42.09L461.71 42.08L462 42.07L462.31 42.05L462.65 42.02L463.01 41.99L463.4 41.94L463.81 41.87L464.24 41.79L464.7 41.69L465.19 41.57L465.7 41.43L466.24 41.26L466.8 41.06L467.39 40.83L468 40.58L468.64 40.29L469.31 39.96L470 39.59L470.72 39.19L471.47 38.75L472.24 38.26L473.04 37.72L473.87 37.14L474.72 36.5L475.6 35.82L476.51 35.08L477.45 34.28L478.41 33.43L479.41 32.52L480.43 31.54L481.48 30.5L482.56 29.39L483.66 28.21L484.8 26.97L485.97 25.65L487.16 24.25L488.39 22.78L489.64 21.23L490.92 19.6L491.11 19.36L491.3 19.13L491.5 18.9L491.7 18.68L491.91 18.46L492.12 18.25L492.34 18.04L492.56 17.83L492.79 17.63L493.02 17.44L493.26 17.25L493.49 17.07L493.74 16.89L493.98 16.71L494.24 16.54L494.49 16.38L494.75 16.22L495.01 16.06L495.28 15.91L495.54 15.77L495.82 15.63L496.09 15.5L496.37 15.37L496.65 15.25L496.94 15.13L497.22 15.02L497.51 14.92L497.81 14.82L498.1 14.73L498.4 14.64L498.7 14.56L499 14.48L499.3 14.41L499.61 14.35L499.92 14.29L500.23 14.24L500.54 14.19L500.85 14.15L501.17 14.12L501.48 14.1L501.8 14.08L502.11 14.06L502.43 14.06L502.74 14.06L503.06 14.06L503.37 14.08L503.68 14.09L504 14.12L504.31 14.15L504.62 14.19L504.93 14.23L505.23 14.28L505.54 14.34L505.84 14.4L506.14 14.47L506.44 14.54L506.74 14.62L507.04 14.71L507.33 14.8L507.63 14.9L507.92 15L508.2 15.11L508.49 15.23L508.77 15.35L509.05 15.47L509.33 15.6L509.6 15.74L509.87 15.88L510.14 16.03L510.4 16.19L510.66 16.35L510.92 16.51L511.17 16.68L511.42 16.86L511.67 17.04L511.91 17.22L512.15 17.41L512.38 17.61L512.61 17.81L512.84 18.02L512.91 18.08L512.99 18.16L513.07 18.24L513.16 18.33L513.26 18.44L513.37 18.55L513.48 18.68L513.61 18.82L513.74 18.98L513.88 19.16L514.03 19.35L514.18 19.56L514.35 19.8L514.52 20.05L514.7 20.33L514.9 20.63L515.1 20.95L515.31 21.3L515.53 21.68L515.76 22.09L516 22.52L516.25 22.99L516.51 23.48L516.78 24.01L517.07 24.58L517.36 25.18L517.66 25.81L517.98 26.48L518.3 27.19L518.64 27.94L518.99 28.73L519.35 29.57L519.72 30.44L520.11 31.36L520.51 32.33L520.92 33.34L521.34 34.4L521.77 35.5L522.22 36.66L522.68 37.87L522.94 38.56L523.2 39.27L523.47 40L523.74 40.75L524.02 41.52L524.3 42.31L524.58 43.11L524.87 43.94L525.15 44.78L525.44 45.64L525.73 46.52L526.03 47.42L526.32 48.33L526.62 49.27L526.91 50.21L527.21 51.18L527.51 52.16L527.81 53.16L528.1 54.17L528.4 55.2L528.69 56.25L528.99 57.31L529.28 58.38L529.57 59.47L529.86 60.57L530.14 61.69L530.43 62.83L530.71 63.97L530.98 65.13L531.26 66.31L531.53 67.49L531.79 68.69L532.05 69.91L532.31 71.13L532.56 72.37L532.81 73.62L533.05 74.88L533.28 76.15L533.51 77.43L533.73 78.73L534.24 81.87L534.69 85.01L535.1 88.13L535.45 91.25L535.76 94.36L536.01 97.45L536.21 100.54L536.37 103.62L536.47 106.68L536.53 109.74L536.53 112.78L536.48 115.81L536.39 118.82L536.24 121.83L536.05 124.82L535.8 127.8L535.51 130.76L535.17 133.71L534.77 136.64L534.33 139.56L533.84 142.47L533.3 145.36L532.71 148.23L532.07 151.09L531.39 153.93L530.65 156.75L529.86 159.55L529.03 162.34L528.15 165.11L527.22 167.86L526.24 170.59L525.21 173.3L524.13 175.99L523.01 178.66L521.83 181.32L520.61 183.95L519.34 186.56L518.02 189.14L516.66 191.71L515.24 194.25L514.81 199.76L516.26 200.1L517.69 200.5L519.1 200.93L520.48 201.41L521.85 201.92L523.19 202.48L524.51 203.08L525.8 203.71L527.07 204.39L528.31 205.1L529.52 205.85L530.71 206.63L531.86 207.45L532.99 208.3L534.08 209.19L535.14 210.1L536.17 211.05L537.17 212.03L538.13 213.04L539.05 214.07L539.94 215.14L540.8 216.23L541.61 217.35L542.38 218.49L543.12 219.66L543.81 220.86L544.46 222.07L545.07 223.31L545.64 224.57L546.16 225.85L546.63 227.15L547.06 228.47L547.44 229.81L547.78 231.16L548.06 232.53L548.3 233.92L548.48 235.32L548.62 236.73L548.7 238.16L548.72 239.6L548.72 415.02L549.61 415.71L550.48 416.42L551.33 417.14L552.17 417.89L552.99 418.64L553.79 419.42L554.57 420.21L555.34 421.01L556.08 421.83L556.81 422.67L557.52 423.52L558.21 424.38L558.88 425.26L559.52 426.15L560.15 427.05L560.76 427.97L561.34 428.9L561.91 429.85L562.45 430.81L562.97 431.77L563.47 432.75L563.94 433.75L564.4 434.75L564.83 435.76L565.23 436.79L565.61 437.82L565.97 438.87L566.3 439.92L566.61 440.99L566.89 442.06L567.15 443.14L567.38 444.24L567.59 445.33L567.77 446.44L567.92 447.56L568.04 448.68L568.14 449.81L568.21 450.95L568.26 452.09L568.27 453.24L568.27 548.4L568.26 548.95L568.22 549.49L568.16 550.03L568.08 550.56L567.98 551.08L567.85 551.6L567.7 552.1L567.54 552.6L567.35 553.09L567.14 553.58L566.91 554.05L566.67 554.51L566.4 554.96L566.12 555.41L565.81 555.84L565.5 556.25L565.16 556.66L564.81 557.06L564.44 557.44L564.06 557.8L563.66 558.16L563.25 558.5L562.82 558.82L562.38 559.13L561.93 559.43L561.47 559.71L560.99 559.97L560.5 560.22L560 560.44L559.49 560.66L558.97 560.85L558.44 561.02L557.9 561.18L557.35 561.31L556.79 561.43L556.22 561.53L555.65 561.6L555.07 561.66L554.48 561.69L553.89 561.7L553.3 561.69L552.71 561.66L552.13 561.6L551.56 561.53L550.99 561.43L550.44 561.31L549.89 561.18L549.35 561.02L548.81 560.85L548.29 560.66L547.78 560.44L547.28 560.22L546.79 559.97L546.32 559.71L545.85 559.43L545.4 559.13L544.96 558.82L544.53 558.5L544.12 558.16L543.72 557.8L543.34 557.44L542.97 557.06L542.62 556.66L542.29 556.25L541.97 555.84L541.67 555.41L541.38 554.96L541.12 554.51L540.87 554.05L540.64 553.58L540.43 553.09L540.25 552.6L540.08 552.1L539.93 551.6L539.8 551.08L539.7 550.56L539.62 550.03L539.56 549.49L539.52 548.95L539.51 548.4L539.51 520.43L512.02 520.43L512.02 654.4L553.89 654.4L554.48 654.41L555.07 654.44L555.65 654.5L556.22 654.57L556.79 654.67L557.35 654.79L557.9 654.92L558.44 655.08L558.97 655.25L559.49 655.45L560 655.66L560.5 655.89L560.99 656.13L561.47 656.39L561.93 656.67L562.38 656.97L562.82 657.28L563.25 657.6L563.66 657.94L564.06 658.3L564.44 658.66L564.81 659.05L565.16 659.44L565.5 659.85L565.81 660.26L566.12 660.69L566.4 661.14L566.67 661.59L566.91 662.05L567.14 662.52L567.35 663.01L567.54 663.5L567.7 664L567.85 664.5L567.98 665.02L568.08 665.54L568.16 666.07L568.22 666.61L568.26 667.15L568.27 667.7L568.26 668.25L568.22 668.79L568.16 669.33L568.08 669.86L567.98 670.38L567.85 670.9L567.7 671.41L567.54 671.91L567.35 672.4L567.14 672.88L566.91 673.35L566.67 673.81L566.4 674.27L566.12 674.71L565.81 675.14L565.5 675.56L565.16 675.96L564.81 676.36L564.44 676.74L564.06 677.11L563.66 677.46L563.25 677.8L562.82 678.13L562.38 678.44L561.93 678.73L561.47 679.01L560.99 679.27L560.5 679.52L560 679.75L559.49 679.96L558.97 680.15L558.44 680.32L557.9 680.48L557.35 680.62L556.79 680.73L556.22 680.83L555.65 680.9L555.07 680.96L554.48 680.99L553.89 681L159.36 681L158.76 680.99L158.18 680.96L157.6 680.9L157.02 680.83L156.46 680.73L155.9 680.62L155.35 680.48L154.81 680.32L154.28 680.15L153.76 679.96L153.25 679.75L152.75 679.52L152.26 679.27L151.78 679.01L151.32 678.73L150.86 678.44L150.42 678.13L150 677.8L149.59 677.46L149.19 677.11L148.81 676.74L148.44 676.36L148.09 675.96L147.75 675.56L147.43 675.14L147.13 674.71L146.85 674.27L146.58 673.81L146.34 673.35L146.11 672.88L145.9 672.4L145.71 671.91L145.54 671.41L145.4 670.9L145.27 670.38L145.17 669.86L145.08 669.33L145.03 668.79L144.99 668.25L144.98 667.7L144.98 453.24L144.99 452.09L145.03 450.95L145.1 449.81L145.2 448.68L145.33 447.56L145.48 446.44L145.66 445.33L145.87 444.24L146.1 443.14L146.35 442.06L146.64 440.99L146.95 439.92L147.28 438.87L147.64 437.82L148.02 436.79L148.42 435.76L148.85 434.75L149.3 433.75L149.78 432.75L150.28 431.77L150.8 430.81L151.34 429.85L151.9 428.9L152.49 427.97L153.1 427.05L153.72 426.15L154.37 425.26L155.04 424.38L155.73 423.52L156.44 422.67L157.16 421.83L157.91 421.01L158.67 420.21L159.46 419.42L160.26 418.64L161.08 417.89L161.91 417.14L162.77 416.42L163.64 415.71L164.52 415.02L164.52 239.6L164.55 238.32L164.61 237.05L164.71 235.79L164.86 234.54L165.05 233.31L165.27 232.08L165.54 230.87L165.84 229.67L166.18 228.48L166.56 227.31L166.97 226.15L167.42 225.01L167.91 223.89L168.43 222.78L168.99 221.69L169.57 220.61L170.19 219.56L170.85 218.52L171.53 217.5L172.25 216.51L172.99 215.53L173.77 214.57L174.57 213.64L175.41 212.73L176.27 211.84L177.15 210.97L178.07 210.13L179.01 209.32L179.97 208.53L180.96 207.76L181.98 207.02L183.02 206.31L184.08 205.63L185.16 204.97L186.26 204.34L187.39 203.75L188.53 203.18L189.7 202.64L190.88 202.13L192.09 201.66L191.76 200.92L191.42 200.17L191.09 199.41L190.75 198.63L190.41 197.85L190.07 197.06L189.72 196.25L189.37 195.44L189.02 194.61L188.67 193.78L188.31 192.93L187.96 192.08L187.6 191.21L187.24 190.34L186.88 189.46L186.52 188.57L186.15 187.67L185.79 186.76L185.43 185.84L185.06 184.92L184.7 183.99L184.33 183.05L183.97 182.1L183.6 181.15L183.24 180.18L182.87 179.22L182.51 178.24L182.15 177.26L181.79 176.27L181.43 175.28L181.07 174.28L180.71 173.27L180.35 172.26L180 171.24L179.65 170.22L179.3 169.19L178.95 168.16L178.6 167.12L178.26 166.08L177.92 165.03L176.92 161.88L175.97 158.77L175.08 155.71L174.24 152.68L173.45 149.71L172.72 146.77L172.04 143.88L171.41 141.04L170.83 138.23L170.31 135.48L169.84 132.76L169.43 130.09L169.06 127.47L168.75 124.89L168.5 122.35L168.29 119.86L168.14 117.42L168.04 115.02L168 112.66L168.01 110.35L168.07 108.08L168.18 105.86L168.35 103.69L168.57 101.56L168.84 99.47L169.17 97.43L169.55 95.44L169.98 93.49L170.46 91.59L171 89.73L171.59 87.92L172.24 86.16L172.94 84.44L173.69 82.77L174.49 81.14L175.35 79.56L176.26 78.03L177.22 76.54L178.23 75.1L179.3 73.71L180.22 72.6L181.17 71.52L182.15 70.48L183.15 69.47L184.19 68.49L185.25 67.56L186.35 66.65L187.47 65.78L188.62 64.95L189.8 64.15L191.01 63.39L192.25 62.66L193.52 61.97L194.81 61.31L196.14 60.69L197.49 60.1L198.87 59.55L200.28 59.04L201.72 58.55L203.19 58.11L204.68 57.7L206.21 57.32L207.76 56.98L209.34 56.68L210.95 56.41L212.59 56.17L214.25 55.97L215.94 55.81L217.66 55.68L219.41 55.59L221.19 55.53L222.99 55.51L224.82 55.52L226.68 55.57L228.57 55.66L230.48 55.78L232.43 55.93L234.4 56.12L236.39 56.35L238.42 56.61L238.56 56.61L238.7 56.61L238.84 56.61L238.98 56.61L239.12 56.6L239.26 56.6L239.41 56.6L239.55 56.6L239.69 56.6L239.83 56.6L239.98 56.59L240.12 56.59L240.26 56.59L240.4 56.59L240.55 56.59L240.69 56.58L240.83 56.58L240.98 56.58L241.12 56.58L241.26 56.58L241.4 56.57L241.55 56.57L241.69 56.57L241.83 56.57L241.97 56.57L242.12 56.56L242.26 56.56L242.4 56.56L242.54 56.56L242.68 56.56L242.82 56.55L242.96 56.55L243.1 56.55L243.24 56.55L243.38 56.55L243.52 56.54L243.66 56.54L243.79 56.54L243.93 56.54L244.07 56.53L246.62 52.54L249.28 48.69L252.03 44.98L254.87 41.42L257.81 37.99L260.83 34.71L263.94 31.57L267.14 28.57L270.41 25.72L273.77 23.01L277.2 20.45L280.71 18.04L284.29 15.78L287.94 13.66L291.66 11.69L295.44 9.88L299.28 8.21L303.19 6.69L307.15 5.33L311.17 4.12L315.24 3.07L319.37 2.17L323.54 1.42L327.76 0.83L332.02 0.4L336.33 0.12L340.67 0L345.05 0.05L349.47 0.25ZM173.74 654.4L201.22 654.4L201.22 520.43L173.74 520.43L173.74 654.4ZM289.57 515.29L289.53 517.07L289.41 518.84L289.22 520.59L288.95 522.32L288.61 524.02L288.2 525.7L287.72 527.36L287.17 528.99L286.56 530.59L285.88 532.16L285.13 533.7L284.33 535.21L283.46 536.69L282.53 538.13L281.55 539.53L280.51 540.9L279.41 542.22L278.26 543.51L277.07 544.75L275.82 545.95L274.52 547.11L273.17 548.22L271.78 549.28L270.35 550.29L268.87 551.26L267.35 552.17L265.8 553.02L264.2 553.83L262.57 554.57L260.9 555.26L259.21 555.89L257.47 556.46L255.71 556.97L253.92 557.41L252.11 557.79L250.26 558.11L248.39 558.35L246.51 558.53L244.59 558.64L242.66 558.68L229.98 558.68L229.98 654.4L483.27 654.4L483.27 558.68L470.58 558.68L468.65 558.64L466.74 558.53L464.85 558.35L462.99 558.11L461.14 557.79L459.33 557.41L457.54 556.97L455.77 556.46L454.04 555.89L452.34 555.26L450.68 554.57L449.05 553.83L447.45 553.02L445.89 552.17L444.38 551.26L442.9 550.29L441.47 549.28L440.08 548.22L438.73 547.11L437.43 545.95L436.18 544.75L434.98 543.51L433.84 542.22L432.74 540.9L431.7 539.53L430.72 538.13L429.79 536.69L428.92 535.21L428.12 533.7L427.37 532.16L426.69 530.59L426.07 528.99L425.53 527.36L425.04 525.7L424.63 524.02L424.29 522.32L424.03 520.59L423.83 518.84L423.72 517.07L423.68 515.29L423.68 430.34L411.72 430.34L367.02 473.6L366.81 473.79L366.6 473.98L366.39 474.17L366.17 474.35L365.95 474.53L365.73 474.7L365.5 474.87L365.27 475.03L365.04 475.19L364.8 475.35L364.56 475.5L364.32 475.64L364.07 475.78L363.82 475.92L363.57 476.05L363.32 476.18L363.06 476.3L362.8 476.42L362.54 476.53L362.28 476.64L362.01 476.74L361.74 476.84L361.47 476.93L361.2 477.02L360.92 477.1L360.65 477.18L360.37 477.25L360.09 477.32L359.81 477.38L359.53 477.43L359.24 477.49L358.95 477.53L358.67 477.57L358.38 477.61L358.09 477.64L357.8 477.66L357.51 477.68L357.21 477.7L356.92 477.7L356.63 477.71L356.33 477.7L356.04 477.7L355.75 477.68L355.45 477.66L355.16 477.64L354.87 477.61L354.58 477.57L354.3 477.53L354.01 477.49L353.73 477.43L353.44 477.38L353.16 477.32L352.88 477.25L352.6 477.18L352.32 477.1L352.05 477.02L351.78 476.93L351.51 476.84L351.24 476.74L350.97 476.64L350.71 476.53L350.45 476.42L350.19 476.3L349.93 476.18L349.68 476.05L349.42 475.92L349.17 475.78L348.93 475.64L348.69 475.5L348.45 475.35L348.21 475.19L347.98 475.03L347.75 474.87L347.52 474.7L347.29 474.53L347.07 474.35L346.86 474.17L346.64 473.98L346.44 473.79L346.23 473.6L301.53 430.34L289.57 430.34L289.57 515.29ZM229.98 532.07L242.66 532.07L243.41 532.06L244.15 532.02L244.88 531.95L245.6 531.85L246.32 531.73L247.02 531.59L247.71 531.41L248.39 531.22L249.06 531L249.72 530.75L250.37 530.49L251 530.2L251.61 529.89L252.22 529.56L252.8 529.2L253.38 528.83L253.93 528.44L254.47 528.03L254.99 527.6L255.49 527.15L255.97 526.69L256.44 526.21L256.88 525.71L257.31 525.2L257.71 524.67L258.09 524.12L258.45 523.57L258.78 523L259.1 522.41L259.38 521.82L259.65 521.21L259.88 520.59L260.1 519.96L260.28 519.32L260.44 518.67L260.57 518.01L260.68 517.34L260.75 516.66L260.8 515.98L260.81 515.29L260.81 430.34L229.98 430.34L229.98 532.07ZM452.44 515.29L452.45 515.98L452.5 516.66L452.57 517.34L452.67 518.01L452.81 518.67L452.96 519.32L453.15 519.96L453.36 520.59L453.6 521.21L453.86 521.82L454.15 522.41L454.46 523L454.8 523.57L455.16 524.12L455.54 524.67L455.94 525.2L456.37 525.71L456.81 526.21L457.27 526.69L457.76 527.15L458.26 527.6L458.78 528.03L459.32 528.44L459.87 528.83L460.44 529.2L461.03 529.56L461.63 529.89L462.25 530.2L462.88 530.49L463.53 530.75L464.18 531L464.85 531.22L465.53 531.41L466.23 531.59L466.93 531.73L467.64 531.85L468.37 531.95L469.1 532.02L469.84 532.06L470.58 532.07L483.27 532.07L483.27 430.34L452.44 430.34L452.44 515.29ZM197.29 430.37L196.11 430.45L194.94 430.58L193.79 430.76L192.66 430.99L191.55 431.26L190.46 431.58L189.39 431.95L188.34 432.36L187.32 432.81L186.33 433.3L185.36 433.83L184.43 434.41L183.52 435.02L182.64 435.66L181.8 436.34L180.99 437.06L180.22 437.81L179.48 438.59L178.79 439.4L178.13 440.23L177.51 441.1L176.93 441.99L176.4 442.91L175.91 443.86L175.47 444.82L175.07 445.81L174.73 446.82L174.43 447.85L174.18 448.9L173.99 449.96L173.85 451.04L173.76 452.13L173.74 453.24L173.74 493.83L201.22 493.83L201.22 430.34L198.49 430.34L197.29 430.37ZM512.02 493.83L539.51 493.83L539.51 453.24L539.48 452.13L539.4 451.04L539.26 449.96L539.07 448.9L538.82 447.85L538.52 446.82L538.17 445.81L537.78 444.82L537.34 443.86L536.85 442.91L536.32 441.99L535.74 441.1L535.12 440.23L534.46 439.4L533.76 438.59L533.03 437.81L532.25 437.06L531.45 436.34L530.6 435.66L529.73 435.02L528.82 434.41L527.88 433.83L526.92 433.3L525.92 432.81L524.9 432.36L523.86 431.95L522.79 431.58L521.7 431.26L520.59 430.99L519.46 430.76L518.31 430.58L517.14 430.45L515.96 430.37L514.76 430.34L512.02 430.34L512.02 493.83ZM228.19 214.21L228.18 214.67L228.16 215.13L228.11 215.58L228.05 216.03L227.98 216.48L227.89 216.92L227.78 217.36L227.66 217.8L227.52 218.22L227.37 218.64L227.2 219.06L227.02 219.47L226.82 219.87L226.61 220.27L226.38 220.66L226.15 221.04L225.9 221.41L225.63 221.78L225.36 222.13L225.07 222.48L224.76 222.82L224.45 223.15L224.13 223.47L223.79 223.78L223.44 224.08L223.08 224.37L222.71 224.65L222.33 224.92L221.94 225.17L221.54 225.42L221.13 225.65L220.71 225.87L220.29 226.08L219.85 226.28L219.4 226.46L218.95 226.63L218.49 226.78L218.01 226.92L217.54 227.05L217.05 227.16L216.97 227.18L216.89 227.2L216.81 227.21L216.73 227.23L216.64 227.24L216.56 227.26L216.48 227.27L216.4 227.29L216.32 227.3L216.24 227.31L216.16 227.33L216.07 227.34L215.99 227.35L215.91 227.36L215.83 227.37L215.75 227.38L215.67 227.39L215.59 227.4L215.51 227.41L215.42 227.42L215.34 227.43L215.26 227.44L215.18 227.44L215.1 227.45L215.02 227.46L214.94 227.46L214.86 227.47L214.77 227.48L214.69 227.48L214.61 227.49L214.53 227.49L214.45 227.49L214.37 227.5L214.29 227.5L214.21 227.5L214.13 227.5L214.05 227.5L213.97 227.51L213.89 227.51L213.8 227.51L213.6 227.51L213.39 227.5L213.19 227.49L212.98 227.48L212.78 227.47L212.57 227.46L212.37 227.44L212.17 227.42L211.96 227.4L211.76 227.37L211.56 227.34L211.36 227.31L211.16 227.28L210.96 227.24L210.76 227.2L210.56 227.16L210.36 227.12L210.17 227.07L209.97 227.02L209.78 226.97L209.58 226.92L209.39 226.86L209.2 226.8L209.01 226.74L208.82 226.68L208.63 226.61L208.44 226.54L208.25 226.47L208.07 226.4L207.88 226.32L207.7 226.24L207.52 226.16L207.34 226.08L207.16 225.99L206.98 225.91L206.8 225.82L206.62 225.72L206.45 225.63L206.28 225.53L206.1 225.43L205.56 225.53L205.03 225.65L204.5 225.78L203.98 225.93L203.46 226.1L202.96 226.28L202.46 226.47L201.98 226.69L201.5 226.91L201.03 227.16L200.57 227.41L200.12 227.68L199.69 227.97L199.26 228.27L198.85 228.58L198.44 228.9L198.05 229.23L197.68 229.58L197.31 229.94L196.96 230.31L196.62 230.69L196.3 231.09L195.99 231.49L195.7 231.9L195.42 232.32L195.15 232.76L194.9 233.2L194.67 233.65L194.46 234.1L194.26 234.57L194.08 235.04L193.91 235.53L193.77 236.01L193.64 236.51L193.53 237.01L193.44 237.52L193.37 238.03L193.32 238.55L193.29 239.07L193.28 239.6L193.29 240.19L193.33 240.78L193.39 241.36L193.48 241.93L193.59 242.5L193.73 243.05L193.89 243.6L194.07 244.14L194.27 244.67L194.5 245.19L194.75 245.7L195.02 246.2L195.3 246.69L195.61 247.17L195.94 247.64L196.28 248.09L196.65 248.53L197.03 248.96L197.42 249.37L197.84 249.77L198.27 250.15L198.72 250.52L199.18 250.87L199.65 251.2L200.14 251.52L200.65 251.83L201.16 252.11L201.69 252.38L202.23 252.62L202.78 252.85L203.35 253.06L203.92 253.25L204.51 253.42L205.1 253.56L205.7 253.69L206.31 253.79L206.93 253.88L207.56 253.94L208.19 253.97L208.83 253.98L214.36 253.98L214.93 253.99L215.49 254.02L216.04 254.07L216.59 254.14L217.13 254.23L217.66 254.34L218.19 254.46L218.71 254.6L219.22 254.76L219.72 254.94L220.22 255.13L220.7 255.34L221.17 255.57L221.64 255.81L222.09 256.07L222.53 256.34L222.96 256.63L223.38 256.93L223.79 257.24L224.18 257.57L224.56 257.91L224.93 258.27L225.28 258.63L225.62 259.01L225.94 259.4L226.25 259.8L226.54 260.21L226.81 260.64L227.07 261.07L227.32 261.51L227.54 261.96L227.75 262.42L227.93 262.89L228.1 263.37L228.25 263.86L228.39 264.35L228.5 264.85L228.59 265.36L228.66 265.88L228.71 266.4L229.07 270.72L229.53 274.93L230.09 279.05L230.75 283.07L231.51 286.99L232.37 290.81L233.33 294.53L234.39 298.16L235.56 301.68L236.82 305.12L238.2 308.45L239.67 311.7L241.25 314.85L242.94 317.9L244.73 320.87L246.63 323.74L248.64 326.52L250.76 329.21L252.98 331.81L255.32 334.33L257.76 336.75L260.32 339.09L262.99 341.34L265.77 343.51L268.66 345.59L271.67 347.58L274.8 349.5L278.04 351.33L281.39 353.07L284.86 354.74L288.45 356.32L292.16 357.82L295.98 359.25L299.93 360.59L303.99 361.86L308.18 363.05L312.49 364.16L316.92 365.2L321.47 366.16L326.14 367.05L326.65 367.14L327.15 367.26L327.64 367.39L328.12 367.54L328.59 367.7L329.06 367.87L329.51 368.06L329.96 368.26L330.4 368.48L330.83 368.71L331.25 368.95L331.65 369.21L332.05 369.47L332.44 369.75L332.82 370.04L333.18 370.34L333.53 370.66L333.87 370.98L334.2 371.31L334.52 371.66L334.82 372.01L335.11 372.38L335.39 372.75L335.65 373.13L335.9 373.52L336.14 373.91L336.36 374.32L336.57 374.73L336.76 375.15L336.93 375.58L337.09 376.01L337.24 376.45L337.37 376.9L337.48 377.35L337.57 377.8L337.65 378.26L337.71 378.73L337.76 379.2L337.78 379.67L337.79 380.15L337.69 404.72L337.69 405.01L337.68 405.3L337.66 405.59L337.63 405.88L337.6 406.16L337.56 406.45L337.52 406.73L337.47 407.01L337.41 407.3L337.35 407.57L337.28 407.85L337.2 408.13L337.12 408.4L337.03 408.67L336.93 408.94L336.83 409.21L336.72 409.48L336.61 409.74L336.49 410L336.36 410.26L336.23 410.52L336.09 410.77L335.95 411.02L335.8 411.27L335.65 411.51L335.48 411.75L335.32 411.99L335.15 412.23L334.97 412.46L334.79 412.69L334.6 412.92L334.4 413.14L334.2 413.36L334 413.57L333.79 413.78L333.57 413.99L333.35 414.19L333.13 414.39L332.9 414.59L332.66 414.78L328.57 418.01L356.62 445.16L384.68 418.01L380.59 414.78L380.36 414.59L380.13 414.4L379.9 414.2L379.68 414L379.46 413.79L379.25 413.58L379.05 413.36L378.85 413.14L378.66 412.92L378.47 412.7L378.28 412.47L378.11 412.23L377.94 412L377.77 411.76L377.61 411.52L377.45 411.27L377.3 411.02L377.16 410.77L377.02 410.52L376.89 410.26L376.77 410.01L376.65 409.75L376.53 409.48L376.42 409.22L376.32 408.95L376.23 408.68L376.14 408.41L376.05 408.13L375.98 407.86L375.91 407.58L375.84 407.3L375.79 407.02L375.73 406.74L375.69 406.45L375.65 406.17L375.62 405.88L375.59 405.6L375.58 405.31L375.57 405.02L375.56 404.73L375.46 380.15L375.47 379.68L375.49 379.2L375.54 378.73L375.6 378.27L375.68 377.81L375.77 377.35L375.88 376.9L376.01 376.45L376.16 376.01L376.32 375.58L376.49 375.15L376.68 374.73L376.89 374.32L377.11 373.92L377.35 373.52L377.6 373.13L377.86 372.75L378.14 372.38L378.43 372.01L378.73 371.66L379.05 371.32L379.38 370.98L379.72 370.66L380.07 370.34L380.43 370.04L380.81 369.75L381.2 369.47L381.59 369.21L382 368.95L382.42 368.71L382.85 368.48L383.29 368.26L383.73 368.06L384.19 367.87L384.66 367.7L385.13 367.54L385.61 367.39L386.1 367.26L386.6 367.14L387.1 367.05L391.78 366.16L396.33 365.2L400.76 364.16L405.07 363.05L409.25 361.86L413.32 360.59L417.26 359.25L421.09 357.82L424.8 356.32L428.38 354.74L431.86 353.07L435.21 351.33L438.45 349.5L441.57 347.59L444.58 345.59L447.48 343.51L450.26 341.34L452.93 339.09L455.48 336.76L457.93 334.33L460.26 331.82L462.49 329.21L464.61 326.52L466.61 323.74L468.51 320.87L470.31 317.9L471.99 314.85L473.57 311.7L475.05 308.46L476.42 305.12L477.69 301.69L478.85 298.16L479.91 294.53L480.88 290.81L481.73 286.99L482.49 283.07L483.15 279.05L483.71 274.94L484.18 270.72L484.54 266.4L484.59 265.88L484.66 265.36L484.75 264.85L484.86 264.35L484.99 263.86L485.14 263.37L485.31 262.89L485.5 262.42L485.71 261.96L485.93 261.51L486.17 261.07L486.43 260.64L486.71 260.21L487 259.8L487.31 259.4L487.63 259.01L487.97 258.63L488.32 258.27L488.69 257.91L489.07 257.57L489.46 257.25L489.87 256.93L490.28 256.63L490.71 256.34L491.16 256.07L491.61 255.82L492.07 255.57L492.55 255.35L493.03 255.14L493.52 254.95L494.03 254.77L494.54 254.61L495.06 254.47L495.58 254.34L496.12 254.24L496.66 254.15L497.21 254.08L497.76 254.03L498.32 254L498.89 253.99L504.41 253.99L505.05 253.98L505.69 253.94L506.31 253.88L506.93 253.8L507.54 253.7L508.15 253.57L508.74 253.42L509.33 253.25L509.9 253.07L510.46 252.86L511.02 252.63L511.56 252.38L512.09 252.11L512.6 251.83L513.11 251.53L513.6 251.21L514.07 250.87L514.53 250.52L514.98 250.15L515.41 249.77L515.82 249.37L516.22 248.96L516.6 248.53L516.97 248.09L517.31 247.64L517.64 247.17L517.94 246.7L518.23 246.21L518.5 245.71L518.75 245.2L518.97 244.68L519.18 244.14L519.36 243.6L519.52 243.06L519.66 242.5L519.77 241.93L519.86 241.36L519.92 240.78L519.96 240.19L519.97 239.6L519.96 239.01L519.92 238.42L519.86 237.84L519.77 237.27L519.66 236.71L519.52 236.15L519.36 235.6L519.18 235.06L518.97 234.53L518.75 234.01L518.5 233.5L518.23 233L517.94 232.51L517.64 232.03L517.31 231.56L516.97 231.11L516.6 230.67L516.22 230.24L515.82 229.83L515.41 229.43L514.98 229.05L514.53 228.68L514.07 228.33L513.6 227.99L513.11 227.67L512.6 227.37L512.09 227.09L511.56 226.82L511.02 226.57L510.46 226.35L509.9 226.14L509.33 225.95L508.74 225.78L508.15 225.63L507.54 225.5L506.93 225.4L506.31 225.32L505.69 225.26L505.05 225.22L504.41 225.21L499.44 225.21L499.14 225.21L498.84 225.2L498.54 225.18L498.25 225.16L497.95 225.14L497.66 225.11L497.36 225.07L497.07 225.03L496.78 224.98L496.49 224.93L496.2 224.87L495.92 224.8L495.63 224.74L495.35 224.66L495.07 224.58L494.79 224.5L494.51 224.41L494.24 224.31L493.97 224.21L493.7 224.1L493.43 223.99L493.16 223.88L492.9 223.76L492.64 223.63L492.38 223.5L492.13 223.36L491.88 223.22L491.63 223.08L491.38 222.93L491.14 222.77L490.9 222.61L490.67 222.45L490.43 222.28L490.21 222.11L489.98 221.93L489.76 221.75L489.54 221.56L489.33 221.37L489.12 221.17L488.91 220.97L488.71 220.77L488.51 220.56L488.32 220.35L488.13 220.13L487.95 219.91L487.78 219.69L487.61 219.47L487.44 219.24L487.28 219.01L487.13 218.78L486.98 218.55L486.83 218.31L486.69 218.07L486.56 217.83L486.43 217.58L486.31 217.33L486.19 217.08L486.08 216.83L485.98 216.58L485.88 216.33L485.78 216.07L485.69 215.81L485.61 215.55L485.53 215.29L485.46 215.02L485.39 214.76L485.33 214.49L485.28 214.23L485.23 213.96L485.19 213.69L485.15 213.42L485.12 213.14L485.1 212.87L485.08 212.6L485.07 212.33L485.06 212.05L485.06 211.78L485.07 211.5L485.08 211.22L485.1 210.95L485.66 203.75L228.19 203.75L228.19 214.21ZM458.71 368.74L457.55 369.49L456.37 370.22L455.18 370.95L453.97 371.67L452.76 372.38L451.53 373.08L450.29 373.77L449.04 374.45L447.77 375.13L446.5 375.79L445.21 376.44L443.91 377.08L442.59 377.71L441.27 378.34L439.93 378.95L438.58 379.56L437.22 380.15L435.85 380.74L434.46 381.31L433.07 381.88L431.66 382.43L430.24 382.98L428.8 383.51L427.36 384.04L425.9 384.56L424.43 385.07L422.95 385.56L421.46 386.05L419.96 386.53L418.44 387L416.91 387.46L415.37 387.9L413.82 388.34L412.26 388.77L410.68 389.19L409.09 389.6L407.49 390L405.88 390.39L404.26 390.77L404.29 398.54L410.88 403.75L514.76 403.75L514.89 403.75L515.02 403.75L515.15 403.75L515.29 403.75L515.42 403.75L515.55 403.75L515.68 403.75L515.81 403.76L515.94 403.76L516.07 403.76L516.2 403.77L516.34 403.77L516.47 403.77L516.6 403.78L516.73 403.78L516.86 403.79L516.99 403.79L517.12 403.79L517.25 403.8L517.38 403.81L517.51 403.81L517.64 403.82L517.77 403.82L517.9 403.83L518.03 403.84L518.16 403.85L518.29 403.85L518.42 403.86L518.55 403.87L518.68 403.88L518.81 403.89L518.94 403.9L519.06 403.91L519.19 403.92L519.32 403.93L519.45 403.94L519.58 403.95L519.71 403.96L519.84 403.97L519.97 403.98L519.97 367.98L459.87 367.98L458.71 368.74ZM193.28 403.98L193.4 403.97L193.53 403.96L193.66 403.95L193.79 403.94L193.92 403.93L194.05 403.92L194.18 403.91L194.31 403.9L194.44 403.89L194.57 403.88L194.7 403.87L194.82 403.86L194.95 403.85L195.08 403.85L195.21 403.84L195.34 403.83L195.47 403.82L195.6 403.82L195.73 403.81L195.87 403.81L196 403.8L196.13 403.79L196.26 403.79L196.39 403.79L196.52 403.78L196.65 403.78L196.78 403.77L196.91 403.77L197.04 403.77L197.17 403.76L197.3 403.76L197.44 403.76L197.57 403.75L197.7 403.75L197.83 403.75L197.96 403.75L198.09 403.75L198.22 403.75L198.36 403.75L198.49 403.75L302.37 403.75L308.96 398.53L308.99 390.77L307.37 390.39L305.76 390L304.16 389.6L302.57 389.19L301 388.77L299.43 388.34L297.88 387.9L296.34 387.46L294.81 387L293.29 386.53L291.79 386.05L290.3 385.56L288.82 385.07L287.35 384.56L285.89 384.04L284.45 383.51L283.01 382.98L281.59 382.43L280.18 381.88L278.79 381.31L277.4 380.74L276.03 380.15L274.67 379.56L273.32 378.95L271.98 378.34L270.66 377.71L269.34 377.08L268.04 376.44L266.75 375.79L265.48 375.13L264.21 374.45L262.96 373.77L261.72 373.08L260.49 372.38L259.28 371.67L258.08 370.95L256.88 370.22L255.71 369.49L254.54 368.74L253.39 367.98L193.28 367.98L193.28 403.98ZM224.91 341.38L223.78 339.85L222.67 338.3L221.59 336.73L220.54 335.14L219.51 333.53L218.51 331.9L217.53 330.25L216.59 328.59L215.66 326.9L214.77 325.19L213.9 323.46L213.05 321.71L212.23 319.93L211.44 318.14L210.67 316.33L209.93 314.5L209.22 312.64L208.53 310.76L207.86 308.87L207.22 306.95L206.61 305.01L206.02 303.04L205.46 301.06L204.92 299.05L204.41 297.02L203.92 294.97L203.46 292.9L203.03 290.8L202.62 288.69L202.23 286.54L201.87 284.38L201.53 282.19L201.22 279.98L200.97 279.94L200.73 279.9L200.48 279.86L200.23 279.81L199.98 279.77L199.74 279.72L199.49 279.67L199.25 279.62L199 279.57L198.76 279.52L198.51 279.46L198.27 279.41L198.02 279.35L197.78 279.3L197.54 279.24L197.3 279.18L197.06 279.12L196.82 279.06L196.58 278.99L196.34 278.93L196.1 278.86L195.86 278.8L195.62 278.73L195.39 278.66L195.15 278.59L194.91 278.52L194.68 278.44L194.44 278.37L194.21 278.29L193.97 278.22L193.74 278.14L193.51 278.06L193.28 277.98L193.28 341.38L224.91 341.38ZM519.5 278.14L519.27 278.22L519.04 278.29L518.8 278.37L518.57 278.44L518.33 278.52L518.1 278.59L517.86 278.66L517.62 278.73L517.39 278.8L517.15 278.86L516.91 278.93L516.67 278.99L516.43 279.06L516.19 279.12L515.95 279.18L515.71 279.24L515.46 279.3L515.22 279.35L514.98 279.41L514.74 279.46L514.49 279.52L514.25 279.57L514 279.62L513.76 279.67L513.51 279.72L513.26 279.77L513.02 279.81L512.77 279.86L512.52 279.9L512.27 279.94L512.02 279.98L511.71 282.19L511.38 284.38L511.02 286.54L510.63 288.68L510.22 290.8L509.79 292.9L509.33 294.97L508.84 297.02L508.33 299.05L507.79 301.06L507.23 303.04L506.64 305L506.03 306.94L505.39 308.86L504.72 310.76L504.03 312.64L503.32 314.49L502.58 316.33L501.81 318.14L501.02 319.93L500.2 321.7L499.35 323.45L498.48 325.18L497.59 326.89L496.66 328.58L495.71 330.25L494.74 331.9L493.74 333.53L492.71 335.14L491.66 336.73L490.58 338.3L489.47 339.85L488.34 341.38L519.97 341.38L519.97 277.98L519.73 278.06L519.5 278.14ZM427.82 140.92L425.27 142.64L422.7 144.31L420.12 145.94L417.53 147.53L414.93 149.07L412.32 150.56L409.69 152.01L407.06 153.42L404.42 154.77L401.77 156.09L399.11 157.35L396.45 158.58L393.77 159.75L391.09 160.88L388.4 161.97L385.7 163.01L383 164L380.29 164.95L377.58 165.85L374.86 166.7L372.14 167.51L369.41 168.28L366.68 168.99L363.94 169.67L361.21 170.29L358.46 170.87L355.72 171.41L352.98 171.89L350.23 172.33L347.48 172.73L344.73 173.08L341.98 173.38L339.23 173.64L336.48 173.85L333.73 174.01L330.98 174.13L328.23 174.2L325.48 174.22L323.42 174.21L321.36 174.17L319.3 174.1L317.24 174.01L315.19 173.89L313.13 173.75L311.08 173.57L309.03 173.38L306.99 173.15L304.94 172.9L302.9 172.63L300.86 172.32L298.83 171.99L296.8 171.63L294.77 171.25L292.74 170.84L290.72 170.41L288.7 169.94L286.69 169.45L284.68 168.94L282.68 168.39L280.68 167.83L278.68 167.23L276.69 166.61L274.7 165.96L272.72 165.28L270.75 164.58L268.78 163.85L266.82 163.09L264.86 162.31L262.9 161.5L260.96 160.66L259.02 159.8L257.09 158.91L255.16 157.99L253.24 157.05L251.33 156.08L249.42 155.08L247.52 154.05L245.63 153L245.09 153.44L244.54 153.9L243.99 154.36L243.43 154.84L242.88 155.33L242.32 155.83L241.75 156.34L241.19 156.86L240.63 157.4L240.07 157.94L239.51 158.49L238.96 159.05L238.41 159.62L237.86 160.19L237.32 160.78L236.79 161.37L236.27 161.97L235.75 162.58L235.24 163.2L234.75 163.82L234.26 164.45L233.79 165.08L233.33 165.72L232.88 166.37L232.45 167.02L232.03 167.67L231.63 168.33L231.25 168.99L230.88 169.66L230.54 170.33L230.21 171.01L229.91 171.68L229.63 172.36L229.37 173.04L229.13 173.72L228.92 174.41L228.73 175.09L228.57 175.78L228.44 176.47L228.33 177.16L461.68 177.16L460.74 176.32L459.8 175.48L458.88 174.62L457.97 173.76L457.07 172.89L456.18 172.01L455.3 171.12L454.43 170.22L453.57 169.32L452.73 168.4L451.89 167.48L451.07 166.54L450.25 165.6L449.45 164.65L448.66 163.7L447.89 162.73L447.12 161.76L446.37 160.77L445.62 159.79L444.89 158.79L444.18 157.78L443.47 156.77L442.77 155.75L442.09 154.72L441.42 153.69L440.77 152.64L440.12 151.6L439.49 150.54L438.87 149.48L438.26 148.41L437.67 147.33L437.08 146.24L436.51 145.15L435.96 144.06L435.41 142.95L434.88 141.84L434.37 140.73L433.86 139.6L433.37 138.48L432.9 137.34L430.37 139.15L427.82 140.92ZM333.17 26.93L329.85 27.33L326.56 27.86L323.32 28.52L320.13 29.31L316.98 30.24L313.87 31.29L310.82 32.47L307.81 33.79L304.86 35.23L301.96 36.8L299.11 38.5L296.32 40.32L293.58 42.28L290.91 44.36L288.29 46.56L285.73 48.9L283.24 51.35L280.81 53.94L278.44 56.65L276.14 59.48L273.91 62.43L271.75 65.51L269.66 68.72L267.64 72.04L265.69 75.49L265.39 76.02L265.07 76.53L264.75 77.02L264.42 77.48L264.08 77.91L263.72 78.32L263.36 78.71L262.99 79.08L262.61 79.42L262.22 79.75L261.81 80.05L261.4 80.33L260.98 80.6L260.54 80.85L260.1 81.08L259.65 81.29L259.18 81.48L258.7 81.67L258.22 81.83L257.72 81.98L257.21 82.12L256.69 82.25L256.16 82.36L255.62 82.46L255.06 82.56L254.5 82.64L253.92 82.71L253.33 82.77L252.73 82.83L252.12 82.88L251.5 82.92L250.86 82.96L250.22 82.99L249.56 83.01L248.89 83.04L248.2 83.06L247.51 83.07L246.8 83.09L246.08 83.1L245.35 83.11L245.06 83.12L244.76 83.12L244.47 83.13L244.18 83.13L243.89 83.14L243.6 83.14L243.32 83.15L243.04 83.15L242.76 83.16L242.48 83.16L242.21 83.16L241.94 83.17L241.67 83.17L241.41 83.17L241.16 83.18L240.91 83.18L240.67 83.18L240.43 83.19L240.2 83.19L239.98 83.19L239.76 83.19L239.56 83.2L239.36 83.2L239.16 83.2L238.98 83.2L238.81 83.21L238.64 83.21L238.49 83.21L238.34 83.21L238.21 83.21L238.09 83.21L237.98 83.21L237.88 83.22L237.79 83.22L237.72 83.22L237.61 83.22L237.54 83.22L237.48 83.22L237.42 83.22L237.36 83.22L237.3 83.22L237.24 83.22L237.18 83.22L237.12 83.22L237.06 83.22L237.01 83.22L236.95 83.22L236.89 83.21L236.83 83.21L236.77 83.21L236.71 83.21L236.65 83.2L236.59 83.2L236.53 83.2L236.47 83.19L236.41 83.19L236.35 83.19L236.29 83.18L236.23 83.18L236.17 83.17L236.11 83.17L236.05 83.16L235.99 83.16L235.93 83.15L235.87 83.15L235.81 83.14L235.75 83.13L235.69 83.13L235.63 83.12L235.57 83.11L235.51 83.11L235.45 83.1L235.39 83.09L235.33 83.08L235.27 83.07L235.21 83.07L235.15 83.06L233.93 82.89L232.73 82.73L231.56 82.59L230.4 82.47L229.26 82.37L228.15 82.29L227.05 82.22L225.98 82.17L224.92 82.13L223.88 82.11L222.87 82.11L221.88 82.13L220.9 82.17L219.95 82.22L219.01 82.28L218.1 82.37L217.21 82.47L216.34 82.59L215.49 82.73L214.66 82.88L213.85 83.05L213.06 83.24L212.29 83.44L211.54 83.67L210.82 83.9L210.11 84.16L209.42 84.43L208.76 84.72L208.12 85.03L207.49 85.35L206.89 85.69L206.31 86.05L205.75 86.42L205.21 86.82L204.7 87.22L204.2 87.65L203.72 88.09L203.27 88.55L202.84 89.03L202.43 89.52L201.72 90.46L201.07 91.46L200.46 92.51L199.91 93.61L199.4 94.77L198.94 95.98L198.52 97.23L198.15 98.54L197.82 99.89L197.54 101.29L197.3 102.72L197.1 104.21L196.94 105.73L196.82 107.29L196.75 108.89L196.71 110.53L196.71 112.2L196.75 113.91L196.82 115.65L196.93 117.42L197.07 119.22L197.25 121.05L197.46 122.9L197.7 124.78L197.98 126.69L198.29 128.62L198.62 130.57L198.99 132.54L199.38 134.53L199.81 136.54L200.26 138.56L200.73 140.59L201.23 142.64L201.76 144.71L202.31 146.78L202.88 148.86L203.47 150.95L204.09 153.05L204.73 155.15L205.39 157.25L206.14 155.9L206.94 154.57L207.76 153.27L208.6 151.99L209.48 150.74L210.37 149.51L211.29 148.31L212.22 147.14L213.17 145.99L214.13 144.87L215.1 143.77L216.08 142.7L217.06 141.67L218.05 140.66L219.04 139.68L220.03 138.72L221.02 137.8L221.99 136.91L222.96 136.05L223.92 135.21L224.87 134.41L225.8 133.64L226.71 132.91L227.6 132.2L228.47 131.53L229.31 130.88L230.13 130.28L230.92 129.7L231.67 129.16L232.39 128.65L233.07 128.18L233.72 127.75L234.32 127.34L234.87 126.98L235.39 126.65L235.85 126.35L236.26 126.09L236.62 125.87L236.92 125.69L237.16 125.54L237.53 125.33L237.91 125.13L238.29 124.93L238.67 124.75L239.06 124.59L239.45 124.43L239.85 124.28L240.25 124.15L240.65 124.02L241.06 123.91L241.47 123.81L241.88 123.72L242.29 123.64L242.71 123.58L243.13 123.52L243.54 123.48L243.96 123.45L244.38 123.43L244.8 123.42L245.22 123.42L245.64 123.43L246.06 123.45L246.47 123.49L246.89 123.53L247.3 123.59L247.72 123.66L248.13 123.74L248.54 123.83L248.95 123.94L249.35 124.05L249.75 124.17L250.15 124.31L250.55 124.46L250.94 124.62L251.32 124.79L251.7 124.97L252.08 125.16L252.45 125.37L252.82 125.58L253.18 125.81L257.26 128.35L261.38 130.73L265.54 132.96L269.73 135.03L273.96 136.94L278.22 138.7L282.5 140.3L286.81 141.74L291.15 143.03L295.51 144.16L299.9 145.14L304.3 145.96L308.72 146.63L313.15 147.14L317.6 147.5L322.06 147.7L326.53 147.75L331 147.64L335.49 147.38L339.97 146.97L344.46 146.4L348.94 145.69L353.43 144.81L357.91 143.79L362.38 142.61L366.84 141.28L371.3 139.8L375.74 138.16L380.16 136.38L384.58 134.44L388.97 132.35L393.34 130.12L397.69 127.73L402.01 125.19L406.31 122.5L410.58 119.66L414.82 116.66L419.03 113.52L423.2 110.24L427.34 106.8L427.43 106.72L427.52 106.64L427.61 106.56L427.7 106.49L427.79 106.41L427.88 106.33L427.97 106.26L428.06 106.18L428.15 106.1L428.24 106.03L428.33 105.95L428.42 105.87L428.51 105.8L428.6 105.72L428.69 105.64L428.77 105.57L428.86 105.49L428.95 105.41L429.04 105.34L429.13 105.26L429.22 105.18L429.3 105.11L429.39 105.03L429.48 104.95L429.57 104.88L429.65 104.8L429.74 104.73L429.83 104.65L429.92 104.57L430 104.5L430.09 104.42L430.18 104.34L430.26 104.27L430.35 104.19L430.44 104.12L430.52 104.04L430.61 103.96L430.7 103.89L430.78 103.81L430.87 103.74L431.07 103.56L431.28 103.39L431.49 103.22L431.71 103.05L431.93 102.89L432.15 102.74L432.37 102.58L432.59 102.44L432.82 102.29L433.05 102.16L433.29 102.02L433.52 101.89L433.76 101.77L434 101.64L434.24 101.53L434.49 101.41L434.73 101.31L434.98 101.2L435.23 101.1L435.48 101.01L435.74 100.92L435.99 100.83L436.25 100.75L436.51 100.67L436.77 100.6L437.03 100.53L437.29 100.47L437.55 100.41L437.82 100.36L438.08 100.31L438.35 100.26L438.62 100.22L438.89 100.19L439.16 100.16L439.43 100.13L439.7 100.11L439.97 100.09L440.24 100.08L440.51 100.08L440.78 100.07L440.9 100.07L441.01 100.07L441.13 100.08L441.25 100.08L441.36 100.08L441.48 100.09L441.59 100.09L441.71 100.1L441.83 100.11L441.94 100.12L442.06 100.13L442.17 100.14L442.29 100.15L442.41 100.16L442.52 100.17L442.64 100.18L442.75 100.2L442.87 100.21L442.98 100.23L443.1 100.25L443.22 100.27L443.33 100.28L443.45 100.3L443.56 100.32L443.68 100.35L443.79 100.37L443.91 100.39L444.02 100.42L444.14 100.44L444.25 100.47L444.37 100.49L444.48 100.52L444.6 100.55L444.71 100.58L444.82 100.61L444.94 100.64L445.05 100.68L445.17 100.71L445.28 100.74L445.39 100.78L445.77 100.9L446.14 101.04L446.51 101.18L446.87 101.33L447.22 101.49L447.57 101.65L447.92 101.83L448.25 102.01L448.58 102.2L448.91 102.4L449.23 102.61L449.54 102.83L449.84 103.05L450.14 103.28L450.43 103.52L450.71 103.76L450.99 104.01L451.26 104.27L451.52 104.53L451.77 104.8L452.02 105.08L452.26 105.36L452.48 105.65L452.7 105.94L452.92 106.24L453.12 106.54L453.31 106.85L453.5 107.17L453.68 107.49L453.84 107.82L454 108.14L454.15 108.48L454.29 108.82L454.42 109.16L454.54 109.51L454.65 109.86L454.75 110.21L454.83 110.57L454.91 110.93L454.98 111.3L455.31 113.09L455.68 114.87L456.09 116.64L456.54 118.4L457.04 120.14L457.57 121.87L458.14 123.58L458.75 125.28L459.4 126.96L460.09 128.62L460.82 130.27L461.58 131.89L462.38 133.51L463.22 135.1L464.09 136.67L465 138.23L465.94 139.76L466.92 141.27L467.94 142.77L468.98 144.24L470.07 145.69L471.18 147.11L472.33 148.52L473.51 149.9L474.73 151.25L475.97 152.58L477.25 153.89L478.56 155.17L479.9 156.43L481.26 157.66L482.66 158.86L484.09 160.04L485.55 161.19L487.03 162.3L488.55 163.4L490.09 164.46L491.66 165.49L493.26 166.49L494.88 167.46L496.53 168.4L497.32 166.52L498.09 164.62L498.83 162.72L499.54 160.8L500.22 158.87L500.88 156.93L501.5 154.98L502.09 153.02L502.66 151.05L503.19 149.07L503.7 147.08L504.18 145.08L504.62 143.07L505.04 141.05L505.43 139.02L505.79 136.97L506.13 134.92L506.43 132.86L506.7 130.79L506.95 128.7L507.16 126.61L507.35 124.51L507.5 122.39L507.63 120.27L507.73 118.14L507.8 116L507.84 113.85L507.85 111.69L507.83 109.51L507.78 107.33L507.7 105.14L507.59 102.94L507.46 100.73L507.29 98.52L507.1 96.29L506.87 94.05L506.62 91.81L506.34 89.55L506.02 87.28L505.68 85.01L505.53 84.07L505.38 83.14L505.22 82.22L505.06 81.3L504.9 80.39L504.73 79.48L504.56 78.58L504.39 77.69L504.21 76.8L504.03 75.92L503.85 75.04L503.66 74.18L503.47 73.32L503.28 72.46L503.09 71.62L502.89 70.78L502.69 69.95L502.49 69.12L502.29 68.31L502.09 67.5L501.88 66.69L501.68 65.9L501.47 65.11L501.26 64.33L501.05 63.56L500.83 62.8L500.62 62.04L500.41 61.29L500.19 60.55L499.98 59.82L499.76 59.1L499.54 58.38L499.32 57.68L499.11 56.98L498.89 56.29L498.67 55.61L498.45 54.94L498.24 54.27L498.02 53.62L497.8 52.97L495.42 54.99L493.06 56.85L490.72 58.56L488.4 60.12L486.1 61.53L483.82 62.8L481.55 63.94L479.3 64.94L477.07 65.81L474.86 66.56L472.66 67.19L470.48 67.7L468.31 68.1L466.16 68.39L464.02 68.58L461.89 68.67L459.78 68.66L457.68 68.55L455.6 68.36L453.53 68.09L451.46 67.74L449.41 67.31L447.38 66.8L445.35 66.24L443.33 65.6L441.32 64.91L439.32 64.16L437.33 63.36L435.34 62.52L433.37 61.63L431.4 60.7L429.44 59.74L427.48 58.74L425.53 57.72L423.59 56.68L421.65 55.61L419.71 54.54L417.78 53.45L415.86 52.35L413.93 51.25L413.31 50.9L412.68 50.54L412.05 50.18L411.42 49.82L410.79 49.46L410.16 49.1L409.52 48.74L408.89 48.39L408.25 48.03L407.61 47.67L406.97 47.31L406.32 46.95L405.68 46.59L405.03 46.23L404.38 45.87L403.73 45.51L403.07 45.15L402.41 44.79L401.75 44.43L401.09 44.07L400.42 43.72L399.75 43.36L399.08 43.01L398.4 42.65L397.73 42.3L397.04 41.94L396.36 41.59L395.67 41.24L394.98 40.89L394.28 40.54L393.58 40.19L392.87 39.85L392.17 39.5L391.45 39.16L390.74 38.82L390.01 38.48L389.29 38.14L388.56 37.8L387.83 37.46L387.09 37.13L383.3 35.49L379.54 33.99L375.8 32.63L372.09 31.41L368.4 30.33L364.73 29.38L361.1 28.57L357.49 27.89L353.91 27.35L350.37 26.95L346.86 26.68L343.38 26.54L339.94 26.54L336.54 26.67L333.17 26.93Z" id="n4N4ybj7Q"></path><path d="M554.39 594.09L554.72 594.1L555.05 594.12L555.38 594.15L555.71 594.19L556.04 594.23L556.37 594.28L556.7 594.34L556.86 594.37L557.02 594.4L557.19 594.43L557.35 594.47L557.51 594.51L557.67 594.55L557.83 594.59L557.99 594.63L558.15 594.68L558.31 594.72L558.46 594.77L558.62 594.82L558.78 594.87L558.93 594.93L559.08 594.98L559.24 595.04L559.39 595.1L559.54 595.16L559.69 595.22L559.84 595.28L559.99 595.35L560.14 595.41L560.29 595.48L560.44 595.55L560.59 595.62L560.73 595.69L560.88 595.76L561.03 595.84L561.17 595.91L561.31 595.99L561.46 596.07L561.6 596.15L561.74 596.24L561.88 596.32L562.01 596.4L562.15 596.49L562.29 596.58L562.42 596.67L562.55 596.76L562.69 596.86L562.82 596.95L562.95 597.05L563.08 597.14L563.21 597.24L563.33 597.34L563.46 597.45L563.58 597.55L563.7 597.65L563.83 597.76L563.95 597.86L564.06 597.97L564.18 598.08L564.29 598.19L564.41 598.3L564.52 598.41L564.63 598.53L564.74 598.64L564.85 598.76L564.96 598.88L565.06 599L565.16 599.12L565.27 599.24L565.37 599.36L565.46 599.48L565.56 599.61L565.66 599.74L565.75 599.86L565.84 599.99L565.93 600.12L566.02 600.25L566.11 600.38L566.2 600.51L566.28 600.64L566.36 600.77L566.45 600.9L566.53 601.04L566.6 601.17L566.68 601.31L566.76 601.45L566.83 601.58L566.9 601.72L566.97 601.86L567.04 602L567.1 602.14L567.17 602.28L567.23 602.42L567.29 602.57L567.35 602.71L567.41 602.86L567.46 603L567.52 603.15L567.57 603.29L567.62 603.44L567.67 603.59L567.71 603.74L567.76 603.88L567.8 604.03L567.84 604.18L567.88 604.33L567.92 604.48L567.95 604.63L567.99 604.78L568.02 604.93L568.05 605.08L568.08 605.23L568.1 605.38L568.13 605.53L568.15 605.69L568.17 605.84L568.19 605.99L568.2 606.15L568.21 606.3L568.23 606.45L568.24 606.61L568.24 606.76L568.25 606.91L568.26 607.07L568.26 607.22L568.26 607.37L568.26 607.53L568.26 607.68L568.25 607.83L568.24 607.99L568.24 608.14L568.23 608.29L568.21 608.45L568.2 608.6L568.19 608.75L568.17 608.9L568.15 609.06L568.13 609.21L568.1 609.36L568.08 609.51L568.05 609.67L568.02 609.82L567.99 609.97L567.95 610.12L567.92 610.27L567.88 610.42L567.84 610.57L567.8 610.71L567.76 610.86L567.71 611.01L567.67 611.16L567.62 611.3L567.57 611.45L567.52 611.6L567.46 611.74L567.41 611.88L567.35 612.03L567.29 612.17L567.23 612.31L567.17 612.45L567.1 612.59L567.04 612.74L566.97 612.88L566.9 613.02L566.83 613.16L566.76 613.3L566.68 613.43L566.6 613.57L566.53 613.71L566.45 613.84L566.36 613.97L566.28 614.11L566.2 614.24L566.11 614.37L566.02 614.5L565.93 614.63L565.84 614.75L565.75 614.88L565.66 615.01L565.56 615.14L565.46 615.26L565.37 615.39L565.27 615.51L565.16 615.63L565.06 615.75L564.96 615.87L564.85 615.99L564.74 616.1L564.63 616.22L564.52 616.33L564.41 616.45L564.29 616.56L564.18 616.67L564.06 616.77L563.95 616.88L563.83 616.99L563.7 617.09L563.58 617.2L563.46 617.3L563.33 617.4L563.21 617.5L563.08 617.6L562.95 617.7L562.82 617.8L562.69 617.89L562.55 617.98L562.42 618.08L562.29 618.17L562.15 618.25L562.01 618.34L561.88 618.43L561.74 618.51L561.6 618.59L561.45 618.67L561.31 618.75L561.17 618.83L561.02 618.91L560.88 618.98L560.73 619.05L560.59 619.13L560.44 619.2L560.29 619.27L560.14 619.33L559.99 619.4L559.84 619.46L559.69 619.53L559.54 619.59L559.39 619.65L559.24 619.71L559.08 619.76L558.93 619.82L558.77 619.87L558.62 619.92L558.46 619.97L558.3 620.02L558.14 620.07L557.99 620.11L557.83 620.16L557.67 620.2L557.51 620.24L557.35 620.28L557.19 620.31L557.02 620.34L556.86 620.38L556.7 620.41L556.54 620.44L556.37 620.46L556.21 620.49L556.05 620.51L555.88 620.54L555.72 620.56L555.55 620.58L555.39 620.59L555.22 620.61L555.05 620.62L554.89 620.64L554.72 620.65L554.56 620.66L554.39 620.66L554.23 620.67L554.06 620.67L553.9 620.67L553.73 620.67L553.57 620.67L553.4 620.66L553.24 620.66L553.07 620.65L552.9 620.64L552.74 620.62L552.57 620.61L552.41 620.59L552.24 620.58L552.07 620.56L551.91 620.54L551.74 620.51L551.58 620.49L551.41 620.46L551.25 620.44L551.08 620.41L550.92 620.38L550.76 620.34L550.59 620.31L550.43 620.28L550.27 620.24L550.11 620.2L549.95 620.16L549.79 620.11L549.63 620.07L549.48 620.02L549.32 619.97L549.16 619.92L549.01 619.87L548.85 619.82L548.7 619.76L548.54 619.71L548.39 619.65L548.24 619.59L548.09 619.53L547.94 619.46L547.79 619.4L547.64 619.33L547.49 619.27L547.34 619.2L547.19 619.13L547.05 619.05L546.9 618.98L546.76 618.91L546.61 618.83L546.47 618.75L546.33 618.67L546.19 618.59L546.04 618.51L545.9 618.43L545.77 618.34L545.63 618.25L545.5 618.17L545.36 618.08L545.23 617.98L545.1 617.89L544.97 617.8L544.84 617.7L544.71 617.6L544.58 617.5L544.45 617.4L544.33 617.3L544.2 617.2L544.08 617.09L543.96 616.99L543.84 616.88L543.72 616.77L543.6 616.67L543.49 616.56L543.38 616.45L543.26 616.33L543.15 616.22L543.04 616.1L542.94 615.99L542.83 615.87L542.73 615.75L542.62 615.63L542.52 615.51L542.42 615.39L542.32 615.26L542.22 615.14L542.13 615.01L542.03 614.88L541.94 614.75L541.85 614.63L541.76 614.5L541.67 614.37L541.59 614.24L541.5 614.11L541.42 613.97L541.34 613.84L541.26 613.71L541.18 613.57L541.1 613.43L541.03 613.3L540.95 613.16L540.88 613.02L540.81 612.88L540.74 612.74L540.68 612.59L540.61 612.45L540.55 612.31L540.49 612.17L540.43 612.03L540.37 611.88L540.32 611.74L540.27 611.6L540.21 611.45L540.16 611.3L540.12 611.16L540.07 611.01L540.03 610.86L539.98 610.71L539.94 610.57L539.9 610.42L539.86 610.27L539.83 610.12L539.79 609.97L539.76 609.82L539.73 609.67L539.7 609.51L539.68 609.36L539.66 609.21L539.63 609.06L539.61 608.9L539.6 608.75L539.58 608.6L539.57 608.45L539.56 608.29L539.55 608.14L539.54 607.99L539.53 607.83L539.53 607.68L539.52 607.53L539.52 607.37L539.52 607.22L539.53 607.07L539.53 606.91L539.54 606.76L539.55 606.61L539.56 606.45L539.57 606.3L539.58 606.15L539.6 605.99L539.61 605.84L539.63 605.69L539.66 605.53L539.68 605.38L539.7 605.23L539.73 605.08L539.76 604.93L539.79 604.78L539.83 604.63L539.86 604.48L539.9 604.33L539.94 604.18L539.98 604.03L540.03 603.88L540.07 603.74L540.12 603.59L540.16 603.44L540.21 603.29L540.27 603.15L540.32 603L540.37 602.86L540.43 602.71L540.49 602.57L540.55 602.42L540.61 602.28L540.68 602.14L540.74 602L540.81 601.86L540.88 601.72L540.95 601.58L541.03 601.45L541.1 601.31L541.18 601.17L541.26 601.04L541.34 600.9L541.42 600.77L541.5 600.64L541.59 600.51L541.67 600.38L541.76 600.25L541.85 600.12L541.94 599.99L542.03 599.86L542.13 599.74L542.22 599.61L542.32 599.48L542.42 599.36L542.52 599.24L542.62 599.12L542.73 599L542.83 598.88L542.94 598.76L543.04 598.64L543.15 598.53L543.26 598.41L543.38 598.3L543.49 598.19L543.6 598.08L543.72 597.97L543.84 597.86L543.96 597.76L544.08 597.65L544.2 597.55L544.33 597.45L544.45 597.34L544.58 597.24L544.71 597.14L544.84 597.05L544.97 596.95L545.1 596.86L545.23 596.76L545.36 596.67L545.5 596.58L545.63 596.49L545.77 596.4L545.9 596.32L546.04 596.24L546.19 596.15L546.33 596.07L546.47 595.99L546.61 595.91L546.76 595.84L546.9 595.76L547.05 595.69L547.2 595.62L547.34 595.55L547.49 595.48L547.64 595.41L547.79 595.35L547.94 595.28L548.09 595.22L548.24 595.16L548.39 595.1L548.54 595.04L548.7 594.98L548.85 594.93L549.01 594.87L549.16 594.82L549.32 594.77L549.48 594.72L549.63 594.68L549.79 594.63L549.95 594.59L550.11 594.55L550.27 594.51L550.43 594.47L550.59 594.43L550.76 594.4L550.92 594.37L551.08 594.34L551.41 594.28L551.74 594.23L552.07 594.19L552.4 594.15L552.73 594.12L553.06 594.1L553.39 594.09L553.73 594.08L554.06 594.08L554.39 594.09Z" id="buKwqZQyF"></path></defs><g><g><g><use xlink:href="#g2ShFlHZBU" opacity="1" fill="#f8d709" fill-opacity="0.9"></use><g><use xlink:href="#g2ShFlHZBU" opacity="1" fill-opacity="0" stroke="#000000" stroke-width="1" stroke-opacity="0"></use></g></g><g><use xlink:href="#aAis7vYXv" opacity="1" fill="#baf0ff" fill-opacity="1"></use><g><use xlink:href="#aAis7vYXv" opacity="1" fill-opacity="0" stroke="#000000" stroke-width="1" stroke-opacity="0"></use></g></g><g><use xlink:href="#fCjWuvVRI" opacity="1" fill="#00befd" fill-opacity="1"></use><g><use xlink:href="#fCjWuvVRI" opacity="1" fill-opacity="0" stroke="#000000" stroke-width="1" stroke-opacity="0"></use></g></g><g><use xlink:href="#cXrBYmF7f" opacity="1" fill="#0076ff" fill-opacity="1"></use><g><use xlink:href="#cXrBYmF7f" opacity="1" fill-opacity="0" stroke="#000000" stroke-width="1" stroke-opacity="0"></use></g></g><g><use xlink:href="#c1axmanzyq" opacity="1" fill="#f7d6b5" fill-opacity="1"></use><g><use xlink:href="#c1axmanzyq" opacity="1" fill-opacity="0" stroke="#000000" stroke-width="1" stroke-opacity="0"></use></g></g><g><use xlink:href="#i4635cnHZ" opacity="1" fill="#00befd" fill-opacity="1"></use><g><use xlink:href="#i4635cnHZ" opacity="1" fill-opacity="0" stroke="#000000" stroke-width="1" stroke-opacity="0"></use></g></g><g><use xlink:href="#dPaQgciLc" opacity="1" fill="#00befd" fill-opacity="1"></use><g><use xlink:href="#dPaQgciLc" opacity="1" fill-opacity="0" stroke="#000000" stroke-width="1" stroke-opacity="0"></use></g></g><g><use xlink:href="#d7N6N1IPH" opacity="1" fill="#f7d6b5" fill-opacity="1"></use><g><use xlink:href="#d7N6N1IPH" opacity="1" fill-opacity="0" stroke="#000000" stroke-width="1" stroke-opacity="0"></use></g></g><g><use xlink:href="#b1BMcp7oh" opacity="1" fill="#f7d6b5" fill-opacity="1"></use><g><use xlink:href="#b1BMcp7oh" opacity="1" fill-opacity="0" stroke="#000000" stroke-width="1" stroke-opacity="0"></use></g></g><g><use xlink:href="#e5iDwnDGes" opacity="1" fill="#000000" fill-opacity="1"></use><g><use xlink:href="#e5iDwnDGes" opacity="1" fill-opacity="0" stroke="#000000" stroke-width="1" stroke-opacity="0"></use></g></g><g><use xlink:href="#d7BOTreRfs" opacity="1" fill="#000000" fill-opacity="1"></use><g><use xlink:href="#d7BOTreRfs" opacity="1" fill-opacity="0" stroke="#000000" stroke-width="1" stroke-opacity="0"></use></g></g><g><use xlink:href="#b3iEA6r3tT" opacity="1" fill="#000000" fill-opacity="1"></use><g><use xlink:href="#b3iEA6r3tT" opacity="1" fill-opacity="0" stroke="#000000" stroke-width="1" stroke-opacity="0"></use></g></g><g><use xlink:href="#b2vlR97geJ" opacity="1" fill="#8e94a9" fill-opacity="1"></use><g><use xlink:href="#b2vlR97geJ" opacity="1" fill-opacity="0" stroke="#000000" stroke-width="1" stroke-opacity="0"></use></g></g><g><use xlink:href="#n4N4ybj7Q" opacity="1" fill="#000000" fill-opacity="1"></use><g><use xlink:href="#n4N4ybj7Q" opacity="1" fill-opacity="0" stroke="#000000" stroke-width="1" stroke-opacity="0"></use></g></g><g><use xlink:href="#buKwqZQyF" opacity="1" fill="#000000" fill-opacity="1"></use><g><use xlink:href="#buKwqZQyF" opacity="1" fill-opacity="0" stroke="#000000" stroke-width="1" stroke-opacity="0"></use></g></g></g></g></svg>