<?xml version="1.0" encoding="UTF-8" standalone="no"?>
<!DOCTYPE svg PUBLIC "-//W3C//DTD SVG 1.1//EN" "http://www.w3.org/Graphics/SVG/1.1/DTD/svg11.dtd">
<svg version="1.1" xmlns="http://www.w3.org/2000/svg" xmlns:xlink="http://www.w3.org/1999/xlink" preserveAspectRatio="xMidYMid meet" viewBox="0 0 640 640" width="640" height="640"><defs><path d="M369.43 271.03L369.29 275.34L369.05 279.63L368.71 283.88L368.26 288.1L367.71 292.28L367.04 296.42L366.27 300.52L365.38 304.57L364.37 308.58L363.24 312.53L361.99 316.42L360.61 320.26L359.1 324.04L357.46 327.76L355.69 331.41L353.78 334.99L351.72 338.5L349.53 341.93L347.19 345.29L344.7 348.57L342.06 351.76L339.26 354.87L336.31 357.89L333.19 360.82L329.92 363.66L326.48 366.4L322.87 369.03L319.09 371.57L315.13 374L311 376.32L306.69 378.54L302.2 380.63L297.52 382.61L292.66 384.47L287.6 386.21L282.35 387.83L276.9 389.31L271.26 390.67L265.41 391.89L271.03 427.82L211.01 427.82L216.62 391.89L210.77 390.67L205.13 389.31L199.68 387.83L194.43 386.21L189.38 384.47L184.51 382.61L179.83 380.63L175.34 378.54L171.03 376.32L166.9 374L162.94 371.57L159.16 369.03L155.55 366.4L152.11 363.66L148.84 360.82L145.73 357.89L142.77 354.87L139.98 351.76L137.33 348.57L134.84 345.29L132.5 341.93L130.31 338.5L128.26 334.99L126.34 331.41L124.57 327.76L122.93 324.04L121.42 320.26L120.04 316.42L118.79 312.53L117.66 308.58L116.65 304.57L115.76 300.52L114.99 296.42L114.33 292.28L113.77 288.1L113.33 283.88L112.99 279.63L112.75 275.34L112.6 271.03L112.56 266.69L112.56 180.74L369.48 180.74L369.48 266.69L369.43 271.03Z" id="aw6V4mHpm"></path><path d="M373.34 180.9L375.33 181.1L377.3 181.38L379.24 181.73L381.16 182.16L383.05 182.66L384.91 183.24L386.73 183.88L388.53 184.59L390.29 185.37L392.01 186.21L393.69 187.11L395.34 188.08L396.94 189.11L398.51 190.2L400.02 191.34L401.5 192.54L402.92 193.79L404.3 195.1L405.62 196.46L406.9 197.87L408.12 199.32L409.28 200.82L410.39 202.37L411.44 203.96L412.43 205.59L413.36 207.27L414.22 208.98L415.02 210.73L415.76 212.51L416.43 214.33L417.02 216.18L417.55 218.06L418.01 219.97L418.39 221.91L418.69 223.87L418.92 225.86L419.07 227.88L419.14 229.91L419.18 233.34L419.23 236.83L419.28 240.35L419.33 243.91L419.38 247.5L419.43 251.11L419.48 254.74L419.53 258.37L419.58 262L419.63 265.63L419.68 269.24L419.73 272.83L419.78 276.39L419.82 279.91L419.87 283.4L419.92 286.83L419.97 290.21L420.01 293.53L420.06 296.77L420.1 299.94L420.14 303.02L420.18 306.01L420.22 308.9L420.26 311.69L420.3 314.36L420.33 316.91L420.37 319.34L420.4 321.63L420.43 323.78L420.45 325.79L420.48 327.63L420.5 329.32L420.52 330.83L420.54 332.17L420.56 333.33L420.57 334.29L420.58 335.06L420.59 335.62L420.59 335.97L420.59 336.1L420.48 340.36L420.19 344.54L419.73 348.62L419.11 352.61L418.32 356.52L417.38 360.33L416.29 364.05L415.04 367.68L413.65 371.21L412.11 374.65L410.43 377.99L408.62 381.23L406.67 384.37L404.59 387.41L402.38 390.35L400.05 393.19L397.6 395.93L395.03 398.56L392.35 401.08L389.55 403.5L386.65 405.81L383.65 408.02L380.55 410.11L377.35 412.09L374.06 413.96L370.67 415.72L367.2 417.37L363.65 418.89L360.02 420.31L356.31 421.6L352.53 422.78L348.68 423.84L344.76 424.77L340.78 425.59L336.75 426.28L332.65 426.85L328.5 427.3L324.31 427.62L320.06 427.81L315.78 427.87L267.19 427.87L267.37 427.86L267.93 427.81L268.82 427.72L270.05 427.57L271.57 427.37L273.39 427.09L275.47 426.73L277.81 426.28L280.37 425.74L283.14 425.08L286.1 424.31L289.24 423.42L292.53 422.38L295.95 421.21L299.49 419.87L303.13 418.38L306.84 416.71L310.61 414.87L314.41 412.83L318.24 410.59L322.06 408.14L325.87 405.48L329.64 402.58L333.35 399.45L336.98 396.08L340.52 392.45L343.95 388.56L347.24 384.39L350.37 379.94L353.34 375.2L356.11 370.15L358.67 364.8L361 359.13L363.09 353.13L364.9 346.79L366.43 340.11L367.65 333.07L368.55 325.66L369.1 317.88L369.29 309.72L369.29 180.74L371.33 180.78L373.34 180.9Z" id="cSpqKDhoh"></path><path d="M112.56 318L113.11 325.89L114.01 333.39L115.23 340.51L116.76 347.27L118.57 353.67L120.66 359.73L122.99 365.44L125.55 370.83L128.32 375.9L131.29 380.66L134.42 385.12L137.71 389.3L141.14 393.19L144.68 396.81L148.31 400.18L152.02 403.29L155.79 406.16L159.6 408.8L163.42 411.22L167.25 413.42L171.05 415.42L174.82 417.23L178.53 418.86L182.17 420.31L185.71 421.6L189.13 422.74L192.42 423.73L195.56 424.59L198.52 425.32L201.29 425.93L203.86 426.44L206.19 426.86L208.27 427.19L210.09 427.44L211.62 427.62L212.84 427.74L213.74 427.82L214.29 427.86L214.48 427.87L165.81 427.77L161.53 427.69L157.31 427.48L153.12 427.14L148.99 426.69L144.91 426.1L140.88 425.4L136.92 424.57L133.01 423.62L129.18 422.56L125.41 421.37L121.72 420.07L118.1 418.65L114.56 417.12L111.11 415.47L107.74 413.71L104.46 411.83L101.27 409.85L98.18 407.76L95.19 405.55L92.31 403.24L89.53 400.82L86.86 398.3L84.3 395.67L81.86 392.94L79.54 390.11L77.34 387.17L75.27 384.14L73.34 381L71.53 377.77L69.86 374.43L68.33 371.01L66.95 367.48L65.71 363.87L64.62 360.16L63.69 356.35L62.91 352.46L62.29 348.48L61.84 344.41L61.55 340.25L61.44 336L61.44 335.87L61.45 335.52L61.45 334.95L61.46 334.19L61.48 333.22L61.49 332.06L61.51 330.72L61.53 329.19L61.56 327.5L61.58 325.65L61.61 323.64L61.64 321.48L61.67 319.18L61.7 316.75L61.74 314.18L61.77 311.5L61.81 308.71L61.85 305.8L61.89 302.8L61.94 299.71L61.98 296.53L62.03 293.28L62.07 289.95L62.12 286.57L62.17 283.12L62.21 279.63L62.26 276.09L62.31 272.52L62.36 268.92L62.41 265.3L62.46 261.67L62.51 258.03L62.56 254.39L62.61 250.76L62.66 247.14L62.71 243.55L62.76 239.98L62.81 236.45L62.85 232.97L62.9 229.53L62.97 227.51L63.12 225.51L63.34 223.54L63.65 221.59L64.03 219.67L64.48 217.77L65 215.9L65.59 214.07L66.26 212.26L66.98 210.49L67.78 208.76L68.64 207.06L69.56 205.4L70.54 203.78L71.58 202.2L72.68 200.67L73.84 199.18L75.05 197.73L76.31 196.34L77.63 194.99L79 193.69L80.41 192.45L81.87 191.26L83.38 190.12L84.93 189.04L86.52 188.02L88.15 187.06L89.82 186.17L91.53 185.33L93.28 184.56L95.06 183.85L96.87 183.22L98.71 182.65L100.59 182.15L102.49 181.73L104.42 181.38L106.37 181.1L108.35 180.9L110.35 180.78L112.37 180.74L112.37 309.72L112.56 318Z" id="b3c2j640Zo"></path><path d="M386.14 427.94L387.56 428.08L388.97 428.28L390.35 428.54L391.72 428.84L393.06 429.2L394.38 429.62L395.68 430.08L396.96 430.59L398.21 431.15L399.43 431.75L400.63 432.4L401.8 433.1L402.94 433.83L404.05 434.61L405.12 435.43L406.17 436.3L407.17 437.19L408.15 438.13L409.08 439.11L409.98 440.11L410.84 441.16L411.67 442.23L412.45 443.34L413.18 444.48L413.88 445.65L414.53 446.85L415.13 448.07L415.69 449.32L416.2 450.6L416.66 451.9L417.07 453.22L417.43 454.56L417.74 455.93L417.99 457.31L418.19 458.71L418.34 460.13L418.43 461.57L418.46 463.02L418.46 668.49L63.57 668.49L63.57 463.02L63.6 461.57L63.69 460.13L63.83 458.71L64.03 457.31L64.29 455.93L64.6 454.56L64.96 453.22L65.37 451.9L65.83 450.6L66.34 449.32L66.9 448.07L67.5 446.85L68.15 445.65L68.85 444.48L69.59 443.34L70.37 442.23L71.19 441.16L72.05 440.11L72.95 439.11L73.88 438.13L74.86 437.19L75.87 436.3L76.91 435.43L77.99 434.61L79.09 433.83L80.23 433.1L81.4 432.4L82.6 431.75L83.82 431.15L85.07 430.59L86.35 430.08L87.65 429.62L88.97 429.2L90.32 428.84L91.68 428.54L93.07 428.28L94.47 428.08L95.89 427.94L97.33 427.85L98.78 427.82L383.26 427.82L384.71 427.85L386.14 427.94Z" id="iVka4u68l"></path><path d="M171.45 233.42L172.14 233.51L172.83 233.63L173.52 233.79L174.2 233.99L174.87 234.22L175.54 234.5L176.2 234.81L192.97 243.36L193.51 243.65L194.04 243.97L194.54 244.3L195.02 244.65L195.49 245.03L195.94 245.42L196.36 245.83L196.77 246.26L197.16 246.7L197.52 247.16L197.87 247.63L198.19 248.12L198.49 248.62L198.77 249.13L199.02 249.66L199.25 250.19L199.46 250.73L199.65 251.29L199.81 251.85L199.95 252.42L200.06 252.99L200.14 253.57L200.2 254.16L200.24 254.75L200.25 255.35L200.23 255.94L200.18 256.54L200.11 257.14L200.01 257.74L199.88 258.34L199.72 258.93L199.54 259.51L199.33 260.08L199.1 260.64L198.85 261.18L198.57 261.7L198.27 262.21L197.95 262.71L197.61 263.19L197.25 263.65L196.87 264.09L196.47 264.52L196.05 264.93L195.62 265.32L195.17 265.69L194.71 266.04L194.23 266.37L193.73 266.68L193.22 266.97L192.7 267.23L192.17 267.48L191.62 267.7L191.07 267.89L190.5 268.06L189.92 268.21L189.34 268.33L188.75 268.43L188.15 268.49L187.54 268.54L186.93 268.55L156.33 268.55L155.6 268.53L154.88 268.47L154.17 268.38L153.47 268.24L152.79 268.07L152.12 267.87L151.47 267.63L150.83 267.36L150.21 267.06L149.61 266.73L149.03 266.37L148.46 265.98L147.92 265.56L147.41 265.12L146.91 264.65L146.44 264.15L146 263.64L145.58 263.1L145.19 262.54L144.83 261.95L144.5 261.35L144.2 260.73L143.93 260.09L143.69 259.44L143.49 258.77L143.32 258.09L143.19 257.39L143.09 256.68L143.03 255.96L143.01 255.23L143.03 254.5L143.09 253.78L143.19 253.07L143.32 252.37L143.49 251.69L143.69 251.02L143.93 250.37L144.2 249.73L144.5 249.11L144.83 248.51L145.19 247.92L145.58 247.36L146 246.82L146.44 246.3L146.91 245.81L147.41 245.34L147.92 244.9L148.46 244.48L149.03 244.09L149.61 243.73L150.21 243.4L150.83 243.09L151.47 242.83L152.12 242.59L152.79 242.39L153.47 242.22L154.17 242.08L154.88 241.99L155.6 241.93L156.33 241.91L157.72 241.91L157.73 241.87L157.75 241.82L157.77 241.78L157.78 241.74L157.8 241.69L157.82 241.65L157.84 241.61L157.85 241.56L157.87 241.52L157.89 241.48L157.91 241.44L157.93 241.39L157.94 241.35L157.96 241.31L157.98 241.27L158 241.22L158.02 241.18L158.04 241.14L158.06 241.1L158.08 241.05L158.1 241.01L158.12 240.97L158.14 240.93L158.16 240.88L158.18 240.84L158.2 240.8L158.22 240.76L158.24 240.71L158.26 240.67L158.28 240.63L158.63 239.99L159.01 239.37L159.42 238.78L159.86 238.22L160.32 237.69L160.8 237.19L161.31 236.71L161.84 236.27L162.39 235.85L162.96 235.47L163.55 235.11L164.15 234.79L164.77 234.5L165.4 234.24L166.04 234.01L166.69 233.82L167.36 233.66L168.03 233.53L168.7 233.44L169.39 233.38L170.07 233.36L170.76 233.37L171.45 233.42Z" id="b2KES12fbO"></path><path d="M312.06 233.43L312.74 233.53L313.41 233.65L314.07 233.81L314.72 234.01L315.37 234.23L316 234.49L316.61 234.79L317.22 235.11L317.8 235.46L318.37 235.85L318.92 236.26L319.45 236.71L319.96 237.19L320.44 237.69L320.91 238.22L321.34 238.78L321.75 239.37L322.13 239.99L322.48 240.63L322.5 240.67L322.52 240.71L322.54 240.76L322.56 240.8L322.58 240.84L322.6 240.88L322.62 240.93L322.64 240.97L322.66 241.01L322.68 241.05L322.7 241.1L322.72 241.14L322.74 241.18L322.76 241.22L322.78 241.27L322.8 241.31L322.82 241.35L322.84 241.39L322.86 241.44L322.87 241.48L322.89 241.52L322.91 241.56L322.93 241.61L322.95 241.65L322.96 241.69L322.98 241.74L323 241.78L323.02 241.82L323.03 241.87L323.05 241.91L324.43 241.91L325.16 241.93L325.88 241.99L326.59 242.08L327.29 242.22L327.97 242.39L328.64 242.59L329.3 242.83L329.93 243.09L330.55 243.4L331.16 243.73L331.74 244.09L332.3 244.48L332.84 244.9L333.36 245.34L333.85 245.81L334.32 246.3L334.77 246.82L335.18 247.36L335.57 247.92L335.93 248.51L336.27 249.11L336.57 249.73L336.84 250.37L337.07 251.02L337.28 251.69L337.45 252.37L337.58 253.07L337.68 253.78L337.73 254.5L337.75 255.23L337.73 255.96L337.68 256.68L337.58 257.39L337.45 258.09L337.28 258.77L337.07 259.44L336.84 260.09L336.57 260.73L336.27 261.35L335.93 261.95L335.57 262.54L335.18 263.1L334.77 263.64L334.32 264.15L333.85 264.65L333.36 265.12L332.84 265.56L332.3 265.98L331.74 266.37L331.16 266.73L330.55 267.06L329.93 267.36L329.3 267.63L328.64 267.87L327.97 268.07L327.29 268.24L326.59 268.38L325.88 268.47L325.16 268.53L324.43 268.55L293.84 268.55L293.22 268.54L292.62 268.49L292.02 268.43L291.43 268.33L290.84 268.21L290.27 268.06L289.7 267.89L289.14 267.7L288.6 267.48L288.06 267.23L287.54 266.97L287.03 266.68L286.54 266.37L286.06 266.04L285.59 265.69L285.14 265.32L284.71 264.93L284.29 264.52L283.89 264.09L283.51 263.65L283.15 263.19L282.81 262.71L282.49 262.21L282.19 261.7L281.92 261.18L281.66 260.64L281.43 260.08L281.23 259.51L281.04 258.93L280.89 258.34L280.76 257.74L280.66 257.14L280.58 256.54L280.54 255.94L280.52 255.35L280.52 254.75L280.56 254.16L280.62 253.57L280.71 252.99L280.82 252.42L280.95 251.85L281.11 251.29L281.3 250.73L281.51 250.19L281.74 249.66L281.99 249.13L282.27 248.62L282.57 248.12L282.9 247.63L283.24 247.16L283.61 246.7L283.99 246.26L284.4 245.83L284.82 245.42L285.27 245.03L285.74 244.65L286.22 244.3L286.73 243.97L287.25 243.65L287.79 243.36L304.56 234.81L305.22 234.5L305.89 234.22L306.56 233.98L307.25 233.79L307.93 233.63L308.62 233.5L309.31 233.42L310 233.37L310.69 233.35L311.38 233.38L312.06 233.43Z" id="b4s81plYh1"></path><path d="M256.19 315.31L256.91 315.41L257.63 315.55L258.34 315.73L259.05 315.95L259.74 316.21L260.42 316.51L261.09 316.85L261.74 317.22L262.37 317.64L262.99 318.1L263.58 318.6L264.15 319.14L264.69 319.71L265.18 320.3L265.64 320.91L266.06 321.54L266.44 322.2L266.77 322.86L267.07 323.54L267.33 324.24L267.55 324.94L267.73 325.65L267.87 326.37L267.97 327.1L268.03 327.83L268.05 328.56L268.03 329.29L267.97 330.01L267.87 330.74L267.73 331.46L267.55 332.17L267.33 332.87L267.07 333.57L266.77 334.25L266.43 334.91L266.05 335.56L265.64 336.2L265.18 336.81L264.68 337.4L264.14 337.97L263.46 338.64L262.76 339.28L262.04 339.89L261.32 340.49L260.58 341.06L259.82 341.6L259.06 342.12L258.28 342.62L257.5 343.09L256.7 343.54L255.89 343.96L255.08 344.36L254.25 344.73L253.42 345.09L252.58 345.41L251.73 345.71L250.87 345.99L250.01 346.25L249.15 346.48L248.28 346.68L247.4 346.86L246.52 347.02L245.64 347.15L244.76 347.26L243.87 347.35L242.98 347.41L242.09 347.45L241.2 347.46L240.31 347.45L239.42 347.41L238.53 347.35L237.65 347.26L236.76 347.15L235.88 347.02L235 346.86L234.13 346.68L233.26 346.48L232.39 346.25L231.53 345.99L230.68 345.71L229.83 345.41L228.99 345.09L228.16 344.73L227.33 344.36L226.52 343.96L225.71 343.54L224.91 343.09L224.13 342.62L223.35 342.12L222.59 341.6L221.83 341.06L221.09 340.49L220.37 339.89L219.65 339.28L218.95 338.64L218.27 337.97L217.73 337.4L217.23 336.81L216.77 336.2L216.35 335.56L215.98 334.91L215.64 334.25L215.34 333.57L215.08 332.87L214.86 332.17L214.68 331.46L214.54 330.74L214.44 330.01L214.38 329.29L214.36 328.56L214.38 327.83L214.44 327.1L214.54 326.37L214.68 325.65L214.86 324.94L215.08 324.24L215.34 323.54L215.64 322.86L215.97 322.2L216.35 321.54L216.77 320.91L217.23 320.3L217.72 319.71L218.26 319.14L218.83 318.6L219.42 318.1L220.04 317.64L220.67 317.22L221.32 316.85L221.99 316.51L222.67 316.21L223.36 315.95L224.06 315.73L224.78 315.55L225.5 315.41L226.22 315.31L226.95 315.25L227.68 315.23L228.41 315.25L229.14 315.31L229.86 315.41L230.58 315.55L231.3 315.73L232 315.95L232.69 316.21L233.38 316.51L234.04 316.84L234.69 317.22L235.33 317.64L235.94 318.1L236.53 318.59L237.1 319.13L237.35 319.36L237.61 319.58L237.87 319.78L238.15 319.96L238.43 320.13L238.72 320.27L239.02 320.4L239.32 320.52L239.63 320.61L239.94 320.69L240.25 320.75L240.57 320.79L240.89 320.82L241.2 320.83L241.52 320.82L241.84 320.79L242.16 320.75L242.47 320.69L242.78 320.61L243.09 320.52L243.39 320.4L243.68 320.27L243.98 320.13L244.26 319.96L244.53 319.78L244.8 319.58L245.06 319.36L245.31 319.13L245.88 318.59L246.47 318.1L247.08 317.64L247.72 317.22L248.37 316.84L249.03 316.51L249.71 316.21L250.41 315.95L251.11 315.73L251.82 315.55L252.54 315.41L253.27 315.31L254 315.25L254.73 315.23L255.46 315.25L256.19 315.31Z" id="a36QbxoKs"></path><path d="M63.57 668.49L63.57 501.74L114.17 501.74L114.17 668.49L63.57 668.49Z" id="b3FA782dUc"></path><path d="M367.86 668.49L367.86 501.74L418.46 501.74L418.46 668.49L367.86 668.49Z" id="a62SobzB8V"></path><path d="M253.93 13.84L260.28 14.49L266.55 15.38L272.75 16.52L278.85 17.9L284.86 19.51L290.78 21.35L296.59 23.41L302.3 25.69L307.89 28.19L313.37 30.89L318.73 33.8L323.95 36.91L329.05 40.21L334 43.7L338.82 47.37L343.48 51.22L347.99 55.25L352.35 59.44L356.54 63.79L360.56 68.3L364.41 72.97L368.09 77.78L371.57 82.74L374.87 87.83L377.98 93.06L380.89 98.41L383.6 103.89L386.09 109.48L388.37 115.19L390.44 121L392.28 126.92L393.89 132.93L395.27 139.04L396.4 145.23L397.3 151.51L397.94 157.86L398.33 164.28L398.46 170.77L398.46 180.74L83.57 180.74L83.57 170.77L83.7 164.28L84.09 157.86L84.74 151.51L85.63 145.23L86.77 139.04L88.14 132.93L89.76 126.92L91.6 121L93.66 115.19L95.94 109.48L98.44 103.89L101.14 98.41L104.05 93.06L107.16 87.83L110.46 82.74L113.95 77.78L117.62 72.97L121.47 68.3L125.49 63.79L129.68 59.44L134.04 55.25L138.55 51.22L143.22 47.37L148.03 43.7L152.98 40.21L158.08 36.91L163.3 33.8L168.66 30.89L174.13 28.19L179.73 25.69L185.44 23.41L191.25 21.35L197.16 19.51L203.18 17.9L209.28 16.52L215.48 15.38L221.75 14.49L228.1 13.84L234.52 13.45L241.01 13.32L247.5 13.45L253.93 13.84Z" id="abxUMwa9"></path><path d="M241.01 435.87L163.09 493.15L163.09 427.87L318.94 427.87L318.94 493.15L241.01 435.87Z" id="bKae07xB2"></path><path d="M491.22 313.09L491.22 154.96L635.89 234.03L491.22 313.09Z" id="a1kMgDjsEi"></path><path d="M535.02 372.47L535.02 289.15L491.22 313.09L491.22 668.68L535.02 668.68L535.02 500.22" id="e8vp5qpidU"></path><path d="M254.84 0.55L261.64 1.24L268.36 2.19L274.99 3.39L281.54 4.86L287.98 6.57L294.33 8.52L300.57 10.71L306.69 13.13L312.7 15.78L318.59 18.66L324.35 21.75L329.97 25.05L335.45 28.55L340.79 32.26L345.98 36.16L351.02 40.25L355.9 44.52L360.6 48.98L365.14 53.6L369.5 58.4L373.68 63.36L377.68 68.47L381.48 73.74L385.08 79.16L388.48 84.72L391.67 90.41L394.65 96.23L397.4 102.19L399.94 108.26L402.24 114.44L404.31 120.74L406.14 127.13L407.72 133.63L409.05 140.22L410.12 146.9L410.94 153.67L411.48 160.51L411.75 167.42L435.41 167.42L435.96 167.43L436.5 167.46L437.04 167.52L437.57 167.59L438.1 167.69L438.61 167.81L439.12 167.94L439.62 168.1L440.11 168.27L440.6 168.47L441.07 168.68L441.53 168.91L441.99 169.15L442.43 169.42L442.86 169.69L443.28 169.99L443.69 170.3L444.08 170.63L444.46 170.97L444.83 171.32L445.18 171.69L445.53 172.07L445.85 172.47L446.16 172.87L446.46 173.29L446.74 173.72L447 174.17L447.25 174.62L447.47 175.08L447.69 175.55L447.88 176.04L448.05 176.53L448.21 177.03L448.35 177.54L448.46 178.06L448.56 178.58L448.63 179.11L448.69 179.65L448.72 180.19L448.73 180.74L448.72 181.29L448.69 181.83L448.63 182.37L448.56 182.9L448.46 183.42L448.35 183.94L448.21 184.45L448.05 184.95L447.88 185.44L447.69 185.93L447.47 186.4L447.25 186.86L447 187.31L446.74 187.76L446.46 188.19L446.16 188.61L445.85 189.01L445.53 189.41L445.18 189.79L444.83 190.16L444.46 190.51L444.08 190.85L443.69 191.18L443.28 191.49L442.86 191.79L442.43 192.06L441.99 192.33L441.53 192.57L441.07 192.8L440.6 193.01L440.11 193.21L439.62 193.38L439.12 193.54L438.61 193.67L438.1 193.79L437.57 193.89L437.04 193.96L436.5 194.02L435.96 194.05L435.41 194.06L420.72 194.06L421.26 194.82L421.78 195.59L422.29 196.37L422.8 197.16L423.29 197.95L423.77 198.75L424.24 199.56L424.7 200.38L425.14 201.2L425.57 202.03L425.99 202.87L426.4 203.72L426.8 204.57L427.19 205.43L427.56 206.29L427.92 207.16L428.26 208.04L428.6 208.93L428.92 209.82L429.23 210.71L429.52 211.62L429.8 212.52L430.07 213.44L430.32 214.36L430.56 215.28L430.79 216.21L431 217.15L431.2 218.09L431.39 219.03L431.56 219.98L431.71 220.94L431.86 221.9L431.98 222.86L432.09 223.83L432.19 224.8L432.27 225.78L432.34 226.76L432.39 227.75L432.43 228.74L432.45 229.73L432.56 237.48L432.66 244.85L432.76 251.85L432.85 258.47L432.93 264.74L433.02 270.66L433.09 276.24L433.17 281.5L433.23 286.44L433.3 291.07L433.36 295.4L433.41 299.45L433.46 303.22L433.51 306.72L433.56 309.96L433.6 312.95L433.64 315.71L433.67 318.24L433.7 320.55L433.73 322.65L433.76 324.56L433.78 326.27L433.8 327.81L433.82 329.18L433.84 330.39L433.85 331.45L433.86 332.37L433.87 333.16L433.88 333.84L433.89 334.4L433.9 334.87L433.9 335.24L433.9 335.54L433.91 335.77L433.91 335.94L433.91 336.06L433.91 336.14L433.91 336.19L433.91 336.22L433.91 336.24L433.87 338.59L433.78 340.91L433.65 343.22L433.48 345.52L433.26 347.79L432.99 350.05L432.68 352.29L432.32 354.5L431.92 356.7L431.48 358.88L430.99 361.04L430.45 363.18L429.88 365.3L429.26 367.39L428.59 369.47L427.88 371.53L427.13 373.56L426.33 375.57L425.49 377.56L424.61 379.53L423.68 381.47L422.71 383.4L421.7 385.29L420.65 387.17L419.55 389.02L418.41 390.85L417.23 392.65L416 394.43L414.74 396.18L413.43 397.91L412.08 399.61L410.69 401.29L409.25 402.94L407.78 404.56L406.26 406.16L404.7 407.73L403.11 409.28L401.47 410.8L399.79 412.29L398.06 413.75L397.99 413.8L397.93 413.86L397.86 413.92L397.79 413.98L397.72 414.03L397.65 414.09L397.58 414.15L397.51 414.2L397.44 414.26L397.37 414.32L397.3 414.38L397.23 414.43L397.16 414.49L397.09 414.55L397.02 414.6L396.95 414.66L396.88 414.72L396.81 414.77L396.74 414.83L396.67 414.89L396.6 414.94L396.53 415L396.46 415.05L396.39 415.11L396.32 415.17L396.25 415.22L396.18 415.28L396.11 415.34L396.04 415.39L395.97 415.45L395.89 415.5L395.82 415.56L395.75 415.62L395.68 415.67L395.61 415.73L395.54 415.78L395.47 415.84L395.4 415.89L395.33 415.95L395.25 416L396.82 416.43L398.36 416.91L399.88 417.44L401.37 418.01L402.84 418.63L404.29 419.3L405.71 420.02L407.1 420.78L408.47 421.58L409.81 422.43L411.11 423.32L412.39 424.25L413.63 425.21L414.85 426.22L416.02 427.27L417.17 428.35L418.28 429.47L419.35 430.63L420.38 431.82L421.38 433.04L422.34 434.29L423.25 435.58L424.13 436.9L424.96 438.24L425.75 439.62L426.49 441.02L427.2 442.45L427.85 443.9L428.46 445.38L429.02 446.89L429.53 448.41L429.99 449.96L430.4 451.53L430.76 453.12L431.07 454.73L431.32 456.35L431.52 458L431.66 459.66L431.75 461.33L431.78 463.02L431.78 668.49L431.76 669.04L431.73 669.58L431.68 670.12L431.6 670.65L431.51 671.17L431.39 671.69L431.25 672.2L431.1 672.7L430.92 673.19L430.73 673.67L430.52 674.15L430.29 674.61L430.04 675.06L429.78 675.5L429.5 675.94L429.21 676.35L428.9 676.76L428.57 677.16L428.23 677.54L427.87 677.91L427.51 678.26L427.12 678.6L426.73 678.93L426.32 679.24L425.9 679.53L425.47 679.81L425.03 680.07L424.58 680.32L424.11 680.55L423.64 680.76L423.16 680.95L422.67 681.13L422.17 681.28L421.66 681.42L421.14 681.54L420.62 681.63L420.09 681.71L419.55 681.76L419 681.8L418.46 681.81L63.57 681.81L63.02 681.8L62.48 681.76L61.94 681.71L61.41 681.63L60.89 681.54L60.37 681.42L59.86 681.28L59.36 681.13L58.87 680.95L58.39 680.76L57.91 680.55L57.45 680.32L57 680.07L56.56 679.81L56.13 679.53L55.71 679.24L55.3 678.93L54.9 678.6L54.52 678.26L54.15 677.91L53.8 677.54L53.46 677.16L53.13 676.76L52.82 676.35L52.53 675.94L52.25 675.5L51.99 675.06L51.74 674.61L51.51 674.15L51.3 673.67L51.11 673.19L50.93 672.7L50.78 672.2L50.64 671.69L50.52 671.17L50.43 670.65L50.35 670.12L50.3 669.58L50.26 669.04L50.25 668.49L50.25 463.03L50.28 461.33L50.37 459.66L50.51 457.99L50.71 456.35L50.96 454.72L51.27 453.11L51.63 451.51L52.04 449.94L52.51 448.39L53.02 446.86L53.58 445.36L54.19 443.87L54.85 442.42L55.55 440.99L56.3 439.58L57.09 438.2L57.93 436.86L58.81 435.54L59.73 434.25L60.69 432.99L61.69 431.77L62.72 430.58L63.8 429.43L64.91 428.31L66.06 427.22L67.24 426.17L68.46 425.17L69.7 424.2L70.99 423.27L72.3 422.38L73.64 421.53L75.01 420.73L76.41 419.97L77.83 419.26L79.28 418.59L80.76 417.97L82.26 417.4L83.78 416.87L85.33 416.4L86.89 415.97L86.82 415.91L86.74 415.85L86.66 415.79L86.58 415.73L86.5 415.67L86.42 415.6L86.34 415.54L86.26 415.48L86.18 415.42L86.1 415.36L86.03 415.3L85.95 415.23L85.87 415.17L85.79 415.11L85.71 415.05L85.63 414.99L85.55 414.92L85.48 414.86L85.4 414.8L85.32 414.74L85.24 414.67L85.16 414.61L85.09 414.55L85.01 414.49L84.93 414.42L84.85 414.36L84.77 414.3L84.7 414.23L84.62 414.17L84.54 414.11L84.46 414.04L84.39 413.98L84.31 413.92L84.23 413.85L84.16 413.79L84.08 413.73L84 413.66L83.93 413.6L83.85 413.53L83.77 413.47L82.06 412.01L80.39 410.52L78.75 409.01L77.16 407.46L75.61 405.89L74.1 404.3L72.63 402.67L71.21 401.02L69.82 399.35L68.48 397.65L67.18 395.92L65.92 394.17L64.7 392.4L63.52 390.6L62.39 388.77L61.3 386.93L60.25 385.05L59.24 383.16L58.28 381.24L57.35 379.3L56.48 377.33L55.64 375.35L54.85 373.34L54.1 371.31L53.4 369.26L52.73 367.19L52.12 365.09L51.54 362.98L51.01 360.84L50.53 358.69L50.09 356.51L49.69 354.32L49.34 352.1L49.03 349.87L48.76 347.62L48.54 345.35L48.37 343.06L48.24 340.75L48.16 338.43L48.12 336.09L48.12 336.07L48.12 336.04L48.12 335.99L48.12 335.92L48.12 335.8L48.12 335.63L48.13 335.41L48.13 335.11L48.14 334.73L48.14 334.27L48.15 333.7L48.16 333.03L48.17 332.24L48.18 331.31L48.2 330.25L48.21 329.04L48.23 327.67L48.25 326.13L48.27 324.41L48.3 322.51L48.33 320.4L48.36 318.08L48.4 315.55L48.43 312.79L48.47 309.79L48.52 306.54L48.57 303.03L48.62 299.25L48.67 295.19L48.73 290.85L48.8 286.21L48.87 281.25L48.94 275.99L49.02 270.39L49.1 264.45L49.18 258.17L49.28 251.52L49.37 244.51L49.47 237.13L49.58 229.35L49.6 228.37L49.64 227.39L49.69 226.42L49.76 225.45L49.84 224.48L49.93 223.52L50.05 222.56L50.17 221.61L50.31 220.66L50.46 219.72L50.63 218.78L50.81 217.84L51.01 216.91L51.22 215.99L51.44 215.07L51.68 214.15L51.93 213.24L52.19 212.34L52.47 211.44L52.76 210.55L53.06 209.66L53.38 208.78L53.71 207.91L54.05 207.04L54.4 206.18L54.77 205.32L55.14 204.47L55.54 203.63L55.94 202.79L56.35 201.96L56.78 201.14L57.22 200.32L57.67 199.51L58.13 198.71L58.6 197.92L59.09 197.13L59.58 196.35L60.09 195.58L60.6 194.82L61.13 194.06L46.62 194.06L46.07 194.05L45.53 194.02L44.99 193.96L44.46 193.89L43.94 193.79L43.42 193.67L42.91 193.54L42.41 193.38L41.92 193.21L41.44 193.01L40.96 192.8L40.5 192.57L40.05 192.33L39.6 192.06L39.17 191.79L38.75 191.49L38.35 191.18L37.95 190.85L37.57 190.51L37.2 190.16L36.85 189.79L36.51 189.41L36.18 189.01L35.87 188.61L35.58 188.19L35.3 187.76L35.03 187.31L34.79 186.86L34.56 186.4L34.35 185.93L34.15 185.44L33.98 184.95L33.82 184.45L33.69 183.94L33.57 183.42L33.48 182.9L33.4 182.37L33.34 181.83L33.31 181.29L33.3 180.74L33.31 180.19L33.34 179.65L33.4 179.11L33.48 178.58L33.57 178.06L33.69 177.54L33.82 177.03L33.98 176.53L34.15 176.04L34.35 175.55L34.56 175.08L34.79 174.62L35.03 174.17L35.3 173.72L35.58 173.29L35.87 172.87L36.18 172.47L36.51 172.07L36.85 171.69L37.2 171.32L37.57 170.97L37.95 170.63L38.35 170.3L38.75 169.99L39.17 169.69L39.6 169.42L40.05 169.15L40.5 168.91L40.96 168.68L41.44 168.47L41.92 168.27L42.41 168.1L42.91 167.94L43.42 167.81L43.94 167.69L44.46 167.59L44.99 167.52L45.53 167.46L46.07 167.43L46.62 167.42L70.28 167.42L70.55 160.51L71.1 153.67L71.91 146.9L72.98 140.22L74.31 133.63L75.9 127.13L77.72 120.74L79.79 114.44L82.1 108.26L84.63 102.19L87.39 96.23L90.36 90.41L93.55 84.72L96.95 79.16L100.56 73.74L104.36 68.47L108.35 63.36L112.53 58.4L116.89 53.6L121.43 48.98L126.14 44.52L131.01 40.25L136.05 36.16L141.24 32.26L146.58 28.55L152.06 25.05L157.69 21.75L163.44 18.66L169.33 15.78L175.34 13.13L181.46 10.71L187.7 8.52L194.05 6.57L200.5 4.86L207.04 3.39L213.67 2.19L220.39 1.24L227.19 0.55L234.07 0.14L241.01 0L247.96 0.14L254.84 0.55ZM332.26 493.15L332.25 493.53L332.24 493.9L332.21 494.28L332.18 494.64L332.13 495.01L332.07 495.38L332.01 495.74L331.93 496.1L331.84 496.46L331.75 496.81L331.64 497.16L331.53 497.51L331.4 497.85L331.27 498.19L331.13 498.52L330.98 498.85L330.82 499.18L330.65 499.5L330.47 499.82L330.29 500.13L330.09 500.43L329.89 500.74L329.68 501.03L329.46 501.32L329.24 501.6L329 501.88L328.76 502.15L328.51 502.42L328.25 502.68L327.99 502.93L327.71 503.17L327.44 503.41L327.15 503.64L326.86 503.87L326.55 504.08L326.25 504.29L325.93 504.49L325.61 504.68L325.29 504.86L324.95 505.04L324.81 505.11L324.67 505.18L324.52 505.25L324.38 505.31L324.23 505.38L324.09 505.44L323.94 505.5L323.8 505.56L323.65 505.61L323.5 505.67L323.35 505.72L323.21 505.77L323.06 505.82L322.91 505.87L322.76 505.91L322.61 505.96L322.46 506L322.31 506.04L322.16 506.08L322 506.12L321.85 506.15L321.7 506.18L321.55 506.22L321.4 506.25L321.25 506.27L321.09 506.3L320.94 506.32L320.79 506.35L320.63 506.37L320.48 506.38L320.33 506.4L320.17 506.42L320.02 506.43L319.87 506.44L319.71 506.45L319.56 506.46L319.4 506.47L319.25 506.47L319.1 506.47L318.94 506.47L318.73 506.47L318.53 506.47L318.32 506.46L318.11 506.45L317.9 506.43L317.69 506.41L317.48 506.39L317.28 506.37L317.07 506.34L316.86 506.31L316.65 506.28L316.45 506.24L316.24 506.2L316.04 506.15L315.83 506.11L315.63 506.06L315.43 506L315.23 505.95L315.03 505.89L314.83 505.82L314.63 505.76L314.43 505.69L314.23 505.61L314.03 505.54L313.84 505.46L313.64 505.38L313.45 505.29L313.26 505.2L313.06 505.11L312.87 505.01L312.69 504.92L312.5 504.81L312.31 504.71L312.13 504.6L311.94 504.49L311.76 504.38L311.58 504.26L311.4 504.14L311.23 504.01L311.05 503.89L241.01 452.4L170.98 503.89L170.67 504.11L170.36 504.32L170.05 504.51L169.73 504.7L169.4 504.88L169.07 505.06L168.74 505.22L168.41 505.37L168.07 505.51L167.73 505.64L167.38 505.76L167.04 505.88L166.69 505.98L166.34 506.07L165.98 506.16L165.63 506.23L165.27 506.3L164.91 506.35L164.55 506.39L164.19 506.43L163.83 506.45L163.46 506.47L163.1 506.47L162.74 506.47L162.38 506.46L162.01 506.43L161.65 506.4L161.29 506.35L160.93 506.3L160.57 506.23L160.21 506.16L159.85 506.07L159.5 505.98L159.14 505.88L158.79 505.76L158.44 505.64L158.1 505.5L157.75 505.36L157.41 505.2L157.08 505.04L156.74 504.86L156.42 504.68L156.1 504.49L155.78 504.29L155.48 504.08L155.18 503.87L154.88 503.64L154.6 503.41L154.32 503.17L154.04 502.93L153.78 502.68L153.52 502.42L153.27 502.15L153.03 501.88L152.8 501.6L152.57 501.32L152.35 501.03L152.14 500.74L151.94 500.43L151.74 500.13L151.56 499.82L151.38 499.5L151.21 499.18L151.05 498.85L150.9 498.52L150.76 498.19L150.63 497.85L150.5 497.51L150.39 497.16L150.28 496.81L150.19 496.46L150.1 496.1L150.02 495.74L149.96 495.38L149.9 495.01L149.85 494.64L149.82 494.28L149.79 493.9L149.78 493.53L149.77 493.15L149.77 441.14L98.78 441.14L97.88 441.16L96.99 441.21L96.1 441.3L95.23 441.43L94.37 441.59L93.53 441.78L92.69 442L91.87 442.26L91.06 442.55L90.27 442.86L89.49 443.21L88.73 443.59L87.99 443.99L87.26 444.43L86.55 444.88L85.86 445.37L85.19 445.88L84.54 446.42L83.92 446.98L83.31 447.56L82.73 448.16L82.17 448.79L81.63 449.44L81.12 450.11L80.64 450.8L80.18 451.51L79.74 452.23L79.34 452.98L78.96 453.74L78.62 454.51L78.3 455.31L78.01 456.11L77.76 456.94L77.53 457.77L77.34 458.62L77.18 459.48L77.06 460.35L76.97 461.23L76.91 462.12L76.89 463.02L76.89 488.42L114.17 488.42L114.72 488.43L115.26 488.46L115.8 488.52L116.33 488.59L116.85 488.69L117.37 488.81L117.88 488.94L118.38 489.1L118.87 489.27L119.35 489.47L119.83 489.68L120.29 489.91L120.74 490.15L121.19 490.41L121.62 490.69L122.04 490.99L122.44 491.3L122.84 491.62L123.22 491.96L123.59 492.32L123.94 492.69L124.28 493.07L124.61 493.46L124.92 493.87L125.22 494.29L125.49 494.72L125.76 495.16L126 495.62L126.23 496.08L126.44 496.55L126.64 497.04L126.81 497.53L126.97 498.03L127.1 498.54L127.22 499.05L127.32 499.58L127.39 500.11L127.45 500.65L127.48 501.19L127.49 501.74L127.49 655.17L354.54 655.17L354.54 501.74L354.56 501.19L354.59 500.65L354.64 500.11L354.72 499.58L354.81 499.05L354.93 498.54L355.07 498.03L355.22 497.53L355.4 497.04L355.59 496.55L355.8 496.08L356.03 495.62L356.28 495.16L356.54 494.72L356.82 494.29L357.11 493.87L357.42 493.46L357.75 493.07L358.09 492.69L358.45 492.32L358.81 491.96L359.2 491.62L359.59 491.3L360 490.99L360.42 490.69L360.85 490.41L361.29 490.15L361.74 489.91L362.21 489.68L362.68 489.47L363.16 489.27L363.65 489.1L364.15 488.94L364.66 488.81L365.18 488.69L365.7 488.59L366.23 488.52L366.77 488.46L367.32 488.43L367.86 488.42L405.14 488.42L405.14 463.02L405.12 462.12L405.06 461.23L404.97 460.35L404.85 459.48L404.69 458.62L404.5 457.77L404.27 456.94L404.02 456.11L403.73 455.31L403.41 454.51L403.07 453.74L402.69 452.98L402.29 452.23L401.85 451.51L401.39 450.8L400.91 450.11L400.4 449.44L399.86 448.79L399.3 448.16L398.72 447.56L398.11 446.98L397.49 446.42L396.84 445.88L396.17 445.37L395.48 444.88L394.77 444.43L394.05 443.99L393.3 443.59L392.54 443.21L391.76 442.86L390.97 442.55L390.16 442.26L389.34 442L388.51 441.78L387.66 441.59L386.8 441.43L385.93 441.3L385.05 441.21L384.16 441.16L383.26 441.14L332.26 441.14L332.26 493.15ZM76.89 655.17L100.85 655.17L100.85 515.06L76.89 515.06L76.89 655.17ZM381.18 655.17L405.14 655.17L405.14 515.06L381.18 515.06L381.18 655.17ZM305.62 466.83L305.62 441.19L270.75 441.19L305.62 466.83ZM176.41 466.83L211.28 441.19L176.41 441.19L176.41 466.83ZM125.88 266.69L125.93 271.38L126.11 275.98L126.39 280.48L126.79 284.88L127.31 289.17L127.94 293.38L128.69 297.48L129.55 301.48L130.53 305.39L131.63 309.19L132.84 312.9L134.16 316.51L135.61 320.03L137.17 323.44L138.84 326.76L140.63 329.99L142.54 333.11L144.57 336.14L146.72 339.08L148.98 341.92L151.36 344.66L153.86 347.3L156.47 349.86L159.21 352.31L162.06 354.67L165.03 356.94L168.12 359.11L171.33 361.19L174.66 363.17L178.1 365.06L181.67 366.85L185.35 368.55L189.16 370.16L193.09 371.67L197.13 373.1L201.3 374.42L205.58 375.66L209.99 376.8L214.51 377.85L219.16 378.81L219.68 378.92L220.2 379.06L220.7 379.21L221.2 379.38L221.68 379.56L222.16 379.77L222.62 379.99L223.07 380.23L223.51 380.49L223.94 380.76L224.36 381.04L224.77 381.34L225.16 381.66L225.54 381.99L225.9 382.33L226.26 382.69L226.6 383.06L226.92 383.44L227.23 383.83L227.52 384.24L227.8 384.65L228.07 385.07L228.32 385.51L228.55 385.95L228.76 386.41L228.96 386.87L229.14 387.34L229.31 387.81L229.45 388.3L229.58 388.79L229.69 389.28L229.78 389.78L229.85 390.29L229.9 390.8L229.93 391.32L229.95 391.84L229.94 392.36L229.91 392.89L229.86 393.41L229.79 393.94L226.58 414.5L255.46 414.5L252.25 393.94L252.18 393.41L252.13 392.89L252.1 392.36L252.09 391.84L252.1 391.32L252.13 390.8L252.19 390.29L252.26 389.78L252.35 389.28L252.46 388.79L252.58 388.3L252.73 387.81L252.89 387.34L253.07 386.87L253.27 386.41L253.49 385.95L253.72 385.51L253.97 385.07L254.23 384.65L254.51 384.24L254.81 383.83L255.12 383.44L255.44 383.06L255.78 382.69L256.13 382.33L256.5 381.99L256.88 381.66L257.27 381.34L257.68 381.04L258.09 380.76L258.52 380.49L258.97 380.23L259.42 379.99L259.88 379.77L260.36 379.56L260.84 379.38L261.34 379.21L261.84 379.06L262.36 378.92L262.88 378.81L267.32 377.9L271.65 376.9L275.87 375.82L279.97 374.65L283.97 373.4L287.86 372.07L291.64 370.65L295.32 369.15L298.88 367.56L302.33 365.88L305.68 364.12L308.91 362.28L312.04 360.34L315.06 358.33L317.97 356.22L320.77 354.03L323.47 351.76L326.05 349.39L328.53 346.94L330.9 344.41L333.17 341.78L335.32 339.07L337.37 336.27L339.32 333.38L341.15 330.41L342.88 327.35L344.5 324.2L346.02 320.96L347.43 317.63L348.74 314.21L349.93 310.71L351.03 307.11L352.01 303.43L352.89 299.66L353.67 295.79L354.34 291.84L354.9 287.8L355.36 283.67L355.72 279.45L355.97 275.13L355.97 194.06L125.88 194.06L125.88 266.69ZM382.57 313.66L382.45 317.51L382.25 321.29L381.98 324.99L381.64 328.61L381.22 332.16L380.74 335.63L380.18 339.02L379.56 342.34L378.88 345.58L378.14 348.75L377.34 351.85L376.48 354.87L375.56 357.83L374.59 360.71L373.57 363.53L372.5 366.28L371.38 368.96L370.21 371.57L369 374.12L367.75 376.6L366.46 379.02L365.13 381.37L363.77 383.66L362.37 385.89L360.94 388.06L359.48 390.16L357.99 392.21L356.47 394.2L354.93 396.13L353.37 398.01L351.79 399.82L350.19 401.59L348.57 403.29L346.94 404.95L345.29 406.55L343.64 408.09L341.97 409.59L340.3 411.03L338.63 412.43L341.36 411.87L344.08 411.25L346.77 410.57L349.44 409.82L352.08 409L354.68 408.11L357.26 407.16L359.79 406.14L362.29 405.05L364.75 403.89L367.16 402.67L369.53 401.38L371.85 400.02L374.12 398.59L376.34 397.09L378.5 395.52L380.6 393.88L382.65 392.17L384.63 390.38L386.54 388.53L388.39 386.61L390.16 384.61L391.87 382.55L393.49 380.41L395.04 378.2L396.51 375.91L397.9 373.56L399.2 371.13L400.41 368.62L401.54 366.04L402.57 363.39L403.5 360.66L404.34 357.86L405.08 354.98L405.72 352.03L406.25 349L406.67 345.89L406.99 342.71L407.19 339.45L407.27 336.12L407.27 335.88L407.27 335.51L407.26 335.01L407.25 334.37L407.24 333.61L407.23 332.72L407.21 331.7L407.2 330.55L407.18 329.28L407.16 327.88L407.14 326.35L407.12 324.7L407.09 322.92L407.07 321.02L407.04 319L407.01 316.85L406.98 314.58L406.95 312.19L406.91 309.68L406.88 307.05L406.84 304.3L406.8 301.43L406.76 298.44L406.71 295.33L406.67 292.1L406.62 288.76L406.58 285.31L406.53 281.73L406.48 278.05L406.42 274.25L406.37 270.33L406.32 266.3L406.26 262.16L406.2 257.91L406.14 253.55L406.08 249.08L406.02 244.49L405.95 239.8L405.88 235L405.82 230.09L405.78 228.96L405.72 227.84L405.62 226.73L405.48 225.63L405.31 224.54L405.11 223.46L404.88 222.39L404.62 221.33L404.33 220.28L404 219.25L403.65 218.23L403.26 217.22L402.85 216.23L402.41 215.25L401.95 214.29L401.45 213.34L400.93 212.41L400.38 211.5L399.81 210.6L399.21 209.72L398.59 208.86L397.94 208.02L397.27 207.2L396.58 206.39L395.87 205.61L395.13 204.85L394.37 204.11L393.59 203.39L392.79 202.7L391.97 202.02L391.13 201.37L390.27 200.75L389.4 200.15L388.5 199.57L387.59 199.02L386.67 198.5L385.72 198L384.76 197.53L383.79 197.09L382.8 196.67L382.61 309.72L382.57 313.66ZM145.72 377.74L147.57 380.1L149.47 382.36L151.42 384.51L153.4 386.57L155.42 388.53L157.47 390.4L159.54 392.17L161.64 393.86L163.76 395.46L165.89 396.98L168.03 398.41L170.18 399.77L172.33 401.05L174.47 402.25L176.6 403.38L178.73 404.44L180.83 405.43L182.91 406.35L184.97 407.21L187 408.01L189 408.75L190.95 409.43L192.86 410.06L194.73 410.63L196.54 411.15L198.3 411.63L199.99 412.06L201.54 402.14L199.09 401.49L196.66 400.81L194.27 400.11L191.9 399.38L189.56 398.62L187.25 397.84L184.97 397.03L182.72 396.2L180.49 395.34L178.3 394.45L176.14 393.54L174 392.6L171.89 391.63L169.82 390.64L167.77 389.63L165.75 388.58L163.76 387.52L161.8 386.42L159.87 385.3L157.97 384.16L156.1 382.99L154.25 381.79L152.44 380.57L150.66 379.33L148.91 378.05L147.18 376.76L145.49 375.43L143.82 374.09L142.19 372.71L143.93 375.28L145.72 377.74ZM97.1 197.47L96.15 197.94L95.21 198.43L94.29 198.95L93.39 199.49L92.5 200.06L91.64 200.66L90.79 201.28L89.95 201.92L89.14 202.58L88.35 203.27L87.57 203.98L86.82 204.72L86.09 205.47L85.38 206.24L84.7 207.04L84.03 207.85L83.39 208.69L82.77 209.54L82.18 210.41L81.61 211.3L81.07 212.2L80.55 213.12L80.06 214.06L79.6 215.01L79.16 215.98L78.75 216.97L78.37 217.96L78.02 218.97L77.7 220L77.41 221.04L77.15 222.08L76.92 223.14L76.72 224.21L76.56 225.3L76.42 226.39L76.32 227.49L76.26 228.6L76.22 229.72L76.15 234.64L76.09 239.46L76.02 244.17L75.96 248.76L75.9 253.25L75.84 257.63L75.78 261.89L75.72 266.04L75.67 270.08L75.61 274.01L75.56 277.82L75.51 281.52L75.46 285.1L75.41 288.57L75.37 291.92L75.32 295.15L75.28 298.27L75.24 301.27L75.2 304.14L75.16 306.9L75.12 309.54L75.09 312.06L75.06 314.46L75.02 316.73L75 318.88L74.97 320.91L74.94 322.81L74.92 324.59L74.89 326.25L74.87 327.78L74.85 329.18L74.84 330.46L74.82 331.61L74.81 332.63L74.79 333.52L74.78 334.28L74.78 334.91L74.77 335.41L74.76 335.78L74.76 336.02L74.84 339.29L75.04 342.49L75.34 345.62L75.75 348.67L76.26 351.65L76.88 354.56L77.59 357.39L78.41 360.15L79.31 362.84L80.31 365.46L81.4 368L82.58 370.47L83.84 372.88L85.19 375.21L86.61 377.47L88.12 379.66L89.7 381.78L91.35 383.84L93.07 385.82L94.87 387.73L96.73 389.58L98.65 391.35L100.64 393.06L102.68 394.7L104.79 396.27L106.94 397.78L109.15 399.22L111.41 400.59L113.72 401.89L116.07 403.13L118.47 404.3L120.91 405.41L123.38 406.45L125.89 407.43L128.43 408.34L131.01 409.19L133.61 409.97L136.24 410.69L138.9 411.34L141.58 411.94L139.94 410.54L138.31 409.09L136.69 407.59L135.08 406.03L133.48 404.43L131.89 402.78L130.32 401.07L128.77 399.31L127.23 397.49L125.72 395.62L124.23 393.69L122.76 391.7L121.32 389.66L119.91 387.56L118.52 385.4L117.17 383.17L115.85 380.89L114.57 378.55L113.33 376.14L112.12 373.67L110.96 371.13L109.84 368.53L108.76 365.87L107.73 363.13L106.75 360.33L105.81 357.47L104.93 354.53L104.11 351.52L103.34 348.45L102.62 345.3L101.97 342.08L101.38 338.78L100.85 335.42L100.38 331.97L99.98 328.46L99.65 324.87L99.39 321.2L99.2 317.45L99.09 313.62L99.05 309.72L99.05 196.63L98.07 197.04L97.1 197.47ZM334.55 376.99L332.83 378.27L331.09 379.53L329.31 380.76L327.51 381.97L325.67 383.16L323.81 384.32L321.92 385.45L320 386.56L318.05 387.64L316.07 388.7L314.06 389.73L312.02 390.74L309.96 391.72L307.86 392.68L305.74 393.61L303.59 394.51L301.41 395.39L299.2 396.24L296.96 397.07L294.69 397.87L292.4 398.65L290.07 399.4L287.72 400.12L285.34 400.82L282.93 401.49L280.5 402.14L282 411.72L283.7 411.26L285.47 410.75L287.28 410.19L289.15 409.59L291.07 408.92L293.03 408.21L295.02 407.44L297.05 406.61L299.11 405.71L301.19 404.76L303.29 403.74L305.4 402.65L307.53 401.49L309.67 400.26L311.81 398.96L313.94 397.58L316.07 396.12L318.19 394.59L320.3 392.97L322.39 391.26L324.45 389.47L326.49 387.6L328.5 385.63L330.47 383.56L332.4 381.41L334.28 379.15L336.12 376.8L337.9 374.34L336.24 375.68L334.55 376.99ZM229.38 27.11L223.65 27.68L217.99 28.48L212.4 29.49L206.89 30.72L201.46 32.16L196.11 33.8L190.86 35.64L185.7 37.68L180.64 39.91L175.68 42.32L170.83 44.92L166.09 47.69L161.46 50.64L156.96 53.75L152.59 57.03L148.34 60.47L144.23 64.06L140.26 67.81L136.43 71.7L132.75 75.73L129.22 79.9L125.85 84.2L122.64 88.63L119.6 93.18L116.73 97.86L114.03 102.64L111.51 107.54L109.18 112.55L107.03 117.65L105.08 122.85L103.32 128.15L101.77 133.53L100.42 139L99.28 144.54L98.36 150.16L97.65 155.85L97.18 161.6L96.93 167.42L385.11 167.42L384.86 161.6L384.38 155.85L383.68 150.16L382.75 144.54L381.62 139L380.27 133.53L378.71 128.15L376.96 122.85L375 117.65L372.86 112.55L370.52 107.54L368 102.64L365.31 97.86L362.43 93.18L359.39 88.63L356.18 84.2L352.81 79.9L349.28 75.73L345.6 71.7L341.77 67.81L337.8 64.06L333.69 60.47L329.45 57.03L325.07 53.75L320.57 50.64L315.95 47.69L311.21 44.92L306.36 42.32L301.4 39.91L296.33 37.68L291.17 35.64L285.92 33.8L280.57 32.16L275.14 30.72L269.63 29.49L264.04 28.48L258.38 27.68L252.65 27.11L246.86 26.76L241.01 26.64L235.17 26.76L229.38 27.11Z" id="erEli6YbC"></path><path d="M492.01 141.66L492.36 141.69L492.7 141.72L493.03 141.76L493.37 141.81L493.71 141.87L494.05 141.94L494.38 142.02L494.71 142.1L495.05 142.2L495.37 142.3L495.7 142.41L496.03 142.53L496.35 142.66L496.67 142.8L496.99 142.95L497.3 143.11L497.61 143.27L642.28 222.33L642.6 222.51L642.91 222.7L643.21 222.9L643.51 223.1L643.8 223.31L644.09 223.53L644.37 223.75L644.64 223.98L644.91 224.22L645.16 224.46L645.42 224.71L645.66 224.97L645.9 225.23L646.13 225.5L646.35 225.78L646.56 226.06L646.77 226.34L646.97 226.63L647.16 226.93L647.35 227.23L647.52 227.54L647.69 227.85L647.85 228.16L648 228.48L648.14 228.8L648.28 229.13L648.4 229.46L648.52 229.79L648.63 230.13L648.73 230.47L648.82 230.82L648.9 231.16L648.97 231.51L649.04 231.87L649.09 232.22L649.13 232.58L649.17 232.94L649.19 233.3L649.21 233.66L649.21 234.03L649.21 234.39L649.19 234.75L649.17 235.12L649.14 235.47L649.09 235.83L649.04 236.19L648.98 236.54L648.9 236.89L648.82 237.24L648.73 237.58L648.63 237.92L648.52 238.26L648.41 238.59L648.28 238.92L648.15 239.25L648 239.57L647.85 239.89L647.69 240.21L647.53 240.52L647.35 240.82L647.17 241.12L646.97 241.42L646.77 241.71L646.57 242L646.35 242.28L646.13 242.55L645.9 242.82L645.66 243.08L645.42 243.34L645.17 243.59L644.91 243.83L644.64 244.07L644.37 244.3L644.09 244.53L643.8 244.74L643.51 244.95L643.21 245.16L642.91 245.35L642.6 245.54L642.28 245.72L548.35 297.05L548.35 372.47L548.34 373.02L548.31 373.57L548.25 374.1L548.17 374.64L548.08 375.16L547.96 375.68L547.83 376.18L547.67 376.68L547.5 377.18L547.3 377.66L547.09 378.13L546.86 378.6L546.62 379.05L546.35 379.49L546.07 379.92L545.78 380.34L545.47 380.75L545.14 381.14L544.8 381.53L544.45 381.89L544.08 382.25L543.7 382.59L543.3 382.91L542.89 383.22L542.47 383.52L542.04 383.8L541.6 384.06L541.15 384.31L540.69 384.54L540.21 384.75L539.73 384.94L539.24 385.12L538.74 385.27L538.23 385.41L537.71 385.52L537.19 385.62L536.66 385.7L536.12 385.75L535.58 385.78L535.03 385.79L534.48 385.78L533.94 385.75L533.4 385.7L532.87 385.62L532.34 385.52L531.83 385.41L531.32 385.27L530.82 385.12L530.33 384.94L529.84 384.75L529.37 384.54L528.91 384.31L528.45 384.06L528.01 383.8L527.58 383.52L527.16 383.22L526.75 382.91L526.36 382.59L525.98 382.25L525.61 381.89L525.26 381.53L524.91 381.14L524.59 380.75L524.28 380.34L523.98 379.92L523.7 379.49L523.44 379.05L523.2 378.6L522.97 378.13L522.76 377.66L522.56 377.18L522.39 376.68L522.23 376.18L522.1 375.68L521.98 375.16L521.88 374.64L521.81 374.1L521.75 373.57L521.72 373.02L521.71 372.47L521.71 311.61L504.54 320.99L504.54 655.36L521.71 655.36L521.71 500.22L521.72 499.67L521.75 499.13L521.81 498.59L521.88 498.06L521.98 497.53L522.1 497.02L522.23 496.51L522.39 496.01L522.56 495.52L522.76 495.03L522.97 494.56L523.2 494.1L523.44 493.64L523.7 493.2L523.98 492.77L524.28 492.35L524.59 491.95L524.91 491.55L525.26 491.17L525.61 490.8L525.98 490.45L526.36 490.11L526.75 489.78L527.16 489.47L527.58 489.17L528.01 488.89L528.45 488.63L528.91 488.39L529.37 488.16L529.84 487.95L530.33 487.75L530.82 487.58L531.32 487.42L531.83 487.29L532.34 487.17L532.87 487.07L533.4 487L533.94 486.94L534.48 486.91L535.03 486.9L535.58 486.91L536.12 486.94L536.66 487L537.19 487.07L537.71 487.17L538.23 487.29L538.74 487.42L539.24 487.58L539.73 487.75L540.21 487.95L540.69 488.16L541.15 488.39L541.6 488.63L542.04 488.89L542.47 489.17L542.89 489.47L543.3 489.78L543.7 490.11L544.08 490.45L544.45 490.8L544.8 491.17L545.14 491.55L545.47 491.95L545.78 492.35L546.07 492.77L546.35 493.2L546.62 493.64L546.86 494.1L547.09 494.56L547.3 495.03L547.5 495.52L547.67 496.01L547.83 496.51L547.96 497.02L548.08 497.53L548.17 498.06L548.25 498.59L548.31 499.13L548.34 499.67L548.35 500.22L548.35 668.68L548.34 669.23L548.31 669.77L548.25 670.31L548.17 670.84L548.08 671.36L547.96 671.88L547.83 672.39L547.67 672.89L547.5 673.38L547.3 673.86L547.09 674.34L546.86 674.8L546.62 675.25L546.35 675.7L546.07 676.13L545.78 676.55L545.47 676.95L545.14 677.35L544.8 677.73L544.45 678.1L544.08 678.45L543.7 678.79L543.3 679.12L542.89 679.43L542.47 679.73L542.04 680L541.6 680.27L541.15 680.51L540.69 680.74L540.21 680.95L539.73 681.15L539.24 681.32L538.74 681.48L538.23 681.61L537.71 681.73L537.19 681.83L536.66 681.9L536.12 681.96L535.58 681.99L535.03 682L491.22 682L490.67 681.99L490.13 681.96L489.59 681.9L489.06 681.83L488.54 681.73L488.02 681.61L487.51 681.48L487.01 681.32L486.52 681.15L486.04 680.95L485.57 680.74L485.1 680.51L484.65 680.27L484.21 680L483.78 679.73L483.36 679.43L482.95 679.12L482.56 678.79L482.17 678.45L481.81 678.1L481.45 677.73L481.11 677.35L480.78 676.95L480.47 676.55L480.18 676.13L479.9 675.7L479.64 675.25L479.39 674.8L479.16 674.34L478.95 673.86L478.76 673.38L478.58 672.89L478.43 672.39L478.29 671.88L478.17 671.36L478.08 670.84L478 670.31L477.95 669.77L477.91 669.23L477.9 668.68L477.9 154.96L477.91 154.61L477.92 154.26L477.94 153.91L477.98 153.56L478.02 153.22L478.07 152.88L478.13 152.53L478.19 152.2L478.27 151.86L478.35 151.53L478.45 151.2L478.55 150.87L478.66 150.54L478.78 150.22L478.9 149.9L479.04 149.59L479.18 149.28L479.33 148.97L479.48 148.67L479.65 148.37L479.82 148.08L480 147.79L480.19 147.5L480.39 147.22L480.59 146.94L480.8 146.67L481.01 146.41L481.24 146.15L481.47 145.89L481.7 145.65L481.95 145.4L482.2 145.17L482.46 144.94L482.72 144.71L482.99 144.49L483.27 144.28L483.55 144.08L483.84 143.88L484.13 143.69L484.43 143.51L484.74 143.33L485.05 143.16L485.36 143L485.67 142.85L485.99 142.71L486.31 142.58L486.63 142.46L486.96 142.34L487.29 142.23L487.62 142.14L487.95 142.05L488.28 141.97L488.62 141.9L488.95 141.83L489.29 141.78L489.63 141.73L489.97 141.7L490.31 141.67L490.65 141.65L490.99 141.64L491.33 141.64L491.67 141.65L492.01 141.66ZM608.11 234.03L504.54 177.42L504.54 290.63L608.11 234.03Z" id="d3f59h1wmC"></path><path d="M535.68 420.24L536 420.26L536.33 420.29L536.65 420.33L536.98 420.37L537.3 420.42L537.63 420.48L537.79 420.52L537.94 420.55L538.1 420.58L538.26 420.62L538.42 420.66L538.58 420.7L538.73 420.75L538.89 420.8L539.05 420.84L539.2 420.9L539.35 420.95L539.51 421L539.66 421.06L539.81 421.12L539.96 421.18L540.11 421.24L540.26 421.3L540.42 421.37L540.57 421.43L540.71 421.5L540.86 421.57L541.01 421.64L541.16 421.72L541.3 421.79L541.44 421.87L541.59 421.95L541.73 422.03L541.87 422.11L542.01 422.19L542.15 422.28L542.28 422.36L542.42 422.45L542.55 422.55L542.69 422.64L542.82 422.74L542.96 422.83L543.09 422.93L543.22 423.04L543.35 423.14L543.48 423.24L543.6 423.35L543.73 423.45L543.85 423.56L543.97 423.67L544.09 423.78L544.21 423.89L544.33 424L544.44 424.12L544.56 424.23L544.67 424.35L544.78 424.47L544.89 424.59L545 424.71L545.11 424.84L545.22 424.96L545.32 425.09L545.42 425.21L545.52 425.34L545.62 425.47L545.72 425.61L545.82 425.74L545.91 425.87L546.01 426.01L546.1 426.15L546.19 426.28L546.27 426.42L546.36 426.56L546.44 426.69L546.53 426.83L546.61 426.97L546.68 427.12L546.76 427.26L546.84 427.4L546.91 427.55L546.98 427.69L547.05 427.84L547.12 427.99L547.19 428.14L547.26 428.29L547.32 428.44L547.38 428.59L547.44 428.74L547.5 428.89L547.56 429.05L547.61 429.2L547.66 429.36L547.71 429.51L547.76 429.67L547.81 429.83L547.86 429.98L547.9 430.14L547.94 430.3L547.98 430.45L548.01 430.61L548.05 430.77L548.08 430.93L548.11 431.09L548.14 431.25L548.17 431.42L548.19 431.58L548.22 431.74L548.24 431.9L548.26 432.07L548.28 432.23L548.29 432.39L548.31 432.56L548.32 432.72L548.33 432.88L548.33 433.05L548.34 433.21L548.34 433.37L548.34 433.53L548.33 434.19L548.28 434.84L548.2 435.49L548.08 436.14L547.94 436.77L547.76 437.4L547.56 438.02L547.32 438.63L547.06 439.23L546.76 439.81L546.44 440.38L546.1 440.93L545.72 441.46L545.32 441.98L544.89 442.48L544.44 442.95L544.33 443.07L544.21 443.18L544.09 443.29L543.97 443.4L543.85 443.51L543.72 443.62L543.6 443.73L543.47 443.83L543.35 443.93L543.22 444.04L543.09 444.13L542.96 444.23L542.82 444.33L542.69 444.42L542.55 444.52L542.42 444.61L542.28 444.7L542.15 444.78L542.01 444.87L541.87 444.95L541.73 445.04L541.59 445.12L541.44 445.2L541.3 445.27L541.16 445.35L541.01 445.42L540.86 445.5L540.71 445.57L540.57 445.63L540.42 445.7L540.26 445.77L540.11 445.83L539.96 445.89L539.81 445.95L539.66 446.01L539.51 446.06L539.35 446.12L539.2 446.17L539.04 446.22L538.89 446.27L538.73 446.32L538.57 446.36L538.42 446.4L538.26 446.45L538.1 446.48L537.94 446.52L537.78 446.56L537.62 446.59L537.46 446.62L537.3 446.65L537.14 446.68L536.98 446.7L536.82 446.73L536.66 446.75L536.49 446.77L536.33 446.79L536.17 446.8L536 446.82L535.84 446.83L535.68 446.84L535.51 446.85L535.35 446.85L535.19 446.85L535.02 446.85L534.86 446.85L534.7 446.85L534.54 446.85L534.37 446.84L534.21 446.83L534.05 446.82L533.88 446.8L533.72 446.79L533.56 446.77L533.4 446.75L533.23 446.73L533.07 446.7L532.91 446.68L532.75 446.65L532.59 446.62L532.43 446.59L532.27 446.56L532.11 446.52L531.95 446.48L531.79 446.45L531.63 446.4L531.47 446.36L531.32 446.32L531.16 446.27L531 446.22L530.85 446.17L530.69 446.12L530.54 446.06L530.38 446.01L530.23 445.95L530.08 445.89L529.92 445.83L529.77 445.77L529.63 445.7L529.48 445.63L529.33 445.57L529.18 445.5L529.04 445.42L528.89 445.35L528.75 445.27L528.61 445.2L528.46 445.12L528.32 445.04L528.18 444.95L528.04 444.87L527.91 444.78L527.77 444.7L527.64 444.61L527.5 444.52L527.36 444.42L527.23 444.33L527.1 444.23L526.96 444.13L526.83 444.04L526.7 443.93L526.58 443.83L526.45 443.73L526.32 443.62L526.2 443.51L526.08 443.4L525.96 443.29L525.84 443.18L525.72 443.07L525.61 442.95L525.49 442.84L525.38 442.72L525.27 442.6L525.16 442.48L525.05 442.36L524.94 442.24L524.84 442.11L524.73 441.99L524.63 441.86L524.52 441.73L524.42 441.6L524.32 441.47L524.23 441.33L524.13 441.2L524.03 441.07L523.94 440.93L523.85 440.79L523.76 440.66L523.68 440.52L523.59 440.38L523.51 440.24L523.43 440.1L523.35 439.95L523.27 439.81L523.2 439.67L523.13 439.52L523.05 439.37L522.98 439.22L522.91 439.08L522.85 438.93L522.78 438.78L522.72 438.62L522.66 438.47L522.6 438.32L522.54 438.17L522.48 438.02L522.43 437.86L522.38 437.71L522.33 437.56L522.28 437.4L522.23 437.24L522.19 437.09L522.14 436.93L522.1 436.77L522.06 436.61L522.03 436.45L521.99 436.3L521.96 436.14L521.93 435.98L521.9 435.82L521.87 435.65L521.85 435.49L521.82 435.33L521.8 435.17L521.78 435L521.77 434.84L521.75 434.68L521.74 434.51L521.73 434.35L521.72 434.19L521.71 434.02L521.71 433.86L521.7 433.7L521.7 433.53L521.7 433.37L521.71 433.21L521.71 433.05L521.72 432.88L521.73 432.72L521.74 432.56L521.75 432.39L521.77 432.23L521.78 432.07L521.8 431.9L521.82 431.74L521.85 431.58L521.87 431.42L521.9 431.25L521.93 431.09L521.96 430.93L521.99 430.77L522.03 430.61L522.06 430.45L522.1 430.3L522.14 430.14L522.19 429.98L522.23 429.83L522.28 429.67L522.33 429.51L522.38 429.36L522.43 429.2L522.48 429.05L522.54 428.89L522.6 428.74L522.66 428.59L522.72 428.44L522.78 428.29L522.85 428.14L522.91 427.99L522.98 427.84L523.05 427.69L523.13 427.55L523.2 427.4L523.27 427.26L523.35 427.12L523.43 426.97L523.51 426.83L523.59 426.69L523.68 426.56L523.76 426.42L523.85 426.28L523.94 426.15L524.03 426.01L524.13 425.87L524.23 425.74L524.32 425.61L524.42 425.47L524.52 425.34L524.63 425.21L524.73 425.09L524.84 424.96L524.94 424.84L525.05 424.71L525.16 424.59L525.27 424.47L525.38 424.35L525.49 424.23L525.61 424.12L525.72 424L525.84 423.89L525.96 423.78L526.08 423.67L526.2 423.56L526.32 423.45L526.45 423.35L526.58 423.24L526.7 423.14L526.83 423.04L526.96 422.93L527.1 422.83L527.23 422.74L527.36 422.64L527.5 422.55L527.64 422.45L527.77 422.36L527.91 422.28L528.04 422.19L528.18 422.11L528.32 422.03L528.46 421.95L528.61 421.87L528.75 421.79L528.89 421.72L529.04 421.64L529.18 421.57L529.33 421.5L529.48 421.43L529.63 421.37L529.77 421.3L529.92 421.24L530.08 421.18L530.23 421.12L530.38 421.06L530.54 421L530.69 420.95L530.85 420.9L531 420.84L531.16 420.8L531.32 420.75L531.47 420.7L531.63 420.66L531.79 420.62L531.95 420.58L532.11 420.55L532.27 420.52L532.43 420.48L532.75 420.42L533.07 420.37L533.4 420.33L533.72 420.29L534.05 420.26L534.37 420.24L534.7 420.23L535.03 420.22L535.35 420.23L535.68 420.24Z" id="c3SZ4BwLO9"></path></defs><g><g><g><use xlink:href="#aw6V4mHpm" opacity="1" fill="#f7d6b5" fill-opacity="1"></use><g><use xlink:href="#aw6V4mHpm" opacity="1" fill-opacity="0" stroke="#000000" stroke-width="1" stroke-opacity="0"></use></g></g><g><use xlink:href="#cSpqKDhoh" opacity="1" fill="#8e94a9" fill-opacity="1"></use><g><use xlink:href="#cSpqKDhoh" opacity="1" fill-opacity="0" stroke="#000000" stroke-width="1" stroke-opacity="0"></use></g></g><g><use xlink:href="#b3c2j640Zo" opacity="1" fill="#8e94a9" fill-opacity="1"></use><g><use xlink:href="#b3c2j640Zo" opacity="1" fill-opacity="0" stroke="#000000" stroke-width="1" stroke-opacity="0"></use></g></g><g><use xlink:href="#iVka4u68l" opacity="1" fill="#f8d709" fill-opacity="0.9"></use><g><use xlink:href="#iVka4u68l" opacity="1" fill-opacity="0" stroke="#000000" stroke-width="1" stroke-opacity="0"></use></g></g><g><use xlink:href="#b2KES12fbO" opacity="1" fill="#000000" fill-opacity="1"></use><g><use xlink:href="#b2KES12fbO" opacity="1" fill-opacity="0" stroke="#000000" stroke-width="1" stroke-opacity="0"></use></g></g><g><use xlink:href="#b4s81plYh1" opacity="1" fill="#000000" fill-opacity="1"></use><g><use xlink:href="#b4s81plYh1" opacity="1" fill-opacity="0" stroke="#000000" stroke-width="1" stroke-opacity="0"></use></g></g><g><use xlink:href="#a36QbxoKs" opacity="1" fill="#000000" fill-opacity="1"></use><g><use xlink:href="#a36QbxoKs" opacity="1" fill-opacity="0" stroke="#000000" stroke-width="1" stroke-opacity="0"></use></g></g><g><use xlink:href="#b3FA782dUc" opacity="1" fill="#f7d6b5" fill-opacity="1"></use><g><use xlink:href="#b3FA782dUc" opacity="1" fill-opacity="0" stroke="#000000" stroke-width="1" stroke-opacity="0"></use></g></g><g><use xlink:href="#a62SobzB8V" opacity="1" fill="#f7d6b5" fill-opacity="1"></use><g><use xlink:href="#a62SobzB8V" opacity="1" fill-opacity="0" stroke="#000000" stroke-width="1" stroke-opacity="0"></use></g></g><g><use xlink:href="#abxUMwa9" opacity="1" fill="#ffe787" fill-opacity="1"></use><g><use xlink:href="#abxUMwa9" opacity="1" fill-opacity="0" stroke="#000000" stroke-width="1" stroke-opacity="0"></use></g></g><g><use xlink:href="#bKae07xB2" opacity="1" fill="#ffffff" fill-opacity="1"></use><g><use xlink:href="#bKae07xB2" opacity="1" fill-opacity="0" stroke="#000000" stroke-width="1" stroke-opacity="0"></use></g></g><g><use xlink:href="#a1kMgDjsEi" opacity="1" fill="#00befd" fill-opacity="1"></use><g><use xlink:href="#a1kMgDjsEi" opacity="1" fill-opacity="0" stroke="#000000" stroke-width="1" stroke-opacity="0"></use></g></g><g><use xlink:href="#e8vp5qpidU" opacity="1" fill="#d38a5a" fill-opacity="1"></use><g><use xlink:href="#e8vp5qpidU" opacity="1" fill-opacity="0" stroke="#000000" stroke-width="1" stroke-opacity="0"></use></g></g><g><use xlink:href="#erEli6YbC" opacity="1" fill="#000000" fill-opacity="1"></use><g><use xlink:href="#erEli6YbC" opacity="1" fill-opacity="0" stroke="#000000" stroke-width="1" stroke-opacity="0"></use></g></g><g><use xlink:href="#d3f59h1wmC" opacity="1" fill="#000000" fill-opacity="1"></use><g><use xlink:href="#d3f59h1wmC" opacity="1" fill-opacity="0" stroke="#000000" stroke-width="1" stroke-opacity="0"></use></g></g><g><use xlink:href="#c3SZ4BwLO9" opacity="1" fill="#000000" fill-opacity="1"></use><g><use xlink:href="#c3SZ4BwLO9" opacity="1" fill-opacity="0" stroke="#000000" stroke-width="1" stroke-opacity="0"></use></g></g></g></g></svg>