<?xml version="1.0" encoding="UTF-8" standalone="no"?>
<!DOCTYPE svg PUBLIC "-//W3C//DTD SVG 1.1//EN" "http://www.w3.org/Graphics/SVG/1.1/DTD/svg11.dtd">
<svg version="1.1" xmlns="http://www.w3.org/2000/svg" xmlns:xlink="http://www.w3.org/1999/xlink" preserveAspectRatio="xMidYMid meet" viewBox="0 0 640 640" width="640" height="640"><defs><path d="M312 240L200 240C145.76 274.08 115.63 293.01 109.6 296.8C86.4 311.2 72 336.8 72 364.8C72 373.01 72 414.08 72 488L440 488C440 413.6 440 372.27 440 364C440 336.8 425.6 311.2 402.4 296.8C390.35 289.23 360.21 270.29 312 240Z" id="bpyjzF9OE"></path><path d="M240.81 404.12L304.82 276.1L319.13 283.26L255.12 411.28L240.81 404.12Z" id="bwYy9WC1F"></path><path d="M192.85 283.83L207.15 276.68L271.16 404.7L256.86 411.85L192.85 283.83Z" id="l4rhFJIcg"></path><path d="M216 392L296 392L296 488L216 488L216 392Z" id="cc6EM7hsp"></path><path d="M240 448L272 448L272 464L240 464L240 448Z" id="c1FS1hlm8v"></path><path d="M240 416L272 416L272 432L240 432L240 416Z" id="aOcUcnYRH"></path><path d="M144 392L160 392L160 488L144 488L144 392Z" id="aaqg4B7hQ"></path><path d="M291.2 32C268.8 22.4 243.2 22.4 220.8 32C216.16 34 179.04 50 174.4 52C146.4 64 129.6 92.8 131.2 122.4C131.36 124.4 132.64 140.4 132.8 142.4C135.2 173.6 150.4 202.4 176 220C177.07 220.75 182.4 224.48 192 231.2L320 231.2C329.6 224.48 334.93 220.75 336 220C361.6 201.6 377.6 173.6 379.2 142.4C379.36 140.4 380.64 124.4 380.8 122.4C382.4 92 365.6 64 337.6 52C328.32 48 295.84 34 291.2 32Z" id="a33g2Wi6oy"></path><path d="M361.6 271.2L312 240L256 240L256 280C274.24 298.24 284.37 308.37 286.4 310.4C292 316 300.8 316.8 307.2 312C314.45 306.56 332.59 292.96 361.6 271.2Z" id="dLIPBUrYQ"></path><path d="M150.4 271.2L200 240L256 240L256 280C237.76 298.24 227.63 308.37 225.6 310.4C220 316 211.2 316.8 204.8 312C197.55 306.56 179.41 292.96 150.4 271.2Z" id="ahvBXV51e"></path><path d="M272 88C272 97.6 272 102.93 272 104C272 117.6 282.4 128 296 128C298.4 128 317.6 128 320 128C328.8 128 336 135.2 336 144C336 147.2 336 172.8 336 176C336 215.2 313.6 251.2 278.4 268.8C276.88 269.6 264.72 276 263.2 276.8C258.4 279.2 253.6 279.2 248.8 276.8C247.28 276 235.12 269.6 233.6 268.8C198.4 251.2 176 215.2 176 176C176 172.32 176 142.88 176 139.2C176 132 180 126.4 185.6 124C197.12 119.2 225.92 107.2 272 88Z" id="b1KGZ6qsNG"></path><path d="M352 392L368 392L368 488L352 488L352 392Z" id="b2mWS8ZXrK"></path><path d="M320.88 460.75L401 276.62L415.67 283L335.55 467.14L320.88 460.75Z" id="b2m8u9Arn7"></path><path d="M416 280L408 280L368 376C381.92 380.8 389.65 383.47 391.2 384C404 388 411.2 402.4 407.2 415.2C404 425.6 394.4 432 384 432C386.64 432 407.76 432 410.4 432C436 432 456.8 411.2 456.8 385.6C456 379.2 454.4 372.8 452.8 367.2C447.89 355.57 435.63 326.51 416 280Z" id="c1as33qEpN"></path><path d="M240 448L272 448L272 464L240 464L240 448Z" id="dg064k4lz"></path><path d="M240 416L272 416L272 432L240 432L240 416Z" id="bdrB0CBn2"></path><path d="M259.9 16.28L261.85 16.38L263.8 16.51L265.74 16.69L267.68 16.9L269.62 17.16L271.56 17.45L273.5 17.78L275.42 18.15L277.35 18.56L279.27 19.01L281.19 19.5L283.09 20.02L285 20.59L286.89 21.19L288.78 21.84L290.66 22.52L292.54 23.24L294.4 24L340 44.8L342.32 45.85L344.59 46.97L346.81 48.15L348.99 49.39L351.12 50.7L353.2 52.06L355.23 53.48L357.2 54.95L359.13 56.48L361 58.06L362.82 59.7L364.58 61.38L366.29 63.12L367.94 64.9L369.53 66.72L371.07 68.6L372.54 70.51L373.96 72.47L375.31 74.46L376.6 76.5L377.83 78.57L378.99 80.68L380.09 82.83L381.13 85L382.09 87.21L382.99 89.45L383.83 91.72L384.59 94.02L385.28 96.34L385.9 98.69L386.45 101.06L386.92 103.45L387.33 105.86L387.65 108.29L387.91 110.74L388.08 113.21L388.18 115.69L388.2 118.18L388.14 120.68L388 123.2L386.4 143.2L386.25 145.72L386.04 148.22L385.77 150.72L385.45 153.2L385.06 155.67L384.62 158.13L384.12 160.57L383.57 163L382.96 165.41L382.3 167.8L381.58 170.18L380.81 172.53L379.99 174.87L379.11 177.19L378.19 179.48L377.21 181.75L376.18 184L375.1 186.23L373.98 188.43L372.8 190.6L371.58 192.75L370.3 194.86L368.99 196.95L367.62 199.01L366.21 201.04L364.76 203.04L363.26 205.01L361.72 206.94L360.13 208.84L358.5 210.7L356.83 212.53L355.12 214.32L353.36 216.07L351.57 217.78L349.74 219.46L347.87 221.09L345.96 222.68L344.01 224.23L342.02 225.74L340 227.2L338.91 228.01L329.79 234.73L329.22 235.15L328.03 236.02L324.8 238.4L397.6 284L403.2 272L421.6 272L460 364.8L460.18 365.28L460.35 365.77L460.53 366.25L460.7 366.74L460.86 367.24L461.02 367.73L461.18 368.23L461.34 368.73L461.49 369.23L461.64 369.74L461.78 370.24L461.92 370.75L462.06 371.27L462.19 371.78L462.32 372.3L462.44 372.81L462.57 373.33L462.68 373.85L462.79 374.38L462.9 374.9L463 375.43L463.1 375.95L463.19 376.48L463.28 377.01L463.37 377.54L463.45 378.07L463.52 378.61L463.59 379.14L463.65 379.68L463.71 380.21L463.77 380.75L463.81 381.29L463.86 381.82L463.89 382.36L463.93 382.9L463.95 383.44L463.97 383.98L463.99 384.52L464 385.06L464 385.6L463.99 386.68L463.96 387.75L463.91 388.83L463.83 389.89L463.74 390.96L463.62 392.02L463.49 393.07L463.33 394.12L463.15 395.17L462.95 396.21L462.73 397.25L462.49 398.28L462.23 399.3L461.94 400.32L461.64 401.34L461.31 402.34L460.97 403.34L460.6 404.34L460.21 405.32L459.8 406.3L459.37 407.27L458.92 408.23L458.45 409.19L457.95 410.14L457.44 411.08L456.9 412.01L456.35 412.93L455.77 413.84L455.17 414.74L454.55 415.64L453.91 416.52L453.25 417.4L452.57 418.26L451.86 419.11L451.14 419.95L450.39 420.79L449.63 421.61L448.84 422.42L448.03 423.21L447.2 424L447.2 496L63.2 496L63.2 363.2L63.23 360.92L63.32 358.66L63.47 356.4L63.67 354.16L63.94 351.93L64.26 349.71L64.64 347.51L65.07 345.32L65.56 343.15L66.1 341L66.7 338.86L67.35 336.75L68.05 334.65L68.81 332.57L69.61 330.52L70.47 328.49L71.38 326.48L72.34 324.49L73.34 322.53L74.4 320.6L75.5 318.69L76.66 316.82L77.85 314.97L79.1 313.15L80.39 311.36L81.72 309.6L83.1 307.87L84.52 306.18L85.99 304.52L87.5 302.9L89.05 301.31L90.64 299.76L92.28 298.25L93.95 296.78L95.66 295.34L97.41 293.95L99.2 292.6L101.03 291.29L102.9 290.02L104.8 288.8L109.66 285.75L110.68 285.11L159.64 254.39L162.7 252.47L169.06 248.48L186.4 237.6L177.85 231.3L174.05 228.5L171.2 226.4L169.18 224.88L167.2 223.32L165.26 221.73L163.36 220.1L161.5 218.43L159.68 216.72L157.9 214.98L156.16 213.21L154.47 211.4L152.81 209.56L151.2 207.69L149.64 205.79L148.11 203.85L146.63 201.89L145.2 199.89L143.81 197.87L142.46 195.82L141.16 193.74L139.91 191.63L138.7 189.5L137.54 187.34L136.42 185.16L135.36 182.95L134.34 180.72L133.36 178.47L132.44 176.2L131.57 173.9L130.74 171.58L129.96 169.24L129.24 166.89L128.56 164.51L127.94 162.12L127.36 159.71L126.84 157.28L126.37 154.84L125.95 152.38L125.58 149.9L125.27 147.42L125.01 144.91L124.8 142.4L123.2 122.4L123.12 119.88L123.11 117.38L123.17 114.89L123.31 112.41L123.52 109.94L123.81 107.49L124.16 105.06L124.58 102.65L125.08 100.26L125.64 97.89L126.27 95.54L126.97 93.22L127.73 90.92L128.56 88.65L129.46 86.41L130.42 84.2L131.44 82.03L132.53 79.88L133.69 77.77L134.9 75.7L136.18 73.66L137.51 71.67L138.91 69.71L140.36 67.8L141.88 65.92L143.45 64.1L145.08 62.32L146.77 60.58L148.51 58.9L150.31 57.26L152.17 55.68L154.07 54.15L156.03 52.68L158.05 51.26L160.11 49.9L162.23 48.59L164.4 47.35L166.62 46.17L168.88 45.05L171.2 44L217.6 24L219.46 23.24L221.34 22.52L223.22 21.84L225.11 21.19L227 20.59L228.91 20.02L230.81 19.5L232.73 19.01L234.65 18.56L236.58 18.15L238.5 17.78L240.44 17.45L242.38 17.16L244.32 16.9L246.26 16.69L248.2 16.51L250.15 16.38L252.1 16.28L254.05 16.22L256 16.2L257.95 16.22L259.9 16.28ZM137.79 288.15L132.75 291.28L131.58 292.01L121.86 298.06L118.98 299.85L118.35 300.24L116.19 301.59L115.74 301.87L113.6 303.2L112.06 304.18L110.54 305.2L109.06 306.25L107.6 307.34L106.18 308.47L104.8 309.63L103.44 310.83L102.12 312.06L100.83 313.32L99.58 314.61L98.35 315.94L97.17 317.29L96.02 318.67L94.91 320.08L93.83 321.52L92.79 322.99L91.78 324.48L90.82 326L89.89 327.54L89 329.1L88.15 330.69L87.34 332.29L86.57 333.92L85.84 335.57L85.15 337.24L84.5 338.93L83.89 340.63L83.33 342.35L82.8 344.09L82.33 345.84L81.89 347.6L81.5 349.38L81.15 351.17L80.85 352.98L80.59 354.79L80.38 356.62L80.21 358.45L80.1 360.29L80.02 362.14L80 364L80 480L144 480L144 384L160 384L160 480.8L208 480.8L208 384.8L241.6 384.8L211.2 323.2L210.9 323.14L210.59 323.07L210.29 323.01L209.98 322.94L209.67 322.86L209.35 322.79L209.04 322.71L208.72 322.62L208.41 322.54L208.09 322.45L207.77 322.36L207.45 322.26L207.13 322.17L206.81 322.07L206.49 321.96L206.17 321.86L205.85 321.75L205.53 321.63L205.22 321.52L204.9 321.4L204.59 321.28L204.27 321.15L203.96 321.03L203.65 320.9L203.35 320.76L203.05 320.63L202.74 320.49L202.45 320.34L202.15 320.2L201.86 320.05L201.58 319.9L201.29 319.74L201.01 319.59L200.74 319.43L200.47 319.26L200.21 319.1L199.95 318.93L199.69 318.75L199.44 318.58L199.2 318.4L149.6 280.8L144.9 283.72L137.79 288.15ZM224 480L288 480L288 400L224 400L224 480ZM314.15 315.36L311.2 317.6L310.96 317.84L310.71 318.07L310.47 318.29L310.22 318.51L309.96 318.72L309.71 318.93L309.45 319.13L309.18 319.33L308.92 319.52L308.65 319.7L308.38 319.88L308.1 320.05L307.83 320.21L307.55 320.37L307.26 320.52L306.98 320.67L306.69 320.81L306.39 320.95L306.1 321.08L305.8 321.2L305.5 321.32L305.19 321.43L304.89 321.53L304.58 321.63L304.26 321.73L303.95 321.81L303.63 321.89L303.3 321.97L302.98 322.04L302.65 322.1L302.32 322.16L301.98 322.21L301.65 322.25L301.31 322.29L300.96 322.33L300.62 322.35L300.27 322.37L299.91 322.39L299.56 322.4L299.2 322.4L278.77 363.8L277.63 366.11L275.26 370.91L268.8 384L304 384L304 480L432 480L432 434.4L431.46 434.64L430.92 434.87L430.38 435.09L429.84 435.31L429.3 435.52L428.76 435.73L428.22 435.93L427.67 436.13L427.13 436.32L426.59 436.5L426.04 436.68L425.5 436.85L424.95 437.01L424.41 437.17L423.86 437.32L423.31 437.47L422.76 437.61L422.21 437.75L421.65 437.88L421.1 438L420.54 438.12L419.99 438.23L419.43 438.33L418.87 438.43L418.3 438.52L417.74 438.61L417.17 438.69L416.61 438.77L416.04 438.84L415.46 438.9L414.89 438.96L414.31 439.01L413.73 439.05L413.15 439.09L412.56 439.12L411.98 439.15L411.39 439.17L410.79 439.19L410.2 439.2L409.6 439.2L376 439.2L376 423.2L381.6 423.2L382.14 423.19L382.67 423.17L383.21 423.13L383.73 423.08L384.26 423.01L384.78 422.93L385.29 422.84L385.8 422.73L386.3 422.6L386.8 422.46L387.29 422.31L387.78 422.14L388.26 421.96L388.73 421.76L389.19 421.55L389.65 421.33L390.1 421.09L390.54 420.84L390.98 420.58L391.4 420.3L391.82 420.01L392.22 419.7L392.62 419.38L393 419.05L393.38 418.71L393.75 418.35L394.1 417.98L394.45 417.59L394.78 417.2L395.1 416.79L395.41 416.36L395.71 415.93L395.99 415.48L396.26 415.02L396.52 414.55L396.76 414.06L396.99 413.57L397.21 413.06L397.41 412.53L397.6 412L397.83 411.34L398.02 410.67L398.19 410.01L398.32 409.34L398.43 408.68L398.51 408.01L398.57 407.35L398.59 406.68L398.59 406.02L398.56 405.36L398.51 404.71L398.43 404.06L398.32 403.41L398.19 402.77L398.04 402.14L397.86 401.52L397.65 400.9L397.42 400.29L397.17 399.69L396.9 399.1L396.6 398.52L396.29 397.95L395.95 397.4L395.58 396.85L395.2 396.32L394.8 395.8L394.38 395.3L393.93 394.81L393.47 394.34L392.99 393.89L392.49 393.45L391.97 393.03L391.43 392.63L390.88 392.25L390.3 391.89L389.72 391.54L389.11 391.22L388.49 390.93L387.85 390.65L387.2 390.4L369.6 384.8L334.4 466.4L320 460L390.4 298.4L360.8 280L314.77 314.89L314.15 315.36ZM385.09 373.02L385.61 373.2L387.97 374.03L389.57 374.59L389.93 374.71L391.21 375.16L391.49 375.26L393.6 376L393.66 376L393.71 376.01L393.77 376.01L393.82 376.02L393.87 376.03L393.91 376.05L393.96 376.06L394 376.08L394.04 376.1L394.07 376.13L394.11 376.15L394.15 376.17L394.18 376.2L394.21 376.23L394.25 376.25L394.28 376.28L394.31 376.31L394.34 376.34L394.37 376.37L394.43 376.43L394.46 376.46L394.49 376.49L394.52 376.52L394.55 376.55L394.59 376.57L394.62 376.6L394.65 376.63L394.69 376.65L394.72 376.68L394.76 376.7L394.8 376.72L394.84 376.74L394.89 376.75L394.93 376.77L394.98 376.78L395.03 376.79L395.09 376.79L395.14 376.8L395.2 376.8L396.44 377.3L397.65 377.85L398.83 378.45L399.97 379.09L401.08 379.77L402.15 380.49L403.18 381.25L404.18 382.05L405.14 382.89L406.06 383.76L406.95 384.67L407.79 385.61L408.6 386.57L409.37 387.57L410.09 388.6L410.78 389.65L411.42 390.73L412.02 391.83L412.58 392.95L413.1 394.1L413.57 395.26L414 396.45L414.39 397.65L414.73 398.86L415.02 400.09L415.27 401.33L415.47 402.58L415.62 403.84L415.73 405.11L415.79 406.39L415.8 407.67L415.76 408.95L415.67 410.24L415.53 411.53L415.34 412.82L415.09 414.1L414.8 415.39L414.45 416.66L414.05 417.94L413.6 419.2L413.54 419.32L413.48 419.44L413.42 419.56L413.36 419.68L413.24 419.92L413.18 420.04L413.06 420.28L412.88 420.64L412.7 421L412.58 421.24L412.52 421.36L412.28 421.84L412.22 421.96L412.16 422.08L412.04 422.32L411.98 422.44L411.92 422.56L411.86 422.68L411.8 422.8L411.68 423.04L411.62 423.16L411.56 423.28L411.38 423.64L411.32 423.76L411.26 423.88L411.2 424L411.56 423.94L411.91 423.88L412.27 423.82L412.62 423.76L412.96 423.7L413.31 423.64L413.65 423.58L413.99 423.51L414.33 423.45L414.66 423.39L415 423.32L415.33 423.26L415.65 423.19L415.98 423.13L416.3 423.06L416.63 422.99L416.95 422.92L417.27 422.85L417.58 422.77L417.9 422.7L418.21 422.62L418.53 422.55L418.84 422.47L419.15 422.39L419.46 422.3L419.77 422.22L420.07 422.13L420.38 422.05L420.68 421.96L420.99 421.86L421.29 421.77L421.59 421.67L421.9 421.57L422.2 421.47L422.5 421.36L422.8 421.26L423.1 421.15L423.4 421.03L423.7 420.92L424 420.8L425.48 420.17L426.92 419.49L428.31 418.76L429.66 417.98L430.96 417.16L432.23 416.28L433.44 415.37L434.61 414.41L435.74 413.4L436.81 412.36L437.84 411.28L438.82 410.17L439.76 409.01L440.64 407.83L441.48 406.61L442.27 405.36L443 404.09L443.69 402.78L444.32 401.45L444.9 400.1L445.43 398.72L445.9 397.33L446.33 395.91L446.69 394.48L447.01 393.03L447.27 391.56L447.47 390.08L447.62 388.59L447.7 387.1L447.74 385.59L447.71 384.07L447.63 382.55L447.49 381.03L447.28 379.51L447.02 377.98L446.7 376.46L446.32 374.93L445.87 373.42L445.37 371.9L444.8 370.4L444.46 369.57L444.09 368.68L442.85 365.65L442.39 364.52L441.9 363.33L441.39 362.08L440.85 360.77L438.46 354.93L437.11 351.65L435.67 348.13L434.91 346.28L434.13 344.37L432.49 340.37L431.63 338.28L430.75 336.13L429.84 333.92L428.91 331.65L417.05 302.72L412 290.4L377.6 370.4L385.09 373.02ZM231.14 316.06L231.07 316.12L231.01 316.18L230.94 316.24L230.87 316.3L230.79 316.36L230.72 316.42L230.64 316.48L230.56 316.54L230.48 316.6L230.39 316.66L230.31 316.72L230.22 316.78L230.13 316.84L230.05 316.9L229.96 316.96L229.87 317.02L229.78 317.08L229.69 317.14L229.51 317.26L229.42 317.32L229.33 317.38L229.24 317.44L229.15 317.5L229.07 317.56L228.98 317.62L228.89 317.68L228.81 317.74L228.73 317.8L228.64 317.86L228.56 317.92L228.48 317.98L228.41 318.04L228.33 318.1L228.26 318.16L228.19 318.22L228.13 318.28L228.06 318.34L228 318.4L228.15 318.71L229.05 320.5L229.34 321.09L231.7 325.79L232.19 326.77L234.43 331.25L235.06 332.51L235.71 333.83L237.86 338.11L238.63 339.65L239.42 341.25L240.25 342.9L248.94 360.29L250.05 362.5L252.35 367.09L253.54 369.47L254.75 371.91L256 374.4L257.25 371.91L258.46 369.47L263.06 360.29L268.17 350.07L270.01 346.37L271.75 342.9L272.58 341.25L273.37 339.65L274.14 338.11L274.89 336.63L275.6 335.2L276.94 332.51L277.57 331.25L278.75 328.9L279.3 327.81L280.3 325.79L280.77 324.87L281.2 324L281.98 322.43L282.33 321.73L282.66 321.09L282.95 320.5L283.66 319.07L284 318.4L283.94 318.34L283.87 318.28L283.81 318.22L283.74 318.16L283.67 318.1L283.59 318.04L283.52 317.98L283.44 317.92L283.36 317.86L283.28 317.8L283.19 317.74L283.11 317.68L283.02 317.62L282.93 317.56L282.85 317.5L282.76 317.44L282.67 317.38L282.58 317.32L282.49 317.26L282.31 317.14L282.22 317.08L282.13 317.02L282.04 316.96L281.95 316.9L281.87 316.84L281.78 316.78L281.69 316.72L281.61 316.66L281.53 316.6L281.44 316.54L281.36 316.48L281.28 316.42L281.21 316.36L281.13 316.3L281.06 316.24L280.99 316.18L280.93 316.12L280.86 316.06L280.8 316L279.32 314.52L279.01 314.21L276.15 311.35L256 291.2L231.2 316L231.14 316.06ZM209.6 305.6L209.85 305.78L210.11 305.95L210.37 306.11L210.64 306.25L210.9 306.38L211.17 306.5L211.44 306.61L211.71 306.71L211.99 306.79L212.26 306.86L212.54 306.92L212.82 306.97L213.1 307L213.38 307.03L213.67 307.04L213.95 307.05L214.23 307.04L214.52 307.03L214.8 307L215.08 306.96L215.37 306.92L215.65 306.86L215.93 306.8L216.22 306.72L216.5 306.64L216.78 306.54L217.06 306.44L217.34 306.33L217.61 306.21L217.89 306.09L218.16 305.95L218.43 305.81L218.7 305.66L218.96 305.5L219.23 305.34L219.49 305.17L219.75 304.99L220 304.8L242.4 282.4L229.6 276L228.65 275.49L227.71 274.98L226.77 274.45L225.84 273.93L224.91 273.39L223.98 272.85L223.06 272.3L222.14 271.75L221.23 271.18L220.32 270.61L219.42 270.04L218.52 269.46L217.63 268.87L216.74 268.27L215.86 267.67L214.99 267.06L214.12 266.45L213.26 265.83L212.4 265.2L211.55 264.57L210.71 263.92L209.87 263.28L209.04 262.62L208.22 261.96L207.41 261.29L206.6 260.62L205.81 259.93L205.02 259.25L204.24 258.55L203.46 257.85L202.7 257.14L201.94 256.43L201.19 255.71L200.46 254.98L199.73 254.24L199.01 253.5L198.3 252.75L197.6 252L164.8 272L209.6 305.6ZM313.67 252.02L312.9 252.82L312.12 253.61L311.33 254.38L310.54 255.15L309.74 255.91L308.93 256.66L308.12 257.4L307.3 258.13L306.48 258.85L305.65 259.56L304.82 260.26L303.98 260.96L303.13 261.64L302.28 262.32L301.43 262.99L300.57 263.65L299.7 264.3L298.83 264.94L297.95 265.58L297.07 266.21L296.19 266.82L295.3 267.43L294.4 268.04L293.5 268.63L292.6 269.22L291.69 269.8L290.78 270.37L289.87 270.94L288.95 271.5L288.02 272.05L287.09 272.59L286.16 273.12L285.23 273.65L284.29 274.18L283.35 274.69L282.4 275.2L269.6 281.6L292 304L292.19 304.25L292.4 304.48L292.61 304.7L292.83 304.91L293.06 305.1L293.3 305.28L293.55 305.45L293.8 305.6L294.06 305.75L294.32 305.88L294.59 305.99L294.87 306.1L295.15 306.19L295.43 306.27L295.72 306.34L296.01 306.4L296.3 306.45L296.6 306.48L296.9 306.5L297.2 306.51L297.5 306.51L297.81 306.5L298.11 306.47L298.41 306.44L298.71 306.39L299.02 306.33L299.32 306.26L299.61 306.18L299.91 306.09L300.2 305.99L300.49 305.88L300.78 305.75L301.06 305.62L301.34 305.48L301.61 305.32L301.88 305.16L302.14 304.98L302.4 304.8L347.2 271.2L315.2 250.4L314.44 251.22L313.67 252.02ZM193.27 130.14L191.62 130.83L188.8 132L188.56 132.06L188.33 132.14L188.11 132.22L187.89 132.31L187.68 132.41L187.47 132.51L187.27 132.63L187.07 132.75L186.88 132.88L186.7 133.01L186.52 133.15L186.35 133.3L186.19 133.46L186.03 133.62L185.88 133.79L185.73 133.96L185.59 134.14L185.45 134.32L185.32 134.51L185.2 134.7L185.08 134.9L184.97 135.1L184.87 135.3L184.77 135.51L184.68 135.73L184.59 135.94L184.51 136.16L184.43 136.38L184.36 136.61L184.3 136.84L184.24 137.07L184.19 137.3L184.15 137.53L184.11 137.77L184.08 138L184.05 138.24L184.03 138.48L184.01 138.72L184 138.96L184 139.2L184 176L184.04 178.7L184.15 181.38L184.35 184.05L184.62 186.71L184.96 189.36L185.37 191.99L185.86 194.6L186.43 197.19L187.06 199.76L187.76 202.31L188.54 204.84L189.38 207.34L190.29 209.82L191.27 212.27L192.31 214.69L193.42 217.08L194.6 219.43L195.83 221.76L197.14 224.05L198.5 226.3L199.93 228.52L201.41 230.69L202.96 232.83L204.56 234.92L206.23 236.98L207.95 238.98L209.72 240.94L211.56 242.86L213.45 244.72L215.39 246.54L217.38 248.3L219.43 250.01L221.53 251.66L223.68 253.26L225.88 254.8L228.13 256.29L230.43 257.71L232.77 259.07L235.16 260.37L237.6 261.6L252.8 269.6L252.98 269.66L253.16 269.71L253.34 269.77L253.52 269.82L253.7 269.86L253.88 269.91L254.06 269.95L254.24 269.98L254.42 270.02L254.6 270.05L254.78 270.08L254.96 270.1L255.14 270.13L255.32 270.15L255.5 270.16L255.68 270.18L255.86 270.19L256.04 270.19L256.22 270.2L256.4 270.2L256.58 270.2L256.76 270.19L256.94 270.19L257.12 270.18L257.3 270.16L257.48 270.15L257.66 270.13L257.84 270.1L258.02 270.08L258.2 270.05L258.38 270.02L258.56 269.98L258.74 269.95L258.92 269.91L259.1 269.86L259.28 269.82L259.46 269.77L259.64 269.71L259.82 269.66L260 269.6L275.2 261.6L277.58 260.37L279.91 259.07L282.21 257.71L284.45 256.29L286.66 254.8L288.81 253.26L290.92 251.66L292.98 250.01L294.99 248.3L296.95 246.54L298.86 244.72L300.72 242.86L302.52 240.94L304.27 238.98L305.97 236.98L307.61 234.92L309.19 232.83L310.72 230.69L312.19 228.52L313.6 226.3L314.95 224.05L316.24 221.76L317.47 219.43L318.63 217.08L319.73 214.69L320.77 212.27L321.74 209.82L322.64 207.34L323.48 204.84L324.25 202.31L324.95 199.76L325.58 197.19L326.14 194.6L326.63 191.99L327.04 189.36L327.39 186.71L327.65 184.05L327.85 181.38L327.96 178.7L328 176L328 144L327.99 143.64L327.98 143.29L327.95 142.95L327.91 142.61L327.85 142.28L327.79 141.95L327.71 141.64L327.63 141.32L327.53 141.02L327.43 140.73L327.31 140.44L327.18 140.16L327.04 139.88L326.89 139.62L326.73 139.36L326.57 139.11L326.39 138.87L326.2 138.64L326.01 138.41L325.8 138.2L325.59 137.99L325.36 137.8L325.13 137.61L324.89 137.43L324.64 137.27L324.38 137.11L324.12 136.96L323.84 136.82L323.56 136.69L323.28 136.58L322.98 136.47L322.68 136.37L322.36 136.29L322.05 136.21L321.72 136.15L321.39 136.09L321.05 136.05L320.71 136.02L320.36 136.01L320 136L296 136L294.69 135.97L293.39 135.89L292.1 135.76L290.83 135.58L289.57 135.35L288.33 135.07L287.11 134.74L285.91 134.36L284.73 133.94L283.58 133.48L282.44 132.97L281.33 132.41L280.24 131.82L279.18 131.19L278.14 130.52L277.13 129.8L276.15 129.06L275.2 128.27L274.29 127.45L273.4 126.6L272.55 125.71L271.73 124.8L270.94 123.85L270.2 122.87L269.48 121.86L268.81 120.82L268.18 119.76L267.59 118.67L267.03 117.56L266.53 116.43L266.06 115.27L265.64 114.09L265.26 112.89L264.93 111.67L264.65 110.43L264.42 109.17L264.24 107.9L264.11 106.61L264.03 105.31L264 104L264 100.8L194.21 129.75L193.27 130.14ZM253.03 32.67L251.39 32.75L249.75 32.86L248.12 33.01L246.48 33.19L244.85 33.41L243.22 33.66L241.59 33.94L239.96 34.25L238.34 34.6L236.72 34.98L235.11 35.39L233.5 35.83L231.9 36.31L230.31 36.82L228.72 37.37L227.14 37.95L225.56 38.56L224 39.2L177.6 59.2L175.76 60.07L173.95 60.98L172.19 61.94L170.46 62.96L168.76 64.02L167.11 65.12L165.5 66.27L163.93 67.46L162.4 68.7L160.91 69.98L159.47 71.29L158.07 72.65L156.71 74.05L155.4 75.48L154.13 76.95L152.91 78.45L151.73 79.99L150.61 81.56L149.53 83.17L148.5 84.8L147.52 86.46L146.59 88.16L145.71 89.88L144.88 91.63L144.11 93.4L143.39 95.2L142.72 97.02L142.1 98.87L141.54 100.74L141.04 102.63L140.59 104.53L140.2 106.46L139.86 108.4L139.59 110.36L139.37 112.33L139.22 114.32L139.12 116.33L139.09 118.34L139.11 120.36L139.2 122.4L140.8 142.4L140.94 144.26L141.11 146.11L141.32 147.96L141.57 149.81L141.85 151.65L142.16 153.48L142.51 155.31L142.9 157.13L143.32 158.95L143.78 160.75L144.26 162.55L144.79 164.33L145.35 166.11L145.94 167.87L146.57 169.63L147.23 171.37L147.92 173.1L148.65 174.81L149.41 176.51L150.2 178.2L151.03 179.87L151.89 181.53L152.78 183.17L153.7 184.79L154.66 186.4L155.65 187.99L156.67 189.56L157.72 191.11L158.81 192.64L159.93 194.15L161.07 195.64L162.25 197.11L163.46 198.55L164.71 199.98L165.98 201.38L167.28 202.75L168.62 204.1L169.98 205.43L171.38 206.73L172.8 208L172.56 207.22L172.33 206.43L172.11 205.65L171.89 204.86L171.68 204.07L171.47 203.27L171.27 202.48L171.07 201.68L170.88 200.88L170.7 200.08L170.52 199.27L170.35 198.47L170.19 197.66L170.03 196.85L169.88 196.05L169.73 195.24L169.59 194.43L169.45 193.62L169.32 192.81L169.2 192L169.08 191.19L168.97 190.38L168.87 189.57L168.77 188.76L168.68 187.95L168.59 187.15L168.51 186.34L168.43 185.53L168.36 184.73L168.3 183.93L168.24 183.12L168.19 182.32L168.15 181.52L168.11 180.73L168.08 179.93L168.05 179.14L168.03 178.35L168.01 177.57L168 176.78L168 176L168 138.4L168.01 137.68L168.04 136.97L168.09 136.26L168.17 135.55L168.26 134.85L168.37 134.15L168.5 133.46L168.65 132.77L168.82 132.1L169.01 131.43L169.22 130.76L169.45 130.11L169.69 129.46L169.96 128.82L170.24 128.19L170.53 127.57L170.85 126.96L171.18 126.36L171.53 125.78L171.9 125.2L172.28 124.64L172.68 124.08L173.1 123.55L173.53 123.02L173.98 122.51L174.44 122.01L174.92 121.53L175.41 121.06L175.92 120.61L176.44 120.18L176.97 119.76L177.52 119.35L178.09 118.97L178.66 118.6L179.25 118.25L179.86 117.92L180.48 117.61L181.1 117.32L181.75 117.05L182.4 116.8L247.99 89.38L251.65 87.85L280 76L280 104L280.01 104.66L280.05 105.31L280.12 105.95L280.21 106.59L280.33 107.21L280.47 107.83L280.63 108.44L280.82 109.04L281.03 109.63L281.26 110.21L281.52 110.78L281.79 111.34L282.09 111.88L282.41 112.41L282.74 112.93L283.1 113.43L283.47 113.92L283.86 114.4L284.27 114.86L284.7 115.3L285.14 115.73L285.6 116.14L286.08 116.53L286.57 116.9L287.07 117.26L287.59 117.59L288.12 117.91L288.66 118.21L289.22 118.48L289.79 118.74L290.37 118.97L290.96 119.18L291.56 119.37L292.17 119.53L292.79 119.67L293.41 119.79L294.05 119.88L294.69 119.95L295.34 119.99L296 120L320 120L321.01 120.02L322.02 120.08L323 120.17L323.98 120.3L324.94 120.47L325.88 120.68L326.81 120.92L327.72 121.19L328.61 121.5L329.49 121.84L330.34 122.21L331.18 122.61L332 123.05L332.8 123.51L333.57 124.01L334.32 124.53L335.05 125.08L335.76 125.66L336.44 126.27L337.1 126.9L337.73 127.56L338.34 128.24L338.92 128.95L339.47 129.68L339.99 130.43L340.49 131.2L340.95 132L341.39 132.82L341.79 133.66L342.16 134.51L342.5 135.39L342.81 136.28L343.08 137.19L343.32 138.12L343.53 139.06L343.7 140.02L343.83 141L343.92 141.98L343.98 142.99L344 144L344 176L344 176.84L343.99 177.67L343.97 178.51L343.95 179.34L343.93 180.16L343.89 180.99L343.85 181.81L343.81 182.63L343.76 183.45L343.7 184.26L343.64 185.08L343.57 185.89L343.49 186.69L343.41 187.5L343.33 188.3L343.23 189.11L343.13 189.91L343.03 190.71L342.92 191.5L342.8 192.3L342.68 193.09L342.55 193.89L342.41 194.68L342.27 195.47L342.13 196.26L341.97 197.05L341.81 197.83L341.65 198.62L341.48 199.4L341.3 200.19L341.12 200.97L340.93 201.75L340.73 202.54L340.53 203.32L340.33 204.1L340.11 204.88L339.89 205.66L339.67 206.44L339.44 207.22L339.2 208L340.62 206.73L342.02 205.43L343.38 204.1L344.72 202.75L346.02 201.38L347.29 199.98L348.54 198.55L349.75 197.11L350.93 195.64L352.08 194.15L353.19 192.64L354.28 191.11L355.33 189.56L356.35 187.99L357.34 186.4L358.3 184.79L359.22 183.17L360.11 181.53L360.97 179.87L361.8 178.2L362.59 176.51L363.35 174.81L364.08 173.1L364.77 171.37L365.43 169.63L366.06 167.87L366.65 166.11L367.21 164.33L367.74 162.55L368.23 160.75L368.68 158.95L369.1 157.13L369.49 155.31L369.84 153.48L370.15 151.65L370.43 149.81L370.68 147.96L370.89 146.11L371.06 144.26L371.2 142.4L372.8 122.4L372.89 120.36L372.91 118.34L372.88 116.33L372.78 114.32L372.63 112.33L372.41 110.36L372.14 108.4L371.8 106.46L371.41 104.53L370.96 102.63L370.46 100.74L369.9 98.87L369.28 97.02L368.61 95.2L367.89 93.4L367.12 91.63L366.29 89.88L365.41 88.16L364.48 86.46L363.5 84.8L362.47 83.17L361.39 81.56L360.27 79.99L359.09 78.45L357.87 76.95L356.6 75.48L355.29 74.05L353.93 72.65L352.53 71.29L351.09 69.98L349.6 68.7L348.07 67.46L346.5 66.27L344.89 65.12L343.24 64.02L341.54 62.96L339.81 61.94L338.05 60.98L336.24 60.07L334.4 59.2L288 39.2L286.49 38.56L284.98 37.95L283.45 37.37L281.91 36.82L280.36 36.31L278.8 35.83L277.24 35.39L275.66 34.98L274.08 34.6L272.49 34.25L270.89 33.94L269.29 33.66L267.68 33.41L266.06 33.19L264.45 33.01L262.82 32.86L261.2 32.75L259.57 32.67L257.93 32.62L256.3 32.6L254.66 32.62L253.03 32.67Z" id="c6ZzOn1sD"></path></defs><g><g><g><use xlink:href="#bpyjzF9OE" opacity="1" fill="#00befd" fill-opacity="1"></use><g><use xlink:href="#bpyjzF9OE" opacity="1" fill-opacity="0" stroke="#000000" stroke-width="1" stroke-opacity="0"></use></g></g><g><use xlink:href="#bwYy9WC1F" opacity="1" fill="#686868" fill-opacity="1"></use><g><use xlink:href="#bwYy9WC1F" opacity="1" fill-opacity="0" stroke="#000000" stroke-width="1" stroke-opacity="0"></use></g></g><g><use xlink:href="#l4rhFJIcg" opacity="1" fill="#3f3f3f" fill-opacity="1"></use><g><use xlink:href="#l4rhFJIcg" opacity="1" fill-opacity="0" stroke="#000000" stroke-width="1" stroke-opacity="0"></use></g></g><g><use xlink:href="#cc6EM7hsp" opacity="1" fill="#fcf8f2" fill-opacity="1"></use><g><use xlink:href="#cc6EM7hsp" opacity="1" fill-opacity="0" stroke="#000000" stroke-width="1" stroke-opacity="0"></use></g></g><g><use xlink:href="#c1FS1hlm8v" opacity="1" fill="#b4b4b5" fill-opacity="1"></use><g><use xlink:href="#c1FS1hlm8v" opacity="1" fill-opacity="0" stroke="#000000" stroke-width="1" stroke-opacity="0"></use></g></g><g><use xlink:href="#aOcUcnYRH" opacity="1" fill="#b4b4b5" fill-opacity="1"></use><g><use xlink:href="#aOcUcnYRH" opacity="1" fill-opacity="0" stroke="#000000" stroke-width="1" stroke-opacity="0"></use></g></g><g><use xlink:href="#aaqg4B7hQ" opacity="1" fill="#6b9baa" fill-opacity="1"></use><g><use xlink:href="#aaqg4B7hQ" opacity="1" fill-opacity="0" stroke="#000000" stroke-width="1" stroke-opacity="0"></use></g></g><g><use xlink:href="#a33g2Wi6oy" opacity="1" fill="#d15c50" fill-opacity="1"></use><g><use xlink:href="#a33g2Wi6oy" opacity="1" fill-opacity="0" stroke="#000000" stroke-width="1" stroke-opacity="0"></use></g></g><g><use xlink:href="#dLIPBUrYQ" opacity="1" fill="#0076ff" fill-opacity="1"></use><g><use xlink:href="#dLIPBUrYQ" opacity="1" fill-opacity="0" stroke="#000000" stroke-width="1" stroke-opacity="0"></use></g></g><g><use xlink:href="#ahvBXV51e" opacity="1" fill="#0076ff" fill-opacity="1"></use><g><use xlink:href="#ahvBXV51e" opacity="1" fill-opacity="0" stroke="#000000" stroke-width="1" stroke-opacity="0"></use></g></g><g><use xlink:href="#b1KGZ6qsNG" opacity="1" fill="#f7d2c4" fill-opacity="1"></use><g><use xlink:href="#b1KGZ6qsNG" opacity="1" fill-opacity="0" stroke="#000000" stroke-width="1" stroke-opacity="0"></use></g></g><g><use xlink:href="#b2mWS8ZXrK" opacity="1" fill="#6b9baa" fill-opacity="1"></use><g><use xlink:href="#b2mWS8ZXrK" opacity="1" fill-opacity="0" stroke="#000000" stroke-width="1" stroke-opacity="0"></use></g></g><g><use xlink:href="#b2m8u9Arn7" opacity="1" fill="#3f3f3f" fill-opacity="1"></use><g><use xlink:href="#b2m8u9Arn7" opacity="1" fill-opacity="0" stroke="#000000" stroke-width="1" stroke-opacity="0"></use></g></g><g><use xlink:href="#c1as33qEpN" opacity="1" fill="#f8d709" fill-opacity="0.9"></use><g><use xlink:href="#c1as33qEpN" opacity="1" fill-opacity="0" stroke="#000000" stroke-width="1" stroke-opacity="0"></use></g></g><g><use xlink:href="#dg064k4lz" opacity="1" fill="#000000" fill-opacity="1"></use><g><use xlink:href="#dg064k4lz" opacity="1" fill-opacity="0" stroke="#000000" stroke-width="1" stroke-opacity="0"></use></g></g><g><use xlink:href="#bdrB0CBn2" opacity="1" fill="#000000" fill-opacity="1"></use><g><use xlink:href="#bdrB0CBn2" opacity="1" fill-opacity="0" stroke="#000000" stroke-width="1" stroke-opacity="0"></use></g></g><g><use xlink:href="#c6ZzOn1sD" opacity="1" fill="#000000" fill-opacity="1"></use><g><use xlink:href="#c6ZzOn1sD" opacity="1" fill-opacity="0" stroke="#000000" stroke-width="1" stroke-opacity="0"></use></g></g></g></g></svg>