<?xml version="1.0" encoding="UTF-8" standalone="no"?>
<!DOCTYPE svg PUBLIC "-//W3C//DTD SVG 1.1//EN" "http://www.w3.org/Graphics/SVG/1.1/DTD/svg11.dtd">
<svg version="1.1" xmlns="http://www.w3.org/2000/svg" xmlns:xlink="http://www.w3.org/1999/xlink" preserveAspectRatio="xMidYMid meet" viewBox="0 0 640 640" width="640" height="640"><defs><path d="M320 10.32C234.49 10.32 165.16 79.65 165.16 165.16C165.16 169.98 165.16 194.06 165.16 237.42L474.84 237.42C474.84 194.06 474.84 169.98 474.84 165.16C474.84 79.65 405.51 10.32 320 10.32C320 10.32 320 10.32 320 10.32Z" id="d1SSGuBGLG"></path><path d="M423.23 237.42C426.67 237.42 443.87 237.42 474.84 237.42C474.84 194.06 474.84 169.98 474.84 165.16C474.84 79.65 405.51 10.32 320 10.32C320 10.32 423.23 61.94 423.23 196.13C423.23 211.08 423.23 224.7 423.23 237.42Z" id="b21O7K6URp"></path><path d="M41.29 588.39C63.04 523.14 75.12 486.9 77.53 479.65C87.02 451.2 111.18 430.12 140.66 424.6C147.79 423.13 183.49 415.79 247.74 402.58L392.26 402.58C456.5 415.79 492.2 423.13 499.33 424.6C528.82 430.12 552.97 451.2 562.46 479.65C564.87 486.9 576.96 523.14 598.71 588.39L464.52 588.39L175.48 588.39L41.29 588.39Z" id="c6p3XXCS54"></path><path d="M598.71 588.39C576.96 523.14 564.88 486.9 562.47 479.65C552.98 451.2 528.82 430.12 499.34 424.6C492.4 423.17 457.68 416.04 395.19 403.19L381.94 402.58C446.31 440.13 482.07 460.98 489.22 465.16C499.74 471.3 507.01 481.77 509.1 493.76C510.19 500.07 515.66 531.61 525.51 588.39L598.71 588.39Z" id="a6yNNCpj3l"></path><path d="M237.42 629.68C226.01 629.68 216.77 620.44 216.77 609.03C216.77 600.77 216.77 534.71 216.77 526.45C216.77 515.05 226.01 505.81 237.42 505.81C253.94 505.81 386.06 505.81 402.58 505.81C413.99 505.81 423.23 515.05 423.23 526.45C423.23 534.71 423.23 600.77 423.23 609.03C423.23 620.44 413.99 629.68 402.58 629.68C369.55 629.68 253.94 629.68 237.42 629.68Z" id="a7W8AJauO"></path><path d="M258.06 464.52L381.94 464.52L392.26 505.81L247.74 505.81L258.06 464.52Z" id="aGGrqBlXa"></path><path d="M381.94 402.58L320 464.52L258.06 402.58L258.06 361.29L381.94 361.29L381.94 402.58Z" id="a9Ft0jhBW"></path><path d="M433.55 278.71C456.35 278.71 474.84 260.22 474.84 237.42C474.84 214.62 456.35 196.13 433.55 196.13C433.55 212.65 433.55 270.45 433.55 278.71Z" id="h4Wj0H0TpM"></path><path d="M206.45 216.77C206.45 204.39 206.45 197.51 206.45 196.13C183.65 196.13 165.16 214.62 165.16 237.42C165.16 260.22 183.65 278.71 206.45 278.71C206.5 278.71 206.92 278.71 206.97 278.71C206.67 275.3 206.45 271.88 206.45 268.39C206.45 261.51 206.45 244.3 206.45 216.77Z" id="a1KVsU5r3C"></path><path d="M423.23 609.03C423.23 609.03 423.23 609.03 423.23 609.03C423.23 621.42 423.23 628.3 423.23 629.68C423.23 629.68 423.23 629.68 423.23 629.68C299.35 629.68 230.54 629.68 216.77 629.68C216.77 629.68 216.77 629.68 216.77 629.68C216.77 617.29 216.77 610.41 216.77 609.03C216.77 609.03 216.77 609.03 216.77 609.03C340.65 609.03 409.46 609.03 423.23 609.03Z" id="bJH5mrWeu"></path><path d="M320 505.81C285.79 505.81 258.06 533.54 258.06 567.74C258.06 601.95 285.79 629.68 320 629.68C354.21 629.68 381.94 601.95 381.94 567.74C381.94 533.54 354.21 505.81 320 505.81Z" id="g2ivOabyMB"></path><path d="M320 547.1C308.6 547.1 299.35 556.34 299.35 567.74C299.35 579.14 308.6 588.39 320 588.39C331.4 588.39 340.65 579.14 340.65 567.74C340.65 556.34 331.4 547.1 320 547.1Z" id="f2vPnDIzpe"></path><path d="M408.63 179.76C408.58 179.81 408.17 180.22 408.11 180.27C384.74 203.64 353.04 216.77 320 216.77C320.88 215.02 327.91 200.97 328.78 199.22C329.8 197.18 330.32 194.95 330.32 192.68C330.32 192.42 330.32 190.34 330.32 190.08C330.32 182.02 323.79 175.48 315.73 175.48C311.86 175.48 308.14 177.02 305.4 179.76C281.7 203.46 249.56 216.77 216.04 216.77C215.4 216.77 212.21 216.77 206.45 216.77C206.45 247.74 206.45 264.95 206.45 268.39C206.45 331.1 257.29 381.94 320 381.94C382.71 381.94 433.55 331.1 433.55 268.39C433.55 260.56 433.55 197.91 433.55 190.08C433.55 182.02 427.01 175.48 418.95 175.48C415.08 175.48 411.37 177.02 408.63 179.76Z" id="bSB7EoEKo"></path><path d="M408.63 179.76C408.58 179.81 408.17 180.22 408.11 180.27C406.34 182.05 404.44 183.64 402.58 185.28C402.58 193.59 402.58 260.08 402.58 268.39C402.58 325.83 359.89 373.19 304.52 380.76C309.59 381.45 314.74 381.94 320 381.94C382.71 381.94 433.55 331.1 433.55 268.39C433.55 260.56 433.55 197.91 433.55 190.08C433.55 182.02 427.01 175.48 418.95 175.48C415.08 175.48 411.37 177.02 408.63 179.76Z" id="auvlB3HVS"></path><path d="M333.53 0.55L340.18 1.23L346.75 2.17L353.24 3.36L359.64 4.81L365.94 6.5L372.15 8.43L378.24 10.6L384.22 13L390.09 15.62L395.83 18.46L401.45 21.52L406.93 24.78L412.28 28.25L417.48 31.91L422.53 35.77L427.42 39.81L432.16 44.03L436.73 48.43L441.13 53L445.35 57.74L449.4 62.63L453.25 67.68L456.91 72.88L460.38 78.23L463.64 83.71L466.7 89.33L469.54 95.07L472.16 100.94L474.56 106.92L476.73 113.02L478.66 119.22L480.35 125.52L481.8 131.92L483 138.41L483.94 144.98L484.61 151.64L485.02 158.36L485.16 165.16L485.16 237.42L485.13 239.32L485.02 241.21L484.85 243.08L484.61 244.93L484.31 246.76L483.95 248.56L483.52 250.34L483.03 252.1L482.47 253.83L481.86 255.53L481.2 257.21L480.47 258.86L479.69 260.47L478.86 262.05L477.97 263.6L477.03 265.12L476.04 266.6L475 268.04L473.92 269.45L472.78 270.82L471.61 272.14L470.38 273.43L469.11 274.67L467.81 275.87L466.46 277.03L465.07 278.14L463.64 279.2L462.17 280.21L460.67 281.17L459.14 282.09L457.57 282.95L455.97 283.76L454.33 284.51L452.67 285.21L450.98 285.85L449.26 286.43L447.52 286.96L445.75 287.42L443.95 287.82L442.14 288.17L441.71 290.64L441.24 293.1L440.72 295.53L440.15 297.96L439.53 300.36L438.87 302.74L438.16 305.11L437.4 307.45L436.6 309.77L435.76 312.08L434.87 314.36L433.94 316.62L432.96 318.85L431.95 321.06L430.89 323.25L429.79 325.42L428.65 327.56L427.46 329.67L426.24 331.76L424.98 333.83L423.68 335.86L422.34 337.87L420.97 339.85L419.55 341.81L418.1 343.73L416.62 345.63L415.09 347.49L413.53 349.33L411.94 351.13L410.31 352.9L408.65 354.64L406.96 356.35L405.23 358.03L403.47 359.67L401.68 361.28L399.85 362.85L398 364.39L396.12 365.9L394.2 367.36L392.26 368.79L392.26 394.01L501.23 414.45L503.71 414.95L506.16 415.51L508.59 416.14L510.99 416.83L513.36 417.58L515.71 418.4L518.03 419.27L520.32 420.21L522.58 421.2L524.81 422.25L527.01 423.36L529.18 424.52L531.31 425.74L533.4 427.01L535.46 428.34L537.48 429.72L539.46 431.15L541.41 432.63L543.31 434.17L545.17 435.75L546.99 437.38L548.77 439.06L550.51 440.78L552.19 442.55L553.84 444.36L555.43 446.22L556.98 448.12L558.47 450.07L559.92 452.05L561.32 454.08L562.66 456.14L563.95 458.25L565.19 460.39L566.37 462.57L567.5 464.79L568.57 467.04L569.58 469.32L570.53 471.64L571.42 473.99L572.25 476.38L613.03 598.71L454.19 598.71L454.19 578.06L482.26 578.06L464.83 508.3L484.85 503.31L503.55 578.06L584.39 578.06L552.68 482.91L552.03 481.06L551.34 479.23L550.6 477.42L549.81 475.65L548.98 473.9L548.11 472.17L547.19 470.48L546.22 468.81L545.22 467.18L544.17 465.57L543.09 463.99L541.96 462.45L540.8 460.94L539.59 459.46L538.35 458.01L537.08 456.6L535.76 455.22L534.42 453.88L533.03 452.58L531.62 451.31L530.17 450.08L528.69 448.89L527.18 447.73L525.63 446.62L524.06 445.55L522.46 444.51L520.83 443.52L519.17 442.57L517.49 441.67L515.78 440.81L514.05 439.99L512.29 439.22L510.51 438.49L508.7 437.81L506.88 437.18L505.03 436.59L503.16 436.05L501.28 435.56L499.37 435.12L497.45 434.74L431.69 422.41L414.87 498.05L415.69 498.42L416.5 498.82L417.29 499.23L418.06 499.67L418.83 500.12L419.58 500.6L420.31 501.1L421.03 501.62L421.73 502.16L422.42 502.72L423.09 503.29L423.75 503.89L424.38 504.5L425 505.14L425.61 505.78L426.19 506.45L426.75 507.13L427.3 507.83L427.82 508.55L428.33 509.28L428.81 510.02L429.27 510.78L429.72 511.55L430.14 512.34L430.53 513.14L430.91 513.95L431.26 514.78L431.59 515.62L431.89 516.46L432.17 517.32L432.43 518.2L432.66 519.08L432.86 519.97L433.04 520.87L433.2 521.78L433.32 522.7L433.42 523.62L433.49 524.56L433.53 525.5L433.55 526.45L433.55 609.03L433.52 610.31L433.45 611.57L433.32 612.82L433.14 614.05L432.92 615.26L432.65 616.46L432.33 617.65L431.97 618.81L431.56 619.95L431.11 621.07L430.62 622.17L430.09 623.25L429.51 624.3L428.9 625.33L428.25 626.33L427.56 627.31L426.84 628.26L426.08 629.17L425.29 630.06L424.47 630.92L423.61 631.74L422.72 632.54L421.8 633.29L420.86 634.02L419.88 634.7L418.88 635.35L417.85 635.97L416.8 636.54L415.72 637.07L414.62 637.56L413.5 638.01L412.36 638.42L411.19 638.78L410.01 639.1L408.81 639.37L407.6 639.59L406.36 639.77L405.12 639.9L403.86 639.97L402.58 640L237.42 640L236.14 639.97L234.88 639.9L233.64 639.77L232.4 639.59L231.19 639.37L229.99 639.1L228.81 638.78L227.64 638.42L226.5 638.01L225.38 637.56L224.28 637.07L223.2 636.54L222.15 635.97L221.12 635.35L220.12 634.7L219.14 634.02L218.2 633.29L217.28 632.54L216.39 631.74L215.53 630.92L214.71 630.06L213.92 629.17L213.16 628.26L212.44 627.31L211.75 626.33L211.1 625.33L210.49 624.3L209.91 623.25L209.38 622.17L208.89 621.07L208.44 619.95L208.03 618.81L207.67 617.65L207.35 616.46L207.08 615.26L206.86 614.05L206.68 612.82L206.55 611.57L206.48 610.31L206.45 609.03L206.45 526.45L206.47 525.5L206.51 524.56L206.58 523.62L206.68 522.7L206.8 521.78L206.96 520.87L207.14 519.97L207.34 519.08L207.57 518.2L207.83 517.32L208.11 516.46L208.41 515.62L208.74 514.78L209.09 513.95L209.47 513.14L209.87 512.34L210.29 511.55L210.73 510.78L211.19 510.02L211.67 509.28L212.18 508.55L212.7 507.83L213.25 507.13L213.81 506.45L214.4 505.78L215 505.14L215.62 504.5L216.26 503.89L216.91 503.29L217.58 502.72L218.27 502.16L218.97 501.62L219.69 501.1L220.43 500.6L221.18 500.12L221.94 499.67L222.72 499.23L223.51 498.82L224.32 498.42L225.14 498.05L208.32 422.41L142.57 434.74L140.64 435.12L138.73 435.56L136.85 436.05L134.98 436.59L133.13 437.18L131.3 437.81L129.5 438.49L127.72 439.22L125.96 439.99L124.23 440.81L122.52 441.67L120.83 442.57L119.18 443.52L117.55 444.51L115.95 445.55L114.37 446.62L112.83 447.73L111.32 448.89L109.84 450.08L108.39 451.31L106.97 452.58L105.59 453.88L104.24 455.22L102.93 456.6L101.65 458.01L100.41 459.46L99.21 460.94L98.04 462.45L96.92 463.99L95.83 465.57L94.79 467.18L93.78 468.81L92.82 470.48L91.9 472.17L91.03 473.9L90.19 475.65L89.41 477.42L88.67 479.23L87.97 481.06L87.33 482.91L55.61 578.06L136.45 578.06L155.15 503.31L175.17 508.3L157.74 578.06L185.81 578.06L185.81 598.71L26.97 598.71L67.74 476.39L68.57 474L69.46 471.65L70.41 469.33L71.42 467.05L72.49 464.8L73.62 462.58L74.8 460.4L76.04 458.26L77.33 456.16L78.67 454.09L80.07 452.06L81.52 450.08L83.01 448.13L84.56 446.23L86.16 444.37L87.8 442.56L89.49 440.79L91.22 439.07L93 437.39L94.82 435.76L96.68 434.18L98.59 432.64L100.53 431.16L102.51 429.73L104.54 428.35L106.59 427.02L108.69 425.75L110.82 424.53L112.98 423.37L115.18 422.26L117.41 421.21L119.67 420.22L121.96 419.28L124.28 418.41L126.63 417.59L129 416.84L131.4 416.15L133.83 415.52L136.28 414.96L138.76 414.46L247.74 394.02L247.74 368.95L245.8 367.52L243.88 366.05L242 364.55L240.14 363.01L238.31 361.44L236.52 359.83L234.76 358.18L233.03 356.51L231.33 354.8L229.66 353.06L228.03 351.29L226.44 349.48L224.87 347.65L223.35 345.78L221.86 343.88L220.4 341.96L218.98 340L217.6 338.02L216.26 336.01L214.95 333.97L213.69 331.91L212.46 329.82L211.28 327.7L210.13 325.56L209.03 323.4L207.96 321.21L206.94 318.99L205.96 316.76L205.03 314.5L204.14 312.21L203.29 309.91L202.48 307.59L201.73 305.24L201.01 302.88L200.35 300.49L199.73 298.09L199.16 295.67L198.63 293.23L198.16 290.77L197.73 288.3L195.92 287.96L194.13 287.55L192.36 287.08L190.62 286.55L188.9 285.96L187.22 285.32L185.56 284.62L183.93 283.86L182.33 283.04L180.77 282.18L179.24 281.26L177.74 280.29L176.28 279.27L174.86 278.21L173.47 277.09L172.13 275.93L170.82 274.73L169.56 273.48L168.34 272.19L167.16 270.86L166.03 269.48L164.95 268.07L163.92 266.63L162.93 265.14L162 263.62L161.11 262.07L160.28 260.48L159.51 258.86L158.79 257.21L158.12 255.54L157.51 253.83L156.96 252.1L156.48 250.34L156.05 248.56L155.68 246.75L155.38 244.92L155.15 243.08L154.98 241.21L154.87 239.32L154.84 237.42L154.84 165.16L154.98 158.36L155.39 151.64L156.06 144.98L157 138.41L158.2 131.92L159.65 125.52L161.34 119.22L163.27 113.02L165.44 106.92L167.84 100.94L170.46 95.07L173.3 89.33L176.36 83.71L179.62 78.23L183.09 72.88L186.75 67.68L190.6 62.63L194.65 57.74L198.87 53L203.27 48.43L207.84 44.03L212.58 39.81L217.47 35.77L222.52 31.91L227.72 28.25L233.07 24.78L238.55 21.52L244.17 18.46L249.91 15.62L255.78 13L261.76 10.6L267.85 8.43L274.06 6.5L280.36 4.81L286.76 3.36L293.25 2.17L299.82 1.23L306.47 0.55L313.2 0.14L320 0L326.8 0.14L333.53 0.55ZM236.99 516.14L236.57 516.16L236.16 516.21L235.75 516.26L235.34 516.34L234.94 516.43L234.55 516.53L234.16 516.66L233.78 516.79L233.41 516.94L233.04 517.1L232.68 517.28L232.33 517.47L231.99 517.68L231.65 517.89L231.33 518.12L231.01 518.36L230.71 518.61L230.41 518.88L230.13 519.15L229.85 519.44L229.59 519.73L229.33 520.04L229.09 520.36L228.86 520.68L228.65 521.02L228.44 521.36L228.25 521.71L228.07 522.07L227.91 522.43L227.76 522.81L227.62 523.19L227.5 523.58L227.4 523.97L227.31 524.37L227.23 524.78L227.17 525.19L227.13 525.61L227.11 526.03L227.1 526.45L227.1 609.03L227.1 609.32L227.12 609.6L227.15 609.88L227.2 610.16L227.26 610.44L227.33 610.72L227.41 610.99L227.51 611.27L227.62 611.54L227.74 611.81L227.88 612.09L228.03 612.35L228.19 612.62L228.36 612.89L228.55 613.15L228.75 613.42L228.96 613.68L229.19 613.94L229.43 614.2L229.68 614.46L229.94 614.72L230.22 614.98L230.51 615.23L230.81 615.48L231.13 615.74L231.46 615.99L231.8 616.24L232.15 616.48L232.52 616.73L232.9 616.98L233.3 617.22L233.7 617.46L234.12 617.7L234.55 617.94L235 618.18L235.46 618.42L235.93 618.66L236.41 618.89L236.91 619.12L237.42 619.35L269.53 619.35L268.54 618.36L267.56 617.35L266.6 616.32L265.66 615.26L264.74 614.2L263.84 613.11L262.97 612.01L262.11 610.89L261.28 609.75L260.46 608.59L259.67 607.42L258.9 606.24L258.16 605.03L257.44 603.82L256.74 602.58L256.06 601.34L255.41 600.07L254.78 598.8L254.18 597.51L253.6 596.2L253.05 594.89L252.52 593.56L252.02 592.21L251.54 590.86L251.1 589.49L250.67 588.11L250.28 586.72L249.91 585.32L249.57 583.91L249.26 582.49L248.97 581.05L248.72 579.61L248.49 578.16L248.3 576.7L248.13 575.22L247.99 573.74L247.88 572.26L247.8 570.76L247.76 569.25L247.74 567.74L247.76 566.23L247.8 564.73L247.88 563.23L247.99 561.74L248.13 560.26L248.3 558.79L248.49 557.33L248.72 555.87L248.97 554.43L249.26 553L249.57 551.57L249.91 550.16L250.28 548.76L250.67 547.37L251.1 545.99L251.54 544.62L252.02 543.27L252.52 541.93L253.05 540.6L253.6 539.28L254.18 537.98L254.78 536.69L255.41 535.41L256.06 534.15L256.74 532.9L257.44 531.67L258.16 530.45L258.9 529.25L259.67 528.06L260.46 526.89L261.28 525.74L262.11 524.6L262.97 523.48L263.84 522.37L264.74 521.29L265.66 520.22L266.6 519.17L267.56 518.14L268.54 517.12L269.53 516.13L237.42 516.13L236.99 516.14ZM315.77 516.3L313.69 516.51L311.64 516.81L309.61 517.18L307.61 517.63L305.64 518.16L303.7 518.76L301.8 519.44L299.93 520.19L298.1 521.01L296.3 521.9L294.55 522.85L292.83 523.87L291.16 524.96L289.54 526.1L287.96 527.31L286.43 528.57L284.95 529.89L283.52 531.26L282.15 532.69L280.83 534.17L279.56 535.7L278.36 537.28L277.21 538.9L276.13 540.57L275.11 542.29L274.16 544.04L273.27 545.84L272.45 547.67L271.7 549.54L271.02 551.45L270.42 553.38L269.89 555.35L269.44 557.35L269.06 559.38L268.77 561.44L268.56 563.52L268.43 565.62L268.39 567.74L268.43 569.87L268.56 571.97L268.77 574.05L269.06 576.1L269.44 578.13L269.89 580.13L270.42 582.1L271.02 584.04L271.7 585.94L272.45 587.81L273.27 589.65L274.16 591.44L275.11 593.2L276.13 594.91L277.21 596.58L278.36 598.2L279.56 599.78L280.83 601.31L282.15 602.79L283.52 604.22L284.95 605.6L286.43 606.92L287.96 608.18L289.54 609.38L291.16 610.53L292.83 611.61L294.55 612.63L296.3 613.59L298.1 614.47L299.93 615.29L301.8 616.04L303.7 616.72L305.64 617.32L307.61 617.85L309.61 618.3L311.64 618.68L313.69 618.97L315.77 619.18L317.88 619.31L320 619.35L322.12 619.31L324.23 619.18L326.31 618.97L328.36 618.68L330.39 618.3L332.39 617.85L334.36 617.32L336.3 616.72L338.2 616.04L340.07 615.29L341.9 614.47L343.7 613.59L345.45 612.63L347.17 611.61L348.84 610.53L350.46 609.38L352.04 608.18L353.57 606.92L355.05 605.6L356.48 604.22L357.85 602.79L359.17 601.31L360.44 599.78L361.64 598.2L362.79 596.58L363.87 594.91L364.89 593.2L365.84 591.44L366.73 589.65L367.55 587.81L368.3 585.94L368.98 584.04L369.58 582.1L370.11 580.13L370.56 578.13L370.94 576.1L371.23 574.05L371.44 571.97L371.57 569.87L371.61 567.74L371.57 565.62L371.44 563.52L371.23 561.44L370.94 559.38L370.56 557.35L370.11 555.35L369.58 553.38L368.98 551.45L368.3 549.54L367.55 547.67L366.73 545.84L365.84 544.04L364.89 542.29L363.87 540.57L362.79 538.9L361.64 537.28L360.44 535.7L359.17 534.17L357.85 532.69L356.48 531.26L355.05 529.89L353.57 528.57L352.04 527.31L350.46 526.1L348.84 524.96L347.17 523.87L345.45 522.85L343.7 521.9L341.9 521.01L340.07 520.19L338.2 519.44L336.3 518.76L334.36 518.16L332.39 517.63L330.39 517.18L328.36 516.81L326.31 516.51L324.23 516.3L322.12 516.17L320 516.13L317.88 516.17L315.77 516.3ZM371.46 517.12L372.44 518.14L373.4 519.17L374.34 520.22L375.26 521.29L376.16 522.37L377.03 523.48L377.89 524.6L378.72 525.74L379.54 526.89L380.33 528.06L381.1 529.25L381.84 530.45L382.56 531.67L383.26 532.9L383.94 534.15L384.59 535.41L385.22 536.69L385.82 537.98L386.4 539.28L386.95 540.6L387.48 541.93L387.98 543.27L388.46 544.62L388.9 545.99L389.33 547.37L389.72 548.76L390.09 550.16L390.43 551.57L390.74 553L391.03 554.43L391.28 555.87L391.51 557.33L391.7 558.79L391.87 560.26L392.01 561.74L392.12 563.23L392.2 564.73L392.24 566.23L392.26 567.74L392.24 569.25L392.2 570.76L392.12 572.26L392.01 573.74L391.87 575.22L391.7 576.7L391.51 578.16L391.28 579.61L391.03 581.05L390.74 582.49L390.43 583.91L390.09 585.32L389.72 586.72L389.33 588.11L388.9 589.49L388.46 590.86L387.98 592.21L387.48 593.56L386.95 594.89L386.4 596.2L385.82 597.51L385.22 598.8L384.59 600.07L383.94 601.34L383.26 602.58L382.56 603.82L381.84 605.03L381.1 606.24L380.33 607.42L379.54 608.59L378.72 609.75L377.89 610.89L377.03 612.01L376.16 613.11L375.26 614.2L374.34 615.26L373.4 616.32L372.44 617.35L371.46 618.36L370.47 619.35L402.58 619.35L402.86 619.35L403.15 619.33L403.43 619.3L403.71 619.25L403.99 619.19L404.26 619.12L404.54 619.04L404.81 618.94L405.09 618.83L405.36 618.71L405.63 618.57L405.9 618.43L406.17 618.26L406.43 618.09L406.7 617.9L406.96 617.7L407.23 617.49L407.49 617.26L407.75 617.03L408.01 616.77L408.26 616.51L408.52 616.23L408.77 615.94L409.03 615.64L409.28 615.32L409.53 614.99L409.78 614.65L410.03 614.3L410.27 613.93L410.52 613.55L410.76 613.15L411.01 612.75L411.25 612.33L411.49 611.9L411.73 611.45L411.97 610.99L412.2 610.52L412.44 610.04L412.67 609.54L412.9 609.03L412.9 526.45L412.89 526.03L412.87 525.61L412.83 525.19L412.77 524.78L412.69 524.37L412.6 523.97L412.5 523.58L412.38 523.19L412.24 522.81L412.09 522.43L411.93 522.07L411.75 521.71L411.56 521.36L411.35 521.02L411.14 520.68L410.91 520.36L410.67 520.04L410.41 519.73L410.15 519.44L409.87 519.15L409.59 518.88L409.29 518.61L408.99 518.36L408.67 518.12L408.35 517.89L408.01 517.68L407.67 517.47L407.32 517.28L406.96 517.1L406.59 516.94L406.22 516.79L405.84 516.66L405.45 516.53L405.06 516.43L404.66 516.34L404.25 516.26L403.84 516.21L403.43 516.16L403.01 516.14L402.58 516.13L370.47 516.13L371.46 517.12ZM260.97 495.48L379.03 495.48L373.87 474.84L266.13 474.84L260.97 495.48ZM390 454.19L397.13 482.75L411.39 418.6L385.38 413.73L344.92 454.19L390 454.19ZM242.87 482.75L250 454.19L295.08 454.19L254.62 413.73L228.61 418.6L242.87 482.75ZM369.24 381.92L368.04 382.43L366.84 382.93L365.63 383.42L364.42 383.9L363.2 384.37L361.97 384.82L360.74 385.26L359.5 385.69L358.26 386.11L357.01 386.51L355.76 386.9L354.5 387.28L353.23 387.65L351.96 388L350.68 388.34L349.4 388.66L348.11 388.97L346.82 389.27L345.52 389.56L344.22 389.83L342.91 390.09L341.6 390.33L340.28 390.56L338.96 390.78L337.64 390.98L336.31 391.16L334.97 391.34L333.63 391.49L332.29 391.64L330.94 391.77L329.58 391.88L328.23 391.98L326.87 392.07L325.5 392.13L324.13 392.19L322.76 392.23L321.38 392.25L320 392.26L318.62 392.25L317.24 392.23L315.87 392.19L314.5 392.14L313.14 392.07L311.78 391.98L310.42 391.89L309.07 391.77L307.72 391.65L306.37 391.5L305.03 391.35L303.7 391.17L302.37 390.99L301.04 390.79L299.72 390.58L298.4 390.35L297.09 390.11L295.78 389.85L294.48 389.58L293.18 389.3L291.89 389L290.6 388.69L289.32 388.37L288.04 388.03L286.77 387.68L285.51 387.32L284.25 386.94L282.99 386.55L281.74 386.15L280.5 385.73L279.26 385.31L278.03 384.87L276.8 384.41L275.58 383.95L274.37 383.47L273.16 382.98L271.96 382.48L270.76 381.97L269.57 381.44L268.39 380.9L268.39 398.31L320 449.92L371.61 398.31L371.61 380.85L370.43 381.39L369.24 381.92ZM418.11 185.99L417.87 186.03L417.64 186.09L417.4 186.15L417.17 186.24L416.95 186.34L416.73 186.45L416.52 186.58L416.31 186.72L416.11 186.89L415.92 187.07L413.95 188.99L411.96 190.88L409.94 192.71L407.89 194.51L405.81 196.25L403.71 197.95L401.58 199.61L399.42 201.21L397.24 202.78L395.03 204.29L392.8 205.76L390.55 207.18L388.27 208.55L385.97 209.88L383.65 211.16L381.31 212.39L378.94 213.57L376.56 214.71L374.15 215.79L371.73 216.83L369.29 217.82L366.82 218.76L364.35 219.65L361.85 220.49L359.34 221.29L356.81 222.03L354.26 222.72L351.7 223.36L349.13 223.96L346.54 224.5L343.94 224.99L341.32 225.43L338.69 225.82L336.06 226.16L333.4 226.44L330.74 226.68L328.07 226.86L325.39 226.99L322.7 227.07L320 227.1L303.3 227.1L319.55 194.6L319.57 194.56L319.59 194.51L319.61 194.47L319.63 194.42L319.65 194.37L319.67 194.33L319.69 194.28L319.71 194.24L319.73 194.19L319.74 194.14L319.76 194.09L319.78 194.05L319.79 194L319.81 193.95L319.82 193.9L319.84 193.86L319.85 193.81L319.86 193.76L319.87 193.71L319.89 193.66L319.9 193.62L319.91 193.57L319.92 193.52L319.93 193.47L319.94 193.42L319.94 193.37L319.95 193.32L319.96 193.27L319.97 193.23L319.97 193.18L319.98 193.13L319.98 193.08L319.99 193.03L319.99 192.98L319.99 192.93L320 192.88L320 192.83L320 192.78L320 192.73L320 192.68L320 190.08L319.99 189.82L319.96 189.57L319.92 189.32L319.86 189.08L319.79 188.85L319.7 188.62L319.6 188.4L319.48 188.19L319.35 187.99L319.21 187.79L319.06 187.6L318.89 187.42L318.72 187.25L318.54 187.09L318.34 186.94L318.14 186.8L317.94 186.66L317.72 186.54L317.5 186.43L317.28 186.33L317.05 186.24L316.82 186.17L316.58 186.1L316.34 186.05L316.1 186L315.85 185.98L315.61 185.96L315.37 185.96L315.12 185.97L314.88 185.99L314.64 186.03L314.41 186.09L314.17 186.15L313.94 186.24L313.72 186.34L313.5 186.45L313.29 186.58L313.08 186.72L312.88 186.89L312.69 187.07L310.75 188.97L308.78 190.82L306.79 192.64L304.76 194.41L302.7 196.14L300.61 197.82L298.5 199.46L296.35 201.05L294.18 202.6L291.99 204.11L289.77 205.57L287.52 206.98L285.25 208.35L282.95 209.67L280.64 210.94L278.29 212.17L275.93 213.36L273.55 214.49L271.14 215.58L268.71 216.62L266.27 217.61L263.8 218.56L261.32 219.45L258.81 220.3L256.29 221.1L253.75 221.85L251.2 222.56L248.63 223.21L246.05 223.81L243.45 224.36L240.83 224.87L238.21 225.32L235.57 225.72L232.91 226.07L230.25 226.37L227.57 226.62L224.89 226.82L222.19 226.96L219.49 227.06L216.77 227.1L216.77 268.39L216.86 272.64L217.12 276.84L217.54 281L218.13 285.11L218.88 289.16L219.78 293.16L220.84 297.1L222.05 300.98L223.4 304.79L224.9 308.53L226.54 312.2L228.31 315.79L230.22 319.29L232.26 322.72L234.43 326.06L236.72 329.31L239.13 332.47L241.65 335.53L244.29 338.49L247.04 341.34L249.9 344.09L252.86 346.73L255.92 349.26L259.08 351.67L262.33 353.96L265.67 356.13L269.09 358.16L272.6 360.07L276.19 361.85L279.86 363.49L283.6 364.99L287.41 366.34L291.28 367.55L295.22 368.61L299.22 369.51L303.28 370.26L307.39 370.85L311.55 371.27L315.75 371.53L320 371.61L324.25 371.53L328.45 371.27L332.61 370.85L336.72 370.26L340.78 369.51L344.78 368.61L348.72 367.55L352.59 366.34L356.4 364.99L360.14 363.49L363.81 361.85L367.4 360.07L370.91 358.16L374.33 356.13L377.67 353.96L380.92 351.67L384.08 349.26L387.14 346.73L390.1 344.09L392.96 341.34L395.71 338.49L398.35 335.53L400.87 332.47L403.28 329.31L405.57 326.06L407.74 322.72L409.78 319.29L411.69 315.79L413.46 312.2L415.1 308.53L416.6 304.79L417.95 300.98L419.16 297.1L420.22 293.16L421.12 289.16L421.87 285.11L422.46 281L422.88 276.84L423.14 272.64L423.23 268.39L423.23 190.08L423.22 189.82L423.19 189.57L423.15 189.32L423.09 189.08L423.01 188.85L422.93 188.62L422.82 188.4L422.71 188.19L422.58 187.99L422.44 187.79L422.28 187.6L422.12 187.42L421.95 187.25L421.76 187.09L421.57 186.94L421.37 186.8L421.17 186.66L420.95 186.54L420.73 186.43L420.51 186.33L420.28 186.24L420.05 186.17L419.81 186.1L419.57 186.05L419.33 186L419.08 185.98L418.84 185.96L418.6 185.96L418.35 185.97L418.11 185.99ZM193.42 209.33L192.11 209.97L190.84 210.68L189.61 211.44L188.42 212.26L187.26 213.13L186.15 214.05L185.09 215.02L184.07 216.04L183.09 217.11L182.17 218.22L181.3 219.37L180.48 220.56L179.72 221.8L179.02 223.07L178.37 224.37L177.78 225.71L177.26 227.08L176.8 228.48L176.4 229.91L176.08 231.37L175.82 232.85L175.63 234.35L175.52 235.88L175.48 237.42L175.51 238.46L175.61 239.5L175.76 240.56L175.97 241.62L176.25 242.68L176.58 243.75L176.98 244.83L177.44 245.92L177.96 247.01L178.54 248.11L179.18 249.22L179.88 250.33L180.65 251.45L181.47 252.58L182.36 253.71L183.3 254.85L184.31 256L185.38 257.15L186.51 258.31L187.7 259.48L188.95 260.65L190.27 261.83L191.64 263.02L193.08 264.21L194.57 265.41L196.13 266.62L196.13 208.22L194.76 208.74L193.42 209.33ZM445.24 265.96L446.58 265.38L447.88 264.73L449.15 264.03L450.38 263.27L451.57 262.46L452.72 261.6L453.83 260.68L454.9 259.71L455.92 258.7L456.89 257.64L457.82 256.54L458.69 255.4L459.51 254.21L460.27 252.99L460.98 251.72L461.62 250.43L462.21 249.1L462.74 247.73L463.2 246.34L463.59 244.92L463.92 243.47L464.18 241.99L464.36 240.49L464.48 238.97L464.52 237.43L464.48 235.89L464.36 234.37L464.18 232.87L463.92 231.39L463.59 229.94L463.2 228.52L462.74 227.13L462.21 225.76L461.62 224.43L460.98 223.13L460.27 221.87L459.51 220.64L458.69 219.46L457.82 218.31L456.89 217.21L455.92 216.15L454.9 215.14L453.83 214.17L452.72 213.26L451.57 212.39L450.38 211.58L449.15 210.82L447.88 210.12L446.58 209.47L445.24 208.89L443.87 208.36L443.87 266.49L445.24 265.96ZM318.77 165.35L319.76 165.49L320.74 165.67L321.71 165.89L322.66 166.14L323.59 166.43L324.51 166.76L325.42 167.12L326.3 167.52L327.17 167.95L328.02 168.41L328.84 168.9L329.65 169.42L330.43 169.98L331.2 170.56L331.93 171.17L332.65 171.8L333.34 172.47L334 173.16L334.64 173.87L335.25 174.61L335.83 175.37L336.38 176.16L336.91 176.96L337.4 177.79L337.86 178.64L338.29 179.51L338.68 180.39L339.05 181.29L339.37 182.21L339.66 183.15L339.92 184.1L340.14 185.06L340.32 186.04L340.46 187.04L340.56 188.04L340.62 189.05L340.65 190.08L340.65 192.68L340.64 192.97L340.64 193.26L340.63 193.55L340.62 193.84L340.6 194.12L340.58 194.41L340.56 194.7L340.54 194.99L340.51 195.28L340.48 195.56L340.44 195.85L340.4 196.14L340.36 196.42L340.32 196.71L340.27 196.99L340.22 197.28L340.16 197.56L340.1 197.84L340.04 198.12L339.98 198.41L339.91 198.69L339.84 198.97L339.76 199.25L339.69 199.52L339.61 199.8L339.52 200.08L339.44 200.35L339.35 200.63L339.25 200.9L339.16 201.17L339.06 201.45L338.95 201.72L338.85 201.98L338.74 202.25L338.63 202.52L338.51 202.78L338.4 203.05L338.27 203.31L338.15 203.57L338.02 203.83L337.36 205.15L339.15 204.87L340.94 204.55L342.71 204.21L344.48 203.84L346.24 203.45L348 203.02L349.74 202.57L351.48 202.09L353.2 201.59L354.92 201.05L356.63 200.49L358.33 199.91L360.01 199.29L361.69 198.65L363.36 197.98L365.01 197.29L366.66 196.57L368.29 195.82L369.91 195.05L371.52 194.25L373.12 193.43L374.71 192.58L376.28 191.7L377.84 190.8L379.39 189.87L380.92 188.92L382.44 187.94L383.94 186.94L385.43 185.91L386.91 184.86L388.37 183.78L389.82 182.68L391.25 181.55L392.67 180.4L394.06 179.23L395.45 178.03L396.82 176.8L398.17 175.55L399.5 174.28L400.82 172.99L401.2 172.6L401.6 172.23L402 171.87L402.4 171.51L402.81 171.17L403.22 170.83L403.63 170.51L404.05 170.19L404.48 169.88L404.91 169.59L405.34 169.3L405.77 169.02L406.21 168.75L406.65 168.49L407.09 168.24L407.54 168L407.99 167.77L408.45 167.55L408.9 167.34L409.36 167.14L409.82 166.95L410.29 166.76L410.75 166.59L411.22 166.43L411.69 166.28L412.17 166.13L412.64 166L413.12 165.88L413.6 165.76L414.08 165.66L414.56 165.56L415.04 165.48L415.53 165.41L416.02 165.34L416.5 165.29L416.99 165.24L417.48 165.21L417.97 165.18L418.46 165.17L418.95 165.16L419.89 165.18L420.83 165.23L421.75 165.32L422.66 165.44L423.57 165.59L424.46 165.78L425.34 165.99L426.2 166.24L427.05 166.52L427.89 166.83L428.72 167.17L429.52 167.54L430.32 167.93L431.09 168.35L431.85 168.8L432.59 169.27L433.32 169.77L434.02 170.3L434.71 170.85L435.37 171.42L436.02 172.01L436.64 172.63L437.24 173.27L437.82 173.93L438.38 174.61L438.91 175.31L439.42 176.03L439.9 176.76L440.36 177.52L440.79 178.29L441.2 179.08L441.57 179.88L441.92 180.7L442.24 181.54L442.54 182.39L442.8 183.25L443.03 184.12L443.23 185.01L443.4 185.91L443.54 186.82L444.12 186.94L444.71 187.06L445.28 187.2L445.86 187.34L446.43 187.48L447 187.63L447.57 187.79L448.13 187.96L448.69 188.13L449.25 188.31L449.81 188.5L450.36 188.69L450.91 188.89L451.45 189.09L452 189.31L452.54 189.52L453.07 189.75L453.61 189.97L454.14 190.21L454.66 190.45L455.19 190.7L455.71 190.95L456.23 191.21L456.74 191.47L457.25 191.74L457.76 192.01L458.26 192.29L458.77 192.58L459.26 192.87L459.76 193.17L460.25 193.47L460.74 193.77L461.22 194.08L461.7 194.4L462.18 194.72L462.65 195.05L463.13 195.38L463.59 195.71L464.06 196.05L464.52 196.4L464.52 165.16L464.4 159.21L464.04 153.33L463.44 147.5L462.62 141.75L461.58 136.07L460.31 130.47L458.83 124.96L457.14 119.53L455.24 114.2L453.14 108.96L450.85 103.83L448.36 98.8L445.69 93.89L442.83 89.09L439.8 84.42L436.6 79.87L433.22 75.45L429.69 71.16L425.99 67.02L422.14 63.02L418.14 59.17L414 55.47L409.72 51.94L405.3 48.56L400.75 45.36L396.07 42.33L391.27 39.47L386.36 36.8L381.33 34.31L376.2 32.02L370.96 29.92L365.63 28.02L360.2 26.33L354.69 24.85L349.09 23.59L343.41 22.54L337.66 21.72L331.84 21.13L325.95 20.77L320 20.65L314.05 20.77L308.16 21.13L302.34 21.72L296.59 22.54L290.91 23.59L285.31 24.85L279.8 26.33L274.37 28.02L269.04 29.92L263.8 32.02L258.67 34.31L253.64 36.8L248.73 39.47L243.93 42.33L239.25 45.36L234.7 48.56L230.28 51.94L226 55.47L221.86 59.17L217.86 63.02L214.01 67.02L210.31 71.16L206.78 75.45L203.4 79.87L200.2 84.42L197.17 89.09L194.31 93.89L191.64 98.8L189.15 103.83L186.86 108.96L184.76 114.2L182.86 119.53L181.17 124.96L179.69 130.47L178.43 136.07L177.38 141.75L176.56 147.5L175.96 153.33L175.6 159.21L175.48 165.16L175.48 196.4L176.14 195.91L176.8 195.43L177.46 194.97L178.14 194.51L178.82 194.06L179.51 193.62L180.2 193.2L180.91 192.78L181.62 192.37L182.33 191.98L183.05 191.59L183.78 191.22L184.52 190.86L185.26 190.51L186.01 190.17L186.76 189.84L187.52 189.52L188.29 189.22L189.06 188.92L189.84 188.64L190.62 188.38L191.41 188.12L192.2 187.88L193 187.65L193.81 187.43L194.62 187.22L195.43 187.03L196.25 186.86L197.08 186.69L197.91 186.54L198.74 186.4L199.58 186.28L200.43 186.17L201.27 186.07L202.13 185.99L202.98 185.93L203.84 185.87L204.71 185.84L205.58 185.81L206.45 185.81L216.77 185.81L216.77 206.45L219.08 206.41L221.37 206.33L223.65 206.21L225.93 206.04L228.2 205.83L230.46 205.57L232.71 205.27L234.95 204.93L237.17 204.54L239.39 204.11L241.59 203.64L243.78 203.13L245.96 202.58L248.13 201.98L250.28 201.34L252.41 200.66L254.54 199.94L256.64 199.18L258.73 198.38L260.81 197.53L262.87 196.65L264.91 195.73L266.93 194.76L268.93 193.76L270.92 192.72L272.88 191.63L274.83 190.51L276.75 189.35L278.66 188.15L280.54 186.91L282.41 185.64L284.25 184.32L286.06 182.97L287.86 181.58L289.63 180.15L291.37 178.69L293.09 177.19L294.79 175.65L296.46 174.07L298.11 172.46L298.46 172.12L298.82 171.78L299.18 171.45L299.55 171.13L299.93 170.82L300.31 170.51L300.7 170.21L301.09 169.92L301.49 169.64L301.9 169.36L302.31 169.1L302.72 168.84L303.14 168.59L303.57 168.35L303.99 168.11L304.43 167.89L304.86 167.67L305.31 167.46L305.75 167.26L306.2 167.07L306.65 166.89L307.11 166.72L307.57 166.55L308.03 166.4L308.5 166.25L308.96 166.11L309.43 165.98L309.91 165.86L310.38 165.75L310.86 165.65L311.34 165.56L311.82 165.48L312.31 165.4L312.79 165.34L313.28 165.28L313.77 165.24L314.25 165.21L314.74 165.18L315.24 165.17L315.73 165.16L316.75 165.18L317.77 165.24L318.77 165.35Z" id="b9tM16ebs"></path><path d="M322.67 536.89L323.98 537.03L325.27 537.22L326.55 537.47L327.81 537.77L329.04 538.12L330.26 538.52L331.45 538.97L332.62 539.47L333.77 540.01L334.89 540.59L335.98 541.22L337.04 541.9L338.07 542.61L339.08 543.36L340.05 544.16L340.98 544.99L341.89 545.86L342.75 546.76L343.58 547.7L344.38 548.67L345.13 549.67L345.85 550.7L346.52 551.76L347.15 552.86L347.73 553.97L348.28 555.12L348.77 556.29L349.22 557.48L349.62 558.7L349.97 559.93L350.27 561.19L350.52 562.47L350.71 563.76L350.85 565.07L350.94 566.4L350.97 567.74L350.94 569.08L350.85 570.41L350.71 571.72L350.52 573.02L350.27 574.29L349.97 575.55L349.62 576.79L349.22 578L348.77 579.2L348.28 580.37L347.73 581.51L347.15 582.63L346.52 583.72L345.85 584.78L345.13 585.82L344.38 586.82L343.58 587.79L342.75 588.73L341.89 589.63L340.98 590.5L340.05 591.33L339.08 592.12L338.07 592.87L337.04 593.59L335.98 594.26L334.89 594.89L333.77 595.48L332.62 596.02L331.45 596.51L330.26 596.96L329.04 597.36L327.81 597.71L326.55 598.01L325.27 598.26L323.98 598.46L322.67 598.6L321.34 598.68L320 598.71L318.66 598.68L317.33 598.6L316.02 598.46L314.73 598.26L313.45 598.01L312.19 597.71L310.96 597.36L309.74 596.96L308.55 596.51L307.38 596.02L306.23 595.48L305.11 594.89L304.02 594.26L302.96 593.59L301.93 592.87L300.92 592.12L299.95 591.33L299.02 590.5L298.11 589.63L297.25 588.73L296.42 587.79L295.62 586.82L294.87 585.82L294.15 584.78L293.48 583.72L292.85 582.63L292.27 581.51L291.72 580.37L291.23 579.2L290.78 578L290.38 576.79L290.03 575.55L289.73 574.29L289.48 573.02L289.29 571.72L289.15 570.41L289.06 569.08L289.03 567.74L289.06 566.4L289.15 565.07L289.29 563.76L289.48 562.47L289.73 561.19L290.03 559.93L290.38 558.7L290.78 557.48L291.23 556.29L291.72 555.12L292.27 553.97L292.85 552.86L293.48 551.76L294.15 550.7L294.87 549.67L295.62 548.67L296.42 547.7L297.25 546.76L298.11 545.86L299.02 544.99L299.95 544.16L300.92 543.36L301.93 542.61L302.96 541.9L304.02 541.22L305.11 540.59L306.23 540.01L307.38 539.47L308.55 538.97L309.74 538.52L310.96 538.12L312.19 537.77L313.45 537.47L314.73 537.22L316.02 537.03L317.33 536.89L318.66 536.8L320 536.77L321.34 536.8L322.67 536.89ZM317.26 557.79L315.99 558.23L314.8 558.83L313.7 559.57L312.71 560.44L311.83 561.44L311.09 562.53L310.49 563.73L310.05 565L309.77 566.34L309.68 567.74L309.77 569.14L310.05 570.49L310.49 571.76L311.09 572.95L311.83 574.05L312.71 575.04L313.7 575.91L314.8 576.65L315.99 577.25L317.26 577.7L318.6 577.97L320 578.06L321.4 577.97L322.74 577.7L324.01 577.25L325.2 576.65L326.3 575.91L327.29 575.04L328.17 574.05L328.91 572.95L329.51 571.76L329.95 570.49L330.23 569.14L330.32 567.74L330.23 566.34L329.95 565L329.51 563.73L328.91 562.53L328.17 561.44L327.29 560.44L326.3 559.57L325.2 558.83L324.01 558.23L322.74 557.79L321.4 557.51L320 557.42L318.6 557.51L317.26 557.79Z" id="a2n4y5Idq"></path></defs><g><g><g><use xlink:href="#d1SSGuBGLG" opacity="1" fill="#d3a06c" fill-opacity="1"></use><g><use xlink:href="#d1SSGuBGLG" opacity="1" fill-opacity="0" stroke="#000000" stroke-width="1" stroke-opacity="0"></use></g></g><g><use xlink:href="#b21O7K6URp" opacity="1" fill="#b27946" fill-opacity="1"></use><g><use xlink:href="#b21O7K6URp" opacity="1" fill-opacity="0" stroke="#000000" stroke-width="1" stroke-opacity="0"></use></g></g><g><use xlink:href="#c6p3XXCS54" opacity="1" fill="#0076ff" fill-opacity="1"></use><g><use xlink:href="#c6p3XXCS54" opacity="1" fill-opacity="0" stroke="#000000" stroke-width="1" stroke-opacity="0"></use></g></g><g><use xlink:href="#a6yNNCpj3l" opacity="1" fill="#0076ff" fill-opacity="1"></use><g><use xlink:href="#a6yNNCpj3l" opacity="1" fill-opacity="0" stroke="#000000" stroke-width="1" stroke-opacity="0"></use></g></g><g><use xlink:href="#a7W8AJauO" opacity="1" fill="#00befd" fill-opacity="1"></use><g><use xlink:href="#a7W8AJauO" opacity="1" fill-opacity="0" stroke="#000000" stroke-width="1" stroke-opacity="0"></use></g></g><g><use xlink:href="#aGGrqBlXa" opacity="1" fill="#b6c1ce" fill-opacity="1"></use><g><use xlink:href="#aGGrqBlXa" opacity="1" fill-opacity="0" stroke="#000000" stroke-width="1" stroke-opacity="0"></use></g></g><g><use xlink:href="#a9Ft0jhBW" opacity="1" fill="#f9e0a6" fill-opacity="1"></use><g><use xlink:href="#a9Ft0jhBW" opacity="1" fill-opacity="0" stroke="#000000" stroke-width="1" stroke-opacity="0"></use></g></g><g><use xlink:href="#h4Wj0H0TpM" opacity="1" fill="#f9e0a6" fill-opacity="1"></use><g><use xlink:href="#h4Wj0H0TpM" opacity="1" fill-opacity="0" stroke="#000000" stroke-width="1" stroke-opacity="0"></use></g></g><g><use xlink:href="#a1KVsU5r3C" opacity="1" fill="#f9e0a6" fill-opacity="1"></use><g><use xlink:href="#a1KVsU5r3C" opacity="1" fill-opacity="0" stroke="#000000" stroke-width="1" stroke-opacity="0"></use></g></g><g><use xlink:href="#bJH5mrWeu" opacity="1" fill="#b6c1ce" fill-opacity="1"></use><g><use xlink:href="#bJH5mrWeu" opacity="1" fill-opacity="0" stroke="#000000" stroke-width="1" stroke-opacity="0"></use></g></g><g><use xlink:href="#g2ivOabyMB" opacity="1" fill="#f8d708" fill-opacity="1"></use><g><use xlink:href="#g2ivOabyMB" opacity="1" fill-opacity="0" stroke="#000000" stroke-width="1" stroke-opacity="0"></use></g></g><g><use xlink:href="#f2vPnDIzpe" opacity="1" fill="#5b5c5b" fill-opacity="1"></use><g><use xlink:href="#f2vPnDIzpe" opacity="1" fill-opacity="0" stroke="#000000" stroke-width="1" stroke-opacity="0"></use></g></g><g><use xlink:href="#bSB7EoEKo" opacity="1" fill="#f9e0a6" fill-opacity="1"></use><g><use xlink:href="#bSB7EoEKo" opacity="1" fill-opacity="0" stroke="#000000" stroke-width="1" stroke-opacity="0"></use></g></g><g><use xlink:href="#auvlB3HVS" opacity="1" fill="#eabd8c" fill-opacity="1"></use><g><use xlink:href="#auvlB3HVS" opacity="1" fill-opacity="0" stroke="#000000" stroke-width="1" stroke-opacity="0"></use></g></g><g><use xlink:href="#b9tM16ebs" opacity="1" fill="#000000" fill-opacity="1"></use><g><use xlink:href="#b9tM16ebs" opacity="1" fill-opacity="0" stroke="#000000" stroke-width="1" stroke-opacity="0"></use></g></g><g><use xlink:href="#a2n4y5Idq" opacity="1" fill="#000000" fill-opacity="1"></use><g><use xlink:href="#a2n4y5Idq" opacity="1" fill-opacity="0" stroke="#000000" stroke-width="1" stroke-opacity="0"></use></g></g></g></g></svg>