<?xml version="1.0" encoding="UTF-8" standalone="no"?>
<!DOCTYPE svg PUBLIC "-//W3C//DTD SVG 1.1//EN" "http://www.w3.org/Graphics/SVG/1.1/DTD/svg11.dtd">
<svg version="1.1" xmlns="http://www.w3.org/2000/svg" xmlns:xlink="http://www.w3.org/1999/xlink" preserveAspectRatio="xMidYMid meet" viewBox="0 0 640 640" width="640" height="640"><defs><path d="M0 320C0 496.45 143.56 640 320 640C496.45 640 640 496.45 640 320C640 143.56 496.45 0 320 0C143.56 0 0 143.56 0 320Z" id="dQTPGWcpF"></path><path d="M613.33 320C613.33 384.39 592.24 443.8 556.93 492.23C553.85 490.22 550.8 488.39 547.71 486.8C494.27 459.36 411.38 426.67 320 426.67C228.62 426.67 145.73 459.36 92.28 486.81C89.2 488.4 86.15 490.22 83.07 492.23C47.77 443.8 26.67 384.39 26.67 320C26.67 158.26 158.26 26.67 320 26.67C481.74 26.67 613.33 158.26 613.33 320Z" id="a134QZhfVC"></path><path d="M99.88 513.24C101.42 512.31 102.96 511.3 104.48 510.52C155.3 484.43 233.95 453.33 320 453.33C406.06 453.33 484.7 484.43 535.51 510.51C537.03 511.3 538.58 512.31 540.12 513.24C486.32 574.45 407.7 613.33 320 613.33C232.3 613.33 153.68 574.45 99.88 513.24Z" id="c6lH7gG03J"></path><path d="M320 80C231.63 80 160 151.63 160 240C160 328.37 231.63 400 320 400C408.37 400 480 328.37 480 240C480 151.63 408.37 80 320 80Z" id="a3alGRcZgn"></path><path d="M540.12 513.24C538.58 512.31 537.03 511.3 535.51 510.51C484.7 484.43 406.05 453.33 320 453.33C315.88 453.33 311.87 453.73 307.79 453.86C316.66 462.74 361.04 507.11 440.91 586.99C488.83 558.56 521.9 533.97 540.12 513.24Z" id="b4ZcGFSWll"></path><linearGradient id="gradientbmSsnbdqF" gradientUnits="userSpaceOnUse" x1="351.04" y1="410.65" x2="497.31" y2="556.94"><stop style="stop-color: #000000;stop-opacity: 0.1" offset="0%"></stop><stop style="stop-color: #000000;stop-opacity: 0" offset="100%"></stop></linearGradient><path d="M320 106.67C246.36 106.67 186.67 166.36 186.67 240C186.67 313.64 246.36 373.33 320 373.33C393.64 373.33 453.33 313.64 453.33 240C453.33 166.36 393.64 106.67 320 106.67Z" id="ebUBlP0qq"></path></defs><g><g><g><use xlink:href="#dQTPGWcpF" opacity="1" fill="#303c42" fill-opacity="1"></use><g><use xlink:href="#dQTPGWcpF" opacity="1" fill-opacity="0" stroke="#000000" stroke-width="1" stroke-opacity="0"></use></g></g><g><use xlink:href="#a134QZhfVC" opacity="1" fill="#e6e6e6" fill-opacity="1"></use><g><use xlink:href="#a134QZhfVC" opacity="1" fill-opacity="0" stroke="#000000" stroke-width="1" stroke-opacity="0"></use></g></g><g><use xlink:href="#c6lH7gG03J" opacity="1" fill="#00befd" fill-opacity="1"></use><g><use xlink:href="#c6lH7gG03J" opacity="1" fill-opacity="0" stroke="#000000" stroke-width="1" stroke-opacity="0"></use></g></g><g><use xlink:href="#a3alGRcZgn" opacity="1" fill="#303c42" fill-opacity="1"></use><g><use xlink:href="#a3alGRcZgn" opacity="1" fill-opacity="0" stroke="#000000" stroke-width="1" stroke-opacity="0"></use></g></g><g><use xlink:href="#b4ZcGFSWll" opacity="1" fill="url(#gradientbmSsnbdqF)"></use><g><use xlink:href="#b4ZcGFSWll" opacity="1" fill-opacity="0" stroke="#000000" stroke-width="1" stroke-opacity="0"></use></g></g><g><use xlink:href="#ebUBlP0qq" opacity="1" fill="#00befd" fill-opacity="1"></use><g><use xlink:href="#ebUBlP0qq" opacity="1" fill-opacity="0" stroke="#000000" stroke-width="1" stroke-opacity="0"></use></g></g></g></g></svg>