<?xml version="1.0" encoding="UTF-8" standalone="no"?>
<!DOCTYPE svg PUBLIC "-//W3C//DTD SVG 1.1//EN" "http://www.w3.org/Graphics/SVG/1.1/DTD/svg11.dtd">
<svg version="1.1" xmlns="http://www.w3.org/2000/svg" xmlns:xlink="http://www.w3.org/1999/xlink" preserveAspectRatio="xMidYMid meet" viewBox="0 0 1200 800" width="1200" height="800"><defs><path d="M957.51 391.8C947.51 391.8 939.39 383.68 939.39 373.69C939.39 373.69 939.39 373.69 939.39 373.69C939.39 363.69 947.51 355.57 957.51 355.57C957.51 355.57 1089.63 355.57 1089.63 355.57C1099.62 355.57 1107.74 363.69 1107.74 373.69C1107.74 373.69 1107.74 373.69 1107.74 373.69C1107.74 383.68 1099.62 391.8 1089.63 391.8C1089.63 391.8 957.51 391.8 957.51 391.8Z" id="b7MWo9Bmu"></path><path d="M603.41 394.72C605.12 394.72 606.51 397 606.51 399.81C606.51 399.81 606.51 643.97 606.51 643.97C606.51 646.77 605.12 649.05 603.41 649.05C603.41 649.05 603.41 649.05 603.41 649.05C601.7 649.05 600.31 646.77 600.31 643.97C600.31 643.97 600.31 399.81 600.31 399.81C600.31 397 601.7 394.72 603.41 394.72C603.41 394.72 603.41 394.72 603.41 394.72Z" id="abBr37J7r"></path><path d="M936.52 293.98C926.52 293.98 918.4 285.87 918.4 275.87C918.4 275.87 918.4 275.87 918.4 275.87C918.4 265.87 926.52 257.75 936.52 257.75C936.52 257.75 1068.64 257.75 1068.64 257.75C1078.64 257.75 1086.75 265.87 1086.75 275.87C1086.75 275.87 1086.75 275.87 1086.75 275.87C1086.75 285.87 1078.64 293.98 1068.64 293.98C1068.64 293.98 936.52 293.98 936.52 293.98Z" id="bi8vzlr5t"></path><path d="M921.15 356.75C911.16 356.75 903.04 348.63 903.04 338.63C903.04 338.63 903.04 338.63 903.04 338.63C903.04 328.64 911.16 320.52 921.15 320.52C921.15 320.52 1053.27 320.52 1053.27 320.52C1063.27 320.52 1071.39 328.64 1071.39 338.63C1071.39 338.63 1071.39 338.63 1071.39 338.63C1071.39 348.63 1063.27 356.75 1053.27 356.75C1053.27 356.75 921.15 356.75 921.15 356.75Z" id="cCayxfIeB"></path><path d="M852.34 545.9C842.35 545.9 834.23 537.79 834.23 527.79C834.23 527.79 834.23 527.79 834.23 527.79C834.23 517.79 842.35 509.68 852.34 509.68C852.34 509.68 984.46 509.68 984.46 509.68C994.46 509.68 1002.58 517.79 1002.58 527.79C1002.58 527.79 1002.58 527.79 1002.58 527.79C1002.58 537.79 994.46 545.9 984.46 545.9C984.46 545.9 852.34 545.9 852.34 545.9Z" id="a4wayH2ISu"></path><path d="M882.63 566.86C872.64 566.86 864.52 558.74 864.52 548.74C864.52 548.74 864.52 548.74 864.52 548.74C864.52 538.75 872.64 530.63 882.63 530.63C882.63 530.63 1014.75 530.63 1014.75 530.63C1024.75 530.63 1032.87 538.75 1032.87 548.74C1032.87 548.74 1032.87 548.74 1032.87 548.74C1032.87 558.74 1024.75 566.86 1014.75 566.86C1014.75 566.86 882.63 566.86 882.63 566.86Z" id="b2gCuqI1hP"></path><path d="M802.76 660.53C785.26 660.53 771.05 646.32 771.05 628.82C771.05 628.82 771.05 628.82 771.05 628.82C771.05 611.32 785.26 597.11 802.76 597.11C802.76 597.11 1034.05 597.11 1034.05 597.11C1051.55 597.11 1065.76 611.32 1065.76 628.82C1065.76 628.82 1065.76 628.82 1065.76 628.82C1065.76 646.32 1051.55 660.53 1034.05 660.53C1034.05 660.53 802.76 660.53 802.76 660.53Z" id="c4Q2ZHKZNH"></path><path d="M263.48 610.67C273.48 610.67 281.6 618.78 281.6 628.78C281.6 628.78 281.6 628.78 281.6 628.78C281.6 638.78 273.48 646.9 263.48 646.9C263.48 646.9 131.36 646.9 131.36 646.9C121.36 646.9 113.25 638.78 113.25 628.78C113.25 628.78 113.25 628.78 113.25 628.78C113.25 618.78 121.36 610.67 131.36 610.67C131.36 610.67 263.48 610.67 263.48 610.67Z" id="a1bBOMs94o"></path><path d="M242.49 512.85C252.49 512.85 260.61 520.97 260.61 530.96C260.61 530.96 260.61 530.96 260.61 530.96C260.61 540.96 252.49 549.08 242.49 549.08C242.49 549.08 110.37 549.08 110.37 549.08C100.38 549.08 92.26 540.96 92.26 530.96C92.26 530.96 92.26 530.96 92.26 530.96C92.26 520.97 100.38 512.85 110.37 512.85C110.37 512.85 242.49 512.85 242.49 512.85Z" id="b4eHgYGEG"></path><path d="M278.85 547.9C288.84 547.9 296.96 556.02 296.96 566.02C296.96 566.02 296.96 566.02 296.96 566.02C296.96 576.02 288.84 584.13 278.85 584.13C278.85 584.13 146.73 584.13 146.73 584.13C136.73 584.13 128.61 576.02 128.61 566.02C128.61 566.02 128.61 566.02 128.61 566.02C128.61 556.02 136.73 547.9 146.73 547.9C146.73 547.9 278.85 547.9 278.85 547.9Z" id="c5IqWOSZSV"></path><path d="M347.66 358.75C357.65 358.75 365.77 366.86 365.77 376.86C365.77 376.86 365.77 376.86 365.77 376.86C365.77 386.86 357.65 394.97 347.66 394.97C347.66 394.97 215.54 394.97 215.54 394.97C205.54 394.97 197.42 386.86 197.42 376.86C197.42 376.86 197.42 376.86 197.42 376.86C197.42 366.86 205.54 358.75 215.54 358.75C215.54 358.75 347.66 358.75 347.66 358.75Z" id="g2ZzVMjq5I"></path><path d="M317.37 337.79C327.36 337.79 335.48 345.91 335.48 355.91C335.48 355.91 335.48 355.91 335.48 355.91C335.48 365.9 327.36 374.02 317.37 374.02C317.37 374.02 185.25 374.02 185.25 374.02C175.25 374.02 167.13 365.9 167.13 355.91C167.13 355.91 167.13 355.91 167.13 355.91C167.13 345.91 175.25 337.79 185.25 337.79C185.25 337.79 317.37 337.79 317.37 337.79Z" id="a14qmZUiop"></path><path d="M397.24 244.12C414.74 244.12 428.95 258.33 428.95 275.83C428.95 275.83 428.95 275.83 428.95 275.83C428.95 293.33 414.74 307.54 397.24 307.54C397.24 307.54 165.95 307.54 165.95 307.54C148.45 307.54 134.24 293.33 134.24 275.83C134.24 275.83 134.24 275.83 134.24 275.83C134.24 258.33 148.45 244.12 165.95 244.12C165.95 244.12 397.24 244.12 397.24 244.12Z" id="gkvkEAHQy"></path><path d="M236.26 693.37L261.26 213.05L434.71 168.02L602.43 213.05L750.88 168.02L943.6 213.05L968.6 693.37L775.68 633.33L602.43 693.37L409.71 648.34L236.26 693.37Z" id="aL4j99PZq"></path><mask id="maskc54AUPmNE" x="226.26" y="158.02" width="752.34" height="545.35" maskUnits="userSpaceOnUse"><rect x="226.26" y="158.02" width="752.34" height="545.35" fill="white"></rect><use xlink:href="#aL4j99PZq" opacity="1" fill="black"></use></mask><path d="M602.84 693.8L602.53 213.24L750.16 168.02L763.18 636.61L602.84 693.8Z" id="aqlKCgLkY"></path><linearGradient id="gradientf3oT8jSuxt" gradientUnits="userSpaceOnUse" x1="624.18" y1="198.74" x2="688.61" y2="585.95"><stop style="stop-color: #ffffff;stop-opacity: 1" offset="0%"></stop><stop style="stop-color: #e8eff0;stop-opacity: 1" offset="100%"></stop></linearGradient><path d="M801.25 535.86C821.32 535.86 837.59 521.63 837.59 504.06C837.59 486.5 821.32 472.27 801.25 472.27C781.18 472.27 764.91 486.5 764.91 504.06C764.91 521.63 781.18 535.86 801.25 535.86C801.25 535.86 801.25 535.86 801.25 535.86C801.25 535.86 801.25 535.86 801.25 535.86Z" id="e3WaAQhMn"></path><path d="M236.26 693.37L261.26 213.05L434.71 168.02L409.71 648.34L236.26 693.37Z" id="dHcx8Lbg5"></path><linearGradient id="gradientd267ViSjBo" gradientUnits="userSpaceOnUse" x1="257.9" y1="198.74" x2="322.34" y2="585.95"><stop style="stop-color: #ffffff;stop-opacity: 1" offset="0%"></stop><stop style="stop-color: #e8eff0;stop-opacity: 1" offset="100%"></stop></linearGradient><path d="M813.72 515.73C822.62 515.73 829.85 522.96 829.85 531.86C829.85 531.86 829.85 531.86 829.85 531.86C829.85 540.77 822.62 548 813.72 548C813.72 548 788.78 548 788.78 548C779.88 548 772.65 540.77 772.65 531.86C772.65 531.86 772.65 531.86 772.65 531.86C772.65 522.96 779.88 515.73 788.78 515.73C788.78 515.73 813.72 515.73 813.72 515.73Z" id="nvmqNOAQP"></path><path d="M428.08 213.52C429.78 213.59 431.06 215.91 430.95 218.7C430.95 218.7 425.19 353.83 425.19 353.83C425.08 356.61 423.6 358.82 421.9 358.75C421.9 358.75 421.9 358.75 421.9 358.75C420.2 358.67 418.92 356.35 419.04 353.56C419.04 353.56 424.79 218.44 424.79 218.44C424.91 215.65 426.38 213.45 428.08 213.52C428.08 213.52 428.08 213.52 428.08 213.52Z" id="j1YhfS2smM"></path><path d="M799.56 746.28C852.3 746.28 895.05 701.43 895.05 646.11C895.05 590.79 852.3 545.95 799.56 545.95C746.81 545.95 704.06 590.79 704.06 646.11C704.06 701.43 746.81 746.28 799.56 746.28C799.56 746.28 799.56 746.28 799.56 746.28C799.56 746.28 799.56 746.28 799.56 746.28Z" id="b5yXbbdr2f"></path><path d="M800.22 699.04C833.91 699.04 861.22 671.73 861.22 638.04C861.22 604.35 833.91 577.04 800.22 577.04C766.53 577.04 739.22 604.35 739.22 638.04C739.22 671.73 766.53 699.04 800.22 699.04C800.22 699.04 800.22 699.04 800.22 699.04C800.22 699.04 800.22 699.04 800.22 699.04Z" id="dcYf6hxcX"></path><path d="M806.56 550.62L810.13 550.98L813.66 551.48L817.15 552.12L820.58 552.89L823.96 553.79L827.29 554.82L830.56 555.98L833.78 557.25L836.92 558.65L840.01 560.16L843.02 561.79L845.96 563.53L848.83 565.38L851.61 567.33L854.32 569.39L856.95 571.54L859.49 573.8L861.94 576.14L864.3 578.58L866.56 581.1L868.73 583.72L870.79 586.41L872.76 589.19L874.61 592.04L876.36 594.96L878 597.96L879.52 601.03L880.92 604.16L882.21 607.35L883.37 610.61L884.41 613.92L885.31 617.28L886.09 620.7L886.73 624.17L887.23 627.68L887.59 631.23L887.81 634.83L887.89 638.46L887.81 642.1L887.59 645.69L887.23 649.25L886.73 652.76L886.09 656.23L885.31 659.64L884.41 663.01L883.37 666.32L882.21 669.58L880.92 672.77L879.52 675.9L878 678.97L876.36 681.96L874.61 684.89L872.76 687.74L870.79 690.52L868.73 693.21L866.56 695.82L864.3 698.35L861.94 700.79L859.49 703.13L856.95 705.38L854.32 707.54L851.61 709.59L848.83 711.55L845.96 713.39L843.02 715.13L840.01 716.76L836.92 718.28L833.78 719.67L830.56 720.95L827.29 722.11L823.96 723.14L820.58 724.04L817.15 724.81L813.66 725.45L810.13 725.95L806.56 726.31L802.94 726.53L799.29 726.6L795.64 726.53L792.02 726.31L788.45 725.95L784.92 725.45L781.43 724.81L778 724.04L774.62 723.14L771.29 722.11L768.01 720.95L764.8 719.67L761.66 718.28L758.57 716.76L755.56 715.13L752.62 713.39L749.75 711.55L746.97 709.59L744.26 707.54L741.63 705.38L739.09 703.13L736.64 700.79L734.28 698.35L732.02 695.82L729.85 693.21L727.79 690.52L725.82 687.74L723.97 684.89L722.22 681.96L720.58 678.97L719.06 675.9L717.66 672.77L716.37 669.58L715.21 666.32L714.17 663.01L713.27 659.64L712.49 656.23L711.85 652.76L711.35 649.25L710.99 645.69L710.77 642.1L710.69 638.46L710.77 634.83L710.99 631.23L711.35 627.68L711.85 624.17L712.49 620.7L713.27 617.28L714.17 613.92L715.21 610.61L716.37 607.35L717.66 604.16L719.06 601.03L720.58 597.96L722.22 594.96L723.97 592.04L725.82 589.19L727.79 586.41L729.85 583.72L732.02 581.1L734.28 578.58L736.64 576.14L739.09 573.8L741.63 571.54L744.26 569.39L746.97 567.33L749.75 565.38L752.62 563.53L755.56 561.79L758.57 560.16L761.66 558.65L764.8 557.25L768.01 555.98L771.29 554.82L774.62 553.79L778 552.89L781.43 552.12L784.92 551.48L788.45 550.98L792.02 550.62L795.64 550.4L799.29 550.33L802.94 550.4L806.56 550.62ZM794.13 576.06L791.59 576.31L789.08 576.67L786.61 577.12L784.16 577.67L781.76 578.31L779.4 579.04L777.07 579.86L774.79 580.77L772.55 581.76L770.37 582.84L768.23 584L766.14 585.23L764.1 586.54L762.12 587.93L760.19 589.39L758.33 590.92L756.53 592.52L754.78 594.19L753.11 595.92L751.5 597.72L749.96 599.57L748.49 601.49L747.1 603.46L745.78 605.48L744.54 607.56L743.38 609.69L742.29 611.87L741.3 614.09L740.38 616.36L739.56 618.67L738.82 621.03L738.18 623.42L737.63 625.84L737.17 628.31L736.82 630.8L736.56 633.33L736.4 635.88L736.35 638.46L736.4 641.04L736.56 643.6L736.82 646.12L737.17 648.62L737.63 651.08L738.18 653.51L738.82 655.9L739.56 658.25L740.38 660.57L741.3 662.83L742.29 665.06L743.38 667.24L744.54 669.37L745.78 671.44L747.1 673.47L748.49 675.44L749.96 677.36L751.5 679.21L753.11 681.01L754.78 682.74L756.53 684.4L758.33 686L760.19 687.53L762.12 688.99L764.1 690.38L766.14 691.69L768.23 692.93L770.37 694.09L772.55 695.16L774.79 696.16L777.07 697.06L779.4 697.88L781.76 698.62L784.16 699.26L786.61 699.8L789.08 700.26L791.59 700.61L794.13 700.87L796.7 701.02L799.29 701.08L801.88 701.02L804.45 700.87L806.99 700.61L809.5 700.26L811.97 699.8L814.41 699.26L816.82 698.62L819.18 697.88L821.51 697.06L823.79 696.16L826.02 695.16L828.21 694.09L830.35 692.93L832.44 691.69L834.48 690.38L836.46 688.99L838.39 687.53L840.25 686L842.05 684.4L843.79 682.74L845.47 681.01L847.08 679.21L848.62 677.36L850.09 675.44L851.48 673.47L852.8 671.44L854.04 669.37L855.2 667.24L856.29 665.06L857.28 662.83L858.2 660.57L859.02 658.25L859.76 655.9L860.4 653.51L860.95 651.08L861.41 648.62L861.76 646.12L862.02 643.6L862.18 641.04L862.23 638.46L862.18 635.88L862.02 633.33L861.76 630.8L861.41 628.31L860.95 625.84L860.4 623.42L859.76 621.03L859.02 618.67L858.2 616.36L857.28 614.09L856.29 611.87L855.2 609.69L854.04 607.56L852.8 605.48L851.48 603.46L850.09 601.49L848.62 599.57L847.08 597.72L845.47 595.92L843.79 594.19L842.05 592.52L840.25 590.92L838.39 589.39L836.46 587.93L834.48 586.54L832.44 585.23L830.35 584L828.21 582.84L826.02 581.76L823.79 580.77L821.51 579.86L819.18 579.04L816.82 578.31L814.41 577.67L811.97 577.12L809.5 576.67L806.99 576.31L804.45 576.06L801.88 575.9L799.29 575.85L796.7 575.9L794.13 576.06Z" id="ai6h1O3Lx"></path><path d="M807.1 537.44L810.94 537.83L814.74 538.37L818.48 539.05L822.18 539.88L825.81 540.85L829.39 541.96L832.91 543.2L836.36 544.57L839.74 546.07L843.05 547.7L846.29 549.45L849.45 551.32L852.54 553.31L855.53 555.4L858.44 557.61L861.27 559.93L864 562.35L866.63 564.87L869.16 567.49L871.6 570.21L873.93 573.02L876.15 575.91L878.26 578.89L880.25 581.96L882.13 585.1L883.89 588.33L885.53 591.62L887.04 594.99L888.42 598.42L889.67 601.92L890.78 605.48L891.75 609.1L892.59 612.77L893.28 616.5L893.82 620.27L894.21 624.09L894.44 627.96L894.52 631.86L894.44 635.77L894.21 639.63L893.82 643.45L893.28 647.23L892.59 650.96L891.75 654.63L890.78 658.25L889.67 661.81L888.42 665.3L887.04 668.74L885.53 672.1L883.89 675.4L882.13 678.62L880.25 681.77L878.26 684.83L876.15 687.81L873.93 690.71L871.6 693.52L869.16 696.23L866.63 698.85L864 701.37L861.27 703.79L858.44 706.11L855.53 708.32L852.54 710.42L849.45 712.41L846.29 714.28L843.05 716.03L839.74 717.65L836.36 719.15L832.91 720.53L829.39 721.77L825.81 722.88L822.18 723.85L818.48 724.67L814.74 725.36L810.94 725.9L807.1 726.29L803.22 726.52L799.29 726.6L795.36 726.52L791.48 726.29L787.64 725.9L783.84 725.36L780.1 724.67L776.4 723.85L772.77 722.88L769.19 721.77L765.67 720.53L762.22 719.15L758.84 717.65L755.53 716.03L752.29 714.28L749.13 712.41L746.04 710.42L743.05 708.32L740.14 706.11L737.31 703.79L734.58 701.37L731.95 698.85L729.42 696.23L726.98 693.52L724.65 690.71L722.43 687.81L720.32 684.83L718.33 681.77L716.45 678.62L714.69 675.4L713.05 672.1L711.54 668.74L710.16 665.3L708.91 661.81L707.8 658.25L706.83 654.63L705.99 650.96L705.3 647.23L704.76 643.45L704.37 639.63L704.14 635.77L704.06 631.86L704.14 627.96L704.37 624.09L704.76 620.27L705.3 616.5L705.99 612.77L706.83 609.1L707.8 605.48L708.91 601.92L710.16 598.42L711.54 594.99L713.05 591.62L714.69 588.33L716.45 585.1L718.33 581.96L720.32 578.89L722.43 575.91L724.65 573.02L726.98 570.21L729.42 567.49L731.95 564.87L734.58 562.35L737.31 559.93L740.14 557.61L743.05 555.4L746.04 553.31L749.13 551.32L752.29 549.45L755.53 547.7L758.84 546.07L762.22 544.57L765.67 543.2L769.19 541.96L772.77 540.85L776.4 539.88L780.1 539.05L783.84 538.37L787.64 537.83L791.48 537.44L795.36 537.2L799.29 537.13L803.22 537.2L807.1 537.44ZM793.74 564.78L791.01 565.06L788.32 565.44L785.66 565.93L783.03 566.52L780.45 567.21L777.91 567.99L775.41 568.87L772.96 569.85L770.55 570.92L768.2 572.07L765.9 573.32L763.65 574.64L761.46 576.06L759.33 577.55L757.27 579.12L755.26 580.76L753.32 582.48L751.45 584.27L749.65 586.13L747.92 588.06L746.27 590.06L744.69 592.12L743.19 594.23L741.77 596.41L740.44 598.65L739.19 600.93L738.03 603.27L736.95 605.67L735.97 608.1L735.09 610.59L734.3 613.12L733.6 615.69L733.01 618.3L732.52 620.95L732.14 623.63L731.86 626.34L731.69 629.09L731.64 631.86L731.69 634.64L731.86 637.38L732.14 640.1L732.52 642.78L733.01 645.43L733.6 648.04L734.3 650.61L735.09 653.13L735.97 655.62L736.95 658.06L738.03 660.45L739.19 662.79L740.44 665.08L741.77 667.31L743.19 669.49L744.69 671.61L746.27 673.67L747.92 675.66L749.65 677.59L751.45 679.45L753.32 681.24L755.26 682.96L757.27 684.61L759.33 686.18L761.46 687.67L763.65 689.08L765.9 690.41L768.2 691.65L770.55 692.81L772.96 693.88L775.41 694.85L777.91 695.73L780.45 696.52L783.03 697.21L785.66 697.8L788.32 698.28L791.01 698.67L793.74 698.94L796.5 699.11L799.29 699.16L802.08 699.11L804.84 698.94L807.57 698.67L810.26 698.28L812.92 697.8L815.55 697.21L818.13 696.52L820.67 695.73L823.17 694.85L825.62 693.88L828.03 692.81L830.38 691.65L832.68 690.41L834.93 689.08L837.12 687.67L839.24 686.18L841.31 684.61L843.32 682.96L845.26 681.24L847.13 679.45L848.93 677.59L850.66 675.66L852.31 673.67L853.89 671.61L855.39 669.49L856.81 667.31L858.14 665.08L859.39 662.79L860.55 660.45L861.63 658.06L862.61 655.62L863.49 653.13L864.28 650.61L864.98 648.04L865.57 645.43L866.06 642.78L866.44 640.1L866.72 637.38L866.89 634.64L866.94 631.86L866.89 629.09L866.72 626.34L866.44 623.63L866.06 620.95L865.57 618.3L864.98 615.69L864.28 613.12L863.49 610.59L862.61 608.1L861.63 605.67L860.55 603.27L859.39 600.93L858.14 598.65L856.81 596.41L855.39 594.23L853.89 592.12L852.31 590.06L850.66 588.06L848.93 586.13L847.13 584.27L845.26 582.48L843.32 580.76L841.31 579.12L839.24 577.55L837.12 576.06L834.93 574.64L832.68 573.32L830.38 572.07L828.03 570.92L825.62 569.85L823.17 568.87L820.67 567.99L818.13 567.21L815.55 566.52L812.92 565.93L810.26 565.44L807.57 565.06L804.84 564.78L802.08 564.62L799.29 564.56L796.5 564.62L793.74 564.78Z" id="f77i45rRsK"></path><path d="M849.67 650.02L807.26 649.95L788.77 684.34L787.11 645.33L748.91 626.91L791.32 626.98L809.81 592.59L811.47 631.6L849.67 650.02Z" id="b2l0x64X8R"></path><path d="M532.8 53.96L535.71 54.26L538.58 54.67L541.42 55.19L544.22 55.82L546.97 56.56L549.68 57.4L552.34 58.34L554.96 59.39L557.52 60.53L560.03 61.77L562.48 63.1L564.87 64.53L567.21 66.04L569.48 67.64L571.68 69.32L573.82 71.08L575.88 72.92L577.88 74.84L579.8 76.84L581.64 78.9L583.4 81.04L585.08 83.25L586.68 85.52L588.19 87.85L589.62 90.24L590.95 92.69L592.19 95.2L593.33 97.76L594.38 100.38L595.32 103.04L596.16 105.75L596.9 108.5L597.53 111.3L598.05 114.14L598.46 117.01L598.76 119.92L598.94 122.86L599 125.83L598.94 128.81L598.76 131.75L598.46 134.66L598.05 137.53L597.53 140.37L596.9 143.16L596.16 145.92L595.32 148.63L594.38 151.29L593.33 153.9L592.19 156.46L590.95 158.97L590.33 160.12L590.34 160.12L590.05 160.64L589.62 161.42L588.71 162.96L526.89 270.08L464.81 162.52L464.16 161.42L463.85 160.86L463.68 160.57L463.69 160.57L462.83 158.97L461.59 156.46L460.44 153.9L459.4 151.29L458.45 148.63L457.61 145.92L456.87 143.16L456.24 140.37L455.72 137.53L455.31 134.66L455.02 131.75L454.84 128.81L454.78 125.83L454.84 122.86L455.02 119.92L455.31 117.01L455.72 114.14L456.24 111.3L456.87 108.5L457.61 105.75L458.45 103.04L459.4 100.38L460.44 97.76L461.59 95.2L462.83 92.69L464.16 90.24L465.58 87.85L467.09 85.52L468.69 83.25L470.37 81.04L472.14 78.9L473.98 76.84L475.9 74.84L477.89 72.92L479.96 71.08L482.1 69.32L484.3 67.64L486.57 66.04L488.9 64.53L491.3 63.1L493.75 61.77L496.26 60.53L498.82 59.39L501.43 58.34L504.1 57.4L506.81 56.56L509.56 55.82L512.36 55.19L515.19 54.67L518.06 54.26L520.97 53.96L523.92 53.78L526.89 53.72L529.86 53.78L532.8 53.96Z" id="a7VVcjXAuz"></path><path d="M526.89 179.92C555.91 179.92 579.44 156.39 579.44 127.37C579.44 98.35 555.91 74.82 526.89 74.82C497.87 74.82 474.34 98.35 474.34 127.37C474.34 156.39 497.87 179.92 526.89 179.92C526.89 179.92 526.89 179.92 526.89 179.92C526.89 179.92 526.89 179.92 526.89 179.92Z" id="aeJY9dNk3"></path><path d="M554.53 113.44L528.48 141.3L528.48 141.3L518.23 152.26L499.24 131.96L509.49 121L518.23 130.34L544.28 102.48L554.53 113.44L554.53 113.44L554.53 113.44Z" id="axYo3dOmJ"></path><path d="M789.99 647.25L832.92 670.46L807.86 628.58L789.99 647.25Z" id="c16NX5cZhH"></path><path d="M789.99 647.25L764.93 605.36L807.86 628.58L789.99 647.25Z" id="b3mYPa6FAF"></path><path d="M810.21 649.64C817.59 643.79 818.83 633.07 812.98 625.69C807.13 618.31 796.41 617.07 789.03 622.92C781.65 628.76 780.41 639.49 786.25 646.87C792.1 654.25 802.83 655.49 810.21 649.64C810.21 649.64 810.21 649.64 810.21 649.64C810.21 649.64 810.21 649.64 810.21 649.64Z" id="g2i5pE6rcc"></path><path d="M809.3 643.61C815.63 638.59 816.7 629.38 811.68 623.05C806.66 616.72 797.46 615.65 791.12 620.67C784.79 625.69 783.72 634.89 788.74 641.23C793.76 647.56 802.97 648.63 809.3 643.61C809.3 643.61 809.3 643.61 809.3 643.61C809.3 643.61 809.3 643.61 809.3 643.61Z" id="a1Hedgar76"></path><path d="M603.46 209.72C605.16 209.72 606.54 211.98 606.54 214.77C606.54 214.77 606.54 350.02 606.54 350.02C606.54 352.81 605.16 355.07 603.46 355.07C603.46 355.07 603.46 355.07 603.46 355.07C601.76 355.07 600.38 352.81 600.38 350.02C600.38 350.02 600.38 214.77 600.38 214.77C600.38 211.98 601.76 209.72 603.46 209.72C603.46 209.72 603.46 209.72 603.46 209.72Z" id="awVgg9n2p"></path><path d="M752.48 300.83C754.18 300.75 755.66 302.96 755.78 305.75C755.78 305.75 761.74 440.86 761.74 440.86C761.86 443.65 760.58 445.97 758.88 446.05C758.88 446.05 758.88 446.05 758.88 446.05C757.19 446.12 755.71 443.92 755.58 441.13C755.58 441.13 749.63 306.02 749.63 306.02C749.51 303.23 750.78 300.9 752.48 300.83C752.48 300.83 752.48 300.83 752.48 300.83Z" id="i9AZF6cCn"></path><path d="M533.24 277.92L533.51 278.07L533.76 278.27L533.97 278.52L534.12 278.8L534.2 279.1L534.23 279.41L534.2 279.71L534.12 280.01L533.97 280.29L533.76 280.54L529.52 284.78L533.76 289.02L533.97 289.27L534.12 289.55L534.2 289.85L534.23 290.15L534.2 290.46L534.12 290.76L533.97 291.03L533.76 291.28L533.51 291.49L533.24 291.64L532.94 291.72L532.63 291.75L532.33 291.72L532.03 291.64L531.75 291.49L531.5 291.28L527.26 287.04L523.02 291.28L522.77 291.49L522.49 291.64L522.19 291.72L521.89 291.75L521.58 291.72L521.28 291.64L521 291.49L520.75 291.28L520.55 291.03L520.4 290.76L520.31 290.46L520.29 290.15L520.31 289.85L520.4 289.55L520.55 289.27L520.75 289.02L525 284.78L520.75 280.54L520.55 280.29L520.4 280.01L520.31 279.71L520.29 279.41L520.31 279.1L520.4 278.8L520.55 278.52L520.75 278.27L521 278.07L521.28 277.92L521.58 277.83L521.89 277.81L522.19 277.83L522.49 277.92L522.77 278.07L523.02 278.27L527.26 282.52L531.5 278.27L531.75 278.07L532.03 277.92L532.33 277.83L532.63 277.81L532.94 277.83L533.24 277.92Z" id="e22U6TI3Ng"></path><mask id="maskc3BpCFdWTT" x="518.29" y="275.81" width="17.95" height="17.95" maskUnits="userSpaceOnUse"><rect x="518.29" y="275.81" width="17.95" height="17.95" fill="white"></rect><use xlink:href="#e22U6TI3Ng" opacity="1" fill="black"></use></mask><path d="M572.64 492.77L572.93 492.96L573.17 493.26L573.35 493.64L573.47 494.08L573.52 494.57L573.48 495.08L573.37 495.56L573.19 495.96L572.96 496.26L572.7 496.46L572.4 496.54L572.1 496.48L561.5 492.15L561.22 491.96L560.98 491.67L560.8 491.29L560.68 490.84L560.63 490.35L560.66 489.84L560.77 489.37L560.95 488.97L561.18 488.66L561.45 488.47L561.75 488.39L562.05 488.44L572.64 492.77ZM595.45 485.03L595.7 485.29L595.9 485.65L596.04 486.11L596.11 486.61L596.09 487.1L596 487.57L595.84 487.98L595.62 488.31L595.35 488.55L585.07 494.64L584.77 494.74L584.47 494.72L584.19 494.56L583.95 494.3L583.75 493.94L583.61 493.48L583.54 492.98L583.56 492.49L583.65 492.02L583.81 491.61L584.03 491.28L584.3 491.04L594.57 484.95L594.88 484.85L595.17 484.87L595.45 485.03ZM553.27 484.42L553.56 484.61L553.79 484.9L553.98 485.28L554.1 485.73L554.14 486.22L554.11 486.73L554 487.2L553.82 487.6L553.59 487.91L553.32 488.1L553.03 488.18L552.72 488.13L542.13 483.8L541.84 483.61L541.6 483.32L541.42 482.93L541.3 482.49L541.26 482L541.29 481.49L541.4 481.01L541.58 480.62L541.81 480.31L542.08 480.11L542.37 480.04L542.68 480.09L553.27 484.42ZM614.39 474.25L614.64 474.51L614.84 474.88L614.98 475.33L615.04 475.83L615.03 476.33L614.93 476.79L614.78 477.2L614.56 477.54L614.28 477.77L604.01 483.86L603.71 483.97L603.41 483.94L603.13 483.79L602.88 483.52L602.68 483.16L602.54 482.71L602.48 482.2L602.5 481.71L602.59 481.25L602.75 480.83L602.96 480.5L603.24 480.27L613.51 474.18L613.81 474.07L614.11 474.1L614.39 474.25ZM533.76 476.45L534.04 476.63L534.28 476.93L534.47 477.31L534.58 477.76L534.63 478.25L534.6 478.75L534.49 479.23L534.31 479.63L534.08 479.93L533.81 480.13L533.52 480.21L533.21 480.15L522.62 475.83L522.33 475.64L522.09 475.34L521.91 474.96L521.79 474.51L521.74 474.02L521.78 473.52L521.89 473.04L522.07 472.64L522.3 472.34L522.57 472.14L522.86 472.06L523.17 472.12L533.76 476.45ZM378.08 465.74L378.32 466.04L378.49 466.43L378.61 466.91L378.64 467.42L378.6 467.91L378.48 468.35L378.3 468.74L378.06 469.04L377.78 469.23L367.2 473.65L366.89 473.71L366.6 473.63L366.33 473.44L366.1 473.14L365.92 472.74L365.8 472.26L365.77 471.76L365.81 471.27L365.93 470.82L366.11 470.44L366.35 470.14L366.64 469.95L377.22 465.52L377.52 465.47L377.82 465.54L378.08 465.74ZM516.27 468.3L516.56 468.48L516.8 468.78L516.98 469.16L517.1 469.61L517.15 470.1L517.11 470.61L517 471.08L516.82 471.48L516.59 471.78L516.32 471.98L516.03 472.06L515.72 472.01L505.13 467.68L504.84 467.49L504.61 467.19L504.42 466.81L504.3 466.37L504.26 465.88L504.29 465.37L504.4 464.89L504.58 464.49L504.81 464.19L505.08 463.99L505.37 463.91L505.68 463.97L516.27 468.3ZM397.57 457.59L397.8 457.89L397.98 458.28L398.09 458.76L398.13 459.27L398.08 459.76L397.97 460.2L397.78 460.59L397.55 460.89L397.26 461.08L386.68 465.5L386.38 465.56L386.08 465.48L385.81 465.29L385.58 464.99L385.4 464.59L385.29 464.11L385.25 463.61L385.3 463.12L385.42 462.67L385.6 462.29L385.84 461.99L386.12 461.8L396.7 457.37L397.01 457.32L397.3 457.39L397.57 457.59ZM496.9 459.94L497.18 460.13L497.42 460.43L497.6 460.81L497.72 461.26L497.77 461.74L497.74 462.25L497.63 462.73L497.45 463.13L497.22 463.43L496.95 463.63L496.66 463.71L496.35 463.65L485.76 459.32L485.47 459.14L485.23 458.84L485.05 458.46L484.93 458.01L484.88 457.52L484.92 457.01L485.03 456.54L485.21 456.14L485.44 455.84L485.7 455.64L486 455.56L486.3 455.62L496.9 459.94ZM613.97 441.85L614.15 441.99L614.31 442.17L614.45 442.4L614.57 442.66L614.65 442.96L614.71 443.28L614.73 443.62L614.89 461.76L614.88 462.1L614.83 462.43L614.75 462.73L614.63 463L614.5 463.23L614.34 463.42L614.16 463.57L613.97 463.66L613.76 463.7L613.56 463.67L613.36 463.59L613.18 463.45L613.02 463.27L612.88 463.04L612.76 462.77L612.68 462.48L612.62 462.16L612.6 461.82L612.44 443.68L612.45 443.33L612.5 443.01L612.58 442.71L612.69 442.44L612.83 442.21L612.99 442.02L613.17 441.87L613.36 441.78L613.57 441.74L613.77 441.77L613.97 441.85ZM417.79 448.63L418.02 448.93L418.2 449.33L418.31 449.8L418.35 450.31L418.3 450.8L418.19 451.25L418 451.63L417.77 451.93L417.48 452.12L406.9 456.55L406.6 456.6L406.3 456.53L406.03 456.33L405.8 456.03L405.62 455.64L405.51 455.16L405.47 454.65L405.52 454.16L405.64 453.71L405.82 453.33L406.06 453.03L406.34 452.84L416.92 448.42L417.23 448.36L417.52 448.44L417.79 448.63ZM477.39 451.97L477.67 452.16L477.91 452.45L478.09 452.84L478.21 453.28L478.26 453.77L478.23 454.28L478.11 454.76L477.94 455.15L477.71 455.46L477.44 455.66L477.14 455.73L476.84 455.68L466.25 451.35L465.96 451.16L465.72 450.87L465.54 450.48L465.42 450.04L465.37 449.55L465.4 449.04L465.52 448.56L465.7 448.17L465.92 447.86L466.19 447.67L466.49 447.59L466.79 447.64L477.39 451.97ZM437.27 440.48L437.51 440.78L437.68 441.18L437.8 441.65L437.83 442.16L437.79 442.65L437.67 443.1L437.49 443.48L437.25 443.78L436.97 443.97L426.39 448.4L426.08 448.45L425.79 448.38L425.52 448.18L425.29 447.88L425.11 447.49L424.99 447.01L424.96 446.5L425.01 446.01L425.12 445.56L425.3 445.18L425.54 444.88L425.83 444.69L436.41 440.27L436.71 440.21L437.01 440.29L437.27 440.48ZM456.71 443.63L457 443.82L457.24 444.12L457.42 444.5L457.54 444.95L457.59 445.44L457.55 445.94L457.44 446.42L457.26 446.82L457.03 447.12L456.77 447.32L456.47 447.4L456.17 447.34L445.57 443.01L445.29 442.83L445.05 442.53L444.87 442.15L444.75 441.7L444.7 441.21L444.73 440.7L444.84 440.23L445.02 439.83L445.25 439.53L445.52 439.33L445.82 439.25L446.12 439.31L456.71 443.63ZM613.93 408.56L614.11 408.7L614.27 408.89L614.41 409.11L614.52 409.38L614.61 409.67L614.67 409.99L614.69 410.34L614.85 428.47L614.84 428.82L614.79 429.14L614.7 429.44L614.59 429.71L614.46 429.94L614.3 430.14L614.12 430.28L613.93 430.37L613.72 430.41L613.51 430.38L613.32 430.3L613.14 430.16L612.98 429.98L612.84 429.75L612.72 429.49L612.63 429.19L612.58 428.87L612.56 428.53L612.39 410.39L612.41 410.05L612.46 409.72L612.54 409.42L612.65 409.16L612.79 408.92L612.95 408.73L613.12 408.58L613.32 408.49L613.52 408.45L613.73 408.48L613.93 408.56ZM613.61 376.81L613.79 376.95L613.95 377.13L614.09 377.36L614.21 377.62L614.3 377.92L614.35 378.24L614.37 378.58L614.53 396.72L614.52 397.06L614.47 397.39L614.39 397.69L614.28 397.96L614.14 398.19L613.98 398.38L613.8 398.53L613.61 398.62L613.4 398.66L613.2 398.63L613 398.55L612.82 398.41L612.66 398.23L612.52 398L612.4 397.74L612.32 397.44L612.26 397.12L612.24 396.78L612.08 378.64L612.09 378.3L612.14 377.97L612.23 377.67L612.34 377.4L612.47 377.17L612.63 376.98L612.81 376.83L613 376.74L613.21 376.7L613.41 376.73L613.61 376.81ZM613.57 343.53L613.75 343.66L613.91 343.85L614.05 344.07L614.16 344.34L614.25 344.63L614.31 344.95L614.33 345.3L614.49 363.43L614.48 363.78L614.43 364.1L614.34 364.4L614.23 364.67L614.1 364.9L613.94 365.1L613.76 365.24L613.57 365.34L613.36 365.37L613.15 365.35L612.96 365.26L612.78 365.13L612.62 364.94L612.48 364.71L612.36 364.45L612.27 364.15L612.22 363.83L612.2 363.49L612.03 345.35L612.05 345.01L612.1 344.69L612.18 344.39L612.29 344.12L612.43 343.88L612.59 343.69L612.77 343.55L612.96 343.45L613.17 343.42L613.37 343.44L613.57 343.53ZM572.64 351.06L572.93 351.25L573.17 351.54L573.35 351.93L573.47 352.37L573.52 352.86L573.48 353.37L573.37 353.85L573.19 354.24L572.96 354.55L572.7 354.74L572.4 354.82L572.1 354.77L561.5 350.44L561.22 350.25L560.98 349.96L560.8 349.57L560.68 349.13L560.63 348.64L560.66 348.13L560.77 347.65L560.95 347.26L561.18 346.95L561.45 346.75L561.75 346.68L562.05 346.73L572.64 351.06ZM593.3 342.42L593.55 342.68L593.75 343.05L593.89 343.5L593.95 344L593.94 344.5L593.84 344.96L593.69 345.37L593.47 345.71L593.19 345.94L582.92 352.03L582.62 352.14L582.32 352.11L582.04 351.96L581.79 351.69L581.59 351.33L581.45 350.87L581.39 350.37L581.41 349.88L581.5 349.41L581.66 349L581.87 348.67L582.15 348.43L592.42 342.34L592.72 342.24L593.02 342.27L593.3 342.42ZM553.27 342.71L553.56 342.89L553.79 343.19L553.98 343.57L554.1 344.02L554.14 344.51L554.11 345.02L554 345.49L553.82 345.89L553.59 346.19L553.32 346.39L553.03 346.47L552.72 346.41L542.13 342.09L541.84 341.9L541.6 341.6L541.42 341.22L541.3 340.77L541.26 340.29L541.29 339.78L541.4 339.3L541.58 338.9L541.81 338.6L542.08 338.4L542.37 338.32L542.68 338.38L553.27 342.71ZM612.24 331.64L612.48 331.91L612.69 332.27L612.83 332.72L612.89 333.23L612.87 333.72L612.78 334.18L612.62 334.6L612.4 334.93L612.13 335.16L601.86 341.26L601.56 341.36L601.26 341.33L600.98 341.18L600.73 340.92L600.53 340.55L600.39 340.1L600.33 339.6L600.34 339.1L600.43 338.64L600.59 338.23L600.81 337.89L601.09 337.66L611.36 331.57L611.66 331.46L611.96 331.49L612.24 331.64ZM533.76 334.73L534.04 334.92L534.28 335.22L534.47 335.6L534.58 336.04L534.63 336.53L534.6 337.04L534.49 337.52L534.31 337.92L534.08 338.22L533.81 338.42L533.52 338.5L533.21 338.44L522.62 334.11L522.33 333.93L522.09 333.63L521.91 333.25L521.79 332.8L521.74 332.31L521.78 331.8L521.89 331.33L522.07 330.93L522.3 330.63L522.57 330.43L522.86 330.35L523.17 330.4L533.76 334.73ZM522.55 300.29L522.73 300.43L522.89 300.62L523.03 300.85L523.14 301.12L523.23 301.41L523.28 301.74L523.3 302.08L523.3 320.22L523.28 320.56L523.23 320.89L523.14 321.18L523.03 321.45L522.89 321.68L522.73 321.87L522.55 322.01L522.36 322.1L522.15 322.13L521.94 322.1L521.75 322.01L521.57 321.87L521.41 321.68L521.27 321.45L521.16 321.18L521.07 320.89L521.02 320.56L521 320.22L521 302.08L521.02 301.74L521.07 301.41L521.16 301.12L521.27 300.85L521.41 300.62L521.57 300.43L521.75 300.29L521.94 300.2L522.15 300.17L522.36 300.2L522.55 300.29Z" id="a2laST3puV"></path><linearGradient id="gradienta34TylaVFp" gradientUnits="userSpaceOnUse" x1="14143.78" y1="186.49" x2="-17580.72" y2="1780.79"><stop style="stop-color: #316bcb;stop-opacity: 1" offset="0%"></stop><stop style="stop-color: #b2c4cf;stop-opacity: 0.38" offset="100%"></stop></linearGradient><path d="M420.16 398.35C421.87 398.43 423.16 400.76 423.04 403.57C423.04 403.57 412.66 647.51 412.66 647.51C412.54 650.31 411.06 652.52 409.35 652.45C409.35 652.45 409.35 652.45 409.35 652.45C407.64 652.38 406.35 650.04 406.47 647.24C406.47 647.24 416.85 403.3 416.85 403.3C416.97 400.5 418.45 398.28 420.16 398.35C420.16 398.35 420.16 398.35 420.16 398.35Z" id="c8f3lba9s"></path><path d="M321.55 454.34L324.46 454.63L327.33 455.04L330.17 455.57L332.96 456.2L335.72 456.93L338.43 457.78L341.09 458.72L343.7 459.77L346.26 460.91L348.77 462.15L351.22 463.48L353.62 464.9L355.95 466.42L358.22 468.01L360.43 469.7L362.56 471.46L364.63 473.3L366.62 475.22L368.54 477.22L370.39 479.28L372.15 481.42L373.83 483.62L375.43 485.89L376.94 488.23L378.36 490.62L379.7 493.07L380.93 495.58L382.08 498.14L383.12 500.76L384.07 503.42L384.91 506.13L385.65 508.88L386.28 511.68L386.8 514.51L387.21 517.39L387.51 520.3L387.68 523.24L387.74 526.21L387.68 529.18L387.51 532.12L387.21 535.03L386.8 537.91L386.28 540.74L385.65 543.54L384.91 546.29L384.07 549L383.12 551.67L382.08 554.28L380.93 556.84L379.7 559.35L379.07 560.49L379.09 560.49L378.79 561.01L378.36 561.8L377.45 563.34L315.63 670.46L253.56 562.9L252.9 561.8L252.6 561.24L252.43 560.94L252.44 560.94L251.57 559.35L250.33 556.84L249.19 554.28L248.15 551.67L247.2 549L246.36 546.29L245.62 543.54L244.99 540.74L244.47 537.91L244.06 535.03L243.76 532.12L243.58 529.18L243.52 526.21L243.58 523.24L243.76 520.3L244.06 517.39L244.47 514.51L244.99 511.68L245.62 508.88L246.36 506.13L247.2 503.42L248.15 500.76L249.19 498.14L250.33 495.58L251.57 493.07L252.9 490.62L254.33 488.23L255.84 485.89L257.44 483.62L259.12 481.42L260.88 479.28L262.72 477.22L264.64 475.22L266.64 473.3L268.71 471.46L270.84 469.7L273.05 468.01L275.32 466.42L277.65 464.9L280.04 463.48L282.5 462.15L285 460.91L287.57 459.77L290.18 458.72L292.84 457.78L295.55 456.93L298.31 456.2L301.1 455.57L303.94 455.04L306.81 454.63L309.72 454.34L312.66 454.16L315.63 454.1L318.61 454.16L321.55 454.34Z" id="bEnlPAxUo"></path><path d="M315.63 583.51C344.66 583.51 368.18 559.99 368.18 530.96C368.18 501.94 344.66 478.41 315.63 478.41C286.61 478.41 263.08 501.94 263.08 530.96C263.08 559.99 286.61 583.51 315.63 583.51C315.63 583.51 315.63 583.51 315.63 583.51C315.63 583.51 315.63 583.51 315.63 583.51Z" id="g1kB4deFqu"></path><path d="M343.28 523.19L317.22 551.06L317.23 551.06L306.98 562.02L287.99 541.72L298.24 530.75L306.97 540.09L333.03 512.23L343.28 523.19L343.28 523.19L343.28 523.19Z" id="fhxDkKXSR"></path></defs><g><g><g><use xlink:href="#b7MWo9Bmu" opacity="1" fill="#316bcb" fill-opacity="1"></use></g><g><use xlink:href="#abBr37J7r" opacity="1" fill="#415a68" fill-opacity="1"></use></g><g><use xlink:href="#bi8vzlr5t" opacity="1" fill="#316bcb" fill-opacity="1"></use></g><g><use xlink:href="#cCayxfIeB" opacity="1" fill="#4fccbe" fill-opacity="1"></use></g><g><use xlink:href="#a4wayH2ISu" opacity="1" fill="#316bcb" fill-opacity="1"></use></g><g><use xlink:href="#b2gCuqI1hP" opacity="1" fill="#4fccbe" fill-opacity="1"></use></g><g><use xlink:href="#c4Q2ZHKZNH" opacity="1" fill="#316bcb" fill-opacity="1"></use></g><g><use xlink:href="#a1bBOMs94o" opacity="1" fill="#316bcb" fill-opacity="1"></use></g><g><use xlink:href="#b4eHgYGEG" opacity="1" fill="#316bcb" fill-opacity="1"></use></g><g><use xlink:href="#c5IqWOSZSV" opacity="1" fill="#4fccbe" fill-opacity="1"></use></g><g><use xlink:href="#g2ZzVMjq5I" opacity="1" fill="#1162ea" fill-opacity="1"></use></g><g><use xlink:href="#a14qmZUiop" opacity="1" fill="#4fccbe" fill-opacity="1"></use></g><g><use xlink:href="#gkvkEAHQy" opacity="1" fill="#316bcb" fill-opacity="1"></use></g><g><use xlink:href="#aL4j99PZq" opacity="1" fill="#b6bde1" fill-opacity="1"></use><g mask="url(#maskc54AUPmNE)"><use xlink:href="#aL4j99PZq" opacity="1" fill-opacity="0" stroke="#415a68" stroke-width="10" stroke-opacity="1"></use></g></g><g><use xlink:href="#aqlKCgLkY" opacity="1" fill="url(#gradientf3oT8jSuxt)"></use></g><g><g><use xlink:href="#e3WaAQhMn" opacity="1" fill-opacity="0" stroke="#415968" stroke-width="10" stroke-opacity="1"></use></g></g><g><use xlink:href="#dHcx8Lbg5" opacity="1" fill="url(#gradientd267ViSjBo)"></use></g><g><use xlink:href="#nvmqNOAQP" opacity="1" fill="#99b2c0" fill-opacity="1"></use><g><use xlink:href="#nvmqNOAQP" opacity="1" fill-opacity="0" stroke="#415968" stroke-width="4" stroke-opacity="1"></use></g></g><g><use xlink:href="#j1YhfS2smM" opacity="1" fill="#415a68" fill-opacity="1"></use></g><g><use xlink:href="#b5yXbbdr2f" opacity="1" fill="#316bcb" fill-opacity="1"></use><g><use xlink:href="#b5yXbbdr2f" opacity="1" fill-opacity="0" stroke="#415968" stroke-width="2" stroke-opacity="1"></use></g></g><g><use xlink:href="#dcYf6hxcX" opacity="1" fill="#316bcb" fill-opacity="1"></use></g><g><use xlink:href="#ai6h1O3Lx" opacity="1" fill="#698da2" fill-opacity="1"></use><g><use xlink:href="#ai6h1O3Lx" opacity="1" fill-opacity="0" stroke="#415968" stroke-width="2" stroke-opacity="1"></use></g></g><g><use xlink:href="#f77i45rRsK" opacity="1" fill="#4fccbe" fill-opacity="1"></use><g><use xlink:href="#f77i45rRsK" opacity="1" fill-opacity="0" stroke="#415968" stroke-width="2" stroke-opacity="1"></use></g></g><g><use xlink:href="#b2l0x64X8R" opacity="1" fill="#d6e0e5" fill-opacity="1"></use><g><use xlink:href="#b2l0x64X8R" opacity="1" fill-opacity="0" stroke="#415968" stroke-width="2" stroke-opacity="1"></use></g></g><g><use xlink:href="#a7VVcjXAuz" opacity="1" fill="#316bcb" fill-opacity="1"></use><g><use xlink:href="#a7VVcjXAuz" opacity="1" fill-opacity="0" stroke="#415968" stroke-width="3" stroke-opacity="1"></use></g></g><g><use xlink:href="#aeJY9dNk3" opacity="1" fill="#4fccbe" fill-opacity="1"></use><g><use xlink:href="#aeJY9dNk3" opacity="1" fill-opacity="0" stroke="#415968" stroke-width="3" stroke-opacity="1"></use></g></g><g><use xlink:href="#axYo3dOmJ" opacity="1" fill="#ffffff" fill-opacity="1"></use><g><use xlink:href="#axYo3dOmJ" opacity="1" fill-opacity="0" stroke="#415968" stroke-width="3" stroke-opacity="1"></use></g></g><g><use xlink:href="#c16NX5cZhH" opacity="1" fill="#88d4fe" fill-opacity="1"></use><g><use xlink:href="#c16NX5cZhH" opacity="1" fill-opacity="0" stroke="#415968" stroke-width="3" stroke-opacity="1"></use></g></g><g><use xlink:href="#b3mYPa6FAF" opacity="1" fill="#fe8899" fill-opacity="1"></use><g><use xlink:href="#b3mYPa6FAF" opacity="1" fill-opacity="0" stroke="#415968" stroke-width="3" stroke-opacity="1"></use></g></g><g><use xlink:href="#g2i5pE6rcc" opacity="1" fill="#698da2" fill-opacity="1"></use><g><use xlink:href="#g2i5pE6rcc" opacity="1" fill-opacity="0" stroke="#415968" stroke-width="2" stroke-opacity="1"></use></g></g><g><use xlink:href="#a1Hedgar76" opacity="1" fill="#99b2c0" fill-opacity="1"></use><g><use xlink:href="#a1Hedgar76" opacity="1" fill-opacity="0" stroke="#415968" stroke-width="2" stroke-opacity="1"></use></g></g><g><use xlink:href="#awVgg9n2p" opacity="1" fill="#415a68" fill-opacity="1"></use></g><g><use xlink:href="#i9AZF6cCn" opacity="1" fill="#415a68" fill-opacity="1"></use></g><g><use xlink:href="#e22U6TI3Ng" opacity="1" fill="#8899fe" fill-opacity="1"></use><g mask="url(#maskc3BpCFdWTT)"><use xlink:href="#e22U6TI3Ng" opacity="1" fill-opacity="0" stroke="#415968" stroke-width="2" stroke-opacity="1"></use></g></g><g><use xlink:href="#a2laST3puV" opacity="0.8" fill="url(#gradienta34TylaVFp)"></use></g><g><use xlink:href="#c8f3lba9s" opacity="1" fill="#415a68" fill-opacity="1"></use></g><g><use xlink:href="#bEnlPAxUo" opacity="1" fill="#4fccbe" fill-opacity="1"></use><g><use xlink:href="#bEnlPAxUo" opacity="1" fill-opacity="0" stroke="#415968" stroke-width="3" stroke-opacity="1"></use></g></g><g><use xlink:href="#g1kB4deFqu" opacity="1" fill="#316bcb" fill-opacity="1"></use><g><use xlink:href="#g1kB4deFqu" opacity="1" fill-opacity="0" stroke="#415968" stroke-width="3" stroke-opacity="1"></use></g></g><g><use xlink:href="#fhxDkKXSR" opacity="1" fill="#ffffff" fill-opacity="1"></use><g><use xlink:href="#fhxDkKXSR" opacity="1" fill-opacity="0" stroke="#415968" stroke-width="3" stroke-opacity="1"></use></g></g></g></g></svg>